<svg id="Capa_1" enable-background="new 0 0 512 512" height="512" viewBox="0 0 512 512" width="512" xmlns="http://www.w3.org/2000/svg"><g><path d="m386.788 511.997h-341.567c-7.561 0-13.69-6.129-13.69-13.69v-484.617c0-7.561 6.13-13.69 13.69-13.69h341.567c7.561 0 13.69 6.129 13.69 13.69v484.617c0 7.561-6.129 13.69-13.69 13.69z" fill="#738b95"/><path d="m386.788 0h-24.705c7.561 0 13.69 6.129 13.69 13.69v484.617c0 7.561-6.129 13.69-13.69 13.69h24.705c7.561 0 13.69-6.129 13.69-13.69v-484.617c0-7.561-6.129-13.69-13.69-13.69z" fill="#617881"/><g><g><path d="m298.783.003v36.272c0 4.265-3.461 7.726-7.726 7.726s-7.726-3.461-7.726-7.726v-36.272z" fill="#80e29d"/></g><g><path d="m334.005.003v36.272c0 4.265-3.461 7.726-7.726 7.726-4.275 0-7.726-3.461-7.726-7.726v-36.272z" fill="#80e29d"/></g><g><path d="m369.216.003v36.272c0 4.265-3.461 7.726-7.726 7.726s-7.726-3.461-7.726-7.726v-36.272z" fill="#80e29d"/></g></g><g><g><path d="m76.42 475.728v36.272h-15.453v-36.272c0-4.265 3.461-7.726 7.726-7.726 4.265-.001 7.727 3.461 7.727 7.726z" fill="#80e29d"/></g><g><path d="m111.641 475.728v36.272h-15.452v-36.272c0-4.265 3.451-7.726 7.726-7.726 4.265-.001 7.726 3.461 7.726 7.726z" fill="#80e29d"/></g><g><path d="m146.853 475.728v36.272h-15.453v-36.272c0-4.265 3.462-7.726 7.726-7.726 4.276-.001 7.727 3.461 7.727 7.726z" fill="#80e29d"/></g></g><path d="m177.574 72.754h-98.366c-5.244 0-9.495-4.251-9.495-9.495v-17.493c0-5.244 4.251-9.495 9.495-9.495h98.367c5.244 0 9.495 4.251 9.495 9.495v17.493c-.001 5.244-4.252 9.495-9.496 9.495z" fill="#b4d0d5"/><path d="m177.574 36.271h-21.647c5.244 0 9.495 4.251 9.495 9.495v17.493c0 5.244-4.251 9.495-9.495 9.495h21.647c5.244 0 9.495-4.251 9.495-9.495v-17.493c0-5.244-4.251-9.495-9.495-9.495z" fill="#9bb9c1"/><g><path d="m108.941 167.895h-33.553c-2.912 0-5.273-2.361-5.273-5.273v-33.553c0-2.912 2.361-5.273 5.273-5.273h33.553c2.912 0 5.273 2.361 5.273 5.273v33.553c0 2.912-2.361 5.273-5.273 5.273z" fill="#80e29d"/><path d="m356.622 167.895h-185.927c-2.912 0-5.273-2.361-5.273-5.273v-33.553c0-2.912 2.361-5.273 5.273-5.273h185.927c2.912 0 5.273 2.361 5.273 5.273v33.553c-.001 2.912-2.361 5.273-5.273 5.273z" fill="#80e29d"/><path d="m356.622 123.796h-18.822c2.912 0 5.273 2.361 5.273 5.273v33.553c0 2.912-2.361 5.273-5.273 5.273h18.822c2.912 0 5.273-2.361 5.273-5.273v-33.553c-.001-2.912-2.361-5.273-5.273-5.273z" fill="#78d090"/></g><g><path d="m108.941 247.663h-33.553c-2.912 0-5.273-2.361-5.273-5.273v-33.553c0-2.912 2.361-5.273 5.273-5.273h33.553c2.912 0 5.273 2.361 5.273 5.273v33.553c0 2.912-2.361 5.273-5.273 5.273z" fill="#80e29d"/><path d="m356.622 247.663h-185.927c-2.912 0-5.273-2.361-5.273-5.273v-33.553c0-2.912 2.361-5.273 5.273-5.273h185.927c2.912 0 5.273 2.361 5.273 5.273v33.553c-.001 2.912-2.361 5.273-5.273 5.273z" fill="#80e29d"/><path d="m356.622 203.564h-18.822c2.912 0 5.273 2.361 5.273 5.273v33.553c0 2.912-2.361 5.273-5.273 5.273h18.822c2.912 0 5.273-2.361 5.273-5.273v-33.553c-.001-2.912-2.361-5.273-5.273-5.273z" fill="#78d090"/></g><g fill="#80e29d"><path d="m108.941 327.431h-33.553c-2.912 0-5.273-2.361-5.273-5.273v-33.553c0-2.912 2.361-5.273 5.273-5.273h33.553c2.912 0 5.273 2.361 5.273 5.273v33.553c0 2.912-2.361 5.273-5.273 5.273z"/><path d="m356.622 327.431h-185.927c-2.912 0-5.273-2.361-5.273-5.273v-33.553c0-2.912 2.361-5.273 5.273-5.273h185.927c2.912 0 5.273 2.361 5.273 5.273v33.553c-.001 2.912-2.361 5.273-5.273 5.273z"/></g><g fill="#80e29d"><path d="m108.941 407.199h-33.553c-2.912 0-5.273-2.361-5.273-5.273v-33.553c0-2.912 2.361-5.273 5.273-5.273h33.553c2.912 0 5.273 2.361 5.273 5.273v33.553c0 2.912-2.361 5.273-5.273 5.273z"/><path d="m356.622 407.199h-185.927c-2.912 0-5.273-2.361-5.273-5.273v-33.553c0-2.912 2.361-5.273 5.273-5.273h185.927c2.912 0 5.273 2.361 5.273 5.273v33.553c-.001 2.912-2.361 5.273-5.273 5.273z"/></g><g><path d="m403.85 442.747 74.255-53.949c1.485-1.079 2.364-2.804 2.364-4.641v-105.979c0-3.168-2.568-5.736-5.736-5.736h-148.509c-3.168 0-5.736 2.568-5.736 5.736v105.979c0 1.836.879 3.561 2.364 4.641l74.255 53.949c2.01 1.461 4.732 1.461 6.743 0z" fill="#70b9c6"/><path d="m474.733 272.442h-25.057v99.75c0 1.836-.879 3.561-2.364 4.641l-70.464 51.195 20.26 14.72c2.01 1.461 4.733 1.461 6.743 0l74.255-53.949c1.485-1.079 2.365-2.804 2.365-4.641v-105.98c-.002-3.168-2.57-5.736-5.738-5.736z" fill="#61aab7"/><g><g><path d="m417.617 360.575h-34.277c-4.268 0-7.726-3.459-7.726-7.726v-36.926c0-13.71 11.155-24.865 24.865-24.865s24.865 11.155 24.865 24.865v36.926c-.001 4.267-3.46 7.726-7.727 7.726zm-26.552-15.453h18.825v-29.2c0-5.19-4.222-9.412-9.412-9.412s-9.412 4.222-9.412 9.412v29.2z" fill="#617881"/></g><path d="m429.088 390.011h-57.219c-2.344 0-4.244-1.9-4.244-4.244v-43.699c0-2.344 1.9-4.244 4.244-4.244h57.219c2.344 0 4.244 1.9 4.244 4.244v43.699c0 2.344-1.9 4.244-4.244 4.244z" fill="#f6e781"/><path d="m429.088 337.824h-20.599c2.344 0 4.244 1.9 4.244 4.244v43.699c0 2.344-1.9 4.244-4.244 4.244h20.599c2.344 0 4.244-1.9 4.244-4.244v-43.699c0-2.344-1.9-4.244-4.244-4.244z" fill="#f6e266"/></g></g></g></svg>