<?xml version="1.0" encoding="iso-8859-1"?>
<!-- Generator: Adobe Illustrator 19.0.0, SVG Export Plug-In . SVG Version: 6.00 Build 0)  -->
<svg version="1.1" id="Capa_1" xmlns="http://www.w3.org/2000/svg" xmlns:xlink="http://www.w3.org/1999/xlink" x="0px" y="0px"
	 viewBox="0 0 512 512" style="enable-background:new 0 0 512 512;" xml:space="preserve">
<path style="fill:#AFEBD2;" d="M256,0c141.385,0,256,114.615,256,256S397.385,512,256,512S0,397.385,0,256S114.615,0,256,0z"/>
<path style="fill:#C42364;" d="M0.512,240H140v199.793c0,20.335-23.327,31.958-39.474,19.597C39.414,412.607,0,338.908,0,256
	C0,250.625,0.186,245.293,0.512,240z"/>
<path style="fill:#FFF091;" d="M442.856,430.944c-0.944,1.008-1.886,2.019-2.846,3.012c-0.003,0.004-0.007,0.007-0.01,0.011l0,0
	C393.457,482.078,328.227,512,256,512c-57.814,0-111.145-19.173-154-51.495V130c0-11.046,8.954-20,20-20h312.782
	c1.915,0,3.698,0.548,5.218,1.481V90h10.87C488.982,134.697,512,192.657,512,256c0,66.645-25.484,127.326-67.218,172.874v0.022
	c-0.159,0.174-0.325,0.342-0.485,0.516C443.822,429.927,443.336,430.432,442.856,430.944z"/>
<path style="fill:#FFFAD2;" d="M142,90h308.87c4.887,5.732,9.538,11.671,13.912,17.823v296.354C418.386,469.431,342.164,512,256,512
	c-49.13,0-95.021-13.851-134-37.845V110C122,98.954,130.954,90,142,90z"/>
<path style="fill:#FF7251;" d="M350,175H150c-2.762,0-5,2.239-5,5v110c0,2.761,2.238,5,5,5h200c2.762,0,5-2.239,5-5V180
	C355,177.239,352.762,175,350,175z M345,285H155V185h190V285z M170,275h160c2.762,0,5-2.239,5-5v-70c0-2.761-2.238-5-5-5H170
	c-2.762,0-5,2.239-5,5v70C165,272.761,167.238,275,170,275z M175,205h150v60H175V205z M310,222v6c0,1.105-0.896,2-2,2h-61
	c-1.104,0-2-0.895-2-2v-6c0-1.105,0.896-2,2-2h61C309.104,220,310,220.895,310,222z M300,242v6c0,1.105-0.896,2-2,2h-21
	c-1.104,0-2-0.895-2-2v-6c0-1.105,0.896-2,2-2h21C299.104,240,300,240.895,300,242z M265,242v6c0,1.105-0.896,2-2,2h-16
	c-1.104,0-2-0.895-2-2v-6c0-1.105,0.896-2,2-2h16C264.104,240,265,240.895,265,242z M230,235c0,11.046-8.954,20-20,20
	s-20-8.954-20-20s8.954-20,20-20S230,223.954,230,235z"/>
<path style="fill:#E3B954;" d="M335,315c-44.112,0-80,35.888-80,80s35.888,80,80,80s80-35.888,80-80S379.112,315,335,315z M335,465
	c-36.915,0-67.227-28.729-69.802-65H290c2.762,0,5-2.239,5-5s-2.238-5-5-5h-24.802c2.575-36.271,32.887-65,69.802-65
	s67.227,28.729,69.802,65H380c-2.762,0-5,2.239-5,5s2.238,5,5,5h24.802C402.227,436.271,371.915,465,335,465z M335,360
	c19.33,0,35,15.67,35,35s-15.67,35-35,35s-35-15.67-35-35S315.67,360,335,360z M288.424,376.82
	c-1.006,2.572-3.907,3.841-6.477,2.838c-2.572-1.005-3.843-3.905-2.838-6.477C288.172,349.987,310.11,335,335,335
	s46.828,14.987,55.891,38.18c1.005,2.572-0.266,5.472-2.838,6.477c-0.598,0.233-1.213,0.344-1.818,0.344
	c-1.999,0-3.887-1.208-4.658-3.182C374.023,357.49,355.741,345,335,345S295.977,357.49,288.424,376.82z M381.576,413.18
	c1.005-2.572,3.905-3.842,6.477-2.838c2.572,1.005,3.843,3.905,2.838,6.477C381.828,440.013,359.89,455,335,455
	s-46.828-14.987-55.891-38.18c-1.005-2.572,0.266-5.472,2.838-6.477c2.57-1.004,5.472,0.265,6.477,2.838
	C295.977,432.51,314.259,445,335,445S374.023,432.51,381.576,413.18z"/>
<path style="fill:#D6A74F;" d="M479.052,94.82C440,133.872,376.814,169.357,359.728,152.272
	C342.643,135.186,378.128,72,417.18,32.948s66.884-39.183,83.969-22.097C518.235,27.936,518.105,55.767,479.052,94.82z"/>
<path style="fill:#C78B00;" d="M420.716,170.833l-30.052,30.052c-3.905,3.905-10.237,3.905-14.142,0l-65.407-65.407
	c-3.905-3.905-3.905-10.237,0-14.142l30.052-30.052c3.905-3.905,10.237-3.905,14.142,0l65.407,65.407
	C424.621,160.597,424.621,166.928,420.716,170.833z"/>
<path style="fill:#CD2D23;" d="M425.135,228.286l-30.052,30.052c-3.905,3.905-10.237,3.905-14.142,0L253.662,131.059
	c-3.905-3.905-3.905-10.237,0-14.142l30.052-30.052c3.905-3.905,10.237-3.905,14.142,0l127.279,127.279
	C429.041,218.049,429.041,224.381,425.135,228.286z"/>
<path style="fill:#D6A74F;" d="M448.116,233.589l-30.052,30.052c-3.905,3.905-10.237,3.905-14.142,0L248.359,108.078
	c-3.905-3.905-3.905-10.237,0-14.142l30.052-30.052c3.905-3.905,10.237-3.905,14.142,0l155.564,155.563
	C452.022,223.352,452.022,229.684,448.116,233.589z"/>
<g>
</g>
<g>
</g>
<g>
</g>
<g>
</g>
<g>
</g>
<g>
</g>
<g>
</g>
<g>
</g>
<g>
</g>
<g>
</g>
<g>
</g>
<g>
</g>
<g>
</g>
<g>
</g>
<g>
</g>
</svg>
