<svg id="Layer_1" enable-background="new 0 0 512 512" height="512" viewBox="0 0 512 512" width="512" xmlns="http://www.w3.org/2000/svg"><g><g><g><g><g><g><path d="m512 512h-512v-331.707h512z" fill="#00aa8e"/></g></g></g></g></g><g><g><g><g><g><path d="m512 512h-256v-331.707h256z" fill="#008475"/></g></g></g></g></g><path d="m30 210.293h452v271.707h-452z" fill="#b0eeae"/><path d="m256 210.293h226v271.707h-226z" fill="#00dc7b"/><path d="m482 331.146h-66.4v-120.853h-30v120.854h-121.384l-41.416-64.81v-56.043h-30v45.427h-66.4v-45.427h-30v45.427h-66.4v30h66.4v196.279h30v-46.055h114.6v46.055h30v-46.055h114.6v46.055h30v-120.854h66.4zm-355.6 74.799v-120.225h73.184l41.416 64.81v55.415zm259.2 0h-114.6v-44.798h114.6z" fill="#e7f2ff"/><g><path d="m415.6 331.146v-120.853h-30v120.854h-121.384l-8.216-12.858v163.711h15v-46.055h114.6v46.055h30v-120.854h66.4v-30zm-30 74.799h-114.6v-44.798h114.6z" fill="#d0e8ff"/></g><g><path d="m403.462 199.788-82.766 82.719-82.766-82.719c-21.96-21.947-34.297-51.721-34.297-82.768 0-64.629 52.391-117.02 117.019-117.02h.088c64.628 0 117.02 52.391 117.02 117.019 0 31.047-12.338 60.821-34.298 82.769z" fill="#ff4949"/></g><g><path d="m320.74 0h-.088l.044 282.507 82.766-82.719c21.96-21.947 34.297-51.721 34.297-82.768.001-64.629-52.391-117.02-117.019-117.02z" fill="#ff001e"/></g><g><circle cx="320.696" cy="117.019" fill="#f3d6ae" r="49.935"/></g><g><path d="m320.696 67.084v99.87c27.534 0 49.934-22.401 49.934-49.935.001-27.534-22.4-49.935-49.934-49.935z" fill="#ffc373"/></g></g></svg>