<svg id="Capa_1" enable-background="new 0 0 512 512" height="512" viewBox="0 0 512 512" width="512" xmlns="http://www.w3.org/2000/svg"><g><path d="m303.845 77.228c-4.33 0-7.839-3.509-7.839-7.838v-37.942c0-4.329 3.509-7.838 7.839-7.838s7.838 3.509 7.838 7.838v37.942c0 4.328-3.509 7.838-7.838 7.838z" fill="#e175a5"/><path d="m434.199 236.519h-244.437l7.247-130.225c1.229-22.086-15.246-41.181-37.273-43.202l-9.638-.884c-10.555-.968-19.937 6.707-21.079 17.245l-26.155 241.359c-1.07 9.876-5.445 19.102-12.414 26.181l-61.522 63.235c-1.993 2.049-1.971 5.318.05 7.339l92.903 92.903c2.056 2.056 5.396 2.038 7.43-.04l111.965-114.395c4.512-4.524 10.802-6.793 17.162-6.186 24.614 2.35 87.877 7.664 111.646 2.749 16.502-3.412 61.022-28.626 61.022-28.626z" fill="#ffcdbe"/><path d="m414.532 236.519-2.502 103.112s-44.52 25.214-61.022 28.627c-23.769 4.915-87.032-.399-111.646-2.749-6.36-.607-12.651 1.662-17.162 6.186l-120.381 118.711 20.063 20.063c2.056 2.056 5.396 2.038 7.43-.04l111.965-114.395c4.512-4.524 10.802-6.793 17.162-6.186 24.614 2.35 87.877 7.664 111.646 2.749 16.501-3.412 61.022-28.626 61.022-28.626l3.092-127.452z" fill="#ebae9d"/><ellipse cx="303.848" cy="210.094" fill="#80b6fc" rx="150.953" ry="150.954" transform="matrix(.003 -1 1 .003 93.001 513.42)"/><path d="m311.217 59.323c62.204 18.651 107.535 76.329 107.535 144.604 0 83.369-67.584 150.953-150.954 150.953-2.471 0-4.927-.064-7.369-.181 13.752 4.124 28.324 6.349 43.419 6.349 83.37 0 150.954-67.584 150.954-150.953 0-80.898-63.638-146.929-143.585-150.772z" fill="#5392f9"/><circle cx="303.848" cy="210.094" fill="#efedef" r="106.746"/><g fill="#ffcdbe"><path d="m442.528 129.015h-30.54c-17.038 0-30.85 13.812-30.85 30.849 0 17.038 13.812 30.85 30.85 30.85h30.54c17.038 0 30.849-13.812 30.849-30.85 0-17.037-13.812-30.849-30.849-30.849z"/><path d="m453.702 190.714h-30.54c-17.038 0-30.85 13.812-30.85 30.85s13.812 30.85 30.85 30.85h30.54c17.038 0 30.849-13.812 30.849-30.85s-13.812-30.85-30.849-30.85z"/><path d="m443.058 252.413h-30.54c-17.038 0-30.85 13.812-30.85 30.849 0 17.038 13.812 30.85 30.85 30.85h30.54c17.038 0 30.849-13.812 30.849-30.85 0-17.037-13.812-30.849-30.849-30.849z"/><path d="m427.99 314.112h-28.339c-15.81 0-28.627 12.817-28.627 28.626 0 15.81 12.817 28.627 28.627 28.627h28.339c15.81 0 28.626-12.816 28.626-28.627 0-15.809-12.816-28.626-28.626-28.626z"/></g><path d="m442.528 129.015h-27.935c17.038 0 30.849 13.812 30.849 30.85s-13.812 30.85-30.849 30.85h27.935c17.038 0 30.849-13.812 30.849-30.85s-13.812-30.85-30.849-30.85z" fill="#ebae9d"/><path d="m453.702 190.714h-27.935c17.038 0 30.849 13.812 30.849 30.849 0 17.038-13.812 30.85-30.849 30.85h27.935c17.038 0 30.849-13.812 30.849-30.85 0-17.037-13.812-30.849-30.849-30.849z" fill="#ebae9d"/><path d="m443.058 252.413h-27.935c17.038 0 30.849 13.812 30.849 30.85s-13.812 30.85-30.849 30.85h27.935c17.038 0 30.849-13.812 30.849-30.85s-13.812-30.85-30.849-30.85z" fill="#ebae9d"/><path d="m427.99 314.112h-27.935c15.81 0 28.626 12.817 28.626 28.626 0 15.81-12.816 28.627-28.626 28.627h27.935c15.81 0 28.626-12.816 28.626-28.627 0-15.81-12.816-28.626-28.626-28.626z" fill="#ebae9d"/><path d="m303.848 199.603c-4.33 0-7.839-3.509-7.839-7.838v-29.376c0-4.329 3.509-7.838 7.839-7.838s7.838 3.509 7.838 7.838v29.376c0 4.329-3.509 7.838-7.838 7.838z" fill="#5766cc"/><path d="m293.829 202.589c-2.559 0-5.067-1.251-6.571-3.554l-29.724-45.526c-2.366-3.625-1.346-8.482 2.278-10.848 3.625-2.367 8.483-1.348 10.849 2.278l29.724 45.526c2.367 3.625 1.346 8.482-2.278 10.848-1.322.863-2.808 1.276-4.278 1.276z" fill="#5ea570"/><path d="m337.499 36.678h-67.302c-6.719 0-12.165-5.447-12.165-12.165v-12.348c0-6.718 5.447-12.165 12.165-12.165h67.302c6.719 0 12.165 5.447 12.165 12.165v12.347c0 6.719-5.446 12.166-12.165 12.166z" fill="#5766cc"/><circle cx="303.848" cy="210.094" fill="#e175a5" r="21.312"/></g></svg>