<svg id="Layer_3" enable-background="new 0 0 64 64" height="512" viewBox="0 0 64 64" width="512" xmlns="http://www.w3.org/2000/svg"><g><path d="m42 28h-38c-1.105 0-2 .895-2 2v22c0 1.105.895 2 2 2h38c1.105 0 2-.895 2-2v-22c0-1.105-.895-2-2-2z" fill="#2862be"/><path d="m5 31h36v20h-36z" fill="#e2e7f6"/><path d="m5 31v16h26c1.105 0 2-.895 2-2v-14z" fill="#fff"/><path d="m25 34.349v-10.349l-2-2-2 2v10.349c-2.329.825-4 3.04-4 5.651 0 3.314 2.686 6 6 6s6-2.686 6-6c0-2.611-1.671-4.827-4-5.651z" fill="#b5b5b5"/><path d="m48 2-.728.728c-3.376 3.376-7.954 5.272-12.728 5.272h-.544v9.766c0 5.167 2.495 10.016 6.7 13.02l7.3 5.214 7.3-5.214c4.205-3.003 6.7-7.853 6.7-13.02v-9.766h-.544c-4.774 0-9.352-1.896-12.728-5.272z" fill="#f4a93c"/><path d="m48.728 2.728-.728-.728-.728.728c-3.376 3.376-7.954 5.272-12.728 5.272h-.544v9.766c0 3.783 1.342 7.391 3.708 10.234h15.292c1.105 0 2-.895 2-2v-19.215c-2.329-.896-4.474-2.259-6.272-4.057z" fill="#f6b940"/><path d="m42 18h12v8h-12z" fill="#2458ad"/><path d="m42 18v5.723c.295.171.634.277 1 .277h7c1.105 0 2-.895 2-2v-4z" fill="#2862be"/><path d="m33 58h-20c-1.105 0-2 .895-2 2v2h24v-2c0-1.105-.895-2-2-2z" fill="#3279ea"/><path d="m29 58-4-4h-4l-4 4" fill="#2862be"/><g><path d="m22 41h2v2h-2z" fill="#fff"/></g><g><path d="m53 18h-2v-4c0-1.654-1.346-3-3-3s-3 1.346-3 3v4h-2v-4c0-2.757 2.243-5 5-5s5 2.243 5 5z" fill="#939393"/></g><g><path d="m47 21h2v2h-2z" fill="#fff"/></g><g><path d="m22 17h2v2h-2z" fill="#2862be"/></g><g><path d="m22 13h2v2h-2z" fill="#2862be"/></g><g><path d="m26 13h2v2h-2z" fill="#2862be"/></g><g><path d="m30 13h2v2h-2z" fill="#2862be"/></g><g><path d="m37 13h2v2h-2z" fill="#2862be"/></g><path d="m23 22-2 2v10.349c-2.329.825-4 3.04-4 5.651 0 .341.035.674.09 1h3.91c1.105 0 2-.895 2-2z" fill="#ccc"/><path d="m22 57h6l-3-3h-4v2c0 .552.448 1 1 1z" fill="#3279ea"/><path d="m32 62v-1c0-.552-.448-1-1-1h-16.477c-.552 0-1 .448-1 1v1z" fill="#2862be"/><path d="m48 10c-2.209 0-4 1.791-4 4v2h1v-2c0-1.654 1.346-3 3-3s3 1.346 3 3v2h1v-2c0-2.209-1.791-4-4-4z" fill="#706f73"/></g></svg>