<svg id="Layer_1" enable-background="new 0 0 512 512" height="512" viewBox="0 0 512 512" width="512" xmlns="http://www.w3.org/2000/svg"><g><g><path d="m28 304c-4.418 0-8-3.582-8-8v-20c0-37.495 30.505-68 68-68h28c4.418 0 8 3.582 8 8s-3.582 8-8 8h-28c-28.673 0-52 23.327-52 52v20c0 4.418-3.582 8-8 8z" fill="#46508c"/></g><g><g><path d="m156 136h192v288h-192z" fill="#46508c" transform="matrix(0 1 -1 0 532 28)"/></g><g><path d="m156 344h-48c-8.837 0-16 7.163-16 16v16h80v-16c0-8.837-7.163-16-16-16z" fill="#73cddc"/></g><g><path d="m276 344h-48c-8.837 0-16 7.163-16 16v16h80v-16c0-8.837-7.163-16-16-16z" fill="#73cddc"/></g><g><path d="m396 344h-48c-8.837 0-16 7.163-16 16v16h80v-16c0-8.837-7.163-16-16-16z" fill="#73cddc"/></g><g><path d="m92 376h320v32h-320z" fill="#5f78be"/></g><g><path d="m68 256h128v48h-128z" fill="#5f78be" transform="matrix(0 1 -1 0 412 148)"/></g><g><path d="m188 256h128v48h-128z" fill="#5f78be" transform="matrix(0 1 -1 0 532 28)"/></g><g><path d="m308 256h128v48h-128z" fill="#5f78be" transform="matrix(0 1 -1 0 652 -92)"/></g><g><path d="m252 40c-10.433 0-20.632 3.088-29.313 8.875l-123.562 82.375c-4.451 2.968-7.125 7.963-7.125 13.313v39.437h320v-39.437c0-5.35-2.674-10.345-7.125-13.313l-123.562-82.375c-8.681-5.787-18.88-8.875-29.313-8.875z" fill="#73cddc"/></g><g><path d="m238.794 67.971-88.461 58.486c-1.457.963-2.333 2.593-2.333 4.34 0 2.873 2.329 5.203 5.203 5.203h197.594c2.873 0 5.203-2.329 5.203-5.203 0-1.747-.876-3.377-2.333-4.34l-88.461-58.486c-3.917-2.59-8.51-3.971-13.206-3.971-4.696 0-9.289 1.381-13.206 3.971z" fill="#5f78be"/></g><g><path d="m156 216h-48c-8.837 0-16-7.163-16-16v-16h80v16c0 8.837-7.163 16-16 16z" fill="#5f78be"/></g><g><path d="m276 216h-48c-8.837 0-16-7.163-16-16v-16h80v16c0 8.837-7.163 16-16 16z" fill="#5f78be"/></g><g><path d="m396 216h-48c-8.837 0-16-7.163-16-16v-16h80v16c0 8.837-7.163 16-16 16z" fill="#5f78be"/></g><g><path d="m132 344h-24v-112h8c8.837 0 16 7.163 16 16z" fill="#73cddc"/></g><g><path d="m252 344h-24v-112h8c8.837 0 16 7.163 16 16z" fill="#73cddc"/></g><g><path d="m372 344h-24v-112h8c8.837 0 16 7.163 16 16z" fill="#73cddc"/></g></g><g><path d="m258.224 472h217.776c8.837 0 16-7.163 16-16v-160c0-8.837-7.163-16-16-16h-217.776c-4.003 0-7.861 1.501-10.812 4.206l-85.515 78.389c-3.758 3.444-5.897 8.307-5.897 13.405 0 5.098 2.139 9.961 5.897 13.406l85.515 78.389c2.951 2.704 6.809 4.205 10.812 4.205z" fill="#f06423"/></g><g><path d="m258.224 472h185.776c8.837 0 16-7.163 16-16v-160c0-8.837-7.163-16-16-16h-185.776c-4.003 0-7.861 1.501-10.812 4.206l-85.515 78.389c-3.758 3.444-5.897 8.307-5.897 13.405 0 5.098 2.139 9.961 5.897 13.406l85.515 78.389c2.951 2.704 6.809 4.205 10.812 4.205z" fill="#faa51e"/></g><g><circle cx="204" cy="376" fill="#f06423" r="21.333"/></g><path d="m375.681 358.92c4.418 0 8-3.582 8-8v-1.538c0-16.797-13.665-30.462-30.462-30.462h-1.538v-16c0-4.418-3.582-8-8-8s-8 3.582-8 8v16h-1.538c-16.797 0-30.462 13.665-30.462 30.462 0 14.004 9.488 26.156 23.074 29.553l29.972 7.493c6.449 1.612 10.954 7.382 10.954 14.03 0 7.975-6.487 14.462-14.462 14.462h-19.076c-7.975 0-14.462-6.488-14.462-14.462v-1.538c0-4.418-3.582-8-8-8s-8 3.582-8 8v1.538c0 16.797 13.665 30.462 30.462 30.462h1.538v16c0 4.418 3.582 8 8 8s8-3.582 8-8v-16h1.538c16.797 0 30.462-13.666 30.462-30.462 0-14.003-9.488-26.156-23.073-29.553l-29.972-7.493c-6.45-1.612-10.955-7.382-10.955-14.03 0-7.974 6.487-14.462 14.462-14.462h19.076c7.975 0 14.462 6.488 14.462 14.462v1.538c0 4.419 3.582 8 8 8z" fill="#46508c"/><g><path d="m204 384h-116c-37.495 0-68-30.505-68-68v-20c0-4.418 3.582-8 8-8s8 3.582 8 8v20c0 28.673 23.327 52 52 52h116c4.418 0 8 3.582 8 8s-3.582 8-8 8z" fill="#46508c"/></g></g></svg>