<svg height="512" viewBox="0 0 512 512" width="512" xmlns="http://www.w3.org/2000/svg"><g id="flat"><rect fill="#ea9d2d" height="400" rx="26" width="256" x="224" y="56"/><g fill="#d18d28"><circle cx="280" cy="264" r="24"/><circle cx="352" cy="264" r="24"/><circle cx="424" cy="264" r="24"/><circle cx="352" cy="336" r="24"/><circle cx="424" cy="336" r="24"/><circle cx="352" cy="408" r="24"/><circle cx="424" cy="408" r="24"/></g><path d="m256 88h192v112h-192z" fill="#92d1f7"/><path d="m256 96h184v104h-184z" fill="#a6deff"/><circle cx="280" cy="256" fill="#ffc864" r="24"/><circle cx="352" cy="256" fill="#ffc864" r="24"/><circle cx="424" cy="256" fill="#ffc864" r="24"/><circle cx="280" cy="328" fill="none" r="24" stroke="#000" stroke-linecap="round" stroke-linejoin="round" stroke-width="16"/><circle cx="352" cy="328" fill="#ffc864" r="24"/><circle cx="424" cy="328" fill="#ffc864" r="24"/><circle cx="280" cy="400" fill="none" r="24" stroke="#000" stroke-linecap="round" stroke-linejoin="round" stroke-width="16"/><circle cx="352" cy="400" fill="#ffc864" r="24"/><circle cx="424" cy="400" fill="#ffc864" r="24"/><path d="m336 176a8 8 0 0 1 -5.657-13.657l48-48a8 8 0 0 1 11.314 11.314l-48 48a7.974 7.974 0 0 1 -5.657 2.343z" fill="#5ebef7"/><circle cx="334" cy="126" fill="#5ebef7" r="14"/><circle cx="386" cy="162" fill="#5ebef7" r="14"/><rect fill="#79a73a" height="176" rx="10" width="304" x="40" y="280"/><path d="m288 424h-192a24 24 0 0 0 -24-24v-64a24 24 0 0 0 24-24h192a24 24 0 0 0 24 24v64a24 24 0 0 0 -24 24z" fill="#aac16b"/><circle cx="192" cy="368" fill="#79a73a" r="56"/><circle cx="104" cy="368" fill="#79a73a" r="8"/><circle cx="280" cy="366.028" fill="#79a73a" r="8"/><path d="m168 280h48v176h-48z" fill="#92d1f7"/><path d="m168 280h48v16h-48z" fill="#a6deff"/></g></svg>