<svg height="480pt" viewBox="0 0 480 479" width="480pt" xmlns="http://www.w3.org/2000/svg"><path d="m432 288.496094 32.585938 39.097656c4.789062 5.75 7.414062 13 7.414062 20.488281v132.414063h-40zm0 0" fill="#fec9a3"/><path d="m432 189.296875c0-11.488281-9.3125-20.800781-20.800781-20.800781h-134.398438c-11.488281 0-20.800781 9.3125-20.800781 20.800781v19.199219h176zm0 0" fill="#e0e0de"/><path d="m256 208.496094h176v224h-176zm0 0" fill="#4db7e5"/><path d="m256 412.496094v20h176v-196zm0 0" fill="#48add9"/><path d="m256 432.496094v19.203125c0 11.484375 9.3125 20.796875 20.800781 20.796875h134.398438c11.488281 0 20.800781-9.3125 20.800781-20.796875v-19.203125zm0 0" fill="#e0e0de"/><path d="m304 240.496094h80c8.835938 0 16 7.164062 16 16v128c0 8.839844-7.164062 16-16 16h-80c-8.835938 0-16-7.160156-16-16v-128c0-8.835938 7.164062-16 16-16zm0 0" fill="#348fd9"/><path d="m312 352.496094h16v24h-16zm0 0" fill="#62a9e6"/><path d="m392 312.496094c-8.835938-8.835938-23.164062-8.835938-32 0-8.835938 8.839844-8.835938 23.164062 0 32l48 48-.71875 1.210937c-14.289062 23.800781-14.011719 53.609375.71875 77.144531v9.644532h40v-112zm0 0" fill="#fec9a3"/><path d="m200 72.496094h-192v-32l96-32 96 32zm0 0" fill="#ffb531"/><path d="m96 32.496094h16v16h-16zm0 0" fill="#e8770c"/><path d="m8 144.496094h192v32h-192zm0 0" fill="#ffb531"/><path d="m24 72.496094h32v72h-32zm0 0" fill="#ffa912"/><path d="m88 72.496094h32v72h-32zm0 0" fill="#ffa912"/><path d="m152 72.496094h32v72h-32zm0 0" fill="#ffa912"/><path d="m24 72.496094h32v16h-32zm0 0" fill="#e8770c"/><path d="m88 72.496094h32v16h-32zm0 0" fill="#e8770c"/><path d="m152 72.496094h32v16h-32zm0 0" fill="#e8770c"/><g fill="#60d1e0"><path d="m96 200.496094h16v16h-16zm0 0"/><path d="m96 232.496094h16v16h-16zm0 0"/><path d="m96 264.496094h16v16h-16zm0 0"/><path d="m240 96.496094h16v16h-16zm0 0"/><path d="m208 96.496094h16v16h-16zm0 0"/><path d="m272 96.496094h16v16h-16zm0 0"/><path d="m304 96.496094h16v16h-16zm0 0"/><path d="m336 96.496094h16v16h-16zm0 0"/><path d="m336 128.496094h16v16h-16zm0 0"/></g><path d="m8 344.496094h192v128h-192zm0 0" fill="#348fd9"/><path d="m56 344.496094h-48l16-40h40zm0 0" fill="#e94f4f"/><path d="m152 344.496094h-48v-40h40zm0 0" fill="#e94f4f"/><path d="m104 344.496094h-48l8-40h40zm0 0" fill="#e0e0de"/><path d="m200 344.496094h-48l-8-40h40zm0 0" fill="#e0e0de"/><path d="m8 344.496094h48v8c0 13.257812-10.746094 24-24 24s-24-10.742188-24-24zm0 0" fill="#e04646"/><path d="m104 344.496094h48v8c0 13.257812-10.746094 24-24 24s-24-10.742188-24-24zm0 0" fill="#e04646"/><path d="m56 344.496094h48v8c0 13.257812-10.746094 24-24 24s-24-10.742188-24-24zm0 0" fill="#c2c2c0"/><path d="m152 344.496094h48v8c0 13.257812-10.746094 24-24 24s-24-10.742188-24-24zm0 0" fill="#c2c2c0"/><path d="m40 408.496094h56v32h-56zm0 0" fill="#60d1e0"/><path d="m128 408.496094h40v64h-40zm0 0" fill="#60d1e0"/><path d="m40 408.496094h56v16h-56zm0 0" fill="#5ac6d4"/><path d="m128 408.496094h40v16h-40zm0 0" fill="#5ac6d4"/><path d="m8 480.496094h192c4.417969 0 8-3.578125 8-8v-128c0-.109375-.054688-.199219-.0625-.300782-.011719-.910156-.183594-1.8125-.503906-2.664062l-.058594-.144531-15.933594-39.847657c-1.214844-3.046874-4.164062-5.042968-7.441406-5.042968h-160c-3.273438 0-6.21875 1.992187-7.433594 5.035156l-15.933594 39.847656-.058593.144532c-.320313.847656-.4882815 1.746093-.5039065 2.65625 0 .109374-.0625.199218-.0625.308593v128.007813c0 4.417968 3.5781255 7.996094 7.9921875 8zm128-16v-48h24v48zm40 0v-56c0-4.417969-3.582031-8-8-8h-40c-4.417969 0-8 3.582031-8 8v56h-104v-84.445313c13.15625 7.871094 30.074219 5.074219 40-6.609375 6 7.015625 14.769531 11.058594 24 11.058594s18-4.042969 24-11.058594c6 7.015625 14.769531 11.058594 24 11.058594s18-4.042969 24-11.058594c9.925781 11.683594 26.84375 14.480469 40 6.609375v84.445313zm-64-152h25.441406l4.796875 24h-30.238281zm32 40c0 8.839844-7.164062 16-16 16s-16-7.160156-16-16zm48 0c0 8.839844-7.164062 16-16 16s-16-7.160156-16-16zm-176 0h32c0 8.839844-7.164062 16-16 16s-16-7.160156-16-16zm48 0h32c0 8.839844-7.164062 16-16 16s-16-7.160156-16-16zm114.585938-40 9.597656 24h-29.597656l-4.800782-24zm-82.585938 24h-30.238281l4.796875-24h25.441406zm-66.585938-24h24.800782l-4.800782 24h-29.597656zm0 0"/><path d="m96 400.496094h-56c-4.417969 0-8 3.582031-8 8v32c0 4.421875 3.582031 8 8 8h56c4.417969 0 8-3.578125 8-8v-32c0-4.417969-3.582031-8-8-8zm-8 32h-40v-16h40zm0 0"/><path d="m440 285.59375v-96.296875c0-15.90625-12.894531-28.800781-28.800781-28.800781h-134.398438c-15.90625 0-28.800781 12.894531-28.800781 28.800781v262.402344c0 15.90625 12.894531 28.796875 28.800781 28.796875h139.199219v-9.644532c0-1.5-.421875-2.96875-1.214844-4.242187-13.203125-20.96875-13.449218-47.589844-.632812-68.800781l.710937-1.199219c1.882813-3.144531 1.382813-7.167969-1.207031-9.757813l-48-48c-5.503906-5.75-5.40625-14.84375.21875-20.46875 5.628906-5.628906 14.722656-5.726562 20.46875-.222656l56 56 11.3125-11.308594-13.65625-13.664062v-38.59375l18.398438 22.121094c3.605468 4.3125 5.585937 9.746094 5.601562 15.367187v132.414063h16v-132.414063c-.007812-9.351562-3.285156-18.40625-9.265625-25.601562zm-163.199219-109.097656h134.398438c7.070312 0 12.800781 5.734375 12.800781 12.800781v11.199219h-160v-11.199219c0-7.066406 5.730469-12.800781 12.800781-12.800781zm-12.800781 275.203125v-11.203125h125.3125c.875 8.28125 3.019531 16.375 6.351562 24h-118.863281c-7.070312 0-12.800781-5.730469-12.800781-12.796875zm90.34375-144.855469c-11.945312 11.964844-11.945312 31.34375 0 43.308594l5.65625 5.65625v36.6875h-56c-4.417969 0-8-3.578125-8-8v-128c0-4.417969 3.582031-8 8-8h56v53.976562c-2.050781 1.230469-3.949219 2.695313-5.65625 4.371094zm21.65625 64.964844 15.441406 15.441406c-1.132812 3.136719-4.105468 5.234375-7.441406 5.246094h-8zm0-73.917969v-49.394531h8c4.417969 0 8 3.582031 8 8v45.976562c-4.808594-2.976562-10.34375-4.5625-16-4.582031zm32 19.296875v-60.691406c0-13.253906-10.746094-24-24-24h-80c-13.253906 0-24 10.746094-24 24v128c0 13.257812 10.746094 24 24 24h80c3-.011719 5.972656-.59375 8.761719-1.710938-1.890625 5.746094-3.128907 11.6875-3.691407 17.710938h-125.070312v-208h160v116.691406zm0 0"/><path d="m312 352.496094h16v24h-16zm0 0"/><path d="m96 32.496094h16v16h-16zm0 0"/><path d="m8 184.496094h192c4.417969 0 8-3.578125 8-8v-32c0-4.417969-3.582031-8-8-8h-8v-56h8c4.417969 0 8-3.578125 8-8v-32c-.003906-3.441406-2.207031-6.496094-5.472656-7.582032l-96-32c-1.640625-.550781-3.414063-.550781-5.054688 0l-96 32c-3.265625 1.085938-5.46874975 4.140626-5.472656 7.582032v32c0 4.421875 3.582031 8 8 8h8v56h-8c-4.417969 0-8 3.582031-8 8v32c0 4.421875 3.582031 8 8 8zm168-48h-16v-56h16zm-48 0v-56h16v56zm-64 0v-56h16v56zm32-56h16v56h-16zm-80-34.230469 88-29.335937 88 29.335937v18.230469h-176zm16 34.230469h16v56h-16zm-16 72h176v16h-176zm0 0"/><path d="m96 200.496094h16v16h-16zm0 0"/><path d="m96 232.496094h16v16h-16zm0 0"/><path d="m96 264.496094h16v16h-16zm0 0"/><path d="m240 96.496094h16v16h-16zm0 0"/><path d="m208 96.496094h16v16h-16zm0 0"/><path d="m272 96.496094h16v16h-16zm0 0"/><path d="m304 96.496094h16v16h-16zm0 0"/><path d="m336 96.496094h16v16h-16zm0 0"/><path d="m336 128.496094h16v16h-16zm0 0"/></svg>