<svg height="480pt" viewBox="0 0 480 480" width="480pt" xmlns="http://www.w3.org/2000/svg"><path d="m136 328h48v144h-48zm0 0" fill="#ab2300"/><path d="m48 376h48v96h-48zm0 0" fill="#00b6bd"/><path d="m216 264h48v208h-48zm0 0" fill="#ffcd00"/><path d="m304 200h48v272h-48zm0 0" fill="#1a6fb0"/><path d="m392 120h48v352h-48zm0 0" fill="#5eac24"/><path d="m168 232c.03125-7.347656-4.941406-13.773438-12.066406-15.582031-7.121094-1.804688-14.558594 1.472656-18.03125 7.945312-3.476563 6.476563-2.089844 14.484375 3.355468 19.421875 4.660157 4.292969 11.425782 5.417969 17.226563 2.859375 5.800781-2.554687 9.539063-8.304687 9.515625-14.644531zm0 0" fill="#ab2300"/><path d="m240 152c-7.636719-.0625-14.269531 5.242188-15.890625 12.707031-1.621094 7.460938 2.21875 15.039063 9.191406 18.148438 6.976563 3.113281 15.175781.90625 19.644531-5.289063 4.472657-6.191406 3.988282-14.667968-1.160156-20.308594-3.007812-3.339843-7.289062-5.25-11.785156-5.257812zm0 0" fill="#ffcd00"/><path d="m328 104c7.636719.0625 14.269531-5.242188 15.890625-12.707031 1.621094-7.460938-2.21875-15.039063-9.191406-18.148438-6.976563-3.113281-15.175781-.90625-19.644531 5.289063-4.472657 6.191406-3.988282 14.667968 1.160156 20.308594 3.007812 3.339843 7.289062 5.25 11.785156 5.257812zm0 0" fill="#1a6fb0"/><path d="m432 24c0 8.835938-7.164062 16-16 16s-16-7.164062-16-16 7.164062-16 16-16 16 7.164062 16 16zm0 0" fill="#5eac24"/><path d="m56 320c-.03125 7.347656 4.941406 13.773438 12.066406 15.582031 7.121094 1.804688 14.558594-1.472656 18.03125-7.945312 3.476563-6.476563 2.089844-14.484375-3.355468-19.421875-4.660157-4.292969-11.425782-5.417969-17.226563-2.859375-5.800781 2.554687-9.539063 8.304687-9.515625 14.644531zm0 0" fill="#00b6bd"/><path d="m16 464v-464h-16v480h480v-16zm0 0" fill="#003f8a"/><path d="m416 0c-13.253906 0-24 10.746094-24 24 .03125 2.300781.402344 4.582031 1.097656 6.777344l-51.496094 37.453125c-8.78125-6.003907-20.46875-5.515625-28.714843 1.203125-8.246094 6.71875-11.085938 18.066406-6.976563 27.878906l-54.621094 49.597656c-3.460937-1.894531-7.34375-2.898437-11.289062-2.910156-13.253906 0-24 10.746094-24 24 .03125 2.300781.402344 4.582031 1.097656 6.777344l-51.496094 37.496094c-9.078124-6.402344-21.371093-5.691407-29.652343 1.707031-8.28125 7.402343-10.363281 19.539062-5.019531 29.277343l-49.601563 54.628907c-11.003906-4.847657-23.902344-1.035157-30.5 9.019531s-4.960937 23.40625 3.871094 31.570312c8.832031 8.164063 22.269531 8.746094 31.773437 1.382813 9.507813-7.367187 12.296875-20.523437 6.597656-31.117187l49.601563-54.628907c8.519531 3.734375 18.4375 2.15625 25.375-4.042969 6.941406-6.195312 9.625-15.871093 6.875-24.757812l51.511719-37.503906c8.78125 6.007812 20.46875 5.515625 28.714844-1.210938 8.246093-6.722656 11.082031-18.074218 6.964843-27.886718l54.621094-49.597657c3.457031 1.882813 7.328125 2.875 11.265625 2.886719 13.253906 0 24-10.746094 24-24-.03125-2.300781-.402344-4.582031-1.097656-6.777344l51.496094-37.453125c8.503906 5.851563 19.800781 5.613281 28.046874-.597656 8.246094-6.207031 11.601563-16.996094 8.324219-26.789063-3.277343-9.789062-12.445312-16.38671825-22.769531-16.382812zm-344 328c-4.417969 0-8-3.582031-8-8s3.582031-8 8-8 8 3.582031 8 8-3.582031 8-8 8zm80-88c-4.417969 0-8-3.582031-8-8s3.582031-8 8-8 8 3.582031 8 8-3.582031 8-8 8zm88-64c-4.417969 0-8-3.582031-8-8s3.582031-8 8-8 8 3.582031 8 8-3.582031 8-8 8zm88-80c-4.417969 0-8-3.582031-8-8s3.582031-8 8-8 8 3.582031 8 8-3.582031 8-8 8zm88-64c-4.417969 0-8-3.582031-8-8s3.582031-8 8-8 8 3.582031 8 8-3.582031 8-8 8zm0 0" fill="#c6c5ca"/></svg>