<svg height="512" viewBox="0 0 512 512" width="512" xmlns="http://www.w3.org/2000/svg"><g><g><path d="m496 464v32h-480v-480h32v448z" fill="#3e3d42"/><path d="m224 216h96v224h-96z" fill="#006df0"/><path d="m96 296h96v144h-96z" fill="#ffda44"/><path d="m352 136h96v304h-96z" fill="#ff5023"/></g><g><path d="m496 456h-440v-440a8 8 0 0 0 -8-8h-32a8 8 0 0 0 -8 8v480a8 8 0 0 0 8 8h480a8 8 0 0 0 8-8v-32a8 8 0 0 0 -8-8zm-8 32h-464v-464h16v440a8 8 0 0 0 8 8h440z"/><path d="m320 208h-96a8 8 0 0 0 -8 8v224a8 8 0 0 0 8 8h96a8 8 0 0 0 8-8v-224a8 8 0 0 0 -8-8zm-8 224h-80v-208h80z"/><path d="m96 448h96a8 8 0 0 0 8-8v-144a8 8 0 0 0 -8-8h-96a8 8 0 0 0 -8 8v144a8 8 0 0 0 8 8zm8-144h80v128h-80z"/><path d="m352 448h96a8 8 0 0 0 8-8v-304a8 8 0 0 0 -8-8h-96a8 8 0 0 0 -8 8v304a8 8 0 0 0 8 8zm8-304h80v288h-80z"/><path d="m328 24v64a8 8 0 0 1 -16 0v-44.69l-202.34 202.35a8 8 0 0 1 -11.32-11.32l202.35-202.34h-44.69a8 8 0 0 1 0-16h64a8 8 0 0 1 8 8z"/></g></g></svg>