<svg id="Layer_2" enable-background="new 0 0 64 64" height="512" viewBox="0 0 64 64" width="512" xmlns="http://www.w3.org/2000/svg"><path d="m47.605 60.892h-29.657c-1.104 0-2-.896-2-2v-53.784c0-1.104.896-2 2-2h29.657c1.105 0 2 .895 2 2v53.783c0 1.105-.894 2.001-2 2.001z" fill="#82d9ff"/><path d="m17.948 6.191c0-.552.448-1 1-1h30.657v-.083c0-1.104-.896-2-2-2h-29.657c-1.104 0-2 .895-2 2v53.783c0 1.104.896 2 2 2z" fill="#caf4ff"/><path d="m49.611 5.11v5.059h-33.66v-5.059c0-1.11.89-2 2-2h29.66c1.1 0 2 .89 2 2z" fill="#f9dd9d"/><path d="m49.611 52v6.89c0 1.11-.9 2-2 2h-29.66c-1.11 0-2-.89-2-2v-6.89z" fill="#f9dd9d"/><path d="m15.951 52h2v8.89c-1.11 0-2-.89-2-2z" fill="#ffeecf"/><path d="m49.611 5.11v.08h-30.66c-.551 0-1 .449-1 1v3.979h-2v-5.059c0-1.11.89-2 2-2h29.66c1.1 0 2 .89 2 2z" fill="#ffeecf"/><path d="m47.605 61.392h-29.657c-1.378 0-2.5-1.122-2.5-2.5v-53.784c0-1.378 1.122-2.5 2.5-2.5h29.657c1.378 0 2.5 1.122 2.5 2.5v53.783c0 1.379-1.121 2.501-2.5 2.501zm-29.657-57.784c-.827 0-1.5.673-1.5 1.5v53.783c0 .827.673 1.5 1.5 1.5h29.657c.827 0 1.5-.673 1.5-1.5v-53.783c0-.827-.673-1.5-1.5-1.5z" fill="#63312d"/><path d="m52.566 3.108h-4.961c1.104 0 2 .895 2 2v53.783c0 1.104-.896 2-2 2h4.961c1.104 0 2-.896 2-2v-53.783c0-1.104-.895-2-2-2z" fill="#efc36a"/><path d="m52.566 61.392h-4.961c-.276 0-.5-.224-.5-.5s.224-.5.5-.5c.827 0 1.5-.673 1.5-1.5v-53.784c0-.827-.673-1.5-1.5-1.5-.276 0-.5-.224-.5-.5s.224-.5.5-.5h4.961c1.378 0 2.5 1.122 2.5 2.5v53.783c0 1.379-1.121 2.501-2.5 2.501zm-2.962-1h2.962c.827 0 1.5-.673 1.5-1.5v-53.784c0-.827-.673-1.5-1.5-1.5h-2.962c.314.418.501.938.501 1.5v53.783c0 .563-.186 1.083-.501 1.501z" fill="#63312d"/><path d="m15.948 9.667h33.657v1h-33.657z" fill="#63312d"/><path d="m15.948 51.5h33.657v1h-33.657z" fill="#63312d"/><path d="m29.733 54.709h6.088v3.472h-6.088z" fill="#f8f3f3"/><path d="m35.821 58.681h-6.088c-.276 0-.5-.224-.5-.5v-3.472c0-.276.224-.5.5-.5h6.088c.276 0 .5.224.5.5v3.472c0 .276-.223.5-.5.5zm-5.588-1h5.088v-2.472h-5.088z" fill="#63312d"/><path d="m22.682 10.167-6.582 11.083h6.733l6.582-11.083z" fill="#f9a287"/><path d="m22.833 21.75h-6.733c-.18 0-.346-.097-.435-.252-.089-.156-.087-.348.005-.503l6.582-11.083c.09-.152.253-.245.43-.245h6.733c.18 0 .346.097.435.252.089.156.087.348-.005.503l-6.582 11.083c-.09.152-.254.245-.43.245zm-5.855-1h5.57l5.988-10.083h-5.57z" fill="#63312d"/><path d="m15.948 10.167-6.581 11.083h6.733l6.582-11.083z" fill="#f8f3f3"/><path d="m16.1 21.75h-6.733c-.18 0-.346-.097-.435-.252-.089-.156-.087-.348.005-.503l6.581-11.083c.09-.152.253-.245.43-.245h6.733c.18 0 .346.097.435.252.089.156.087.348-.005.503l-6.582 11.083c-.09.152-.253.245-.429.245zm-5.854-1h5.569l5.988-10.083h-5.57z" fill="#63312d"/><path d="m36.147 10.167-6.581 11.083h6.733l6.582-11.083z" fill="#f9a287"/><path d="m36.299 21.75h-6.732c-.18 0-.346-.097-.435-.252-.089-.156-.087-.348.005-.503l6.581-11.083c.09-.152.253-.245.43-.245h6.733c.18 0 .346.097.435.252.089.156.087.348-.005.503l-6.582 11.083c-.09.152-.254.245-.43.245zm-5.854-1h5.569l5.988-10.083h-5.57z" fill="#63312d"/><path d="m49.611 10.167h-6.73l-6.582 11.083h6.73z" fill="#f8f3f3"/><path d="m43.029 21.75h-6.73c-.18 0-.346-.097-.435-.252-.089-.156-.087-.348.005-.503l6.582-11.083c.09-.152.253-.245.43-.245h6.73c.18 0 .346.097.435.252.089.156.087.348-.005.503l-6.582 11.083c-.09.152-.253.245-.43.245zm-5.852-1h5.567l5.988-10.083h-5.567z" fill="#63312d"/><path d="m43.032 21.25h2.863l3.716-6.258v-4.825z" fill="#d1d1d1"/><path d="m45.895 21.75h-2.862c-.18 0-.346-.097-.435-.252-.089-.156-.087-.348.004-.503l6.579-11.083c.115-.193.345-.288.563-.227.217.06.368.257.368.482v4.825c0 .09-.024.178-.07.255l-3.717 6.258c-.091.152-.254.245-.43.245zm-1.984-1h1.699l3.501-5.895v-2.866z" fill="#63312d"/><path d="m29.415 10.167-6.582 11.083h6.733l6.581-11.083z" fill="#f8f3f3"/><path d="m29.566 21.75h-6.733c-.18 0-.346-.097-.435-.252-.089-.156-.087-.348.005-.503l6.582-11.083c.09-.152.253-.245.43-.245h6.732c.18 0 .346.097.435.252.089.156.087.348-.005.503l-6.581 11.083c-.09.152-.253.245-.43.245zm-5.855-1h5.57l5.987-10.083h-5.568z" fill="#63312d"/><path d="m9.367 21.25v2.024c0 1.859 1.507 3.366 3.366 3.366 1.859 0 3.366-1.507 3.366-3.366v-2.024z" fill="#f8f3f3"/><path d="m16.1 21.25v2.024c0 1.859 1.508 3.366 3.367 3.366 1.859 0 3.366-1.507 3.366-3.366v-2.024z" fill="#f9a287"/><path d="m22.833 21.25v2.024c0 1.859 1.508 3.366 3.366 3.366 1.859 0 3.367-1.507 3.367-3.366v-2.024z" fill="#f8f3f3"/><path d="m29.566 21.25v2.024c0 1.859 1.507 3.366 3.366 3.366 1.859 0 3.366-1.507 3.366-3.366v-2.024z" fill="#f9a287"/><g fill="#63312d"><path d="m12.733 27.141c-2.132 0-3.866-1.734-3.866-3.866v-2.025c0-.276.224-.5.5-.5h6.733c.276 0 .5.224.5.5v2.024c0 2.132-1.735 3.867-3.867 3.867zm-2.866-5.391v1.524c0 1.581 1.286 2.866 2.866 2.866s2.866-1.286 2.866-2.866v-1.524z"/><path d="m19.467 27.141c-2.132 0-3.867-1.734-3.867-3.866v-2.025c0-.276.224-.5.5-.5h6.733c.276 0 .5.224.5.5v2.024c0 2.132-1.734 3.867-3.866 3.867zm-2.867-5.391v1.524c0 1.581 1.286 2.866 2.867 2.866s2.866-1.286 2.866-2.866v-1.524z"/><path d="m26.199 27.141c-2.132 0-3.866-1.734-3.866-3.866v-2.025c0-.276.224-.5.5-.5h6.733c.276 0 .5.224.5.5v2.024c0 2.132-1.734 3.867-3.867 3.867zm-2.866-5.391v1.524c0 1.581 1.286 2.866 2.866 2.866 1.581 0 2.867-1.286 2.867-2.866v-1.524z"/><path d="m32.933 27.141c-2.132 0-3.866-1.734-3.866-3.866v-2.025c0-.276.224-.5.5-.5h6.732c.276 0 .5.224.5.5v2.024c0 2.132-1.735 3.867-3.866 3.867zm-2.867-5.391v1.524c0 1.581 1.286 2.866 2.866 2.866s2.866-1.286 2.866-2.866v-1.524z"/></g><path d="m39.666 21.25v5.385l2.865.006c1.859 0 3.366-1.507 3.366-3.366v-2.025z" fill="#d1d1d1"/><path d="m42.531 27.141-2.866-.006c-.276 0-.499-.224-.499-.5v-5.385c0-.276.224-.5.5-.5h6.231c.276 0 .5.224.5.5v2.024c0 2.132-1.734 3.867-3.866 3.867zm-2.365-1.005 2.366.005c1.58 0 2.865-1.286 2.865-2.866v-1.525h-5.231z" fill="#63312d"/><path d="m36.299 21.25v2.024c0 1.859 1.508 3.366 3.367 3.366 1.859 0 3.366-1.507 3.366-3.366v-2.024z" fill="#f8f3f3"/><path d="m39.666 27.141c-2.132 0-3.867-1.734-3.867-3.866v-2.025c0-.276.224-.5.5-.5h6.733c.276 0 .5.224.5.5v2.024c0 2.132-1.734 3.867-3.866 3.867zm-2.867-5.391v1.524c0 1.581 1.286 2.866 2.867 2.866s2.866-1.286 2.866-2.866v-1.524z" fill="#63312d"/><path d="m22.397 39.15c0 5.301 4.3 9.602 9.603 9.602 5.302 0 9.603-4.301 9.603-9.602 0-5.304-4.301-9.603-9.603-9.603-5.303 0-9.603 4.3-9.603 9.603z" fill="#f8f3f3"/><path d="m32 49.252c-5.571 0-10.103-4.532-10.103-10.102 0-5.571 4.532-10.104 10.103-10.104s10.103 4.532 10.103 10.104c0 5.57-4.532 10.102-10.103 10.102zm0-19.205c-5.019 0-9.103 4.084-9.103 9.104 0 5.019 4.083 9.102 9.103 9.102s9.103-4.083 9.103-9.102c0-5.02-4.084-9.104-9.103-9.104z" fill="#63312d"/><path d="m37.643 38.066c-.023-.436-.414-.764-.851-.764h-1.998-1.564c.515-.89 1.169-1.803 1.41-2.809.1-.42-.045-.875-.407-1.111-.48-.313-1.103-.162-1.394.304l-.146.231c-.413.662-.956 1.233-1.596 1.68l-1.988 1.385v6.245l.72.261c.488.177 1.004.267 1.523.267h3.146 1.42c.437 0 .828-.327.852-.763.024-.464-.346-.85-.806-.85h.243c.437 0 .828-.326.851-.764.024-.465-.346-.851-.806-.851h.242c.437 0 .828-.326.852-.762.024-.467-.346-.851-.806-.851h.297c.46.002.83-.384.806-.848z" fill="#f9dd9d"/><path d="m36.838 39.416h-1.199v-1h1.199c.168 0 .306-.138.306-.307s-.137-.307-.306-.307h-3.608c-.179 0-.344-.095-.433-.25s-.089-.346 0-.5c.11-.191.227-.383.345-.577.424-.697.863-1.418 1.024-2.156.051-.233-.071-.468-.29-.561-.228-.097-.483-.015-.613.193l-.146.233c-.451.722-1.034 1.336-1.734 1.824l-1.987 1.385-.571-.82 1.987-1.385c.588-.41 1.079-.926 1.458-1.534l.146-.233c.393-.627 1.172-.872 1.852-.583.661.28 1.029.993.875 1.695-.18.826-.601 1.562-1.029 2.27h2.724c.72 0 1.306.586 1.306 1.307s-.586 1.306-1.306 1.306z" fill="#63312d"/><path d="m36.541 41.028h-1.199v-1h1.199c.169 0 .307-.137.307-.306s-.138-.307-.307-.307h-1.199v-1h1.199c.721 0 1.307.586 1.307 1.307 0 .72-.586 1.306-1.307 1.306z" fill="#63312d"/><path d="m36.253 42.643h-1.198v-1h1.198c.169 0 .307-.138.307-.307s-.138-.308-.307-.308h-1.198v-1h1.198c.721 0 1.307.586 1.307 1.308 0 .721-.586 1.307-1.307 1.307z" fill="#63312d"/><path d="m35.965 44.255h-4.669c-.545 0-1.078-.094-1.583-.278l-.772-.279.34-.94.773.279c.397.145.815.218 1.242.218h4.669c.169 0 .307-.137.307-.306s-.138-.307-.307-.307h-1.199v-1h1.199c.721 0 1.307.586 1.307 1.307-.001.72-.586 1.306-1.307 1.306z" fill="#63312d"/><path d="m26.356 36.823h2.754v6.788h-2.754z" fill="#82d9ff"/><path d="m29.11 44.111h-2.754c-.276 0-.5-.224-.5-.5v-6.788c0-.276.224-.5.5-.5h2.754c.276 0 .5.224.5.5v6.788c0 .277-.223.5-.5.5zm-2.254-1h1.754v-5.788h-1.754z" fill="#63312d"/><path d="m41.603 39.15c0 5.301 4.3 9.602 9.603 9.602s9.602-4.301 9.602-9.602c0-5.304-4.3-9.603-9.602-9.603-5.304 0-9.603 4.3-9.603 9.603z" fill="#f8f3f3"/><path d="m51.205 49.252c-5.571 0-10.103-4.532-10.103-10.102 0-5.571 4.532-10.104 10.103-10.104s10.103 4.532 10.103 10.104c0 5.57-4.532 10.102-10.103 10.102zm0-19.205c-5.019 0-9.103 4.084-9.103 9.104 0 5.019 4.083 9.102 9.103 9.102s9.103-4.083 9.103-9.102c0-5.02-4.084-9.104-9.103-9.104z" fill="#63312d"/><path d="m47.633 34.439h7.145c.701 0 1.27.568 1.27 1.27v6.393c0 .702-.568 1.271-1.27 1.271h-.521v2.623l-3.609-2.623h-3.015c-.7 0-1.269-.568-1.269-1.271v-6.393c0-.701.569-1.27 1.269-1.27z" fill="#82d9ff"/><path d="m48.607 37.106h5.248v1h-5.248z" fill="#63312d"/><path d="m48.607 39.718h5.248v1h-5.248z" fill="#63312d"/><path d="m54.257 46.495c-.104 0-.207-.032-.294-.096l-3.478-2.527h-2.852c-.975 0-1.769-.794-1.769-1.771v-6.393c0-.976.793-1.77 1.769-1.77h7.145c.976 0 1.77.794 1.77 1.77v6.393c0 .976-.794 1.771-1.77 1.771h-.021v2.123c0 .188-.105.36-.273.445-.072.037-.15.055-.227.055zm-6.624-11.556c-.424 0-.769.345-.769.77v6.393c0 .425.345.771.769.771h3.015c.105 0 .208.033.294.096l2.815 2.046v-1.642c0-.276.224-.5.5-.5h.521c.424 0 .77-.346.77-.771v-6.393c0-.424-.345-.77-.77-.77z" fill="#63312d"/><path d="m3.192 39.15c0 5.301 4.3 9.602 9.603 9.602s9.603-4.301 9.603-9.602c0-5.304-4.3-9.603-9.603-9.603s-9.603 4.3-9.603 9.603z" fill="#f8f3f3"/><path d="m12.795 49.252c-5.571 0-10.103-4.532-10.103-10.102 0-5.571 4.532-10.104 10.103-10.104s10.103 4.532 10.103 10.104c-.001 5.57-4.532 10.102-10.103 10.102zm0-19.205c-5.019 0-9.103 4.084-9.103 9.104 0 5.019 4.083 9.102 9.103 9.102s9.103-4.083 9.103-9.102c-.001-5.02-4.084-9.104-9.103-9.104z" fill="#63312d"/><path d="m15.154 35.353c-1.159 0-2.126.817-2.358 1.907-.233-1.09-1.199-1.907-2.359-1.907-1.333 0-2.413 1.081-2.413 2.413 0 3.742 4.772 6.557 4.772 6.557s4.771-3.096 4.771-6.557c0-1.332-1.08-2.413-2.413-2.413z" fill="#f9a287"/><path d="m12.796 44.822c-.088 0-.175-.023-.254-.069-.205-.121-5.019-3.005-5.019-6.987 0-1.606 1.307-2.913 2.913-2.913.952 0 1.822.471 2.359 1.208.536-.737 1.407-1.208 2.359-1.208 1.606 0 2.913 1.307 2.913 2.913 0 3.69-4.795 6.844-5 6.976-.082.053-.176.08-.271.08zm-2.359-8.969c-1.055 0-1.913.858-1.913 1.913 0 2.928 3.291 5.317 4.261 5.957.966-.689 4.283-3.255 4.283-5.957 0-1.055-.858-1.913-1.913-1.913-.896 0-1.683.636-1.87 1.512-.049.23-.253.396-.489.396-.236 0-.439-.165-.489-.396-.188-.877-.974-1.512-1.87-1.512z" fill="#63312d"/></svg>