<svg id="Layer_35" enable-background="new 0 0 64 64" height="512" viewBox="0 0 64 64" width="512" xmlns="http://www.w3.org/2000/svg"><g fill="#aab2bd"><path d="m34 6v21.62c0-.41-.07-.82-.2-1.21l-2.8-8.41h-1v-7c0-.55-.45-1-1-1h-22c-.55 0-1 .45-1 1v7h-1l-2.8 8.41c-.13.39-.2.8-.2 1.21v-21.62c0-2.21 1.79-4 4-4h24c2.21 0 4 1.79 4 4z"/><path d="m34 28.15v6.99l-4 1.15v-4.29h.15c1.07 0 2.03-.43 2.72-1.13.7-.69 1.13-1.65 1.13-2.72z"/><path d="m32 58h2c0 2.21-1.79 4-4 4h-24c-2.21 0-4-1.79-4-4v-29.85c0 2.13 1.72 3.85 3.85 3.85h.15v12 9c0 .55.45 1 1 1h21c0 2.21 1.79 4 4 4z"/></g><path d="m30 11v7h-6-6-6-6v-7c0-.55.45-1 1-1h22c.55 0 1 .45 1 1z" fill="#69d6f4"/><path d="m6 26v18 9c0 .55.45 1 1 1h23v-28z" fill="#69d6f4"/><path d="m18 18v9l-.2 1h-7.8v-1l2-9z" fill="#fcd770"/><path d="m33.8 26.41c.13.39.2.8.2 1.21v.38h-7.8l-.2-1-2-9h6 1z" fill="#fcd770"/><path d="m26.2 28h7.8v.15c0 1.07-.43 2.03-1.13 2.72-.69.7-1.65 1.13-2.72 1.13-.05 0-.1 0-.15 0-1.77-.07-3.27-1.34-3.62-3.09z" fill="#ffeaa7"/><path d="m10 28h7.8l-.18.91c-.18.9-.66 1.67-1.33 2.22s-1.53.87-2.44.87c-2.13 0-3.85-1.72-3.85-3.85z" fill="#ffeaa7"/><path d="m26 27v1h-7.8l-.2-1v-9h6z" fill="#fc6e51"/><path d="m9.8 28h-7.8v-.38c0-.41.07-.82.2-1.21l2.8-8.41h1 6l-2 9z" fill="#fc6e51"/><path d="m18.2 28h7.8v.15c0 2.13-1.72 3.85-3.85 3.85-.91 0-1.77-.32-2.44-.87s-1.15-1.32-1.33-2.22z" fill="#ff826e"/><path d="m5.85 32c-2.13 0-3.85-1.72-3.85-3.85v-.15h7.8l-.18.91c-.18.9-.66 1.67-1.33 2.22-.63.52-1.44.83-2.29.87-.05 0-.1 0-.15 0z" fill="#ff826e"/><path d="m52 30-4.03 1.15c-3.52-1.55-5.97-5.06-5.97-9.15 0-5.52 4.48-10 10-10s10 4.48 10 10c0 3.96-2.31 7.39-5.65 9.01-.21-.66-.35-1.01-.35-1.01z" fill="#fcd770"/><path d="m44 51.71v2.29c0 2.21-1.79 4-4 4h-6-2c-2.21 0-4-1.79-4-4v-6.86l4 1.15v4.71c0 .55.45 1 1 1h6c.55 0 1-.45 1-1v-2.43z" fill="#cf9e76"/><path d="m52 30s2 5 2 12-2 12-2 12l-8-2.29-4-1.14-8-2.28-4-1.15-4-1.14v-8l6-1.71 4-1.15 13.97-3.99z" fill="#e6e9ed"/><path d="m24 46v1c0 .55-.45 1-1 1h-2c-.55 0-1-.45-1-1v-3-7c0-.55.45-1 1-1h2c.55 0 1 .45 1 1v1z" fill="#5cd6b3"/><path d="m56.35 31.01c.57 1.79 1.65 5.85 1.65 10.99 0 7-2 12-2 12h-4s2-5 2-12-2-12-2-12h4s.14.35.35 1.01z" fill="#5cd6b3"/><path d="m34.78 36.445h11.44v2.001h-11.44z" transform="matrix(.962 -.274 .274 .962 -8.719 12.547)"/><path d="m47.96 34.017h2.08v2.001h-2.08z" transform="matrix(.962 -.274 .274 .962 -7.727 14.786)"/><path d="m28.019 42.275h2.001v2h-2.001z" transform="matrix(.275 -.961 .961 .275 -20.571 59.263)"/><path d="m31.866 43.373h2.001v2.001h-2.001z" transform="matrix(.275 -.962 .962 .275 -18.83 63.781)"/><path d="m35.712 44.472h2.001v2h-2.001z" transform="matrix(.275 -.962 .962 .275 -17.1 68.269)"/><path d="m13 5h2v2h-2z"/><path d="m17 5h6v2h-6z"/><path d="m14 57h8v2h-8z"/><path d="m63 22c0-6.065-4.935-11-11-11s-11 4.935-11 11c0 3.526 1.688 6.785 4.444 8.833l-10.444 2.984v-5.664-.529-21.624c0-2.757-2.243-5-5-5h-24c-2.757 0-5 2.243-5 5v21.624.529 29.847c0 2.757 2.243 5 5 5h24c2.414 0 4.434-1.721 4.899-4h5.101c2.757 0 5-2.243 5-5v-.96l6.726 1.922 4.951.038.252-.629c.084-.211 2.071-5.261 2.071-12.371 0-4.638-.844-8.388-1.455-10.501 3.339-1.958 5.455-5.596 5.455-9.499zm-11.634 9.221c.54 1.677 1.634 5.702 1.634 10.779s-1.094 9.101-1.634 10.779l-26.366-7.534v-6.491zm-18.366 18.391 6 1.714v1.674h-6zm-6 3.388h-20v-20.157c1.163-.288 2.17-.994 2.838-1.97.873 1.282 2.343 2.127 4.009 2.127 1.735 0 3.296-.932 4.153-2.356.858 1.425 2.418 2.356 4.153 2.356 1.665 0 3.136-.845 4.009-2.128.668.977 1.675 1.682 2.838 1.97v2.689l-4.032 1.152c-.153-.951-.974-1.683-1.968-1.683h-2c-1.103 0-2 .897-2 2v10c0 1.103.897 2 2 2h2c.994 0 1.815-.732 1.968-1.683l2.032.58zm3.153-22c-1.251 0-2.338-.827-2.706-2h5.41c-.363 1.155-1.431 2-2.704 2zm-11.133-4-.02-.099v-7.901h4.198l1.778 8zm-2.02-.099-.02.099h-5.923l1.744-8h4.199zm-.447 2.099c-.368 1.172-1.456 2-2.706 2-1.273 0-2.341-.845-2.704-2zm8.304 0c-.363 1.155-1.431 2-2.704 2-1.251 0-2.338-.827-2.706-2zm2.143-2h-.01l-1.742-8h5.032l2.575 7.724c.03.09.047.183.068.276zm2-10h-22v-6h22zm-23.279 2h5.032l-1.733 7.804-.04.196h-5.902c.021-.092.038-.186.068-.276zm2.832 10c-.368 1.172-1.456 2-2.706 2-1.273 0-2.341-.845-2.704-2zm14.449 18h-2.002v-10h2zm7.998-12.04v-2.045c.74-.131 1.416-.431 2-.858v2.332zm-25-31.96h24c1.654 0 3 1.346 3 3v14.838l-1.279-3.838h-.721v-6c0-1.103-.897-2-2-2h-22c-1.103 0-2 .897-2 2v6h-.721l-1.279 3.838v-14.838c0-1.654 1.346-3 3-3zm24 58h-24c-1.654 0-3-1.346-3-3v-25.943c.584.427 1.26.726 2 .858v20.085c0 1.103.897 2 2 2h20.101c.465 2.279 2.484 4 4.899 4h.816c-.414 1.161-1.514 2-2.816 2zm13-7c0 1.654-1.346 3-3 3h-8c-1.654 0-3-1.346-3-3v-5.531l2 .571v3.96c0 1.103.897 2 2 2h6c1.103 0 2-.897 2-2v-1.103l2 .571zm12.294-1h-1.897c.611-1.985 1.603-5.972 1.603-11s-.992-9.015-1.603-11h1.897c.508 1.526 1.706 5.689 1.706 11s-1.198 9.474-1.706 11zm1.6-23.458-.217-.542h-3.677v-2h3v-3c0-1.654-1.346-3-3-3h-2c-.552 0-1-.449-1-1v-1h3c.552 0 1 .449 1 1h2c0-1.654-1.346-3-3-3v-2h-2v2h-3v3c0 1.654 1.346 3 3 3h2c.552 0 1 .449 1 1v1h-3c-.552 0-1-.449-1-1h-2c0 1.654 1.346 3 3 3v2.246l-2.925.836c-3.088-1.503-5.075-4.629-5.075-8.082 0-4.962 4.037-9 9-9s9 4.038 9 9c0 3.05-1.584 5.896-4.106 7.542z"/><path d="m9 35h8v2h-8z"/><path d="m9 39h8v2h-8z"/><path d="m9 43h8v2h-8z"/><path d="m13 47h2v2h-2z"/><path d="m9 47h2v2h-2z"/></svg>