<svg id="Layer_1" enable-background="new 0 0 511 511" height="512" viewBox="0 0 511 511" width="512" xmlns="http://www.w3.org/2000/svg"><g><g><path d="m511 255.5c0 92.543-49.201 173.595-122.872 218.424-38.662 23.526-84.062 27.041-132.628 27.041-141.109 0-238.133-94.583-238.133-235.692 0-31.501-11.666-71.444-1.24-99.307 36.277-96.947 129.765-165.966 239.373-165.966 141.109 0 255.5 114.391 255.5 255.5z" fill="#a0ebff"/></g><g><path d="m324.108 429.31c-141.109 0-255.5-114.391-255.5-255.5 0-.433.001-.866.003-1.298.147-29.492-40.542-37.238-51.254-9.759-11.451 29.376-17.622 61.394-17.348 94.886 1.159 141.563 116.052 254.505 257.615 253.352 47.766-.389 92.405-13.888 130.499-37.073 24.979-15.203 10.102-53.774-18.682-48.618-14.713 2.635-29.862 4.01-45.333 4.01z" fill="#75cef9"/></g><g><g><g><path d="m467.446 259.853c0 123.306-86.803 210.372-210.109 210.372s-201.813-87.84-201.813-211.145c0-76.594 17.118-144.18 75.895-184.395 35.845-24.525 79.206-38.87 125.918-38.87 61.653 0 117.469 24.99 157.872 65.393s52.237 96.992 52.237 158.645z" fill="#3a84ff"/></g><g><path d="m286.387 223.451v36.456c0 12.55-10.07 23.171-22.619 22.972-8.879-.141-16.057 7.299-15.484 16.27.502 7.863 7.764 14.266 15.643 14.266h13.301c5.133 0 9.059 4.216 9.161 9.348.099 4.974 4.162 8.975 9.159 8.975 16.605 0 30.066 13.461 30.066 30.066.005.497.009.988.014 1.475.291 32.43-30.198 56.371-61.623 48.357-18.12-4.621-35.434-11.478-51.612-20.326-20.213-11.054-32.999-32.057-33.585-55.087 0-.006 0-.009 0-.009-.341-5.392-4.935-9.504-10.309-9.272-5.545.239-10.362-3.71-10.712-9.249l-2.959-46.844c-.425-6.729-6.17-12.119-12.891-11.59-6.88.542-12.847-4.654-13.28-11.516l-.109-1.727c-.43-6.797 4.732-12.655 11.529-13.084l20.258-1.28c14.595-.922 26.488-12.062 28.361-26.566l5.536-42.865c.346-2.679 2.543-4.737 5.239-4.906l.495-.031c11.249-.707 20.223-10.141 19.768-21.403-.468-11.584-10.364-20.457-21.872-19.731-3.162.199-5.786-2.118-5.987-5.28-.871-13.72-12.697-24.138-26.418-23.271 0 0-91.61 31.1-101.79 170.217-4.981 68.069 5.279 136.933 55.3 176.488 7.146 5.651 14.646 10.874 22.461 15.63 61.707 37.558 136.911 42.098 201.106 15.559 8.493-3.511 19.023-22.519 27.191-27.165 0 0 31.33-7.241 45.462-21.368 33.338-33.327 56.187-77.144 63.167-126.078 7.385-51.775-191.967-83.122-191.967-67.431z" fill="#4073c8"/></g><g><path d="m265.36 239.444c16.902 18.992 29.065 41.277 40.776 63.703 11.228 21.501 24.2 42.944 31.428 66.229.947 3.051 4.746 18.252 5.155 18.992 1.191.811 1.829 1.694 2.069 2.288.231.263.452.504.665.724 11.057 7.734 26.428 12.664 39.376 16.268h30.364v-2.027c0-5.05 4.148-8.912 9.197-9.013 4.893-.098 8.83-4.095 8.83-9.012v-56.106c0-19.326 15.667-34.993 34.993-34.993 3.282 0 6.455-.462 9.467-1.307.073-.858 2.922-15.87 2.922-36.112 0-60.704-24.238-115.739-63.55-155.985-.001-.001-.002-.002-.002-.002h-71.585c-11.598 0-20.977 9.471-20.867 21.032.06 7.696-5.961 14.044-13.657 14.044h-2.973c-5.913 0-10.948 4.73-10.856 10.642.094 6.052-4.783 10.987-10.813 10.987-8.561.003-21.116 10.577-20.939 79.648z" fill="#9bd069"/></g><g><g><path d="m415.438 402.932c-12.488 7.018-27.859-2.353-27.557-16.675.12-5.716.419-12.064.027-19.576 0-11.53-9.307-20.886-20.818-20.967-11.613-.081-21.116-9.354-21.116-20.968v-49.079c0-16.605-13.461-30.066-30.066-30.066-4.997 0-9.06-4.002-9.16-8.975-.102-5.132-4.028-9.348-9.161-9.348h-13.301c-7.879 0-15.141-6.403-15.643-14.266-.573-8.971 6.605-16.411 15.484-16.27 12.548.199 22.619-10.423 22.619-22.972v-35.529c-5.367.598-9.72 5.07-9.634 10.569.094 6.052-4.783 10.987-10.813 10.987-15.692 0-28.413 12.721-28.413 28.413v36.456c0 12.55-10.07 23.171-22.619 22.972-8.879-.141-16.057 7.299-15.484 16.27.502 7.863 7.764 14.266 15.643 14.266h13.3c5.133 0 9.059 4.216 9.161 9.348.099 4.974 4.162 8.975 9.16 8.975 16.605 0 30.066 13.461 30.066 30.066v49.079c0 11.613 9.503 20.887 21.116 20.968 11.511.08 20.818 9.436 20.818 20.967v26.694c0 7.443 2.144 14.381 5.836 20.247 25.892-11.048 49.552-26.883 70.31-47.551.132-10.712-.323-11.821.458-14.155-.072.041-.142.08-.213.12z" fill="#69b76b"/></g></g><g><path d="m141.563 360.146c.22-.315.459-.629.734-.942 1.66-1.884 4.032-3.14 6.729-3.332 5.456-.387 9.698-4.853 9.353-10.311l-1.568-24.82c-.35-5.539-5.167-9.488-10.712-9.248-5.374.232-9.968-3.88-10.309-9.272l-2.959-46.842c-.425-6.729-6.17-12.119-12.891-11.59-6.88.542-12.847-4.653-13.28-11.516l-.109-1.727c-.43-6.797 4.732-12.655 11.529-13.084l20.258-1.28c14.595-.922 26.488-12.062 28.361-26.566l5.536-42.865c.346-2.679 2.543-4.737 5.239-4.906l.495-.031c11.249-.707 20.223-10.141 19.767-21.402-.468-11.584-10.364-20.457-21.872-19.731-3.162.199-5.786-2.118-5.987-5.28-.871-13.72-12.697-24.138-26.418-23.271l-9.062.572c-13.617 9-28.841 17.372-37.499 31.135-24.787 39.396-31.617 118.744-32.159 178.932-.382 42.643 34.177 77.377 76.824 77.377z" fill="#9bd069"/></g><g><g><path d="m143.676 357.912c-41.652-40.557-67.53-97.234-67.53-159.963 0-33.626 7.449-65.506 20.765-94.103-38.89 40.176-62.84 94.9-62.84 155.234 0 71.263 33.388 134.728 85.375 175.605l-2.657-42.057c-.345-5.46 3.801-10.166 9.261-10.51l4.842-.306c5.46-.345 9.606-5.051 9.261-10.51l-.311-4.924c-.214-3.409 1.322-6.523 3.834-8.466z" fill="#69b76b"/></g></g></g><g><path d="m408.585 19.761c-10.33 0-20.283 1.611-29.627 4.587.009.272.022.543.022.816l31.802 276.217s95.35-130.199 95.35-184.073-43.673-97.547-97.547-97.547z" fill="#f5415f"/></g><g><path d="m450.155 142.42c2.253-23.472-15.741-44.633-39.287-45.885-.282-.015-.564-.027-.845-.037-20.47-.687-31.4-24.471-18.506-40.385 2.477-3.057 5.149-5.988 8.008-8.768 10.748-10.447.583-28.442-13.973-24.866-41.648 10.232-74.512 47.617-74.512 94.828 0 53.873 99.743 184.073 99.743 184.073s.008-.011.024-.032c17.461-23.892 18.649-55.966 3.116-81.153-.729-1.182-1.456-2.368-2.181-3.558-8.876-14.564-2.453-33.309 13.225-40.024 13.316-5.705 23.648-18.146 25.188-34.193z" fill="#cd2846"/></g><g><circle cx="408.585" cy="117.308" fill="#fff" r="41.768"/></g><g><path d="m370.042 101.19c-2.442 5.829-3.599 12.33-3.118 19.148 1.497 21.21 19.153 38.097 40.407 38.719 13.863.406 26.257-5.946 34.139-16.005 4.478-5.716-.879-13.767-7.981-12.259-20.866 4.429-42.725-8.29-48.83-28.926-2.057-6.956-11.814-7.368-14.617-.677z" fill="#d0fbfd"/></g></g></g></svg>