<?xml version="1.0" encoding="iso-8859-1"?>
<!-- Generator: Adobe Illustrator 19.0.0, SVG Export Plug-In . SVG Version: 6.00 Build 0)  -->
<svg version="1.1" id="Capa_1" xmlns="http://www.w3.org/2000/svg" xmlns:xlink="http://www.w3.org/1999/xlink" x="0px" y="0px"
	 viewBox="0 0 511.998 511.998" style="enable-background:new 0 0 511.998 511.998;" xml:space="preserve">
<path style="fill:#BAC6D0;" d="M450.671,459.086c0,16.96-12.144,30.8-27.952,31.84l-321.408,21.072
	c-16.864-0.432-30.544-15.392-30.544-33.424V52.686c0-18.032-9.92-32.304,6.944-31.888l339.84-20.736
	c17.824-1.168,33.12,14.256,33.12,33.376V459.086z"/>
<path style="fill:#5B5F63;" d="M414.351,20.03H93.279c-17.648,0-31.952,14.304-31.952,31.952v427.296
	c0,17.648,14.304,31.952,31.952,31.952h321.072c8.816,0,15.984-7.152,15.984-15.984V35.998
	C430.335,27.182,423.183,20.03,414.351,20.03z"/>
<path style="fill:#3F4347;" d="M77.647,20.03c-9.024,0-16.32,7.312-16.32,16.32v458.544c0,9.024,7.312,16.336,16.32,16.336h49.152
	V20.03L77.647,20.03L77.647,20.03z"/>
<circle style="fill:#6DAFDF;" cx="278.575" cy="208.798" r="102.112"/>
<path style="fill:#FFD83B;" d="M228.943,294.574c-0.016,0.048-0.048,0.064-0.064,0.096c0.16,0.032,0.304,0.096,0.448,0.128
	L228.943,294.574z"/>
<g>
	<path style="fill:#E9EFF4;" d="M222.527,150.638l-0.208-0.416c1.712-0.256,1.824-1.456,3.12-1.888c1.472-0.48,0.976,0.048,2.432,0
		c1.184-0.048,1.888,0.8,3.232,0.176c-0.32,0.576-0.848,0.976-1.392,1.36c-1.104,0.784-2.24,1.6-3.552,1.904
		C224.831,152.078,223.295,151.758,222.527,150.638z"/>
	<path style="fill:#E9EFF4;" d="M242.943,241.662c-0.016,0.896-0.56,1.68-1.008,2.448c-2.048,3.344-3.296,7.232-3.568,11.152
		c-0.272,3.76-0.112,8.4-3.392,10.256c-1.872,1.04-4.496,0.864-5.744,2.608c-0.384,0.528-0.576,1.2-0.768,1.824
		c-0.8,2.928-1.616,5.872-2.416,8.8c-1.04-0.096-2.096-0.208-3.136-0.32c1.216,0.384,2.08,2.048,1.344,3.184
		c-1.184-0.624-2.72,0.112-3.376,1.296c-0.624,1.184-0.528,2.608-0.176,3.904c1.072,3.84,4.352,6.928,8.208,7.84
		c-0.672,1.264-2.72,0.72-3.968-0.128c-8.944-6.048-15.696-15.264-18.768-25.6c-1.088-3.648-1.776-7.536-3.904-10.672
		c-1.776-2.656-4.464-4.592-6.24-7.248c-2.496-3.792-2.96-8.736-5.856-12.208c-1.616-1.984-4.112-4.432-2.688-6.56
		c0.576-0.88,1.808-1.712,1.312-2.64c-0.16-0.304-0.48-0.48-0.736-0.736c-0.976-1.04-0.304-2.672,0.176-4.016
		c0.8-2.336,0.8-4.832,0.464-7.328c-2.432-2.176-4.352-4.864-5.552-7.888c-0.72-1.856-1.664-4.16-3.648-4.176
		c-0.512-1.424-1.04-2.864-1.552-4.288c-0.176,0.512-0.688,0.832-1.248,0.896c1.536-23.392,10.976-44.624,25.648-61.088
		c0.32-0.144,0.64-0.32,0.976-0.512c3.488-2.032,6.256-5.088,9.632-7.312c0.688-0.464,1.472-0.896,2.336-0.816
		c0.832,0.064,1.616,0.928,1.312,1.712c-0.112,0.32-0.4,0.576-0.672,0.784c-3.952,3.344-8.272,6.288-12.864,8.72
		c-0.56,0.272-1.136,0.608-1.392,1.152c-0.464,0.944,0.32,2.128,1.312,2.464c0.992,0.352,2.096,0.144,3.12-0.096
		c-0.848,1.216-1.104,2.864-0.672,4.304c0.944,0.096,1.248-1.2,1.52-2.096c1.152-3.584,6.864-5.04,6.48-8.8
		c1.552,0.816,3.12-0.992,4.064-2.48c0.944-1.504,3.04-2.976,4.208-1.664c0.064,0.736,0.16,1.472,0.24,2.224
		c2.032-0.512,4.08-1.04,6.112-1.552c-1.152,0.816-1.552,2.544-0.88,3.792s2.336,1.872,3.648,1.36
		c-0.016,1.088-0.992,1.92-1.872,2.56c-2.24,1.68-4.64,3.424-7.248,4.256l0.608,1.248c-0.064,0.016-0.144,0.048-0.208,0.048
		c-1.664,0.16-3.424-1.04-5.2-0.8c-1.088,0.144-2.432,0.144-3.056,1.248c-0.096,0.144-0.48,2.08-0.208,1.92
		c0.976-0.56,1.936-1.104,2.88-1.664c0.304,0.784,0.368,1.664,0.208,2.512c1.184-0.112,2.4,0.144,3.44,0.768
		c-1.088,2.512-3.872,4.208-6.624,4c-0.016-0.832-0.064-1.664-0.096-2.496c-2.256-0.176-4.112,1.76-5.248,3.696
		c-1.152,1.968-2.032,4.208-3.92,5.456c-1.152,0.784-2.56,1.088-3.808,1.728c-1.216,0.672-2.352,1.936-2.096,3.296
		c0.112,0.64,0.528,1.248,0.512,1.92c-0.064,1.248-1.52,1.824-2.496,2.64c-1.664,1.392-2.08,3.936-3.856,5.152
		c-1.296,0.896-3.008,0.88-4.496,1.344c-1.504,0.464-3.008,1.968-2.4,3.424c-0.736,0.256-1.648-0.304-1.712-1.088
		c-2.656,5.216-4.4,10.912-5.12,16.72c1.312,0.928,2.656-1.184,2.912-2.768c0.272-1.6,1.664-3.68,2.96-2.72
		c-0.304,2.288-0.592,4.544-0.896,6.832c-0.064,0.432-0.112,0.896,0.096,1.296c0.256,0.48,0.816,0.688,1.216,1.04
		c1.184,1.024,1.024,2.816,1.088,4.368c0.064,1.888,0.688,3.744,1.696,5.36c-0.096-0.32-0.16-0.64-0.224-0.976
		c1.808,0.224,3.664-0.352,5.04-1.552c0.72-0.64,1.312-1.472,2.208-1.808c0.928-0.352,1.936-0.096,2.88,0.16
		c2.928,0.8,6.048,1.712,8.016,4.016c0.992,1.184,1.616,2.656,2.8,3.632c2.688,2.256,7.2,1.264,9.664,3.776
		c1.968,2.032,1.6,5.312,1.072,8.112c-1.344-0.736-3.136,1.104-2.352,2.432c0.72-0.784,1.552-1.616,2.592-1.616
		c1.056-0.016,1.984,1.424,1.2,2.096c1.84-2.352,6.368-1.392,7.088,1.552c2.592,0.176,5.2,0.368,7.776,0.576
		C235.167,237.63,243.103,237.854,242.943,241.662z"/>
	<path style="fill:#E9EFF4;" d="M227.199,134.814c-0.992,0.496-2.368-0.064-2.736-1.12c-0.368-1.056,0.336-2.352,1.424-2.592
		c0.688-0.16,1.632-0.08,1.84-0.752c0.064-0.208,0.032-0.432,0.016-0.64c-0.032-1.264,1.104-2.304,2.32-2.624
		s2.512-0.064,3.744,0.176c0.448,0.912,0.576,1.968,0.352,2.96c-0.848,0.032-1.696,0.08-2.56,0.112
		c0.08,1.408-0.064,3.184-1.376,3.712c-1.168,0.464-2.704-0.4-3.68,0.384"/>
	<path style="fill:#E9EFF4;" d="M240.447,120.702c2.32-1.104,4.288-2.864,6.576-4.032c3.936-2.016,8.528-2.192,12.96-2.336
		c10.064-0.32,20.128-0.624,30.208-0.944c-2.336,1.28-4.672,2.56-7.008,3.84c-1.904,1.04-4.08,2.128-6.16,1.536
		c-0.048,1.68,1.488,3.248,3.168,3.232c-4.144,2.56-9.872-0.064-14.24,2.096c-1.824,0.896-3.296,2.592-5.312,2.912
		c-1.168,0.192-2.368-0.128-3.52,0.128c-1.936,0.416-3.152,2.256-4.592,3.632c-1.648,1.584-4.064,2.656-6.224,1.904
		s-3.28-3.952-1.552-5.456c0.848-0.736,2.064-0.864,3.072-1.376c1.008-0.512,1.792-1.888,1.04-2.72
		c-0.336-0.368-0.864-0.512-1.168-0.896c-0.32-0.416-0.288-1.024-0.56-1.488c-1.024-1.792-3.872,0.624-5.808-0.096"/>
	<path style="fill:#E9EFF4;" d="M271.023,129.198c1.36-0.32,2.544-1.12,3.808-1.712c1.264-0.576,2.784-0.928,4.032-0.304
		c0.368,0.928-0.704,1.776-1.632,2.112c-1.808,0.64-3.76,0.8-5.648,0.496"/>
	<path style="fill:#E9EFF4;" d="M353.311,139.342c-0.368,0.048-0.768,0.016-1.152-0.064c-1.728-0.368-3.056-1.712-4.528-2.672
		c-3.424-2.256-8.08-2.56-11.776-0.704c0.88-1.264,1.312-2.848,1.216-4.384l-0.528,0.192c-6.048-3.504-13.152-7.152-19.744-4.8
		c-1.52,0.56-2.912,1.392-4.464,1.92c-1.632,0.576-3.456,0.816-4.864,1.824c-1.424,1.024-2.192,3.264-0.976,4.48
		c1.04,1.04,2.704,0.768,4.16,0.896c1.424,0.144,3.072,1.568,2.288,2.8c-6.32,2.96-12.672,5.936-19.008,8.928
		c2.912,0.944,4.832,4.24,4.208,7.248c-2.128,0.368-4.176-0.928-6.336-1.056c-3.12-0.16-6.096,2.592-6.16,5.712
		c-0.096,3.12,2.768,6,5.888,5.952c2.336-0.016,4.624-1.44,6.88-0.832c0.096-2.128,1.552-3.92,3.04-5.456
		c2.912-2.912,7.072-5.552,10.944-4.112c1.264,0.464,2.352,1.312,3.424,2.176c2.336,1.84,4.672,3.712,7.008,5.584
		c0.736-0.768,1.472-1.52,2.208-2.256c1.264,1.344,2.544,2.672,3.84,4.032c0.64-0.432,1.312-0.848,1.968-1.296
		c0.464,1.2,0.944,2.384,1.408,3.584c0.176-1.312,0.352-2.608,0.512-3.904c1.52,0.048,3.136,0.096,4.528-0.608
		c1.392-0.672,2.4-2.336,1.824-3.76c-0.304-0.768-1.024-1.36-1.152-2.176c-0.304-1.616,2.016-2.72,3.504-1.984
		c1.472,0.72,2.224,2.4,2.848,3.952c0.352-1.568,0.672-3.12,1.008-4.688c1.456,3.792,3.536,7.344,6.128,10.464
		c-4.736-0.896-9.728-0.384-14.16,1.44c1.408,1.984,3.84,3.168,6.256,3.072c1.088-0.016,2.288-0.272,3.12,0.416
		c0.624,0.528,0.784,1.392,0.896,2.176c0.368,2.224,0.736,4.416,1.088,6.608c-2.496-2.048-6.096-1.824-9.36-1.888
		c-3.264-0.096-7.072-0.992-8.272-4.016c-1.296,1.456-1.872,3.536-1.504,5.472c-3.376-0.8-7.248-2.096-8.224-5.424
		c-2.64,0.976-5.92-0.72-6.624-3.408c-0.256-0.944-0.32-2.096-1.152-2.608c-0.512-0.304-1.152-0.256-1.76-0.176
		c-5.008,0.576-10,1.136-14.992,1.712c-2.72,0.32-5.536,0.656-7.952,1.984c-2.4,1.312-4.32,3.904-4.032,6.624
		c-4.592,2.72-8.496,6.672-11.12,11.328c-0.832,1.424-1.552,3.072-1.216,4.688c0.224,1.248,1.056,2.304,1.312,3.536
		c0.448,2.096-0.752,4.128-1.264,6.208c-1.424,5.92,3.056,11.472,7.216,15.952c1.968,2.08,4.224,4.336,7.088,4.448
		c1.776,0.064,3.456-0.72,5.12-1.36c4.752-1.872,9.936-2.736,15.04-2.528c-1.152,0.896,0.048,2.864,1.472,3.168
		c1.424,0.304,2.976-0.16,4.368,0.32c3.168,1.136,2.72,5.776,1.296,8.8c0.72-0.144,1.456-0.272,2.192-0.416
		c-0.4,1.024-0.784,2.032-1.184,3.024c4.336,0.544,5.984,6.256,4.976,10.528c-0.992,4.272-3.536,8.208-3.6,12.592
		c-0.016,2.4,0.72,4.736,1.456,7.024c1.856,5.792,3.696,11.6,5.552,17.408c5.168,0.624,8.144-5.968,12.96-8.016
		c1.808-0.784,3.92-0.944,5.328-2.288c1.36-1.296,0.928-4.32-0.832-4.32c2.384-0.256,4.416-2.432,4.48-4.832
		c0.016-0.672-0.064-1.344,0.016-2.016c0.16-0.944,0.768-1.776,1.344-2.592c3.664-5.264,6.048-11.296,8.416-17.264
		c0.624-1.6,1.248-3.168,1.872-4.752c2.352-5.936,4.688-11.856,7.04-17.792c0.928-2.336,1.84-4.64,2.768-6.976
		c-1.264,2.096-4.592,1.824-6.496,0.256c-1.92-1.568-2.912-3.952-4.416-5.904c-1.264-1.68-2.976-3.184-3.584-5.248
		c-0.352-1.184-0.272-2.448-0.48-3.664c-0.464-2.656-2.224-4.88-3.424-7.28s-1.824-5.52-0.144-7.616
		c4.848,8.48,9.264,17.2,13.264,26.144c0.432-1.392,1.456-2.592,2.752-3.264c0.944-0.512,2.016-0.72,3.008-1.136
		c2.64-1.152,4.448-3.952,4.448-6.816c-0.016-2.864-1.856-5.664-4.512-6.784c-1.312-0.56-2.816-0.736-4.064-1.504
		c-1.248-0.736-2.144-2.432-1.36-3.648c0.736-1.152,2.512-1.136,3.744-0.48c1.232,0.672,2.128,1.808,3.28,2.56
		c0.832,0.56,1.808,0.928,2.704,1.424c4.88,2.8,6.08,9.136,7.104,14.688c0.56,2.976,1.184,5.936,1.92,8.848
		c0.016-0.624,0.016-1.264,0.016-1.888C380.671,181.966,370.287,157.566,353.311,139.342z M362.671,172.91
		c-0.672-0.048-1.296-0.48-1.824-0.896c-0.88-0.688-1.76-1.504-2.016-2.592c-0.304-1.296,0.32-2.768-0.368-3.92
		c-0.32-0.56-0.896-0.896-1.392-1.296c-1.264-1.008-2.192-2.464-2.544-4.048c-0.304-1.392,0.144-3.232,1.552-3.472
		c0.672-0.112,1.408,0.256,1.712,0.88l-0.944,0.512c1.6,0.176,2.336,2.592,1.104,3.632c-0.16,0.16-0.368,0.304-0.368,0.528
		c0,0.144,0.096,0.272,0.208,0.368c0.992,1.088,2.464,1.472,3.76,2.16c1.296,0.672,2.56,1.92,2.352,3.344
		c-0.416,0.16-0.816,0.304-1.216,0.464c-0.432,0.432-0.096,1.232,0.368,1.664c0.464,0.432,1.056,0.88,1.088,1.52
		C364.143,172.462,363.359,172.942,362.671,172.91z"/>
	<path style="fill:#E9EFF4;" d="M363.343,243.966l-1.664,1.184c0.576,2.048-0.592,4.448-2.56,5.248
		c-1.04,0.416-2.432,0.608-2.784,1.68c-0.288,0.912,0.416,1.824,0.496,2.784c0.144,1.568-1.312,2.752-2.368,3.92
		s-1.616,3.36-0.208,4.08c0.336,0.16,0.704,0.192,1.072,0.224c1.536,0.128,3.216,0.176,4.464-0.72c3.6-2.56,0.176-9.52,3.728-12.144
		c0.496-0.368,1.136-0.64,1.408-1.2C365.759,247.326,362.671,245.694,363.343,243.966z"/>
</g>
<g>
	<path style="fill:#FFFFFF;" d="M159.135,419.774V387.71h10.384c3.936,0,6.496,0.16,7.696,0.496c1.84,0.48,3.376,1.52,4.608,3.136
		s1.856,3.696,1.856,6.24c0,1.968-0.352,3.616-1.072,4.96s-1.616,2.4-2.72,3.168s-2.224,1.264-3.36,1.52
		c-1.552,0.304-3.792,0.448-6.704,0.448h-4.224v12.096L159.135,419.774L159.135,419.774z M165.599,393.15v9.104h3.536
		c2.544,0,4.256-0.176,5.12-0.496c0.864-0.336,1.536-0.864,2.016-1.584c0.48-0.72,0.736-1.552,0.736-2.496
		c0-1.168-0.352-2.128-1.024-2.88c-0.688-0.752-1.552-1.232-2.608-1.424c-0.768-0.144-2.32-0.208-4.656-0.208h-3.12V393.15z"/>
	<path style="fill:#FFFFFF;" d="M214.591,419.774h-7.04l-2.8-7.28h-12.816l-2.64,7.28h-6.864l12.48-32.064h6.848L214.591,419.774z
		 M202.671,407.102l-4.416-11.904l-4.336,11.904H202.671z"/>
	<path style="fill:#FFFFFF;" d="M216.383,409.342l6.304-0.608c0.384,2.112,1.152,3.664,2.304,4.656
		c1.152,0.992,2.72,1.472,4.688,1.472c2.08,0,3.664-0.432,4.72-1.312s1.584-1.92,1.584-3.104c0-0.752-0.224-1.408-0.672-1.936
		s-1.216-0.992-2.336-1.392c-0.768-0.256-2.48-0.736-5.184-1.392c-3.472-0.864-5.904-1.92-7.312-3.168
		c-1.968-1.76-2.96-3.92-2.96-6.448c0-1.632,0.464-3.152,1.392-4.576c0.928-1.424,2.256-2.496,4-3.248
		c1.744-0.736,3.84-1.12,6.32-1.12c4.032,0,7.056,0.88,9.088,2.656c2.032,1.76,3.104,4.112,3.2,7.072l-6.464,0.272
		c-0.272-1.648-0.88-2.832-1.792-3.552s-2.272-1.072-4.096-1.072c-1.872,0-3.36,0.384-4.416,1.168c-0.688,0.496-1.024,1.152-1.024,2
		c0,0.752,0.32,1.408,0.96,1.936c0.816,0.688,2.8,1.392,5.952,2.144c3.152,0.736,5.472,1.52,6.992,2.304
		c1.504,0.8,2.688,1.888,3.536,3.264c0.848,1.376,1.28,3.088,1.28,5.104c0,1.84-0.512,3.552-1.52,5.168
		c-1.024,1.6-2.464,2.8-4.336,3.584c-1.872,0.784-4.192,1.168-6.976,1.168c-4.048,0-7.168-0.928-9.344-2.816
		C218.111,415.662,216.815,412.926,216.383,409.342z"/>
	<path style="fill:#FFFFFF;" d="M246.255,409.342l6.304-0.608c0.384,2.112,1.152,3.664,2.304,4.656
		c1.152,0.992,2.72,1.472,4.688,1.472c2.08,0,3.664-0.432,4.72-1.312s1.584-1.92,1.584-3.104c0-0.752-0.224-1.408-0.672-1.936
		s-1.216-0.992-2.32-1.392c-0.768-0.256-2.496-0.736-5.184-1.392c-3.472-0.864-5.904-1.92-7.312-3.168
		c-1.968-1.76-2.96-3.92-2.96-6.448c0-1.632,0.464-3.152,1.392-4.576c0.928-1.424,2.256-2.496,4-3.248
		c1.744-0.736,3.84-1.12,6.32-1.12c4.032,0,7.056,0.88,9.088,2.656c2.032,1.76,3.104,4.112,3.2,7.072l-6.464,0.272
		c-0.272-1.648-0.88-2.832-1.792-3.552s-2.272-1.072-4.096-1.072c-1.872,0-3.36,0.384-4.416,1.168c-0.688,0.496-1.024,1.152-1.024,2
		c0,0.752,0.32,1.408,0.96,1.936c0.816,0.688,2.8,1.392,5.952,2.144c3.152,0.736,5.472,1.52,6.992,2.304
		c1.504,0.8,2.688,1.888,3.536,3.264c0.848,1.376,1.28,3.088,1.28,5.104c0,1.84-0.512,3.552-1.536,5.168
		c-1.024,1.6-2.464,2.8-4.336,3.584c-1.872,0.784-4.192,1.168-6.976,1.168c-4.048,0-7.168-0.928-9.344-2.816
		C247.983,415.662,246.671,412.926,246.255,409.342z"/>
	<path style="fill:#FFFFFF;" d="M277.775,419.774V387.71h10.384c3.936,0,6.496,0.16,7.696,0.496c1.84,0.48,3.376,1.52,4.608,3.136
		s1.856,3.696,1.856,6.24c0,1.968-0.352,3.616-1.072,4.96s-1.616,2.4-2.72,3.168s-2.224,1.264-3.36,1.52
		c-1.552,0.304-3.792,0.448-6.704,0.448h-4.224v12.096L277.775,419.774L277.775,419.774z M284.239,393.15v9.104h3.536
		c2.544,0,4.256-0.176,5.12-0.496c0.864-0.336,1.536-0.864,2.016-1.584c0.48-0.72,0.736-1.552,0.736-2.496
		c0-1.168-0.352-2.128-1.024-2.88c-0.688-0.752-1.552-1.232-2.608-1.424c-0.768-0.144-2.32-0.208-4.656-0.208h-3.12V393.15z"/>
	<path style="fill:#FFFFFF;" d="M306.335,403.95c0-3.264,0.496-6,1.456-8.224c0.736-1.632,1.728-3.104,2.992-4.4
		s2.64-2.256,4.144-2.88c2-0.848,4.304-1.264,6.912-1.264c4.72,0,8.512,1.456,11.344,4.4c2.832,2.928,4.256,7.008,4.256,12.224
		c0,5.168-1.408,9.216-4.224,12.144c-2.816,2.912-6.576,4.384-11.28,4.384c-4.768,0-8.56-1.456-11.376-4.352
		C307.743,413.054,306.335,409.054,306.335,403.95z M313.007,403.726c0,3.632,0.832,6.384,2.512,8.256s3.808,2.816,6.384,2.816
		s4.704-0.928,6.352-2.784c1.648-1.856,2.48-4.656,2.48-8.368c0-3.68-0.8-6.416-2.416-8.224s-3.76-2.704-6.416-2.704
		c-2.672,0-4.816,0.912-6.448,2.736C313.823,397.278,313.007,400.046,313.007,403.726z"/>
	<path style="fill:#FFFFFF;" d="M342.495,419.774V387.71h13.632c3.424,0,5.92,0.288,7.472,0.864c1.552,0.576,2.8,1.6,3.728,3.072
		s1.408,3.152,1.408,5.056c0,2.4-0.704,4.384-2.128,5.952c-1.408,1.568-3.52,2.56-6.336,2.96c1.392,0.816,2.56,1.712,3.456,2.688
		c0.912,0.992,2.144,2.72,3.68,5.216l3.92,6.256h-7.744l-4.672-6.976c-1.664-2.496-2.8-4.064-3.408-4.72s-1.264-1.088-1.952-1.328
		s-1.776-0.352-3.264-0.352h-1.312v13.376H342.495z M348.975,401.278h4.784c3.104,0,5.04-0.128,5.824-0.384
		c0.768-0.256,1.376-0.72,1.808-1.36c0.432-0.64,0.656-1.44,0.656-2.4c0-1.088-0.288-1.952-0.864-2.608
		c-0.576-0.672-1.392-1.088-2.432-1.264c-0.528-0.064-2.096-0.112-4.72-0.112h-5.056V401.278z"/>
	<path style="fill:#FFFFFF;" d="M382.047,419.774v-26.64h-9.52v-5.424h25.472v5.424h-9.488v26.64H382.047z"/>
</g>
<g>
</g>
<g>
</g>
<g>
</g>
<g>
</g>
<g>
</g>
<g>
</g>
<g>
</g>
<g>
</g>
<g>
</g>
<g>
</g>
<g>
</g>
<g>
</g>
<g>
</g>
<g>
</g>
<g>
</g>
</svg>
