<svg id="Layer_3" enable-background="new 0 0 64 64" height="512" viewBox="0 0 64 64" width="512" xmlns="http://www.w3.org/2000/svg"><g><g><path d="m13 20h40v26h-40z" fill="#96cc7f"/></g><g><path d="m13 46 16-16h8l16 16" fill="#78b75b"/></g><g><path d="m2 51h3l4 2h11c1.105 0 2-.895 2-2v-12c0-1.105-.895-2-2-2h-4v-2c0-1.105-.895-2-2-2h-5l-4 4h-3" fill="#efbe9a"/></g><g><path d="m13 20 20 13 20-13" fill="#669e4f"/></g><g><circle cx="54" cy="19" fill="#f5b953" r="8"/></g><g><path d="m1 34h2v20h-2z"/></g><g><path d="m20 54h-11c-.155 0-.309-.036-.447-.105l-3.789-1.895h-2.764v-2h3c.155 0 .309.036.447.105l3.789 1.895h10.764c.551 0 1-.448 1-1v-1h-8v-2h9c.552 0 1 .447 1 1v2c0 1.654-1.346 3-3 3z"/></g><g><path d="m22 50h-9v-2h8v-2h-8v-2h9c.552 0 1 .447 1 1v4c0 .553-.448 1-1 1z"/></g><g><path d="m22 46h-9v-2h8v-2h-8v-2h9c.552 0 1 .447 1 1v4c0 .553-.448 1-1 1z"/></g><g><path d="m16 38h-4v-2h3v-1c0-.552-.449-1-1-1h-4.586l-3.707 3.707c-.187.188-.442.293-.707.293h-3v-2h2.586l3.707-3.707c.187-.188.442-.293.707-.293h5c1.654 0 3 1.346 3 3v2c0 .553-.448 1-1 1z"/></g><g><path d="m22 42h-9v-2h8v-1c0-.552-.449-1-1-1h-9v-2h9c1.654 0 3 1.346 3 3v2c0 .553-.448 1-1 1z"/></g><g><path d="m14 33h-2v-13c0-.553.448-1 1-1h33v2h-32z"/></g><g><path d="m53 47h-31v-2h30v-18h2v19c0 .553-.448 1-1 1z"/></g><g><path d="m33 34c-.189 0-.379-.054-.545-.161l-20-13 1.09-1.678 19.455 12.647 13.455-8.746 1.09 1.678-14 9.1c-.166.106-.356.16-.545.16z"/></g><g><path d="m19.447 33.25h10.607v2h-10.607z" transform="matrix(.707 -.707 .707 .707 -16.969 27.533)"/></g><g><path d="m54 28c-4.962 0-9-4.037-9-9s4.038-9 9-9c1.169 0 2.305.221 3.376.655l-.752 1.854c-.832-.338-1.714-.509-2.624-.509-3.86 0-7 3.141-7 7s3.14 7 7 7 7-3.141 7-7c0-.593-.074-1.183-.22-1.751l1.937-.498c.188.731.283 1.488.283 2.249 0 4.963-4.038 9-9 9z"/></g><g><path d="m54 24c-.002 0-.004 0-.006 0-.349-.002-.672-.186-.852-.485l-3-5 1.715-1.029 2.153 3.589 7.138-11.599 1.703 1.049-8 13c-.182.295-.504.475-.851.475z"/></g><g><path d="m44 26.686h2v22.627h-2z" transform="matrix(.707 -.707 .707 .707 -13.69 42.95)"/></g></g></svg>