<svg id="Accounting" height="512" viewBox="0 0 64 64" width="512" xmlns="http://www.w3.org/2000/svg"><rect fill="#415e6f" height="54" rx="2" width="36" x="9" y="3"/><path d="m40 7h-26a1 1 0 0 0 -1 1v43a2 2 0 0 0 2 2h24a2 2 0 0 0 2-2v-43a1 1 0 0 0 -1-1z" fill="#4dd4f7"/><path d="m9 23-4.824 10.794a10.005 10.005 0 0 0 -1.176 4.706v22.5h12l.848-1.188a10 10 0 0 0 0-11.624l-.848-1.188 3.347-4.686a3.759 3.759 0 0 0 -.123-4.534 3.76 3.76 0 0 0 -5.121-.711l-4.103 2.931z" fill="#ffddce"/><circle cx="27" cy="24" fill="#fbdf63" r="10"/><path d="m38 25-4-7 6 1 3-2 3 2 8-1-4 7z" fill="#d69c7a"/><rect fill="#7e543b" height="4" rx="2" width="16" x="36" y="24"/><path d="m58 54v-18a8 8 0 0 0 -8-8h-12a8 8 0 0 0 -8 8v18a3 3 0 0 0 -3 3v4h34v-4a3 3 0 0 0 -3-3z" fill="#d18b61"/><g fill="#ff9811"><path d="m29 23h-1v-2h1a1 1 0 0 1 1 1h2a3 3 0 0 0 -3-3h-1v-2h-2v2h-1a3 3 0 0 0 0 6h1v2h-1a1 1 0 0 1 -1-1h-2a3 3 0 0 0 3 3h1v2h2v-2h1a3 3 0 0 0 0-6zm-4 0a1 1 0 0 1 0-2h1v2zm4 4h-1v-2h1a1 1 0 0 1 0 2z"/><path d="m47 39v-1a1 1 0 0 0 -1-1h-4a1 1 0 0 0 -1 1v1a1 1 0 0 0 1 1h4a3.009 3.009 0 0 1 3 3v1a3.009 3.009 0 0 1 -3 3h-1v1h-2v-1h-1a3.009 3.009 0 0 1 -3-3h2a1 1 0 0 0 1 1h4a1 1 0 0 0 1-1v-1a1 1 0 0 0 -1-1h-4a3.009 3.009 0 0 1 -3-3v-1a3.009 3.009 0 0 1 3-3h1v-1h2v1h1a3.009 3.009 0 0 1 3 3v1z"/></g></svg>