<svg height="512" viewBox="0 0 60 60" width="512" xmlns="http://www.w3.org/2000/svg"><g id="017---Statue-of-Liberty" fill="none"><g id="Layer_3" transform="translate(1 1)"><path id="Shape" d="m51 25c-.8909769-1.2990005-2.0677557-2.3765741-3.44-3.15-4.56-2.63-11.79-2.85-16.56-1.14-2.364785.7607779-4.4203014 2.2655843-5.86 4.29-.1593739-1.3733699-.1054028-2.7631263.16-4.12.3142591-1.7904543 1.0820019-3.470537 2.23-4.88 2.54-3 6.52-4 10.52-4 7.77 0 11.58 3.59 12.66 8.43.3521816 1.4963036.4502154 3.041181.29 4.57z" fill="#a4c2f7"/><path id="Shape" d="m50.71 20.43c-.3410311-1.6234516-1.0643804-3.1421424-2.11-4.43-2.84-3.4-7.63-4.21-12-3.93 7.13.45 10.86 4.28 11.43 10.08 1.1879924.7194401 2.2022027 1.6926722 2.97 2.85.1602154-1.528819.0621816-3.0736964-.29-4.57z" fill="#7facfa"/><g fill="#e8edfc"><path id="Shape" d="m40.92 12.18c-1.9058268-.2396874-3.8341732-.2396874-5.74 0l1.72-11.18c.0916325-.56672795.580912-.98325151 1.155-.98325151s1.0633675.41652356 1.155.98325151z"/><path id="Shape" d="m53.05 4.25c0 .3.29-.53-4.47 11.73-1.3145923-1.5407111-3.0534747-2.6605513-5-3.22l7.42-9.24c.3113637-.37256126.8218152-.51178618 1.27922-.34890545.4574048.16288072.7649717.59340001.77078 1.07890545z"/><path id="Shape" d="m32.53 12.76c-1.9472672.5578128-3.6865901 1.6779367-5 3.22l-4.4-11.31c-.1977372-.53532696.0195841-1.13521165.5143097-1.41967885.4947255-.28446719 1.1225033-.17051451 1.4856903.26967885z"/><path id="Shape" d="m27.48 16c-1.0423865 1.2999679-1.762031 2.8283557-2.1 4.46l-6.88-5.38c-.4583943-.3519225-.5878307-.9875814-.303551-1.4907313s.8955565-.7203059 1.433551-.5092687z"/><path id="Shape" d="m57.5 15.08-6.79 5.35c-.3410311-1.6234516-1.0643804-3.1421424-2.11-4.43l7.77-2.93c.5441089-.2311357 1.1749968-.0161172 1.4647013.4991978.2897044.515315.1455392 1.1660599-.3347013 1.5108022z"/><path id="Shape" d="m57 24.15c-8.09 1.26-5.28.86-6 .86.1578584-1.3700946.1038932-2.756324-.16-4.11l6.2 1c.5136473.1385241.8672271.6086903.8577709 1.1406048-.0094563.5319146-.3795244.9892159-.8977709 1.1093952z"/><path id="Shape" d="m51 25c-2.340335.3497969-4.719665.3497969-7.06 0-4.73-.85-5.72-3.66-5.85-5.45 3.6039133-.1080211 7.158339.8597853 10.21 2.78 1.0796459.6878497 2.0001306 1.5981067 2.7 2.67z"/><path id="Shape" d="m38 19.58c-.41 5.67-7.25 6.18-12.9 5.43 0-.15 1.76-2.8 5.86-4.3 2.2624408-.7858104 4.6452828-1.1682836 7.04-1.13z"/><path id="Shape" d="m25.14 25c-.64 0 1.78.37-6.09-.85l-.67-2c.34-.34.17-.23 6.92-1.27-.2630327 1.3571488-.3169896 2.7465397-.16 4.12z"/><path id="Shape" d="m17 18-8 10.16c-.49985769.6373762-1.33480341.9103184-2.11462562.6912672s-1.35051857-.8868367-1.44537438-1.6912672c-1.83-16.57-.82-10.32-3.92-24.74-.12667595-.58975716.01959226-1.205185.39806806-1.67488317.3784758-.46969818.9487258-.7434878 1.55193194-.74511683h9.53c1.1045695 0 2 .8954305 2 2 0 4-.31 1 2 16z"/></g><path id="Shape" d="m15 2c0-1.1045695-.8954305-2-2-2h-3c1.1045695 0 2 .8954305 2 2 0 4-.31 1 2 16-8.24 10.49-7.75 9.89-8.06 10.24.39168674.4416743.95848993.6877456 1.54862267.6723173.59013275-.0154283 1.14330397-.29078 1.51137733-.7523173l8-10.16c-2.33-15.14-2-12-2-16z" fill="#cad9fc"/><path id="Shape" d="m57.66 48.42-3.38 6.94-7.94-7.06 9.67-2c.5580699-.113169 1.1320973.0994148 1.4818395.5487806.3497423.4493657.4148834 1.0580167.1681605 1.5712194z" fill="#e8edfc"/><path id="Shape" d="m54.28 55.36-1 2.08c-.1682534.343391-.5176049.5607653-.9.56h-47.53c-1.04854734.0029529-1.9213628-.8044014-2-1.85-.04-.68-.85-10.64-.85-11.15-1.75-2.63-2-2.82-2-3.61v-8.92c0-.67-.13-.21 4.91-10.29l.55 5c.09485581.8044305.66555217 1.472216 1.44537438 1.6912672s1.61476793-.053891 2.11462562-.6912672l7.98-10.18c1.9 5.71 1.07 3.37 4.81 14.43.28.82-.24.06 9.72 11.57h1.23c.34 0-.25-.24 9 4.39 1.51.76 2.72.31 4.57-.09z" fill="#e8edfc"/><path id="Shape" d="m45.88 48.4-1.52.32c-.8759422.1827916-1.7878798.0665988-2.59-.33l-8.57-4.29c-.31-.13-.35-.1-1.67-.1l-1-1.11.47-5.06c1.48 2.7 3.71 4.84 7.07 5.17 3.36-.33 5.58-2.47 7.06-5.16z" fill="#a4c2f7"/><path id="Shape" d="m32.19 25c-.18 3-2.17 5.2-7 5-.2893441-.0149286-.5579908-.1546148-.7363979-.3828991-.1784071-.2282844-.2490355-.5227244-.1936021-.8071009.74-3.53.74-3.69.74-3.81 2.3837002.3525694 4.8062998.3525694 7.19 0z" fill="#cad9fc"/><path id="Shape" d="m51.83 28.88c.0608366.2977192-.016999.6069489-.2115328.8403894-.1945337.2334404-.4846581.3657628-.7884672.3596106-4.73.06-6.71-2-6.89-5 2.3744919.3409231 4.7855081.3409231 7.16 0-.01.01.21 1.14.73 3.8z" fill="#cad9fc"/><path id="Shape" d="m54.54 41.46-2.54 2.54-5-10-.28-.09c.3924867-1.3690363.6964484-2.7619156.91-4.17 1.0340011.2696789 2.102327.3842628 3.17.34l4 10.31c.1351879.3765638.0329138.7974609-.26 1.07z" fill="#e8edfc"/><path id="Shape" d="m53.42 46.83-7.54 1.57-.77-10.56c.6718724-1.2504477 1.2114596-2.5675766 1.61-3.93.42.09-.45-1.33 6.7 12.92z" fill="#e8edfc"/><path id="Shape" d="m47.63 29.74c-.94 6.06-3.48 12.66-9.58 13.26-6.1-.6-8.64-7.18-9.58-13.26 2.1797172-.5408153 3.7127571-2.4942049 3.72-4.74 6.19-1.11 5.69-5.45 5.87-5.45.13 1.79 1.12 4.6 5.85 5.45.0072429 2.2457951 1.5402828 4.1991847 3.72 4.74z" fill="#e8edfc"/><path id="Shape" d="m43.91 25c-6.17-1.11-5.7-5.45-5.87-5.45-.0631398 1.2923403-.5924878 2.5180118-1.49 3.45 1.2067907 1.108668 2.7324786 1.8085249 4.36 2 .0209101 2.234588 1.5510551 4.171949 3.72 4.71-.82 5.32-2.93 11.47-8.08 13 .4892696.1476835.9915652.2481426 1.5.3 6.1-.6 8.64-7.2 9.58-13.26-2.1833266-.5417216-3.7173385-2.5004733-3.72-4.75z" fill="#cad9fc"/><path id="Shape" d="m31 37.83-.41 5.06-3.81-4.4 2.51-5c.3967343 1.509079.9707288 2.9658837 1.71 4.34z" fill="#cad9fc"/><path id="Shape" d="m29.27 33.47c0 .1 0-.07-2.51 5l-3.32-3.83 1.76-4.58c1.1008776.0511133 2.2031862-.0634998 3.27-.34.1880108 1.2654949.4552019 2.5179531.8 3.75z" fill="#e8edfc"/></g><path id="Shape" d="m4.52 2.42c-.12667595-.58975716.01959226-1.205185.39806806-1.67488317.3784758-.46969818.9487258-.7434878 1.55193194-.74511683h-3c-.60320614.00162903-1.17345614.27541865-1.55193194.74511683-.3784758.46969817-.52474401 1.08512601-.39806806 1.67488317 3 13.89 2.16 8.61 3.75 23l-.36-3.25c-5.04 10.09-4.91 9.63-4.91 10.3v8.92c0 .79.25 1 2 3.61 0 .51.81 10.47.86 11.15.0786372 1.0455986.95145266 1.8529529 2 1.85h3c-1.04854734.0029529-1.9213628-.8044014-2-1.85-.05-.68-.86-10.64-.86-11.15-1.75-2.63-2-2.82-2-3.61v-8.92c0-.67-.13-.21 4.91-10.29" fill="#fff" transform="translate(1 1)"/><g id="Layer_2" transform="translate(0 -1)"><path id="Rectangle-path" d="m2.361 4.334h2v8h-2z" fill="#fff" transform="matrix(.978 -.209 .209 .978 -1.671 .889)"/><g fill="#428dff"><path id="Shape" d="m4.39 8.33c0-.55228475-.44771525-1-1-1s-1 .44771525-1 1 .44771525 1 1 1 1-.44771525 1-1z"/><path id="Shape" d="m58.16 22.86-4.51-.69 5.47-4.31c.5269417-.4059754.8339646-1.0348174.83-1.7-.0059164-.7074193-.3578738-1.3671038-.9421724-1.7659424s-1.3268704-.486273-1.9878276-.2340576l-5.71 2.14 3.6-9.3c.0890218-.24020728.136369-.49385308.14-.75-.0056699-.91487522-.5845304-1.72791539-1.4471827-2.03264451s-1.8237584-.03567716-2.4028173.67264451l-7 8.74c-.46-.12-.92-.23-1.4-.31l-1.6-10.49c-.1621984-1.05928643-1.0733676-1.8415567-2.145-1.8415567s-1.9828016.78227027-2.145 1.8415567l-1.61 10.49c-.48.08-.94.19-1.4.31l-7-8.73c-.6637681-.84822625-1.8545144-1.07095578-2.78-.52-.6636597.39017648-1.0737079 1.10016734-1.08 1.87.0070731.25767455.0613019.51187212.16.75l3.62 9.32-5.82-2.17c-.9995607-.3872485-2.1319001.0171584-2.66.95-.0040912.0432368-.0040912.0867632 0 .13l-1.28-7.93c-.0398285-.2513763-.05989-.50548803-.06-.76v-2.54c0-1.65685425-1.3431458-3-3-3h-9.53c-.90568602.00093703-1.76247367.41098233-2.33132413 1.11573562-.56885045.7047533-.78887052 1.62877353-.59867587 2.51426438.1159798.55228475.65771525.9059798 1.21.79s.9059798-.65771525.79-1.21c-.06388462-.2958385.00965217-.60469303.2-.84.17941324-.22181912.44502787-.35644571.73-.37h9.53c.5522847 0 1 .44771525 1 1v2.54c.0021371.35807763.0288667.71558563.08 1.07l1.92 12.11-7.77 9.82c-.25176365.3176997-.6704134.4519836-1.06.34-.39963695-.1150805-.68633432-.4654884-.72-.88l-.94-8.48-.51-4.21c-.1-.84-.28-1.49-.42-2.19l-.41-2.12c-.05207413-.3709999-.30714932-.6817738-.66087548-.8051855s-.74676237-.0387578-1.01831934.2193303c-.27155698.2580881-.37607845.6463136-.27080518 1.0058552l.44 2.09c.15.69.32 1.41.39 2l.47 4.24.36 3.25-4.56 9.13c-.20917163.4157952-.31872681.8745575-.32 1.34v8.92c-.00230697.5938863.17170775 1.1750955.5 1.67l1.5 2.28.84 10.89c.12043993 1.5664209 1.42896247 2.7746234 3 2.77h47.53c.767048-.0003302 1.4663342-.4393266 1.8-1.13l4.39-9c.4219892-.8524684.3169736-1.8715087-.27-2.62-.5866687-.7563798-1.5524739-1.1132235-2.49-.92l-1.8.37-.75-1.5 2-2c.5863768-.5719823.7646847-1.4437097.45-2.2l-3.61-9.39c.1211134-.0911692.2288308-.1988866.32-.32.3658893-.4583975.5121228-1.0542989.4-1.63l-.55-2.8 4.91-.75c1.0450431-.1755981 1.8104169-1.0803067 1.8104169-2.14s-.7653738-1.9644019-1.8104169-2.14zm-.43-6.86c.09 0 .17 0 .22.15-.0023153.0517331-.0280844.0995901-.07.13l-5.63 4.44c-.2764195-.784157-.638616-1.5353795-1.08-2.24zm-12.51 23.42-.06.11c-1.1581757 2.4203612-3.4525908 4.0989267-6.11 4.47-2.6611264-.3679253-4.9599222-2.0469477-6.12-4.47-1.1680845-2.2277215-1.9588024-4.6336668-2.34-7.12 1.8927046-.7755921 3.2272075-2.5028202 3.5-4.53 2.0209072-.3389556 3.821753-1.4734885 5-3.15 1.178247 1.6765115 2.9790928 2.8110444 5 3.15.2708134 2.0280062 1.6059963 3.7561143 3.5 4.53-.4037104 2.4499573-1.204214 4.8176917-2.37 7.01zm.6 10.18-.66.14c-.6564362.1357453-1.3394242.0477314-1.94-.25l-8.58-4.28c-.2721456-.1398349-.5740367-.2118771-.88-.21h-.76l-.39-.45.15-1.87c1.5613058 1.8856245 3.8038035 3.0787483 6.24 3.32h.2c2.4066481-.2512782 4.6202856-1.4316457 6.17-3.29zm-16.82-21.33c1.0002488.0446172 2.0023351.0245755 3-.06-.407126 1.2879148-1.4641356 2.2650784-2.78 2.57-.9589529.2494207-1.9504335.3505922-2.94.3l.58-3c.7.1 1.43.16 2.14.19zm-.9-2.07c.3940647-.3647667.8152773-.6990624 1.26-1 .1856363-.1380425.379311-.2649327.58-.38.7620502-.4552264 1.5656684-.836945 2.4-1.14 1.7701016-.6044407 3.6204589-.9414821 5.49-1-.46 1.32-1.72 2.81-4.83 3.37-.34.06-.71.12-1.09.15-.9342525.0831514-1.8730496.1031969-2.81.06-.33 0-.67-.03-1-.06zm-1.21 6.88c.5930957-.0104083 1.1846521-.0638823 1.77-.16.16.87.34 1.7.55 2.49-.036613.0442348-.0700308.0910197-.1.14l-1.58 3.15-1.94-2.24zm3.19 5c.2710316.6564732.5781674 1.2974523.92 1.92l-.19 2.41-1.81-2.07zm10.19-15.46c1.8395973.0640055 3.6594722.4010194 5.4 1 .8138946.2819805 1.5950632.6507725 2.33 1.1.25.14.49.3.69.43.4620987.3170326.8999736.668001 1.31 1.05-.34 0-.68.06-1 .07-.9673509.0407964-1.9363694.0140649-2.9-.08-.3355923-.0287929-.669403-.0755264-1-.14-3.1-.56-4.37-2.05-4.83-3.43zm7.73 15.56 4.14 8.27.83 1.67-5.15 1.07-.69-9.19c.3222089-.5907381.6126229-1.1982708.87-1.82zm-1.84-10c.9811112.0816687 1.9663795.101708 2.95.06.73 0 1.46-.09 2.18-.17l.59 3c-.982953.0501192-1.9677721-.0510608-2.92-.3-1.3325241-.2872791-2.4109936-1.2628557-2.83-2.56zm6.6-22.04c.0617008-.058414.1582992-.058414.22 0 .0559757.05010653.0791505.1273556.06.2l-3.83 9.86c-.8992804-.7667686-1.9110994-1.3907236-3-1.85zm-13.87-3c.0188081-.07582665.0868756-.12907324.165-.12907324s.1461919.05324659.165.12907324l1.52 9.92c-.54 0-1.1-.06-1.69-.06s-1.15 0-1.69.06zm-2.57 12c.9059505-.1064206 1.8179157-.153188 2.73-.14.9160561-.0029005 1.831328.0538864 2.74.17.8402116.1109123 1.6697393.2915353 2.48.54 1.7479915.5031788 3.3138534 1.4996363 4.51 2.87v.07c.9464285 1.1620113 1.6013013 2.5334727 1.91 4 0 .12.06.25.09.42.09.46.14.9.18 1.31-.3655028-.3263272-.7530903-.6270416-1.16-.9-.26-.18-.54-.36-.8-.51-.8574329-.5097233-1.7656767-.928655-2.71-1.25-2.3263231-.7957061-4.7715162-1.1880192-7.23-1.16h-.06c-2.5105847-.0369032-5.0082591.3658383-7.38 1.19-.9549587.3436624-1.8729155.7825396-2.74 1.31-.2525914.1417976-.4963703.2987512-.73.47-.41.29-.77.58-1.09.85.0330366-.4537464.0965127-.9047615.19-1.35.0157547-.1114722.0391431-.2217313.07-.33.2839471-1.4615118.9150025-2.8333713 1.84-4l.09-.1c1.1962609-1.3883018 2.7700112-2.399254 4.53-2.91.8310887-.2422322 1.6805823-.4161443 2.54-.52zm-11.27-8.89c.0035429-.05916515.0376456-.11221369.09-.14.0602072-.05236405.1497928-.05236405.21 0l6.54 8.17c-1.0912174.4547691-2.1037068 1.0791376-3 1.85zm-4.77 9.75 6.63 2.5c-.4374557.7173236-.7993892 1.4780542-1.08 2.27l-5.71-4.47c-.0541232-.0554203-.0733412-.1361358-.05-.21.0155706-.0400565.0466009-.0721651.0861024-.0890943.0395015-.0169293.0841528-.0172557.1238976-.0009057zm4.41 16.3c.0728612.0961602.1567699.1834253.25.26l-.83 2.16c-.1509435-.1853494-.2692946-.395-.35-.62l-2.24-6.7 3.31.51-.54 2.78c-.1121228.5757011.0341107 1.1716025.4 1.63zm-3.88-7-.17-.51 4.49-.69c-.0594039.614773-.0827772 1.2324958-.07 1.85zm-1.93-7.4 5.46 4.3-4.34.64-1-3.07-.33-2.14c.0624615.086295.1327601.1666362.21.24zm34.49 41.1h-32.12l6.63-12.53c.2152795-.479574.0224977-1.0439523-.4411892-1.2916033-.4636868-.2476509-1.0399538-.0940145-1.3188108.3516033l-7.12 13.47h-7l11.77-14.36c.22865-.2750945.2931701-.6512756.1692563-.9868396-.1239139-.3355639-.4174362-.5795305-.77-.64-.3525639-.0604694-.7106063.0717451-.9392563.3468396l-12.88 15.64h-3.5c-.52249371.0016745-.95820297-.3991781-1-.92l11-16.48c.2380487-.2955284.2883109-.7003343.1297641-1.0451054-.1585468-.3447712-.4985809-.570095-.8778815-.5817287-.3793005-.0116337-.7325045.1924276-.9118826.5268341l-9.59 14.3-.6-7.88c-.01461703-.1104065-.04492283-.2181604-.09-.32l11.77-10.87c.2902307-.2353431.4250424-.6128613.3495329-.9788102-.0755094-.3659489-.3487417-.6592718-.7084228-.7605128-.3596812-.101241-.7458002.0064913-1.0011101.279323l-11.52 10.63-.63-.9c-.12125029-.1795489-.18090935-.3936197-.17-.61v-8.92c-.00226227-.1632985.0355046-.324666.11-.47l3.18-6.36.18 1.59c.13225258 1.2132531.98630524 2.2254637 2.16 2.56.2729004.0795959.55572875.12.84.12.91621651-.0090361 1.7780711-.4362803 2.34-1.16l6.83-8.69 1.44 4.32 2.78 8.34c.1686627.4978092.4299168.959245.77 1.36l8.18 9.42 4.43 5.11c.1822699.2371051.4610939.3801859.76.39.2417802.0024223.4762499-.0828394.66-.24.4167211-.3618734.4614773-.9929353.1-1.41l-1.3-1.5 6.87 3.43c1.0025012.4988526 2.1434389.6467519 3.24.42l1.49-.31 7 6.22zm3.84-9.73c.1870562-.0361225.3788903.0329378.5.18.1063751.1606539.1063751.3693461 0 .53l-2.71 5.76-5.5-4.86zm-2.38-6.52-1.56 1.56-4.38-8.76c.22-.82.41-1.68.58-2.59.5519946.0927655 1.1103097.1429135 1.67.15zm3-17.59-4.81.74c.0303697-.6031743.0236905-1.207644-.02-1.81l4.86.75c.0883656 0 .16.0716344.16.16s-.0716344.16-.16.16z"/><path id="Shape" d="m36 31h-2c-.5522847 0-1 .4477153-1 1s.4477153 1 1 1h2c.5522847 0 1-.4477153 1-1s-.4477153-1-1-1z"/><path id="Shape" d="m44 31h-2c-.5522847 0-1 .4477153-1 1s.4477153 1 1 1h2c.5522847 0 1-.4477153 1-1s-.4477153-1-1-1z"/><path id="Shape" d="m40 39h-2c-.5522847 0-1 .4477153-1 1s.4477153 1 1 1h2c.5522847 0 1-.4477153 1-1s-.4477153-1-1-1z"/><path id="Shape" d="m38.39 37.79c.1745498.1354677.3890506.2093122.61.21h.29c.5522847.0469442 1.0380558-.3627153 1.085-.915s-.3627153-1.0380558-.915-1.085c-.0595929-.0098848-.1204071-.0098848-.18 0l.72-2.76c.1325483-.5522847-.2077153-1.1074517-.76-1.24s-1.1074517.2077153-1.24.76l-.69 2.76c-.1457443.5965757-.0093287 1.2270366.37 1.71.1889806.2402581.432326.4321925.71.56z"/></g></g></g></svg>