<svg height="511pt" viewBox="-18 1 511 511.99999" width="511pt" xmlns="http://www.w3.org/2000/svg"><path d="m384.039062 15.125v459.664062c0 8.34375-6.773437 15.117188-15.117187 15.117188h-353.304687c-8.34375 0-15.117188-6.773438-15.117188-15.117188v-459.664062c0-8.347656 6.773438-15.12109375 15.117188-15.12109375h353.304687c8.34375 0 15.117187 6.77343775 15.117187 15.12109375zm0 0" fill="#aed0ff"/><path d="m384.046875 15.117188v459.667968c0 8.34375-6.773437 15.117188-15.121094 15.117188h-167.671875v-489.902344h167.671875c8.347657 0 15.121094 6.773438 15.121094 15.117188zm0 0" fill="#8cbcff"/><path d="m459.800781 443.074219c0 29.71875-24.089843 53.808593-53.808593 53.808593-29.714844 0-53.804688-24.089843-53.804688-53.808593 0-29.714844 24.089844-53.804688 53.804688-53.804688 29.71875 0 53.808593 24.089844 53.808593 53.804688zm0 0" fill="#fff5cc"/><path d="m405.992188 512c-38.003907 0-68.921876-30.917969-68.921876-68.925781 0-38.003907 30.917969-68.921875 68.921876-68.921875 38.007812 0 68.925781 30.917968 68.925781 68.921875 0 38.007812-30.917969 68.925781-68.925781 68.925781zm0-107.609375c-21.332032 0-38.6875 17.351563-38.6875 38.6875 0 21.332031 17.355468 38.6875 38.6875 38.6875 21.332031 0 38.6875-17.355469 38.6875-38.6875 0-21.335937-17.355469-38.6875-38.6875-38.6875zm0 0" fill="#ffd422"/><path d="m459.804688 443.082031c0 29.660157-24 53.710938-53.652344 53.800781v-107.613281c29.652344.089844 53.652344 24.140625 53.652344 53.8125zm0 0" fill="#ffeb99"/><path d="m406.152344 374.152344v30.234375c21.265625.09375 38.53125 17.40625 38.53125 38.695312 0 21.273438-17.265625 38.589844-38.53125 38.679688v30.238281c37.9375-.089844 68.769531-30.972656 68.769531-68.917969 0-37.957031-30.832031-68.839843-68.769531-68.929687zm0 0" fill="#eebf00"/><path d="m145.691406 37.296875h-48.289062c-11.132813 0-11.160156 18.882813 0 18.882813h13.101562v56.28125c0 10.195312 22.199219 10.113281 22.199219 0v-56.28125h12.988281c11.078125 0 11.195313-18.882813 0-18.882813zm0 0" fill="#2682ff"/><path d="m200.242188 43.628906c-3.15625-9.433594-23.019532-9.257812-26.101563-.007812l-22.035156 65.460937-.050781.164063c-2.796876 10.140625 18.214843 15.421875 21.261718 5.695312l3.578125-11.40625h20.589844l3.578125 11.40625c3.046875 9.761719 24 4.363282 21.261719-5.683594zm-8.042969 42.582032h-10.132813l5.066406-16.296876zm0 0" fill="#2682ff"/><path d="m294.261719 106.398438-18.691407-27.789063 17.917969-27.492187c6.976563-10.589844-12.71875-20.257813-19.757812-9.832032l-12.394531 20.347656-12.289063-20.179687c-6.308594-10.652344-26.84375-1.109375-19.753906 9.652344l17.929687 27.503906-18.589844 27.625-.058593.089844c-6.585938 10.503906 13.65625 19.628906 19.292969 10.398437l13.480468-21.632812 13.554688 21.601562c5.605468 9.214844 25.582031.273438 19.359375-10.292968zm0 0" fill="#046eff"/><path d="m308.554688 181.992188h-232.570313c-8.347656 0-15.117187-6.769532-15.117187-15.117188 0-8.351562 6.769531-15.117188 15.117187-15.117188h232.570313c8.347656 0 15.117187 6.765626 15.117187 15.117188 0 8.347656-6.769531 15.117188-15.117187 15.117188zm0 0" fill="#2682ff"/><path d="m174.507812 235.132812h-98.523437c-8.347656 0-15.117187-6.769531-15.117187-15.121093 0-8.347657 6.769531-15.117188 15.117187-15.117188h98.523437c8.347657 0 15.117188 6.769531 15.117188 15.117188 0 8.351562-6.765625 15.121093-15.117188 15.121093zm0 0" fill="#2682ff"/><path d="m308.554688 235.132812h-52.789063c-8.347656 0-15.117187-6.769531-15.117187-15.121093 0-8.347657 6.769531-15.117188 15.117187-15.117188h52.789063c8.347656 0 15.117187 6.769531 15.117187 15.117188 0 8.351562-6.769531 15.121093-15.117187 15.121093zm0 0" fill="#046eff"/><path d="m174.507812 287.960938h-98.523437c-8.347656 0-15.117187-6.769532-15.117187-15.117188 0-8.351562 6.769531-15.117188 15.117187-15.117188h98.523437c8.347657 0 15.117188 6.765626 15.117188 15.117188 0 8.347656-6.765625 15.117188-15.117188 15.117188zm0 0" fill="#2682ff"/><path d="m308.554688 287.960938h-52.789063c-8.347656 0-15.117187-6.769532-15.117187-15.117188 0-8.351562 6.769531-15.117188 15.117187-15.117188h52.789063c8.347656 0 15.117187 6.765626 15.117187 15.117188 0 8.347656-6.769531 15.117188-15.117187 15.117188zm0 0" fill="#046eff"/><path d="m309.257812 350.058594h-71.917968c-8.347656 0-15.117188-6.769532-15.117188-15.117188 0-8.351562 6.769532-15.121094 15.117188-15.121094h71.917968c8.347657 0 15.117188 6.769532 15.117188 15.121094 0 8.347656-6.769531 15.117188-15.117188 15.117188zm0 0" fill="#046eff"/><path d="m391.039062 443.074219c0 29.71875-24.089843 53.808593-53.808593 53.808593-29.714844 0-53.804688-24.089843-53.804688-53.808593 0-29.714844 24.089844-53.804688 53.804688-53.804688 29.71875 0 53.808593 24.089844 53.808593 53.804688zm0 0" fill="#fff5cc"/><path d="m337.230469 512c-38.003907 0-68.921875-30.917969-68.921875-68.925781 0-38.003907 30.917968-68.921875 68.921875-68.921875 38.003906 0 68.925781 30.917968 68.925781 68.921875 0 38.007812-30.921875 68.925781-68.925781 68.925781zm0-107.609375c-21.332031 0-38.6875 17.351563-38.6875 38.6875 0 21.332031 17.355469 38.6875 38.6875 38.6875s38.6875-17.355469 38.6875-38.6875c0-21.335937-17.355469-38.6875-38.6875-38.6875zm0 0" fill="#ffd422"/><path d="m158.097656 392.167969c0 15.953125-11.238281 29.328125-26.203125 32.644531v6.351562c0 8.183594-6.511719 14.84375-14.625 15.105469-.164062.011719-.332031.011719-.496093.011719-8.355469 0-15.117188-6.773438-15.117188-15.117188v-5.542968h-18.019531c-8.347657 0-15.121094-6.773438-15.121094-15.121094 0-8.355469 6.773437-15.117188 15.121094-15.117188h41c4.261719 0 4.261719-6.441406 0-6.441406h-22.980469c-18.445312 0-33.453125-15.007812-33.453125-33.449218 0-18.445313 15.007813-33.453126 33.453125-33.464844v-5.542969c0-8.34375 6.761719-15.117187 15.117188-15.117187.164062 0 .332031 0 .496093.011718 8.113281.261719 14.625 6.921875 14.625 15.105469v5.542969h11.085938c8.34375 0 15.117187 6.773437 15.117187 15.121094 0 8.355468-6.773437 15.117187-15.117187 15.117187h-41.324219c-4.253906 0-4.261719 6.441406 0 6.441406h22.980469c18.453125 0 33.460937 15.007813 33.460937 33.460938zm0 0" fill="#2682ff"/><path d="m391.039062 443.082031c0 29.660157-24 53.710938-53.652343 53.800781v-107.613281c29.652343.089844 53.652343 24.140625 53.652343 53.8125zm0 0" fill="#ffeb99"/><path d="m337.386719 374.152344v30.234375c21.269531.09375 38.53125 17.40625 38.53125 38.695312 0 21.273438-17.261719 38.589844-38.53125 38.679688v30.238281c37.9375-.089844 68.769531-30.972656 68.769531-68.917969 0-37.957031-30.832031-68.839843-68.769531-68.929687zm0 0" fill="#eebf00"/><path d="m322.277344 443.074219c0 29.71875-24.089844 53.808593-53.804688 53.808593-29.71875 0-53.808594-24.089843-53.808594-53.808593 0-29.714844 24.089844-53.804688 53.808594-53.804688 29.714844 0 53.804688 24.089844 53.804688 53.804688zm0 0" fill="#fff5cc"/><path d="m268.46875 512c-38.003906 0-68.921875-30.917969-68.921875-68.925781 0-38.003907 30.917969-68.921875 68.921875-68.921875s68.925781 30.917968 68.925781 68.921875c0 38.007812-30.921875 68.925781-68.925781 68.925781zm0-107.609375c-21.332031 0-38.6875 17.351563-38.6875 38.6875 0 21.332031 17.355469 38.6875 38.6875 38.6875s38.6875-17.355469 38.6875-38.6875c0-21.335937-17.355469-38.6875-38.6875-38.6875zm0 0" fill="#ffd422"/><path d="m322.277344 443.082031c0 29.660157-24 53.710938-53.652344 53.800781v-107.613281c29.652344.089844 53.652344 24.140625 53.652344 53.8125zm0 0" fill="#ffeb99"/><path d="m268.625 374.152344v30.234375c21.269531.09375 38.53125 17.40625 38.53125 38.695312 0 21.273438-17.261719 38.589844-38.53125 38.679688v30.238281c37.9375-.089844 68.769531-30.972656 68.769531-68.917969 0-37.957031-30.832031-68.839843-68.769531-68.929687zm0 0" fill="#eebf00"/><g fill="#046eff"><path d="m222.332031 109.253906-21.078125-62.597656v68.796875c3.609375 9.050781 23.757813 3.667969 21.078125-6.199219zm0 0"/><path d="m323.671875 166.875c0 8.34375-6.773437 15.117188-15.117187 15.117188h-107.300782v-30.234376h107.300782c8.34375 0 15.117187 6.773438 15.117187 15.117188zm0 0"/><path d="m158.097656 392.167969c0 15.953125-11.238281 29.328125-26.203125 32.644531v6.351562c0 8.183594-6.511719 14.84375-14.625 15.105469v-50.886719h7.367188c4.261719 0 4.261719-6.441406 0-6.441406h-7.367188v-30.234375h7.367188c18.453125 0 33.460937 15.007813 33.460937 33.460938zm0 0"/><path d="m142.980469 352.265625h-25.710938v-50.886719c8.113281.261719 14.625 6.921875 14.625 15.105469v5.542969h11.085938c8.34375 0 15.117187 6.773437 15.117187 15.121094 0 8.355468-6.773437 15.117187-15.117187 15.117187zm0 0"/></g></svg>