<svg id="Layer_1" enable-background="new 0 0 512 512" height="512" viewBox="0 0 512 512" width="512" xmlns="http://www.w3.org/2000/svg"><g><path d="m329.46 163.972 10 129.13-174.73 10-164.73-10v-141.03c0-4.14 3.36-7.5 7.5-7.5h299.69c2 0 3.93.8 5.34 2.23z" fill="#719dff"/><path d="m214.67 293.102-10 117.41h-87.25c-1.99 0-3.89-.79-5.3-2.19l-109.92-109.92c-1.41-1.41-2.2-3.32-2.2-5.3z" fill="#73c0ff"/><path d="m512 169.622v28.62c0 1.99-.79 3.9-2.2 5.31l-15.68 15.68v73.87l-164.66 10v-139.13l44.04 44.65h29.36l70.32-70.32c2.93-2.92 7.67-2.93 10.6 0l26.02 26.02c1.41 1.41 2.2 3.31 2.2 5.3z" fill="#73c0ff"/><path d="m314.09 410.512-4.44 10.72 10.7 10.71c2.93 2.93 2.93 7.67 0 10.6l-21.73 21.74c-1.41 1.4-3.32 2.19-5.31 2.19h-23.91c-1.99 0-3.89-.79-5.3-2.19l-53.76-53.77h-5.67v-117.41h176.73l10 117.41z" fill="#486fff"/><path d="m494.12 293.102v44.11c0 1.98-.79 3.89-2.19 5.3l-21.24 21.24v21.64l15.07 15.08c1.41 1.4 2.2 3.31 2.2 5.3v20.19c0 1.98-.79 3.89-2.2 5.3l-18.35 18.35c-2.93 2.93-7.68 2.93-10.6 0l-14.69-14.69-24.41-24.41h-36.31v-117.41z" fill="#719dff"/><path d="m494.12 293.102v44.11c0 1.98-.79 3.89-2.19 5.3l-21.24 21.24v21.64l15.07 15.08c1.41 1.4 2.2 3.31 2.2 5.3v20.19c0 1.98-.79 3.89-2.2 5.3l-18.35 18.35c-2.93 2.93-7.68 2.93-10.6 0l-14.69-14.69 18.42-24.41-22.57-28.39v-30l23.72-25.43v-33.59z" fill="#486fff"/><path d="m512 169.622v28.62c0 1.99-.79 3.9-2.2 5.31l-15.68 15.68v73.87h-32.43v-89.72l20.71-23.58-24.87-25.85 15.65-15.65c2.93-2.92 7.67-2.93 10.6 0l26.02 26.02c1.41 1.41 2.2 3.31 2.2 5.3z" fill="#719dff"/><g><path d="m248.74 96.042c0-1.8-1.46-3.27-3.26-3.28-4.67-.03-9.09-.12-13.28-.26-42.34-1.47-61.39-8.53-87.1-13.98h-70.65v114.47c81.25 0 86.75 18.18 157.75 20.63 4.17.15 8.57.24 13.23.27 1.82.01 3.31-1.46 3.31-3.28v-16.2l-10-7.64 10-7.36v-17.57l-10-7.63 10-7.37v-18.6l-10-7.64 10-7.36z" fill="#ff394c"/><path d="m248.74 113.242-10 7.36 10 7.64v18.6l-10 7.37 10 7.63v17.57l-10 7.36 10 7.64v16.2c0 1.82-1.49 3.29-3.31 3.28-4.66-.03-9.06-.12-13.23-.27v-121.12c4.19.14 8.61.23 13.28.26 1.8.01 3.26 1.48 3.26 3.28z" fill="#e81a5a"/><path d="m248.74 113.242v15c-5.88 0-11.38-.1-16.54-.27-33.88-1.16-53.4-5.84-72.35-10.4-6.15-1.47-12.51-3-19.24-4.36l2.98-14.7c6.99 1.41 13.48 2.97 19.76 4.48 18.92 4.54 36.94 8.86 68.85 9.98 5.13.17 10.63.27 16.54.27z" fill="#ebebff"/><path d="m145.099 78.526v57.92h-70.65v-64.58c32.8 0 53.25 2.96 70.65 6.66z" fill="#486fff"/><g fill="#ebebff"><path d="m248.74 146.842v15c-5.88 0-11.38-.1-16.54-.27-33.88-1.16-53.4-5.84-72.36-10.39-21.96-5.27-42.71-10.25-85.39-10.25v-15c44.46 0 67.05 5.42 88.9 10.66 18.92 4.54 36.94 8.86 68.85 9.98 5.13.17 10.63.27 16.54.27z"/><path d="m248.74 179.412v15c-5.88 0-11.38-.09-16.54-.27-33.88-1.16-53.4-5.84-72.36-10.4-21.96-5.27-42.71-10.25-85.39-10.25v-15c44.46 0 67.05 5.42 88.9 10.67 18.92 4.54 36.94 8.86 68.85 9.98 5.13.17 10.63.27 16.54.27z"/></g><g fill="#d3d3ea"><path d="m248.74 113.242v15c-5.88 0-11.38-.1-16.54-.27v-15c5.13.17 10.63.27 16.54.27z"/><path d="m232.2 146.572c5.13.17 10.63.27 16.54.27v15c-5.88 0-11.38-.1-16.54-.27z"/><path d="m232.2 179.142c5.13.17 10.63.27 16.54.27v15c-5.88 0-11.38-.09-16.54-.27z"/></g><path d="m74.449 45.528c-4.142 0-7.5 3.358-7.5 7.5v189.186c0 4.142 3.358 7.5 7.5 7.5s7.5-3.358 7.5-7.5v-189.186c0-4.142-3.358-7.5-7.5-7.5z" fill="#413972"/></g></g></svg>