<svg id="Capa_1" enable-background="new 0 0 512 512" height="512" viewBox="0 0 512 512" width="512" xmlns="http://www.w3.org/2000/svg"><g><g><g><g><path d="m262.978 184.272-83.86 230.404c-3.146 8.645 1.311 18.204 9.956 21.35l141.686 51.569c8.645 3.147 18.204-1.311 21.35-9.956l83.86-230.404c3.146-8.645-1.311-18.204-9.956-21.35l-141.686-51.569c-8.645-3.146-18.203 1.311-21.35 9.956z" fill="#e3f0ff"/><path d="m313.573 45.264-39.2 107.702c-3.146 8.645 1.311 18.204 9.956 21.35l141.686 51.569c8.645 3.147 18.204-1.311 21.35-9.956l39.2-107.702c3.146-8.645-1.311-18.204-9.956-21.35l-141.686-51.569c-8.645-3.147-18.203 1.311-21.35 9.956z" fill="#ffece6"/><path d="m486.57 108.23-39.21 107.7c-3.14 8.64-12.7 13.1-21.35 9.96l-141.68-51.57c-8.65-3.15-13.1-12.71-9.96-21.35l4.99-13.71c14.77 7.65 31.53 11.97 49.31 11.97 49.97 0 91.97-34.13 103.97-80.35l43.97 16c8.639 3.14 13.099 12.7 9.96 21.35z" fill="#ffdbcf"/></g><g><path d="m397.434 215.483 28.58 10.402c8.645 3.146 13.102 12.705 9.956 21.35l-83.86 230.405c-3.147 8.645-12.705 13.102-21.35 9.956l-28.58-10.402z" fill="#48acff"/><path d="m397.616 352.611 28.482-78.253c4.299-11.812-1.552-24.888-13.209-29.589-.146-.059-.291-.117-.437-.176-12.213-4.927-26.077 1.275-30.582 13.651l-28.469 78.219c-4.062 11.16.926 23.578 11.567 28.852.141.07.283.14.424.21 12.44 6.166 27.476.132 32.224-12.914z" fill="#7cbaf7"/><path d="m409.131 320.976 8.072-22.177c4.289-11.783-1.511-24.856-13.134-29.561-.146-.059-.292-.118-.438-.177-12.237-4.951-26.141 1.218-30.656 13.622l-8.058 22.14c-4.035 11.085.846 23.447 11.375 28.765.141.071.282.142.423.214 12.47 6.293 27.638.299 32.416-12.826z" fill="#a9cffc"/><path d="m448.029 76.475 28.58 10.402c8.645 3.146 13.102 12.705 9.956 21.35l-39.2 107.702c-3.146 8.645-12.705 13.102-21.35 9.956l-28.58-10.402z" fill="#fe255f"/><path d="m459.546 182.462 13.965-38.368c4.242-11.656-1.388-24.594-12.813-29.423-.145-.061-.29-.122-.434-.184-12.285-5.194-26.415.95-30.977 13.484l-13.952 38.332c-4 10.989.783 23.206 11.137 28.641.14.074.28.147.421.22 12.47 6.526 27.838.525 32.653-12.702z" fill="#fc709b"/></g></g><path d="m346.552 512h-301.523c-11.379 0-20.604-9.225-20.604-20.604v-470.792c0-11.379 9.225-20.604 20.604-20.604h301.524c11.379 0 20.604 9.225 20.604 20.604v470.793c-.001 11.378-9.225 20.603-20.605 20.603z" fill="#12adb5"/><path d="m74.863 374.484v-206.901c0-13.927-11.29-25.217-25.217-25.217-13.927 0-25.217 11.29-25.217 25.217v206.901c0 13.927 11.29 25.216 25.217 25.216 13.927.001 25.217-11.289 25.217-25.216z" fill="#3cd3d3"/><path d="m74.863 318.313v-96.719c0-13.927-11.29-25.217-25.217-25.217-13.927 0-25.217 11.29-25.217 25.217v96.719c0 13.927 11.29 25.216 25.217 25.216 13.927.001 25.217-11.289 25.217-25.216z" fill="#57eae6"/><path d="m89.445 50.433h96.719c13.927 0 25.217-11.29 25.217-25.217 0-13.926-11.29-25.216-25.217-25.216h-96.719c-13.927 0-25.216 11.29-25.216 25.217 0 13.926 11.289 25.216 25.216 25.216z" fill="#3cd3d3"/><path d="m150.156 0h-25.916c-13.927 0-25.217 11.29-25.217 25.217 0 13.927 11.29 25.217 25.217 25.217h25.916c13.927 0 25.217-11.29 25.217-25.217-.001-13.927-11.29-25.217-25.217-25.217z" fill="#57eae6"/><path d="m367.159 20.6v470.8c0 11.38-9.23 20.6-20.61 20.6h-301.519c-11.38 0-20.6-9.22-20.6-20.6v-27.57c171.059-12.83 305.85-155.68 305.85-330.02 0-47.62-10.06-92.9-28.17-133.81h44.44c11.379 0 20.609 9.22 20.609 20.6z" fill="#0d8ba0"/><path d="m367.159 342.86v148.54c0 11.38-9.23 20.6-20.61 20.6h-180.79c89.42-23.93 162.94-86.7 201.4-169.14z" fill="#02718c"/></g><path d="m283.1 455.439h-169.263c-7.36 0-13.326-5.966-13.326-13.326 0-7.36 5.966-13.326 13.326-13.326h169.263c7.36 0 13.326 5.966 13.326 13.326.001 7.36-5.966 13.326-13.326 13.326z" fill="#ffc751"/><path d="m238.234 428.787h-89.159c-7.36 0-13.326 5.966-13.326 13.326 0 7.36 5.966 13.326 13.326 13.326h89.159c7.36 0 13.326-5.966 13.326-13.326 0-7.36-5.966-13.326-13.326-13.326z" fill="#ffe059"/><g><path d="m247.1 410.027h-97.263c-7.36 0-13.326-5.966-13.326-13.326 0-7.36 5.966-13.326 13.326-13.326h97.263c7.36 0 13.326 5.966 13.326 13.326.001 7.36-5.966 13.326-13.326 13.326z" fill="#ffc751"/><path d="m213.004 383.374h-35.159c-7.36 0-13.326 5.966-13.326 13.326 0 7.36 5.966 13.326 13.326 13.326h35.159c7.36 0 13.326-5.966 13.326-13.326 0-7.359-5.966-13.326-13.326-13.326z" fill="#ffe059"/></g><path d="m202.798 428.787h-24.81c-7.36 0-13.326 5.966-13.326 13.326 0 7.36 5.966 13.326 13.326 13.326h24.81c7.36 0 13.326-5.966 13.326-13.326 0-7.36-5.966-13.326-13.326-13.326z" fill="#fff370"/><g><g><g><g fill="#fcad97"><path d="m97.904 200.801c-5.988 0-11.001-4.537-11.598-10.495l-4.273-42.678h33.894l-6.496 43.248c-.857 5.705-5.758 9.925-11.527 9.925z"/><path d="m138.676 200.801c-5.988 0-11.001-4.537-11.598-10.495l-4.273-42.678h33.894l-6.496 43.248c-.858 5.705-5.759 9.925-11.527 9.925z"/><path d="m250.761 200.802c-5.988 0-11.001-4.537-11.598-10.495l-4.273-42.678h33.894l-6.496 43.248c-.857 5.705-5.758 9.925-11.527 9.925z"/><path d="m291.533 200.802c-5.988 0-11.001-4.537-11.598-10.495l-4.273-42.678h33.894l-6.496 43.248c-.857 5.706-5.758 9.925-11.527 9.925z"/></g><g><path d="m231.84 264.066-36.896-9.557v33.051h35.509c3.054 0 5.53-2.476 5.53-5.53v-12.61c.001-2.521-1.703-4.722-4.143-5.354z" fill="#29e088"/><path d="m235.982 269.418.002 12.616c-.002 3.044-2.476 5.526-5.534 5.527l-3.02.002c.561-8.422-3.247-16.911-10.737-21.983-6.648-4.502-14.707-5.316-21.746-2.893l-.002-8.176 36.896 9.558c2.439.627 4.144 2.831 4.141 5.349z" fill="#0cc166"/><path d="m158.048 264.065 36.896-9.557v33.051h-35.509c-3.054 0-5.53-2.476-5.53-5.53v-12.61c-.001-2.52 1.703-4.722 4.143-5.354z" fill="#29e088"/><path d="m194.944 254.509.006 33.049-18.741-.001c.988-8.146-2.521-16.547-9.783-21.465-1.772-1.2-3.648-2.113-5.586-2.747z" fill="#0cc166"/></g><g><path d="m333.807 185.347-129.848-.001.001-68.968 132.621 34.354c4.879 1.264 8.287 5.667 8.287 10.707v12.848c-.001 6.109-4.953 11.06-11.061 11.06z" fill="#ffdbcf"/><path d="m344.863 161.442.001 12.844c.008 6.108-4.949 11.066-11.06 11.06l-15.004-.003c-8.107-9.584-17.826-18.392-29.017-25.971-27.364-18.532-58.254-26.172-85.835-23.473l.004-19.52 132.633 34.352c4.874 1.267 8.277 5.669 8.278 10.711z" fill="#ffccb7"/><path d="m57.781 185.345 129.848.001.001-68.968-132.622 34.352c-4.879 1.264-8.287 5.667-8.287 10.707v12.848c0 6.108 4.952 11.06 11.06 11.06z" fill="#ffdbcf"/><path d="m187.629 116.378.001 68.968h-27.429c-4.932-15.839-15.084-30.186-29.889-40.212-5.85-3.962-12.056-7.001-18.44-9.136z" fill="#ffccb7"/></g><g><path d="m203.959 168.441v16.906l129.848.001c6.109 0 11.061-4.952 11.061-11.06v-5.845z" fill="#29e088"/><path d="m290.818 168.442h-49.527c-5.253 0-9.212 4.785-8.222 9.944.011.056.022.113.032.169.757 3.942 4.207 6.793 8.222 6.793h49.527c5.248 0 9.204-4.775 8.225-9.93-.011-.056-.021-.113-.032-.169-.751-3.95-4.206-6.807-8.225-6.807z" fill="#79ff79"/><path d="m272.787 168.441h-14.438c-4.306 0-7.91 3.268-8.323 7.554-.005.056-.011.113-.016.169-.476 4.921 3.379 9.182 8.323 9.182h14.442c4.382 0 8.028-3.38 8.346-7.75.004-.056.008-.113.012-.169.353-4.851-3.481-8.985-8.346-8.986z" fill="#c2ffc2"/><path d="m46.721 168.44v5.845c0 6.109 4.952 11.061 11.06 11.061l129.848.001v-16.906z" fill="#29e088"/><path d="m121.803 168.44h-41.423c-5.256 0-9.215 4.79-8.215 9.95.011.056.022.113.033.169.763 3.938 4.203 6.786 8.215 6.786h41.423c5.256 0 9.211-4.788 8.217-9.95-.011-.056-.022-.113-.033-.169-.758-3.938-4.206-6.786-8.217-6.786z" fill="#79ff79"/><path d="m111.338 168.44h-15.165c-4.771 0-8.582 3.982-8.359 8.748.003.056.005.113.008.169.209 4.469 3.885 7.988 8.359 7.988h15.161c4.686 0 8.448-3.848 8.367-8.533-.001-.056-.002-.113-.003-.169-.08-4.556-3.81-8.203-8.368-8.203z" fill="#c2ffc2"/><path d="m187.626 168.445.003 16.902h-27.429c-1.834-5.886-4.385-11.566-7.639-16.905z" fill="#0cc166"/></g><path d="m224.968 132.748c0 51.188-13.063 167.874-29.175 167.874s-29.173-116.687-29.172-167.874c0-51.188 13.062-73.901 29.174-73.901s29.173 22.714 29.173 73.901z" fill="#ffece6"/></g></g><path d="m344.868 168.443-.004 5.843c.008 6.108-4.949 11.066-11.06 11.06l-15.004-.003c-5.054-5.968-10.73-11.642-17.005-16.902z" fill="#0cc166"/><path d="m184.016 90.623c-7.536-.994-14.467 4.274-15.517 11.802-1.214 8.704-1.881 18.787-1.884 30.323.002 22.776 2.59 58.511 6.881 91.17.973 7.403 7.455 12.827 14.915 12.522l.294-.012c8.52-.348 14.872-7.949 13.743-16.4-4.422-33.092-7.096-69.642-7.094-92.803-.001-7.854.308-15.033.888-21.563.658-7.404-4.588-14.03-11.956-15.003-.091-.012-.18-.024-.27-.036z" fill="#fff7f5"/><path d="m167.094 152.086c.543 12.325 1.535 26.347 2.904 40.743.791 8.318 8.503 14.202 16.736 12.774l.369-.064c7.449-1.292 12.616-8.118 11.879-15.642-1.34-13.688-2.345-27.11-2.952-39.141-.389-7.695-6.779-13.705-14.484-13.613-.096.001-.192.002-.288.003-8.094.095-14.52 6.854-14.164 14.94z" fill="#fff"/></g></g></svg>