<?xml version="1.0" encoding="utf-8"?>
<!-- Generator: Adobe Illustrator 23.0.0, SVG Export Plug-In . SVG Version: 6.00 Build 0)  -->
<svg version="1.1" id="Capa_1" xmlns="http://www.w3.org/2000/svg" xmlns:xlink="http://www.w3.org/1999/xlink" x="0px" y="0px"
	 viewBox="0 0 42.6 42.6" style="enable-background:new 0 0 42.6 42.6;" xml:space="preserve">
<style type="text/css">
	.st0{fill:#4E5ED7;}
</style>
<g>
	<circle class="st0" cx="30.5" cy="21.5" r="1.9"/>
	<path class="st0" d="M15.7,17.8h11.1c0.5,0,0.9-0.4,0.9-0.9c0-0.5-0.4-0.9-0.9-0.9H15.7c-0.5,0-0.9,0.4-0.9,0.9
		C14.8,17.4,15.2,17.8,15.7,17.8z"/>
	<path class="st0" d="M38.9,20.6c-0.5,0-1-0.3-1.3-0.8c-0.7-1.5-1.7-2.9-3-4.2l1.4-4.9c0.1-0.3,0-0.6-0.1-0.8
		c-0.2-0.2-0.4-0.4-0.7-0.4c-2.5-0.1-4.5,0.7-6.1,2.5c-0.7-0.3-1.6-0.6-2.4-0.8c0.7-1,1-2.2,1-3.5c0-3.6-2.9-6.5-6.5-6.5
		c-3.6,0-6.5,2.9-6.5,6.5s2.9,6.5,6.5,6.5c1.5,0,3-0.5,4.1-1.4c1.2,0.3,2.7,0.8,3.6,1.3c0.4,0.2,0.9,0.1,1.1-0.3
		c1-1.3,2.2-2.1,3.8-2.3l-1.2,4.2c-0.1,0.3,0,0.7,0.3,0.9c1.3,1.2,2.3,2.5,3,4c0.6,1.2,1.7,1.9,2.9,1.9c0.5,0,0.9,0.4,0.9,0.9v3.7
		c0,0.5-0.4,0.9-0.9,0.9h-1.5c-0.3,0-0.5,0.1-0.7,0.3c-0.5,0.5-0.9,0.9-1.3,1.3c-0.5,0.5-1,1-1.8,1.8c-1.4,1.5-2.2,3.6-2.2,5.8v1
		c0,0.5-0.4,0.9-0.9,0.9h-1.9c-0.5,0-0.9-0.4-0.9-0.9v-1.7c0-0.5-0.4-0.9-0.9-0.9s-0.9,0.4-0.9,0.9v1.7c0,1.5,1.2,2.8,2.8,2.8h1.9
		c1.5,0,2.8-1.2,2.8-2.8v-1c0-1.8,0.6-3.4,1.7-4.6c0.7-0.8,1.2-1.3,1.7-1.7c0.3-0.3,0.7-0.6,1-1h1.1c1.5,0,2.8-1.2,2.8-2.8v-3.7
		C41.6,21.8,40.4,20.6,38.9,20.6z M16.6,7.6c0-2.6,2.1-4.6,4.6-4.6s4.6,2.1,4.6,4.6s-2.1,4.6-4.6,4.6S16.6,10.2,16.6,7.6z"/>
	<path class="st0" d="M23.4,36.2c-2.8,0.3-5.7,0-8.3-0.9c-0.3-0.1-0.6-0.1-0.8,0.1c-0.2,0.2-0.4,0.5-0.4,0.8v2
		c0,0.5-0.4,0.9-0.9,0.9h-1.9c-0.5,0-0.9-0.4-0.9-0.9v-2.1c0-2-0.7-3.9-1.9-5.4c-0.3-0.4-0.6-0.7-0.8-1c-0.7-0.9-1.2-1.5-1.6-2.3
		c-0.2-0.6-0.3-1.3-0.3-2.2c0-4.9,3.3-9.4,8.7-11.6c0.5-0.2,0.7-0.7,0.5-1.2c-0.2-0.5-0.7-0.7-1.2-0.5C7.9,14.2,4.2,18.8,3.7,24
		c-0.6-0.3-1-0.9-1-1.6c0-0.5-0.4-0.9-0.9-0.9s-0.9,0.4-0.9,0.9c0,1.7,1.2,3.2,2.8,3.6c0.1,0.8,0.2,1.4,0.5,2c0.4,1,1,1.8,1.8,2.7
		c0.2,0.3,0.5,0.6,0.8,1c1,1.2,1.5,2.7,1.5,4.3v2.1c0,1.5,1.2,2.8,2.8,2.8h1.9c1.5,0,2.8-1.2,2.8-2.8v-0.8c2.5,0.7,5.3,0.9,7.9,0.6
		c0.5-0.1,0.9-0.5,0.8-1C24.4,36.5,23.9,36.1,23.4,36.2z"/>
	<path class="st0" d="M22.2,8.5V5.8c0-0.5-0.4-0.9-0.9-0.9h-0.9c-0.5,0-0.9,0.4-0.9,0.9s0.4,0.9,0.9,0.9v1.9c-0.5,0-0.9,0.4-0.9,0.9
		c0,0.5,0.4,0.9,0.9,0.9h1.9c0.5,0,0.9-0.4,0.9-0.9C23.1,9,22.7,8.5,22.2,8.5z"/>
</g>
</svg>
