<?xml version="1.0" encoding="utf-8"?>
<!-- Generator: Adobe Illustrator 23.0.0, SVG Export Plug-In . SVG Version: 6.00 Build 0)  -->
<svg version="1.1" id="Capa_1" xmlns="http://www.w3.org/2000/svg" xmlns:xlink="http://www.w3.org/1999/xlink" x="0px" y="0px"
	 viewBox="0 0 215 214" style="enable-background:new 0 0 215 214;" xml:space="preserve">
<style type="text/css">
	.st0{fill:#4E5ED7;}
	.st1{fill:#FFFFFF;}
</style>
<circle class="st0" cx="107.28" cy="106.84" r="104.72"/>
<g id="XMLID_11850_">
	<path id="XMLID_11862_" class="st1" d="M145.66,39.34c-0.81-0.64-1.86-0.89-2.87-0.67l-81.5,18.09l-0.01,0l-0.05,0.01
		c-0.2,0.05-0.4,0.11-0.58,0.18c-0.04,0.02-0.07,0.04-0.11,0.06c-0.15,0.07-0.31,0.15-0.45,0.24c-0.06,0.04-0.11,0.09-0.17,0.13
		c-0.11,0.08-0.22,0.17-0.32,0.26c-0.06,0.06-0.11,0.12-0.16,0.18c-0.08,0.09-0.16,0.19-0.24,0.29c-0.05,0.07-0.1,0.14-0.14,0.22
		c-0.06,0.1-0.12,0.21-0.17,0.32c-0.04,0.08-0.07,0.16-0.1,0.24c-0.05,0.12-0.08,0.24-0.11,0.36c-0.02,0.08-0.04,0.16-0.06,0.24
		c-0.03,0.14-0.04,0.29-0.04,0.44c0,0.06-0.02,0.11-0.02,0.16V171.7c0,1.88,1.52,3.4,3.4,3.4h90.62c1.88,0,3.4-1.52,3.4-3.4V60.09
		c0-1.88-1.52-3.4-3.4-3.4h-5.66v-14.7C146.93,40.96,146.47,39.98,145.66,39.34z M140.13,56.69H92.99l47.15-10.46V56.69z
		 M149.19,168.3H65.37V63.49h83.82V168.3z"/>
	<path id="XMLID_11859_" class="st1" d="M82.19,152.13h3.64v-7.31h1.49c3.02,0,5.45-2.46,5.45-5.48c0-3.04-2.43-5.5-5.47-5.5h-5.11
		V152.13z M85.83,137.51h1.47c1.01,0,1.83,0.82,1.83,1.83c0,0.99-0.82,1.81-1.83,1.81h-1.47V137.51z"/>
	<path id="XMLID_11856_" class="st1" d="M98.66,133.85l-6.61,18.28h3.88l1.86-5.11h5.62l1.86,5.11h3.88l-6.61-18.28H98.66z
		 M99.12,143.35l1.47-4.12l1.49,4.12H99.12z"/>
	<path id="XMLID_11855_" class="st1" d="M122.15,146.65c0-3.09-2.29-5.16-5.28-5.31c-0.91-0.04-1.86-0.17-2.44-0.82
		c-0.26-0.34-0.43-0.75-0.43-1.18c0-1.01,0.82-1.83,1.83-1.83c1.11,0,2.15,0.34,2.99,0.89l2.63-2.63c-1.55-1.21-3.5-1.93-5.62-1.93
		c-3.01,0-5.47,2.46-5.47,5.5c0,2.58,1.78,4.73,4.17,5.33c0.92,0.22,2.36,0.07,3.23,0.58c0.51,0.29,0.72,0.85,0.72,1.4
		c0,1.01-0.82,1.83-1.81,1.83c-1.45,0-2.75-0.55-3.74-1.47l-2.58,2.58c1.64,1.57,3.86,2.53,6.32,2.53
		C119.69,152.13,122.15,149.67,122.15,146.65z"/>
	<path id="XMLID_11854_" class="st1" d="M128.83,137.51c1.11,0,2.15,0.34,2.99,0.89l2.63-2.63c-1.54-1.21-3.5-1.93-5.62-1.93
		c-3.02,0-5.47,2.46-5.47,5.5c0,2.58,1.78,4.73,4.17,5.33c0.92,0.22,2.36,0.07,3.23,0.58c0.51,0.29,0.72,0.85,0.72,1.4
		c0,1.01-0.82,1.83-1.81,1.83c-1.45,0-2.75-0.55-3.74-1.47l-2.58,2.58c1.64,1.57,3.86,2.53,6.32,2.53c3.02,0,5.47-2.46,5.47-5.47
		c0-3.09-2.29-5.16-5.28-5.31c-0.92-0.04-1.86-0.17-2.44-0.82c-0.26-0.34-0.43-0.75-0.43-1.18
		C127,138.33,127.82,137.51,128.83,137.51z"/>
	<path id="XMLID_11851_" class="st1" d="M107.28,121.43c13.03,0,23.63-10.6,23.63-23.63c0-13.03-10.6-23.63-23.63-23.63
		s-23.63,10.6-23.63,23.63C83.65,110.82,94.25,121.43,107.28,121.43z M107.28,80.96c9.28,0,16.83,7.55,16.83,16.83
		s-7.55,16.83-16.83,16.83c-9.28,0-16.83-7.55-16.83-16.83S98,80.96,107.28,80.96z"/>
</g>
</svg>
