<?xml version="1.0" encoding="utf-8"?>
<!-- Generator: Adobe Illustrator 23.0.0, SVG Export Plug-In . SVG Version: 6.00 Build 0)  -->
<svg version="1.1" id="Capa_1" xmlns="http://www.w3.org/2000/svg" xmlns:xlink="http://www.w3.org/1999/xlink" x="0px" y="0px"
	 viewBox="0 0 215 214" style="enable-background:new 0 0 215 214;" xml:space="preserve">
<style type="text/css">
	.st0{fill:#4E5ED7;}
	.st1{fill:#FFFFFF;}
</style>
<circle class="st0" cx="107.65" cy="106.76" r="105.35"/>
<g>
	<path class="st1" d="M177.55,126.67c-4.47-12.96-13.53-20.67-27.02-23.17c-0.42-0.08-0.85-0.15-1.4-0.25c0-0.44,0-0.9,0-1.36
		c0-9.78-0.01-19.57,0.01-29.35c0-0.76-0.2-1.3-0.75-1.84c-6.52-6.48-13.01-13-19.54-19.47c-0.41-0.41-1.12-0.73-1.7-0.73
		c-22.34-0.04-44.69-0.03-67.03-0.03c-0.35,0-0.69,0-1.18,0c0,40.14,0,80.19,0,120.25c30.06,0,60.12,0,90.19,0
		c0.89-0.22,1.76-0.47,2.66-0.65c14.58-2.8,25.64-14.83,27.19-29.58c0.04-0.34,0.14-0.68,0.21-1.01c0-1.72,0-3.44,0-5.17
		C178.67,131.75,178.4,129.11,177.55,126.67z M126.62,60.13c4.23,4.23,8.59,8.59,12.81,12.81c-4,0-8.34,0-12.81,0
		C126.62,68.52,126.62,64.2,126.62,60.13z M66.56,163.09c0-34.96,0-69.96,0-105.04c17.45,0,34.91,0,52.51,0c0,7.46,0,14.9,0,22.44
		c7.55,0,14.97,0,22.47,0c0,7.62,0,15.15,0,22.78c-7.97,1.03-14.77,4.33-20.37,10.04c-3.16,3.23-5.58,6.95-7.2,11.16
		c-0.34,0.87-0.72,1.16-1.66,1.16c-10.14-0.04-20.27-0.02-30.41-0.02c-2.06,0-3.94,0.54-5.56,1.86c-1.48,1.21-2.29,2.86-2.3,4.71
		c-0.07,7.78-0.03,15.56-0.03,23.49c0.5,0,0.95,0,1.41,0c13.54,0,27.08,0.01,40.62-0.02c0.87,0,1.36,0.28,1.92,0.96
		c1.83,2.23,3.79,4.36,5.65,6.48C104.77,163.09,85.71,163.09,66.56,163.09z M145.28,163.19c-14.46-0.05-26.23-11.9-26.2-26.37
		c0.03-14.47,11.86-26.24,26.34-26.23c14.51,0.02,26.32,11.9,26.26,26.42C171.62,151.46,159.74,163.24,145.28,163.19z"/>
	<path class="st1" d="M103.93,118.1c8.35,0.04,15.14-6.68,15.15-15c0.01-8.29-6.7-15.04-14.97-15.06
		c-8.3-0.02-15.05,6.67-15.09,14.94C88.99,111.28,95.67,118.06,103.93,118.1z"/>
	<path class="st1" d="M156.87,127.65c-0.95-5.6-5.18-9.37-10.57-9.55c-6.45-0.22-10.77,2.79-12.19,8.68
		c-0.49,2.02-0.54,4.15-0.81,6.37c-0.86,0-1.86,0-2.86,0c0,6.32,0,12.51,0,18.68c10.04,0,19.99,0,29.91,0c0-6.26,0-12.43,0-18.71
		c-1.06,0-2.07,0-2.98,0C157.2,131.21,157.16,129.41,156.87,127.65z M141.12,133.06c-0.26-1.82-0.12-3.59,0.52-5.3
		c0.65-1.75,2.1-2.15,3.78-2.14c2.05,0.01,3.25,0.58,3.69,2.22c0.45,1.65,0.55,3.4,0.82,5.23
		C146.77,133.06,143.97,133.06,141.12,133.06z"/>
</g>
</svg>
