<?xml version="1.0" encoding="utf-8"?>
<!-- Generator: Adobe Illustrator 23.0.0, SVG Export Plug-In . SVG Version: 6.00 Build 0)  -->
<svg version="1.1" id="Capa_1" xmlns="http://www.w3.org/2000/svg" xmlns:xlink="http://www.w3.org/1999/xlink" x="0px" y="0px"
	 viewBox="0 0 215 214" style="enable-background:new 0 0 215 214;" xml:space="preserve">
<style type="text/css">
	.st0{fill:#4E5ED7;}
	.st1{fill:#FFFFFF;}
</style>
<circle class="st0" cx="107.37" cy="107.18" r="103.63"/>
<path class="st1" d="M51.73,67.52c21.44,0.46,40.53-5.02,55.69-21.07C122.61,62.52,141.7,68,163.11,67.52
	c0.28,3.02,0.65,5.89,0.79,8.76c0.98,20.03-2.32,39.26-11,57.43c-8.35,17.48-20.88,31.27-37.14,41.72
	c-2.43,1.56-4.95,3.01-7.47,4.43c-0.43,0.24-1.2,0.28-1.62,0.05c-28.78-15.77-46.51-39.78-53.33-71.84
	c-2.27-10.66-3.08-21.44-2.36-32.33C51.16,73.08,51.46,70.42,51.73,67.52z M107.62,55.01c-3.46,2.48-6.71,5.12-10.24,7.3
	C85.43,69.69,72.29,73,58.34,73.39c-0.96,0.03-1.27,0.27-1.34,1.24c-1.18,16.66,0.98,32.86,6.88,48.49
	c8.2,21.7,22.56,38.18,42.55,49.84c0.68,0.4,1.19,0.48,1.91,0.06c15.14-8.84,27.41-20.57,36.04-35.9
	c10.87-19.31,14.84-40.16,13.48-62.14c-0.03-0.5-0.16-1-0.24-1.51C138.71,72.95,121.75,67.57,107.62,55.01z"/>
<path class="st1" d="M62.61,78.42c16.65-0.8,31.76-5.77,44.75-16.52c1.99,1.46,3.91,2.98,5.94,4.33
	c11.16,7.43,23.52,11.19,36.84,12.04c0.35,0.02,0.7,0.06,1.05,0.05c0.91-0.04,1.17,0.4,1.2,1.27c0.76,17.59-2.23,34.45-10.03,50.31
	c-7.67,15.59-19.2,27.64-34.06,36.57c-0.65,0.39-1.13,0.39-1.78,0c-21.13-12.78-34.69-31.19-40.87-55.06
	c-2.7-10.44-3.8-21.05-3.17-31.83C62.51,79.24,62.56,78.89,62.61,78.42z"/>
</svg>
