<?xml version="1.0" encoding="utf-8"?>
<!-- Generator: Adobe Illustrator 23.0.0, SVG Export Plug-In . SVG Version: 6.00 Build 0)  -->
<svg version="1.1" id="Capa_1" xmlns="http://www.w3.org/2000/svg" xmlns:xlink="http://www.w3.org/1999/xlink" x="0px" y="0px"
	 viewBox="0 0 215 214" style="enable-background:new 0 0 215 214;" xml:space="preserve">
<style type="text/css">
	.st0{fill:#4E5ED7;}
	.st1{fill:#FFFFFF;}
</style>
<circle class="st0" cx="107.05" cy="107.02" r="103.95"/>
<g>
	<path class="st1" d="M165.91,114.75c-15.97-12.49-31.2-24.48-46.52-36.36c-11.09-8.61-8.32-8.6-19.28-0.1
		c-14.13,10.96-28.16,22.04-42.24,33.05c-1.32,1.03-2.76,1.91-4.62,3.19c-2.87-3.83-5.84-7.29-8.23-11.11
		c-2.4-3.83-1.12-7.3,2.34-9.98c4.81-3.73,9.93-7.13,14.33-11.28c2.04-1.93,3.55-5.22,3.83-8.04c0.58-5.84,0.17-11.78,0.18-17.68
		c0.02-4.85,1.99-7.98,7.23-8.44c8.65-0.77,11.64,0.63,13.23,6.37c1.59,5.71,3.53,6.39,8.31,2.82c3.35-2.5,6.63-5.1,9.96-7.64
		c3.48-2.65,6.99-2.69,10.47-0.03c19.01,14.59,38.03,29.18,57.01,43.8c4.18,3.22,4.78,7.15,1.68,11.45
		C171.27,107.99,168.77,111.06,165.91,114.75z"/>
	<path class="st1" d="M147.7,107.74c7.77,4.45,13.43,8.21,12.78,17.5c-0.72,10.22-0.14,20.53-0.17,30.81
		c-0.03,7.99-2.3,10.4-10.04,10.41c-27.01,0.04-54.03,0.04-81.04,0c-7.77-0.01-10.09-2.42-10.12-10.33
		c-0.04-10.08,0.61-20.22-0.19-30.23c-0.75-9.44,4.59-13.65,12.52-17.99c0.28,2.61,0.66,4.51,0.67,6.41
		c0.06,10.84,0.17,21.69-0.03,32.53c-0.09,4.95,1.85,6.66,6.77,6.61c20.54-0.18,41.09-0.21,61.64,0.01
		c5.35,0.06,7.02-2.05,6.92-7.09c-0.21-10.46-0.08-20.93-0.05-31.39C147.34,112.96,147.53,110.94,147.7,107.74z"/>
</g>
</svg>
