<?xml version="1.0" encoding="utf-8"?>
<!-- Generator: Adobe Illustrator 23.0.0, SVG Export Plug-In . SVG Version: 6.00 Build 0)  -->
<svg version="1.1" id="Capa_1" xmlns="http://www.w3.org/2000/svg" xmlns:xlink="http://www.w3.org/1999/xlink" x="0px" y="0px"
	 viewBox="0 0 215 214" style="enable-background:new 0 0 215 214;" xml:space="preserve">
<style type="text/css">
	.st0{fill:#4E5ED7;}
	.st1{fill:#FFFFFF;}
</style>
<circle class="st0" cx="107.32" cy="107.39" r="104.68"/>
<g id="XMLID_9043_">
	<path id="XMLID_9044_" class="st1" d="M145.75,56.63l-12.94,12.94c-0.65-0.09-1.3-0.15-1.95-0.2c-4.64-1.88-12.88-3.2-22.55,4.25
		l-0.23,0.2L104.9,77c-11.95-8.11-21.44-3.11-24.11-1.35L68.89,63.74l-37.53,37.53l14.23,14.23c0.11,6.38,2.38,12.91,6.78,19.52
		c1.81,2.72,3.93,5.23,6.23,7.55c2.93,2.97,5.9,5.91,8.86,8.86c-3.2,4.67-1.83,8.52,1.51,12c3.46,3.61,6.65,4.03,11.35,2.67
		c0.04-0.01,0.09,0,0.11,0.04c3.37,5.04,6.47,7.49,9.82,7.76c1.39,1.35,2.77,2.72,4.16,4.06c4.14,4,10.46,4.89,15.45,2.03
		c2.16-1.23,2.52-2.25,3.63-4.01c8.45,7.09,14.08,7.22,20.72-2.73c0.03-0.04,0.07-0.05,0.11-0.04c4.69,1.36,7.88,0.94,11.35-2.67
		c3.53-3.67,4.87-7.77,0.93-12.8c-0.03-0.04-1.05-1.36-1-1.36c2.81,0.09,5.04-1.7,6.26-3.29c3.27-4.23,3.07-8.66-0.44-13.03
		c1.53-1.54,3.08-3.06,4.61-4.61c2.3-2.33,4.42-4.83,6.23-7.55c4.41-6.61,6.67-13.14,6.78-19.52l14.23-14.23L145.75,56.63z
		 M60.88,137.13c-4.32-4.56-7.55-9.6-8.97-15.31c-0.32-1.27-0.54-2.58-0.67-3.92c-0.1-1.1-0.14-2.21-0.1-3.36l-14.43-14.43
		L67.73,69.1l9.94,9.94l0.65,0.65l-0.04,0.1l4.8,0.4l0.31-0.78c1.89-1.29,9.76-5.65,20.26,2.35l13.89,13.95
		c0.7,0.7,1.08,1.64,1.07,2.64c0,1-0.39,1.93-1.09,2.63l-0.92,0.92c-1.46,1.45-3.82,1.44-5.27-0.01L97.15,87.62l-3.45,2.41l3.84,4.5
		l1.66,1.67c-1.63,1.63-3.27,3.27-4.9,4.9c-0.41,0.41-0.64,0.85-0.75,1.3c-0.08,0.08-0.16,0.17-0.24,0.25
		c-9.55,9.56-19.13,19.1-28.66,28.69C62.74,133.26,61.49,135.2,60.88,137.13z M106.94,175.83c-1.1,1.04-2.23,1.68-3.87,1.55
		c-2.27-0.18-3.84-1.91-4.94-2.99c-0.67-0.66-1.34-1.33-2.01-2c1.58-0.85,3.24-2.02,5.03-3.52c1.11,1.75,1.47,2.77,3.63,4.01
		c0.97,0.56,1.99,0.97,3.03,1.24C107.62,174.83,107.34,175.45,106.94,175.83z M127.41,173.91c-2.13,2.5-4.57,2.72-7.68-0.17
		c-0.48-0.45-0.96-0.91-1.44-1.36c0.68-0.45,1.33-0.96,1.93-1.53c1.78-1.72,3.54-3.47,5.32-5.19c0.19,0.19,0.38,0.38,0.57,0.57
		C129.04,169.17,129.43,171.54,127.41,173.91z M142.26,166.15c-2.15,2.94-5.44,3-8.39,0.07c-1.46-1.46-2.92-2.93-4.39-4.39
		c2.41-2.36,4.84-4.7,7.24-7.07c1.36,1.36,2.72,2.72,4.08,4.08C143.42,161.46,143.87,163.95,142.26,166.15z M148.27,148.76
		c-1.09,2.74-4.35,4.03-6.93,2.61c-0.25-0.14-0.5-0.3-0.73-0.46c2.32-2.31,4.63-4.63,6.94-6.95
		C148.55,145.28,149.07,146.76,148.27,148.76z M163.5,107.43c0.03,1.14,0,2.26-0.11,3.36c-0.12,1.34-0.35,2.65-0.66,3.92
		c-1.42,5.73-4.68,10.79-9.03,15.37c-5.89,6.2-12.07,12.13-18.12,18.18c-6.35,6.35-12.67,12.73-19.07,19.02
		c-1.1,1.08-2.67,2.81-4.94,2.99c-1.65,0.13-2.77-0.51-3.87-1.55c-0.99-0.94-1.31-3.29-0.92-4.76c0.41-1.59,1.83-3.04,3.06-4.3
		c2.89-2.96,5.84-5.87,8.76-8.8c1.42-1.43,2.84-2.86,4.24-4.31c1.49-1.54,5.86-4.8,3.41-7.09c-2.25-2.1-5.46,1.95-6.82,3.31
		c-1.42,1.43-2.85,2.86-4.3,4.27c-6.72,6.56-13.35,13.22-20.23,19.6c-3.11,2.89-5.55,2.67-7.68,0.17c-2.02-2.37-1.63-4.74,1.3-7.68
		c7.61-7.63,15.24-15.24,22.85-22.86c1.07-1.07,2-1.77,2.19-3.4c0.14-1.21-0.3-2.28-1.54-2.46c-2.1-0.31-3.01,0.49-4.35,1.83
		c-8.96,8.96-17.92,17.94-26.9,26.88c-2.95,2.94-6.24,2.87-8.39-0.07c-1.61-2.2-1.16-4.69,1.46-7.31
		c9.09-9.13,18.21-18.25,27.34-27.34c1.49-1.48,2.66-3.14,0.83-4.85c-1.74-1.63-3.25-0.19-4.58,1.15
		c-7.01,7.04-14.03,14.06-21.07,21.06c-0.94,0.93-1.92,1.88-3.06,2.51c-2.58,1.42-5.84,0.13-6.93-2.61c-1.12-2.8,0.32-4.58,2.1-6.36
		c11.65-11.61,23.31-23.23,34.85-34.94l4.77,4.79c1.62,1.63,3.76,2.45,5.9,2.45c2.13,0,4.25-0.81,5.87-2.42l0.92-0.91
		c1.57-1.56,2.44-3.65,2.45-5.88c0-2.09-0.78-4.05-2.17-5.58L110.48,82.1l0,0l-2.08-2.09l2.82-2.84c4.37-3.33,8.28-4.5,11.5-4.66
		c5.89-0.53,11.1,2.55,11.1,2.55l3.13-3.13l9.94-9.95L177.92,93L163.5,107.43z"/>
</g>
</svg>
