<?xml version="1.0" encoding="utf-8"?>
<!-- Generator: Adobe Illustrator 23.0.0, SVG Export Plug-In . SVG Version: 6.00 Build 0)  -->
<svg version="1.1" id="Capa_1" xmlns="http://www.w3.org/2000/svg" xmlns:xlink="http://www.w3.org/1999/xlink" x="0px" y="0px"
	 viewBox="0 0 215 214" style="enable-background:new 0 0 215 214;" xml:space="preserve">
<style type="text/css">
	.st0{fill:#4E5ED7;}
	.st1{fill:#FFFFFF;}
</style>
<circle class="st0" cx="107.97" cy="106.84" r="106.03"/>
<g id="XMLID_8978_">
	<path id="XMLID_8984_" class="st1" d="M33.34,145.93c0.49,0.49,1.16,0.77,1.86,0.77l41.91-0.01c-0.5,2.79-0.83,5.78-0.87,9.02
		c-0.01,0.7,0.26,1.37,0.75,1.87c0.49,0.49,1.16,0.77,1.86,0.77l57.77-0.01c1.41,0,2.56-1.12,2.61-2.52
		c0.01-0.36,0.11-4.06-0.67-9.12l42.18-0.01c1.41,0,2.56-1.12,2.61-2.52c0.03-0.9,0.57-22.05-12.69-34.21
		c-0.93-0.86-2.35-0.91-3.35-0.15c-0.15,0.12-15.58,11.71-29.94,0.01c-0.99-0.8-2.4-0.78-3.36,0.05c-0.31,0.27-4.53,4.02-8.19,11.27
		c-0.85-0.37-1.85-0.27-2.62,0.31c-0.63,0.48-15.66,11.66-29.95,0.02c-0.7-0.57-1.62-0.72-2.43-0.46
		c-1.84-3.96-4.39-7.84-7.92-11.07c-0.93-0.86-2.35-0.91-3.35-0.15c-0.15,0.12-15.58,11.71-29.94,0.01c-0.98-0.8-2.4-0.78-3.36,0.05
		c-0.54,0.47-13.31,11.82-13.63,34.17C32.58,144.76,32.85,145.43,33.34,145.93z M135.97,115.33c13.65,9.53,27.58,2.91,32.57-0.1
		c7.76,8.33,9.25,20.92,9.52,26.25l-40.56,0.01c-1.32-5.33-3.65-11.32-7.76-16.41C131.93,120.35,134.43,117.07,135.97,115.33z
		 M91.85,126.98c13.65,9.52,27.58,2.91,32.57-0.1c7.76,8.33,9.25,20.92,9.53,26.25l-52.39,0.01
		C82.49,139.11,88.92,130.31,91.85,126.98z M48.2,115.33c13.65,9.53,27.58,2.91,32.58-0.1c2.68,2.88,4.59,6.25,5.99,9.67
		c-2.6,3.21-6.21,8.73-8.46,16.58l-40.39,0C38.83,127.45,45.27,118.65,48.2,115.33z"/>
	<path id="XMLID_8979_" class="st1" d="M64.09,107.73L64.09,107.73c6.6,0,12.79-2.57,17.46-7.25c0.65-0.64,1.24-1.33,1.81-2.03
		c1.82,11.83,12.05,20.93,24.38,20.93h0.01c6.59,0,12.78-2.58,17.45-7.25c3.9-3.89,6.31-8.86,7.01-14.21
		c4.51,5.94,11.64,9.8,19.66,9.8h0c6.59,0,12.79-2.57,17.45-7.25c4.67-4.67,7.24-10.87,7.24-17.46c0-13.62-11.09-24.69-24.7-24.69
		c-6.59,0-12.79,2.58-17.46,7.25c-3.89,3.89-6.3,8.86-7,14.22c-4.51-5.94-11.64-9.81-19.66-9.81c-6.59,0-12.79,2.58-17.46,7.25
		c-0.64,0.64-1.24,1.33-1.8,2.03c-1.83-11.84-12.05-20.93-24.38-20.93c-6.59,0-12.79,2.58-17.46,7.25
		c-4.67,4.67-7.24,10.87-7.24,17.46C39.39,96.66,50.47,107.73,64.09,107.73z M138.08,69.27c3.68-3.69,8.58-5.72,13.77-5.72
		c10.74,0,19.48,8.74,19.48,19.48c0,5.19-2.03,10.08-5.71,13.77c-3.68,3.69-8.57,5.72-13.76,5.72h0c-10.74,0-19.48-8.73-19.48-19.47
		C132.37,77.84,134.4,72.96,138.08,69.27z M93.96,80.93c3.69-3.69,8.58-5.72,13.77-5.72c10.74,0,19.48,8.73,19.48,19.47
		c0,5.19-2.03,10.08-5.71,13.77c-3.68,3.68-8.57,5.71-13.76,5.71h-0.01c-10.74,0-19.48-8.73-19.48-19.47
		C88.25,89.51,90.28,84.61,93.96,80.93z M50.31,69.27c3.68-3.69,8.58-5.72,13.77-5.72c10.74,0,19.47,8.74,19.48,19.48
		c0,5.19-2.03,10.08-5.71,13.77c-3.68,3.69-8.57,5.72-13.76,5.72h0c-10.74,0-19.48-8.73-19.48-19.47
		C44.6,77.84,46.63,72.96,50.31,69.27z"/>
</g>
</svg>
