<?xml version="1.0" encoding="utf-8"?>
<!-- Generator: Adobe Illustrator 24.1.0, SVG Export Plug-In . SVG Version: 6.00 Build 0)  -->
<svg version="1.1" id="Capa_1" xmlns="http://www.w3.org/2000/svg" xmlns:xlink="http://www.w3.org/1999/xlink" x="0px" y="0px"
	 viewBox="0 0 513 374" style="enable-background:new 0 0 513 374;" xml:space="preserve">
<style type="text/css">
	.st0{fill:url(#SVGID_1_);}
	.st1{opacity:0.38;fill:#381B91;}
	.st2{fill:#381B91;}
	.st3{fill-rule:evenodd;clip-rule:evenodd;fill:url(#SVGID_2_);}
	.st4{fill-rule:evenodd;clip-rule:evenodd;fill:url(#SVGID_3_);}
	.st5{fill:#CBCBCB;}
	.st6{fill:#C42C24;}
	.st7{fill:#EDEDED;}
	.st8{fill:#E6332A;}
	.st9{fill:#4E5ED7;}
	.st10{fill:#821D18;}
	.st11{fill:#FFFFFF;}
	.st12{fill:#381B91;stroke:#381B91;stroke-width:3;stroke-miterlimit:10;}
	.st13{fill:url(#SVGID_4_);stroke:#381B91;stroke-width:2;stroke-miterlimit:10;}
	.st14{opacity:0.3;fill:#1D2063;}
	.st15{fill:#E1EDFF;stroke:#381B91;stroke-width:2;stroke-miterlimit:10;}
	.st16{opacity:0.23;fill:#0D0F21;}
	.st17{fill:#0D0F21;}
	.st18{fill:#0D66A2;}
	.st19{fill:#FFC40E;}
	.st20{fill:#FF7C07;}
	.st21{fill:#FFC2A4;}
	.st22{fill:#FFA283;}
	.st23{fill:url(#SVGID_5_);}
	.st24{fill:url(#SVGID_6_);}
	.st25{fill:none;stroke:#FFFFFF;stroke-width:0.25;stroke-linecap:round;stroke-linejoin:round;stroke-miterlimit:10;}
	.st26{fill:none;stroke:#FFFFFF;stroke-width:0.75;stroke-linecap:round;stroke-linejoin:round;stroke-miterlimit:10;}
	.st27{fill-rule:evenodd;clip-rule:evenodd;fill:#4E5ED7;}
	.st28{fill-rule:evenodd;clip-rule:evenodd;fill:#FFFFFF;}
</style>
<g>
	<linearGradient id="SVGID_1_" gradientUnits="userSpaceOnUse" x1="165.3163" y1="378.098" x2="300.6763" y2="25.298">
		<stop  offset="0" style="stop-color:#4E5ED7"/>
		<stop  offset="1" style="stop-color:#ABC4FF;stop-opacity:0"/>
	</linearGradient>
	<path class="st0" d="M314.57,348.53c-64.4,24.79-133.63,28.52-194.82-3.38S15.1,249.55,7.69,180.95
		c-4.14-38.3,3.1-79.08,26.69-109.54s65.29-48.11,102.2-37.09c25.72,7.68,46.68,27.72,72.85,33.65
		c31.46,7.13,63.54-7.44,91.39-23.72s55.94-35.19,88.09-37.83c41.63-3.42,82.49,23.39,101.3,60.68s17.34,82.77,1.87,121.57
		s-43.8,71.38-76.17,97.79C392.11,305.88,335.57,340.44,314.57,348.53z"/>
</g>
<ellipse class="st1" cx="227.56" cy="301.98" rx="114.91" ry="17.05"/>
<path class="st2" d="M93.51,253.81c0.28-2.33,2.24-4.15,4.65-4.15h5.42v-93.05v-1.59v-1.59h0.14c0.76-4.55,4.71-8.03,9.47-8.03h52.3
	v-14.75l83.04-29.36l81.9,29.37v14.75h56.91c4.76,0,8.71,3.48,9.47,8.03h0.14v1.59v1.59v93.05h1.46c2.41,0,4.37,1.82,4.65,4.15h0.06
	v9.41H93.46v-9.41H93.51z"/>
<path class="st2" d="M56,253.81c0.28-2.33,2.24-4.15,4.65-4.15h5.42v-93.05v-1.59v-1.59h0.14c0.76-4.55,4.71-8.03,9.47-8.03h52.3
	v-14.75l83.04-29.36l81.9,29.37v14.75h56.91c4.76,0,8.71,3.48,9.47,8.03h0.14v1.59v1.59v93.05h1.46c2.41,0,4.37,1.82,4.65,4.15h0.06
	v9.41H55.94v-9.41H56z"/>
<linearGradient id="SVGID_2_" gradientUnits="userSpaceOnUse" x1="30.3098" y1="251.452" x2="71.8611" y2="251.452" gradientTransform="matrix(0.9999 0.0133 -0.0133 0.9999 259.7211 -36.9678)">
	<stop  offset="0" style="stop-color:#00B5D1"/>
	<stop  offset="1" style="stop-color:#00D1C8"/>
</linearGradient>
<path class="st3" d="M288.14,242.79c2.45,3.04,5.38,5.53,8.79,7.46c-0.64,2.15-1.16,4.52-1.56,7.11c-0.05,0.3,0.16,0.58,0.46,0.62
	c0.3,0.05,0.58-0.16,0.62-0.46c0.62-4.12,1.57-7.65,2.83-10.61c1.25-2.93,2.82-5.29,4.69-7.08l0.01-0.01
	c1.07-0.99,2.06-2.02,2.98-3.09c3.6,0.75,7.21,0.81,10.83,0.18c7.22-1.64,6.55-8.47-1.56-6.81c-3.05,0.84-5.16,1.96-6.59,3.04
	c1.33-2.08,2.41-4.28,3.24-6.62c0.25-0.7,0.47-1.41,0.67-2.13c3.33,0.72,6.67,0.79,10.02,0.2c6.54-1.49,5.94-7.68-1.42-6.18
	c-6.01,1.65-7.96,4.51-8.49,5.56c1.17-4.38,1.51-9.17,1.04-14.39l0,0c-0.2-2.44,0.24-5.71,1.33-9.8c0.15-0.55,0.3-1.12,0.48-1.7
	c2.86,0.21,5.68-0.08,8.47-0.88c5.48-1.84,4.4-7.29-1.64-4.7c-4.04,1.97-6.05,4.29-6.72,5.19c0.1-0.33,0.2-0.66,0.3-0.99l0.04,0.03
	c0,0,0.01-0.09,0.03-0.25c1.07-3.39,2.5-7.25,4.29-11.57c0.08-0.19,0.04-0.39-0.07-0.54c0.91-0.75,3.1-2.85,4.86-6.86
	c2.34-6.13-3.14-7-4.76-1.45c-0.65,2.69-0.85,5.39-0.59,8.1c-0.19,0.02-0.37,0.14-0.44,0.33c-1.34,3.22-2.48,6.19-3.41,8.9
	c-0.21-1.45-0.66-3.3-1.59-5.44c-2.91-5.89-7.27-2.45-4.3,2.51c1.4,2.12,3.08,3.96,5.03,5.53c-0.39,1.23-0.73,2.39-1.02,3.5
	c-0.83,3.13-1.29,5.8-1.39,8.02c-0.29-1.58-1.15-4.62-3.69-8.09c-4.59-5.63-8.79-0.38-4.33,4.2c2.34,2.17,5.01,3.84,8,4.99
	c0,0.37,0.02,0.72,0.05,1.06l0,0l0,0c0.37,4.11,0.23,7.94-0.44,11.51c-0.33-1.82-1.32-5.39-4.31-9.48
	c-5.35-6.56-10.24-0.44-5.05,4.89c2.68,2.48,5.72,4.39,9.12,5.73c-0.29,1.31-0.66,2.59-1.09,3.82c-1.73,4.88-4.59,9.17-8.6,12.87
	c-0.01,0.01-0.01,0.01-0.02,0.02c-1.98,1.9-3.63,4.37-4.94,7.43c-0.24,0.56-0.47,1.14-0.68,1.74c0.05-2.01-0.49-5.36-3.41-9.79
	C288.84,231.4,283.51,236.4,288.14,242.79z"/>
<linearGradient id="SVGID_3_" gradientUnits="userSpaceOnUse" x1="406.4387" y1="268.1078" x2="444.1433" y2="268.1078" gradientTransform="matrix(-0.9972 0.0754 0.0754 0.9972 511.897 -98.7621)">
	<stop  offset="0" style="stop-color:#00B5D1"/>
	<stop  offset="1" style="stop-color:#00D1C8"/>
</linearGradient>
<path class="st4" d="M127.08,224.6c-2.05,2.9-4.56,5.31-7.54,7.25c0.7,1.91,1.31,4.03,1.81,6.35c0.06,0.27-0.11,0.53-0.38,0.59
	c-0.27,0.06-0.53-0.11-0.59-0.38c-0.8-3.69-1.85-6.84-3.16-9.45c-1.3-2.58-2.85-4.63-4.64-6.15l-0.01,0
	c-1.03-0.84-1.98-1.72-2.87-2.64c-3.22,0.88-6.48,1.14-9.79,0.77c-6.63-1.08-6.41-7.3,1.03-6.26c2.81,0.59,4.78,1.48,6.14,2.38
	c-1.32-1.8-2.43-3.74-3.31-5.81c-0.26-0.62-0.51-1.25-0.73-1.89c-2.98,0.84-6,1.09-9.07,0.75c-6.01-0.98-5.82-6.62,0.94-5.67
	c5.54,1.15,7.47,3.64,8,4.56c-1.3-3.9-1.89-8.22-1.75-12.97l0,0c0.04-2.22-0.54-5.16-1.75-8.8c-0.16-0.49-0.34-1-0.53-1.51
	c-2.58,0.35-5.15,0.24-7.72-0.32c-5.07-1.36-4.39-6.35,1.22-4.35c3.77,1.55,5.72,3.55,6.38,4.32c-0.11-0.29-0.22-0.58-0.33-0.88
	l-0.03,0.03c0,0-0.02-0.08-0.04-0.23c-1.16-3.01-2.67-6.43-4.54-10.23c-0.08-0.16-0.06-0.35,0.03-0.49
	c-0.87-0.63-2.96-2.41-4.79-5.94c-2.47-5.42,2.44-6.52,4.23-1.58c0.74,2.4,1.07,4.83,0.99,7.31c0.17,0.01,0.34,0.11,0.42,0.28
	c1.39,2.84,2.59,5.46,3.59,7.87c0.11-1.32,0.41-3.03,1.13-5.01c2.3-5.49,6.44-2.63,4.04,2.03c-1.15,2-2.57,3.76-4.24,5.29
	c0.42,1.09,0.79,2.13,1.12,3.11c0.93,2.79,1.5,5.18,1.71,7.19c0.17-1.45,0.78-4.25,2.89-7.54c3.84-5.36,7.94-0.84,4.16,3.56
	c-2,2.1-4.32,3.76-6.97,4.97c0.02,0.33,0.02,0.65,0.02,0.96l0,0l0,0c-0.11,3.74,0.24,7.21,1.05,10.4c0.19-1.67,0.89-4.96,3.37-8.83
	c4.47-6.24,9.25-0.98,4.85,4.15c-2.29,2.4-4.93,4.3-7.94,5.7c0.34,1.17,0.74,2.3,1.2,3.4c1.84,4.32,4.68,8.05,8.51,11.18
	c0.01,0.01,0.01,0.01,0.02,0.02c1.9,1.6,3.53,3.76,4.89,6.45c0.25,0.49,0.49,1.01,0.72,1.54c-0.16-1.82,0.14-4.88,2.54-9.06
	C125.8,214.31,130.91,218.54,127.08,224.6z"/>
<g>
	<g>
		<rect x="361.08" y="67.08" class="st5" width="45.38" height="50.92"/>
		<g>
			<rect x="361.08" y="113.08" class="st6" width="45.38" height="4.92"/>
			<rect x="361.08" y="103.88" class="st6" width="45.38" height="4.92"/>
			<rect x="361.08" y="94.68" class="st6" width="45.38" height="4.92"/>
			<rect x="361.08" y="85.48" class="st6" width="45.38" height="4.92"/>
			<rect x="361.08" y="76.28" class="st6" width="45.38" height="4.92"/>
			<rect x="361.08" y="67.08" class="st6" width="45.38" height="4.92"/>
		</g>
	</g>
	<rect x="329.7" y="60.22" class="st7" width="54.07" height="50.92"/>
	<g>
		<rect x="329.7" y="106.23" class="st8" width="54.07" height="4.92"/>
		<rect x="329.7" y="97.03" class="st8" width="54.07" height="4.92"/>
		<rect x="329.7" y="87.83" class="st8" width="54.07" height="4.92"/>
		<rect x="332.13" y="78.63" class="st8" width="51.64" height="4.92"/>
		<rect x="332.13" y="69.43" class="st8" width="51.64" height="4.92"/>
		<rect x="332.13" y="60.22" class="st8" width="51.64" height="4.92"/>
	</g>
	<rect x="329.7" y="60.22" class="st9" width="38.06" height="27.6"/>
	<polygon class="st10" points="383.77,111.14 361.08,111.14 361.08,118 	"/>
	<g>
		<g>
			<polygon class="st11" points="339.67,67.84 340.68,69.88 342.92,70.2 341.3,71.79 341.68,74.02 339.67,72.97 337.66,74.02 
				338.05,71.79 336.42,70.2 338.67,69.88 			"/>
			<polygon class="st11" points="348.73,67.84 349.74,69.88 351.98,70.2 350.36,71.79 350.74,74.02 348.73,72.97 346.72,74.02 
				347.1,71.79 345.48,70.2 347.72,69.88 			"/>
			<polygon class="st11" points="357.79,67.84 358.79,69.88 361.04,70.2 359.41,71.79 359.8,74.02 357.79,72.97 355.78,74.02 
				356.16,71.79 354.54,70.2 356.78,69.88 			"/>
		</g>
		<g>
			<polygon class="st11" points="335.14,61.66 336.15,63.69 338.39,64.02 336.77,65.6 337.15,67.84 335.14,66.78 333.13,67.84 
				333.52,65.6 331.89,64.02 334.14,63.69 			"/>
			<polygon class="st11" points="344.2,61.66 345.21,63.69 347.45,64.02 345.83,65.6 346.21,67.84 344.2,66.78 342.19,67.84 
				342.57,65.6 340.95,64.02 343.2,63.69 			"/>
			<polygon class="st11" points="353.26,61.66 354.26,63.69 356.51,64.02 354.88,65.6 355.27,67.84 353.26,66.78 351.25,67.84 
				351.63,65.6 350.01,64.02 352.25,63.69 			"/>
			<polygon class="st11" points="362.32,61.66 363.32,63.69 365.57,64.02 363.94,65.6 364.33,67.84 362.32,66.78 360.31,67.84 
				360.69,65.6 359.07,64.02 361.31,63.69 			"/>
		</g>
		<g>
			<polygon class="st11" points="339.67,80.21 340.68,82.25 342.92,82.57 341.3,84.16 341.68,86.39 339.67,85.34 337.66,86.39 
				338.05,84.16 336.42,82.57 338.67,82.25 			"/>
			<polygon class="st11" points="348.73,80.21 349.74,82.25 351.98,82.57 350.36,84.16 350.74,86.39 348.73,85.34 346.72,86.39 
				347.1,84.16 345.48,82.57 347.72,82.25 			"/>
			<polygon class="st11" points="357.79,80.21 358.79,82.25 361.04,82.57 359.41,84.16 359.8,86.39 357.79,85.34 355.78,86.39 
				356.16,84.16 354.54,82.57 356.78,82.25 			"/>
		</g>
		<g>
			<polygon class="st11" points="335.14,74.02 336.15,76.06 338.39,76.39 336.77,77.97 337.15,80.21 335.14,79.15 333.13,80.21 
				333.52,77.97 331.89,76.39 334.14,76.06 			"/>
			<polygon class="st11" points="344.2,74.02 345.21,76.06 347.45,76.39 345.83,77.97 346.21,80.21 344.2,79.15 342.19,80.21 
				342.57,77.97 340.95,76.39 343.2,76.06 			"/>
			<polygon class="st11" points="353.26,74.02 354.26,76.06 356.51,76.39 354.88,77.97 355.27,80.21 353.26,79.15 351.25,80.21 
				351.63,77.97 350.01,76.39 352.25,76.06 			"/>
			<polygon class="st11" points="362.32,74.02 363.32,76.06 365.57,76.39 363.94,77.97 364.33,80.21 362.32,79.15 360.31,80.21 
				360.69,77.97 359.07,76.39 361.31,76.06 			"/>
		</g>
	</g>
	<rect x="326.78" y="60.22" class="st12" width="2.14" height="79.07"/>
	<rect x="322.68" y="58.25" class="st2" width="7.43" height="3.76"/>
</g>
<g>
	<g>
		<g>
			<linearGradient id="SVGID_4_" gradientUnits="userSpaceOnUse" x1="115.111" y1="187.1111" x2="153.9081" y2="187.1111">
				<stop  offset="0" style="stop-color:#00B5D1"/>
				<stop  offset="1" style="stop-color:#00D1C8"/>
			</linearGradient>
			<path class="st13" d="M153.91,135.62v102.99c0,2.07-1.69,3.72-3.75,3.72h-31.29c-2.06,0-3.75-1.65-3.75-3.72V135.62
				c0-2.07,1.69-3.72,3.75-3.72h31.29C152.22,131.9,153.91,133.55,153.91,135.62z"/>
			<path class="st11" d="M145.93,226.37c0,2.07-1.68,3.75-3.75,3.75h-15.33c-2.07,0-3.75-1.68-3.75-3.75v-14.7
				c0-2.07,1.68-3.75,3.75-3.75h15.33c2.07,0,3.75,1.68,3.75,3.75V226.37z"/>
			<rect x="116.28" y="153.89" class="st11" width="29.06" height="15.84"/>
			<path class="st14" d="M153.91,135.62v102.99c0,2.07-1.69,3.72-3.75,3.72h-7.62l-6.48-110.42h14.1
				C152.22,131.9,153.91,133.55,153.91,135.62z"/>
			<g>
				<g>
					<path class="st9" d="M150.21,302.98c-2.4,0-4.36-1.96-4.36-4.36V70.88c0-2.4,1.96-4.36,4.36-4.36h157.8
						c2.4,0,4.36,1.96,4.36,4.36v227.74c0,2.4-1.96,4.36-4.36,4.36H150.21z"/>
					<path class="st2" d="M308.01,67.52c1.85,0,3.36,1.5,3.36,3.36v227.74c0,1.86-1.51,3.36-3.36,3.36h-157.8
						c-1.86,0-3.36-1.49-3.36-3.36V70.88c0-1.86,1.5-3.36,3.36-3.36H308.01 M308.01,65.52h-157.8c-2.95,0-5.36,2.4-5.36,5.36v227.74
						c0,2.95,2.4,5.36,5.36,5.36h157.8c2.95,0,5.36-2.4,5.36-5.36V70.88C313.37,67.92,310.96,65.52,308.01,65.52L308.01,65.52z"/>
				</g>
				<path class="st15" d="M302.3,83.42v202.66c0,1.65-1.33,2.99-2.99,2.99H158.9c-1.65,0-2.98-1.33-2.98-2.99V83.42
					c0-1.65,1.33-2.98,2.98-2.98h140.42C300.97,80.43,302.3,81.76,302.3,83.42z"/>
				<path class="st11" d="M302.3,83.42v202.66c0,1.65-1.33,2.99-2.99,2.99H285L155.92,102.28V83.42c0-1.65,1.33-2.98,2.98-2.98
					h140.42C300.97,80.43,302.3,81.76,302.3,83.42z"/>
				<g>
					<path class="st11" d="M246.1,77.94h-34c-0.47,0-0.84-0.38-0.84-0.84c0-0.46,0.37-0.84,0.84-0.84h34c0.46,0,0.84,0.38,0.84,0.84
						C246.94,77.56,246.57,77.94,246.1,77.94z"/>
				</g>
				<path class="st11" d="M226.38,71.92c0-1.5,1.22-2.73,2.73-2.73c1.5,0,2.73,1.22,2.73,2.73c0,1.51-1.22,2.73-2.73,2.73
					C227.6,74.65,226.38,73.43,226.38,71.92z"/>
				<path class="st11" d="M224.78,295.01c0-2.39,1.94-4.32,4.32-4.32s4.32,1.93,4.32,4.32c0,2.39-1.94,4.32-4.32,4.32
					S224.78,297.4,224.78,295.01z"/>
			</g>
		</g>
		<path class="st2" d="M269.26,119.29l-39.6-17.85c-0.4-0.18-0.86-0.18-1.26,0l-39.6,17.85c-0.66,0.3-1.02,1.01-0.87,1.72
			c0.15,0.71,0.78,1.21,1.5,1.21h2.19v5.36c0,0.84,0.69,1.53,1.53,1.53h1.91v5.72c0,0.85,0.69,1.53,1.53,1.53h0.19v24.9
			c0,0.14,0.04,0.26,0.08,0.39h-0.27c-0.84,0-1.53,0.68-1.53,1.53v6.56h-0.56c-0.84,0-1.53,0.69-1.53,1.53v6.89
			c0,0.85,0.69,1.53,1.53,1.53h70.7c0.84,0,1.53-0.69,1.53-1.53v-6.89c0-0.85-0.69-1.53-1.53-1.53h-1.12v-6.56
			c0-0.85-0.69-1.53-1.53-1.53h-0.27c0.03-0.13,0.08-0.25,0.08-0.39v-24.9h0.19c0.84,0,1.53-0.69,1.53-1.53v-5.72h1.12
			c0.84,0,1.53-0.69,1.53-1.53v-5.36h1.9c0.72,0,1.35-0.5,1.5-1.21C270.27,120.3,269.91,119.58,269.26,119.29z M229.03,104.51
			l32.48,14.64h-64.96L229.03,104.51z M209.74,133.3h-0.42H198.3h-0.19v-4.19h11.63V133.3z M207.79,136.36v23.37h-7.96v-23.37
			H207.79z M198.11,164.7h11.63v4.19h-11.63V164.7z M211.27,161.64h-0.5c0.03-0.13,0.08-0.25,0.08-0.39v-24.9h0.42
			c0.84,0,1.53-0.69,1.53-1.53v-5.72h6.93v5.72c0,0.85,0.69,1.53,1.53,1.53h0.31v24.9c0,0.14,0.04,0.26,0.08,0.39h-0.38
			c-0.84,0-1.53,0.68-1.53,1.53v6.56h-6.93v-6.56C212.8,162.33,212.12,161.64,211.27,161.64z M234.42,164.7v4.19h-11.63v-4.19
			H234.42z M232.59,159.72h-7.96v-23.37h7.96V159.72z M234.42,133.3h-0.31H223.1h-0.31v-4.19h11.63V133.3z M263.66,176.62h-67.64
			v-3.83h67.64V176.62z M261.01,164.7v4.19h-11.63v-4.19H261.01z M247.85,161.64c-0.84,0-1.53,0.68-1.53,1.53v6.56h-8.84v-6.56
			c0-0.85-0.69-1.53-1.53-1.53h-0.38c0.03-0.13,0.08-0.25,0.08-0.39v-24.9h0.31c0.84,0,1.53-0.69,1.53-1.53v-5.72h8.84v5.72
			c0,0.85,0.69,1.53,1.53,1.53h0.42v24.9c0,0.14,0.04,0.26,0.08,0.39H247.85z M259.29,159.72h-7.96v-23.37h7.96V159.72z
			 M261.01,133.3h-0.19H249.8h-0.42v-4.19h11.63V133.3z M263.66,126.04h-1.12h-14.69h-11.9h-14.69h-9.99h-14.69h-1.91v-3.83h68.99
			V126.04z"/>
		<g>
			<path class="st2" d="M299.31,81.43c1.1,0,1.99,0.89,1.99,1.98v202.66c0,1.1-0.89,1.99-1.99,1.99h-14.32H158.9
				c-1.09,0-1.98-0.89-1.98-1.99v-183.8V83.42c0-1.09,0.89-1.98,1.98-1.98H299.31 M299.31,80.43H158.9c-1.65,0-2.98,1.33-2.98,2.98
				v18.86v183.8c0,1.65,1.33,2.99,2.98,2.99h126.1h14.32c1.65,0,2.99-1.33,2.99-2.99V83.42C302.3,81.76,300.97,80.43,299.31,80.43
				L299.31,80.43z"/>
		</g>
	</g>
	<g>
		<path class="st16" d="M203.2,221.65c0,0-4.79,58.41,28.19,80.53h50.83c0,0-43.35-45.06-28.54-79.2L203.2,221.65z"/>
		<g>
			<path class="st9" d="M319.53,260.5c0,1.21,0.99,2.19,2.2,2.19l82.83-0.26c1.21,0,2.19-0.99,2.19-2.2l0,0
				c0-1.21-0.99-2.19-2.2-2.19l-82.83,0.26C320.5,258.3,319.53,259.28,319.53,260.5L319.53,260.5z"/>
			<g>
				<g>
					<path class="st9" d="M406.56,320.01c-0.5,0-0.9-0.4-0.9-0.9v-58h-70.88v55.35c0,0.5-0.4,0.9-0.9,0.9c-0.5,0-0.9-0.4-0.9-0.9
						v-56.25c0-0.5,0.4-0.9,0.9-0.9h72.69c0.5,0,0.9,0.4,0.9,0.9v58.9C407.46,319.61,407.06,320.01,406.56,320.01z"/>
				</g>
				<path class="st17" d="M307.96,260.99c-1.01,2.47-15.5,47.83-15.5,47.83l10.81,2.27c0,0,14.18-24.96,17.94-31.89
					s8.58-15.96,10.54-17.31c1.96-1.35,48.62-4.21,49.53-2.86c0.9,1.35,6.02,8.73,7.53,27.25c1.51,18.52,3.01,30.18,3.01,30.18
					l10.09-1.58c0,0,4.67-36.58,4.52-48.62c-0.15-12.04,1.66-22.45-4.12-31.31c0,0-13.09,2.8-23.93,1.45
					c-10.84-1.35-19.87-4.7-19.87-4.7S314.58,244.73,307.96,260.99z"/>
				<path class="st18" d="M303.83,311.42c1.21,0.98-1.37,2.76-4.98,2.71c-1.98-0.02-15.43-0.9-16.03-3.61
					C282.22,307.81,299.31,307.76,303.83,311.42z"/>
				<path class="st18" d="M391.81,316.46c0,0,0.75,2.18,1.35,2.18s18.52,1.58,18.21-1.09C411.07,314.88,399.03,312.92,391.81,316.46
					z"/>
			</g>
			<g>
				<path class="st9" d="M406.56,219.44c0,3.99-3.17,7.23-7.08,7.23h-52.5c-3.91,0-7.08-3.24-7.08-7.23v-26.96
					c0-3.99,3.17-7.23,7.08-7.23h52.5c3.91,0,7.08,3.24,7.08,7.23V219.44z"/>
				<path class="st19" d="M343.89,191.27l9.35,11.61l13.25,32.06l0.03,0.08l9.88,1.35c0,0,3.16,1.13,11.77,1.13
					c8.59,0,14.1-2.56,14.1-2.56s0-16.67-0.6-25.12c-0.51-7.11-0.86-15.6-0.64-18.34v-0.01c0.04-0.51,0.1-0.83,0.19-0.89
					c0.53-0.38,3.92,10.21,3.92,10.21s0.61-0.31,1.61-0.75c1.47-0.67,3.78-1.65,6.17-2.37c4-1.21,6.81-1.51,6.81-1.51
					s-3.57-14.63-5.91-19.24c-2.34-4.6-7.47-6.11-16.22-7.85c-8.75-1.73-19.24-5.05-19.24-5.05s0.53,5.13-2.19,5.43
					c-0.94,0.11-1.7-0.63-2.29-1.65c-0.42-0.72-0.75-1.58-1.01-2.36c-0.02,0.01-4.52,1.85-11.96,3.64
					c-0.09,0.02-0.19,0.04-0.28,0.07C353.02,170.98,344.05,175.73,343.89,191.27z"/>
				<path class="st20" d="M360.92,169.1c6.45,1.13,11.02,0.63,12.96-1.28c-0.42-0.72-0.75-1.58-1.01-2.36
					C372.86,165.47,368.36,167.31,360.92,169.1z"/>
				<path class="st21" d="M357.62,157.28c0.48,1.18,1.06,2.26,1.72,3.21c1.2,1.74,2.66,3.03,4.17,3.7c4.45,1.96,8.75-1.13,8.75-1.13
					s0.2,1.11,0.62,2.41c0.32,1,0.77,2.11,1.36,2.92c0.54,0.71,1.18,1.18,1.94,1.09c2.71-0.3,2.19-5.43,2.19-5.43
					s-1.05-2.26-1.28-4.98c-0.23-2.72,0-5.5,0-5.5c4.6,1.88,5.13-3.17,3.77-5.21c-0.86-1.3-1.91-0.94-2.55-0.32
					c-0.14,1.94-0.48,3.46-1.07,3.72c-1.65,0.71-2.19-1.89-2.72-4.3c-0.53-2.41-2.64-5.81-4.75-5.28
					c-2.11,0.53-6.42,4.37-10.19,4.79c-1.04,0.11-2.09,0.1-3.08-0.01C355.9,150.74,356.43,154.33,357.62,157.28z"/>
				<path class="st9" d="M362.9,133.89c9.82-2.72,12.83,1.96,14.34,4.98c0.72,1.44,1.3,5.86,1.07,9.18
					c-0.14,1.94-0.48,3.47-1.07,3.72c-1.65,0.71-2.19-1.89-2.72-4.3c-0.53-2.41-2.64-5.81-4.75-5.28c-2.11,0.53-6.4,4.46-10.18,4.79
					c-5.66,0.49-7.34-1.05-7.92-2.6C350.48,141.24,353.08,136.6,362.9,133.89z"/>
				<path class="st22" d="M372.26,163.05c0,0,0.2,1.11,0.62,2.41c0.32,1,0.77,2.11,1.36,2.92c1.06-2.24,1.09-8.99,1.09-8.99
					C374.63,161.22,372.26,163.05,372.26,163.05z"/>
			</g>
			<g>
				<linearGradient id="SVGID_5_" gradientUnits="userSpaceOnUse" x1="291.272" y1="216.2795" x2="300.4244" y2="338.9207">
					<stop  offset="0" style="stop-color:#095198"/>
					<stop  offset="0.1844" style="stop-color:#00B5D1"/>
					<stop  offset="1" style="stop-color:#00D1C8"/>
				</linearGradient>
				<path class="st23" d="M252.54,221.54h-50.95c11.62,17.17,32.93,29.85,37.38,32.42c2.07,1.18,4.12,2.3,6.16,3.36
					c0.07-0.16,0.14-0.35,0.21-0.52l0.52-1.22l1.13,0.64c0.75,0.4,1.48,0.8,2.21,1.18c0.42-1.04,0.85-2.07,1.25-3.11l0.45-1.15
					l1.13,0.49c0.73,0.33,1.48,0.66,2.23,0.96l1.65-4.35l1.13,0.33c0.75,0.28,1.51,0.57,2.23,0.82l1.69-4.52l3.36,1.11l1.69-4.54
					l1.06,0.35c0.78,0.26,1.53,0.52,2.31,0.8l1.65-4.4l1.15,0.28c0.78,0.28,1.53,0.59,2.31,0.89c0.23-0.59,0.45-1.18,0.68-1.76
					C260.16,232.17,252.54,221.54,252.54,221.54z M381.64,220.08c-1.32-15.69-14.42-25.01-20.84-27.31
					c-6.45-2.33-25.85-1.01-30.49-1.01s-9.65-0.71-13.79,6.02c-4.12,6.75-1.11,18.91,0,20.33c1.11,1.41,5.25,1.81,12.47,2.21
					s20.02-0.71,19.97-0.71v3.83c0.09,14.07-14.23,19.31-29.43,22c-17.45,3.08-31.55,0.02-42.23-4.82
					c-0.38,0.89-0.73,1.79-1.08,2.71l-0.42,1.13l-1.11-0.47c-0.75-0.31-1.51-0.59-2.23-0.89l-1.69,4.49l-1.08-0.4
					c-0.75-0.26-1.51-0.52-2.28-0.78l-1.67,4.54l-3.36-1.13l-1.69,4.56l-1.08-0.38c-0.78-0.28-1.53-0.54-2.31-0.82l-1.69,4.47
					l-1.11-0.42c-0.78-0.31-1.53-0.61-2.31-0.94c-0.42,1.06-0.85,2.09-1.27,3.15l-0.26,0.66c21.17,10.12,41.29,13.97,65.87,13.15
					c21.55-0.71,36.25-8.35,46.37-14.14C373.57,253.04,382.95,235.77,381.64,220.08z M342.87,210.46
					c-1.29-7.13,0.92-11.36,0.92-11.36c3.72,1.91,4.02,4.73,4.02,4.73h-4.02C345.5,208.25,342.87,210.46,342.87,210.46z"/>
			</g>
			<path class="st21" d="M344.31,199.32c0,0,3.41,1.59,3.61,4.5h-4.02c0,0,2.06,4.02-0.68,6.41c0,0-1.1-3.56-0.33-7.37
				C343.52,199.79,344.31,199.32,344.31,199.32z"/>
			<path class="st20" d="M401.04,191.48c0.04-0.51,0.1-0.83,0.19-0.89c0.53-0.38,3.92,10.21,3.92,10.21s0.61-0.31,1.61-0.75
				c-0.89-2.6-4.41-10.97-5.56-10.97C400.88,189.08,400.88,190.03,401.04,191.48z"/>
			<path class="st2" d="M193.42,221.92c0,0.59,0.75,1.06,1.66,1.06h68.61c0.92,0,1.66-0.48,1.66-1.06v-2.81
				c0-0.59-0.75-1.06-1.66-1.06h-68.61c-0.92,0-1.66,0.48-1.66,1.06V221.92z"/>
			<g>
				<path class="st2" d="M264.89,207.16c0,2-1.67,3.61-3.74,3.61H196.9c-2.07,0-3.74-1.62-3.74-3.61v-12.64c0-2,1.67-3.61,3.74-3.61
					h64.25c2.07,0,3.74,1.62,3.74,3.61V207.16z"/>
				<g>
					<path class="st11" d="M229.27,199.89c0,4.33-2.63,6.63-5.84,6.63c-3.32,0-5.66-2.57-5.66-6.38c0-3.99,2.48-6.61,5.84-6.61
						C227.05,193.52,229.27,196.15,229.27,199.89z M219.51,200.09c0,2.69,1.46,5.09,4.01,5.09c2.58,0,4.03-2.37,4.03-5.23
						c0-2.5-1.31-5.11-4.01-5.11C220.86,194.85,219.51,197.33,219.51,200.09z"/>
					<path class="st11" d="M231.39,193.73h1.62v6.07h0.06c0.34-0.49,0.67-0.93,0.99-1.34l3.84-4.72h2.02l-4.56,5.34l4.91,7.24h-1.92
						l-4.14-6.18l-1.19,1.38v4.8h-1.62V193.73z"/>
				</g>
			</g>
			<g>
				<linearGradient id="SVGID_6_" gradientUnits="userSpaceOnUse" x1="358.3648" y1="188.8365" x2="381.6813" y2="341.5314">
					<stop  offset="0" style="stop-color:#095198"/>
					<stop  offset="0.1844" style="stop-color:#00B5D1"/>
					<stop  offset="0.2216" style="stop-color:#00BCCF;stop-opacity:0.9404"/>
					<stop  offset="0.3265" style="stop-color:#00C8CB;stop-opacity:0.7726"/>
					<stop  offset="0.4686" style="stop-color:#00CFC9;stop-opacity:0.5453"/>
					<stop  offset="0.8096" style="stop-color:#00D1C8;stop-opacity:0"/>
				</linearGradient>
				<path class="st24" d="M381.51,218.05c-1.31-15.69-14.29-23.22-20.73-25.53c-1.77-0.64-4.54-0.99-7.7-1.18
					c-0.72-0.04-1.45-0.08-2.21-0.11c-0.24,0.12-0.45,0.28-0.67,0.41c-1.3,0.87-4.19,3.18-6.01,7.46c3.3,1.9,3.62,4.48,3.62,4.48
					h-4.02c1.71,4.42-0.9,6.64-0.9,6.64c-0.12-0.63-0.17-1.21-0.24-1.79c0.13,3.21,2.36,6.32,5.16,8.86
					c1.19,0.76,1.76,0.91,2.25,1.09c1.56,0.56-1.09,0.99-1.11,0.99v3.82c0.24,2.66-0.71,4.84-1.17,6.78l32.45,4.11
					C381,229.2,381.93,223.03,381.51,218.05z"/>
			</g>
			<g>
				<g>
					<path class="st11" d="M318.25,212.69h18.26c0.12,0,0.23-0.1,0.23-0.23c0-0.12-0.1-0.23-0.23-0.23h-18.26
						c-0.13,0-0.23,0.1-0.23,0.23C318.02,212.59,318.12,212.69,318.25,212.69z"/>
				</g>
				<g>
					<path class="st11" d="M319.75,204.4h10.86c0.13,0,0.23-0.1,0.23-0.23c0-0.13-0.1-0.23-0.23-0.23h-10.86
						c-0.12,0-0.23,0.1-0.23,0.23C319.53,204.29,319.63,204.4,319.75,204.4z"/>
				</g>
				<g>
					<path class="st11" d="M329.85,196.62h10.86c0.13,0,0.23-0.1,0.23-0.23c0-0.13-0.1-0.23-0.23-0.23h-10.86
						c-0.12,0-0.23,0.1-0.23,0.23C329.62,196.52,329.72,196.62,329.85,196.62z"/>
				</g>
				<g>
					<path class="st11" d="M352.24,218.83c2.31,0,4.72-0.85,6.48-2.46c3.13-2.86,3.48-7.34,0.97-12.3c-0.04-0.07-0.11-0.12-0.2-0.12
						l-15.59-0.35c-0.08,0.01-0.16,0.04-0.2,0.11c-0.04,0.07-0.05,0.15-0.01,0.22c0.01,0.02,1.02,1.95,0.5,3.56
						c-0.04,0.12,0.03,0.25,0.14,0.28c0.12,0.04,0.25-0.03,0.29-0.15c0.44-1.38-0.09-2.91-0.37-3.57l15.09,0.34
						c2.35,4.71,2.01,8.95-0.93,11.64c-2.77,2.54-7.24,3.1-10.17,1.27c-5.49-3.42-5.39-9.69-5.39-9.75c0-0.13-0.09-0.23-0.22-0.23
						c-0.13-0.02-0.23,0.09-0.23,0.22c0,0.07-0.12,6.58,5.6,10.15C349.23,218.46,350.71,218.83,352.24,218.83z"/>
				</g>
			</g>
			<path class="st21" d="M354.46,219.01c0.93,0.93-2.42,4.53-5.93,5.23c-3.52,0.7-5.83-2.31-4.73-4.53l6.24-0.7c0,0,1.31-0.6,1.71,0
				c0.4,0.6-2.11,1.81-2.11,1.81S353.75,218.3,354.46,219.01z"/>
			<g>
				<path class="st11" d="M342.63,207.55c0,0,0.01,0,0.01,0c0.13-0.01,0.22-0.11,0.22-0.24c-0.49-9.14,6.28-14.83,6.35-14.89
					c0.1-0.08,0.11-0.22,0.03-0.32c-0.08-0.1-0.22-0.11-0.32-0.03c-0.07,0.06-7.02,5.89-6.51,15.26
					C342.42,207.46,342.51,207.55,342.63,207.55z"/>
			</g>
			<path class="st21" d="M419.73,196.17c0,0,4.83,17.3,0,25.55c-4.83,8.25-16.3,10.86-28.67,10.06c-12.37-0.81-16.6-4.22-18.51-5.03
				c-1.91-0.81-8.95-4.12-8.45-4.53c0.5-0.4,5.03,0.7,5.03,0.7s-6.54-2.62-6.24-3.62c0.3-1.01,6.54,0.5,6.54,0.5
				s-6.03-3.02-5.83-3.72c0.2-0.7,7.54,1.61,7.54,1.61s-4.93-2.51-4.33-3.02c0.6-0.5,6.44,1.31,6.44,1.31s-2.31-1.47-1.51-1.94
				c0.8-0.47,7.34,4.86,8.05,4.86c0.7,0,10.06,1.41,17.1-0.3c7.04-1.71,9.86-6.54,8.25-17.8c0,0,2.11-1.81,7.24-3.22
				C417.52,196.17,419.73,196.17,419.73,196.17z"/>
			<path class="st25" d="M268.72,261.29"/>
			<path class="st25" d="M272.83,258.27"/>
			<line class="st26" x1="287.16" y1="247.71" x2="281.01" y2="252.24"/>
			<polyline class="st26" points="297.94,250.22 294.88,254.33 291.55,258.81 286.29,265.89 			"/>
			<path class="st25" d="M304.29,267.16"/>
			<line class="st26" x1="308.95" y1="250.65" x2="307.12" y2="257.12"/>
			<polyline class="st26" points="320.59,250.01 321.22,252.28 322.43,256.62 325.19,266.52 			"/>
			<polyline class="st26" points="332.97,246.41 335.96,251.59 339.7,258.04 			"/>
			<path class="st25" d="M238.87,246.62"/>
			<path class="st25" d="M245.23,243.6"/>
			<polyline class="st26" points="345.14,241.54 348.88,244.05 355.7,248.63 361.35,252.41 			"/>
		</g>
	</g>
</g>
<g>
	<circle class="st27" cx="155.92" cy="66.22" r="33.65"/>
	<circle class="st28" cx="155.92" cy="66.22" r="28.14"/>
	<g>
		<path class="st9" d="M158.37,81.42c-4.55,0-9.1,0-13.66,0c-1.56,0-2.61-1.05-2.61-2.62c0-5.84,0-11.68,0-17.51
			c0-0.92,0.4-1.63,1.17-2.13c0.41-0.27,0.87-0.37,1.36-0.37c5.73,0,11.46,0,17.2,0c1.38,0,2.76,0,4.14,0c2.05,0,4.11-0.01,6.16,0
			c1.47,0.01,2.53,1.08,2.53,2.55c0,5.85,0,11.71,0,17.56c0,1.44-1.08,2.52-2.51,2.52C167.55,81.42,162.96,81.42,158.37,81.42z
			 M143.26,69.09c0,0.09,0,0.15,0,0.22c0,3.21,0,6.42,0,9.63c0,0.1,0,0.2,0.03,0.29c0.16,0.67,0.66,1.04,1.41,1.04
			c5.94,0,11.88,0,17.83,0c3.18,0,6.36,0,9.53-0.01c0.23,0,0.48-0.03,0.68-0.12c0.57-0.26,0.76-0.74,0.76-1.34c-0.01-3,0-6,0-9
			c0-0.23,0-0.46,0-0.7C163.41,69.09,153.36,69.09,143.26,69.09z M173.51,63.56c0-0.75,0-1.46,0-2.18c0-0.92-0.53-1.45-1.45-1.45
			c-3.5,0-7,0-10.5,0c-4.83,0-9.65,0-14.48,0c-0.83,0-1.66-0.01-2.5,0c-0.75,0.01-1.32,0.59-1.32,1.33c0,0.39,0,0.78-0.01,1.16
			c0,0.38,0,0.75,0,1.14C153.35,63.56,163.41,63.56,173.51,63.56z M173.5,64.73c-10.1,0-20.16,0-30.21,0c0,1.08,0,2.13,0,3.19
			c10.08,0,20.14,0,30.21,0C173.5,66.85,173.5,65.8,173.5,64.73z"/>
		<path class="st9" d="M166.38,55.21c-0.68,0.17-1.34,0.32-2,0.49c-1.64,0.41-3.29,0.83-4.93,1.25c-1.32,0.33-2.64,0.67-3.97,1
			c-0.11,0.03-0.22,0.06-0.33,0.07c-0.31,0.03-0.56-0.15-0.62-0.42c-0.07-0.31,0.08-0.6,0.39-0.69c0.58-0.16,1.16-0.3,1.74-0.44
			c2.78-0.7,5.57-1.41,8.35-2.11c0.35-0.09,0.7-0.18,1.09-0.27c-0.06-0.23-0.12-0.45-0.17-0.67c-0.13-0.52-0.25-1.03-0.39-1.55
			c-0.2-0.75-0.9-1.14-1.65-0.95c-2.14,0.54-4.29,1.08-6.43,1.62c-1.78,0.45-3.57,0.91-5.35,1.36c-3.26,0.82-6.51,1.63-9.77,2.45
			c-1.67,0.42-3.33,0.84-5,1.26c-0.95,0.24-1.32,0.86-1.09,1.81c0.11,0.43,0.21,0.86,0.32,1.29c0.06,0.26,0.13,0.51,0.2,0.77
			c0.9-0.23,1.79-0.45,2.67-0.67c0.41-0.1,0.83-0.21,1.24-0.31c0.36-0.09,0.66,0.08,0.73,0.4c0.08,0.34-0.11,0.62-0.48,0.71
			c-1.21,0.31-2.43,0.61-3.64,0.92c-0.08,0.02-0.15,0.05-0.25,0.08c0.26,1.04,0.52,2.06,0.78,3.11c0.41-0.1,0.79-0.19,1.18-0.29
			c0.43-0.11,0.86-0.22,1.29-0.32c0.33-0.08,0.64,0.11,0.72,0.41c0.08,0.32-0.1,0.62-0.46,0.71c-0.78,0.2-1.56,0.4-2.35,0.59
			c-0.03,0.01-0.06,0.02-0.11,0.04c0.18,0.72,0.35,1.44,0.54,2.16c0.61,2.43,1.23,4.86,1.84,7.3c0.13,0.51,0.42,0.86,0.92,1.04
			c0.36,0.13,0.5,0.41,0.39,0.74c-0.11,0.31-0.42,0.46-0.77,0.34c-0.88-0.3-1.43-0.92-1.65-1.81c-0.63-2.47-1.24-4.95-1.86-7.42
			c-0.8-3.19-1.61-6.38-2.41-9.57c-0.37-1.46,0.4-2.74,1.86-3.11c3.46-0.87,6.92-1.74,10.37-2.61c2.51-0.63,5.02-1.26,7.53-1.9
			c2.95-0.74,5.9-1.49,8.85-2.23c1.24-0.31,2.54,0.44,2.89,1.68c0.23,0.81,0.42,1.63,0.62,2.44c0.28,1.11,0.56,2.22,0.84,3.33
			c0.1,0.38-0.05,0.71-0.38,0.8c-0.34,0.09-0.63-0.1-0.73-0.49C166.78,56.76,166.58,56,166.38,55.21z"/>
		<path class="st9" d="M171.06,76.2c0,1.36-1.12,2.49-2.48,2.49c-1.35,0-2.47-1.11-2.48-2.46c-0.01-1.38,1.1-2.51,2.48-2.51
			C169.94,73.72,171.06,74.84,171.06,76.2z M169.9,76.22c0.01-0.72-0.59-1.33-1.31-1.34c-0.72-0.01-1.34,0.6-1.35,1.33
			c-0.01,0.7,0.6,1.32,1.3,1.33C169.28,77.55,169.89,76.95,169.9,76.22z"/>
		<g>
			<path class="st9" d="M161.02,72.23c0.14,0,0.28,0.01,0.41,0c0.18-0.01,0.26,0.06,0.3,0.24c0.23,1.07,0.47,2.13,0.7,3.2
				c0.11,0.52,0.23,1.04,0.34,1.56c0.05,0.23,0,0.29-0.23,0.29c-0.28,0-0.55,0-0.83,0c-0.15,0-0.23-0.07-0.26-0.21
				c0-0.01,0-0.01,0-0.02c-0.04-0.18-0.03-0.43-0.14-0.51c-0.13-0.1-0.38-0.05-0.57-0.05c-0.36,0-0.72,0-1.09-0.01
				c-0.13,0-0.19,0.04-0.23,0.16c-0.05,0.16-0.12,0.31-0.17,0.46c-0.04,0.12-0.12,0.18-0.25,0.18c-0.33,0-0.66,0-0.99,0
				c-0.24,0-0.3-0.09-0.19-0.33c0.41-0.92,0.81-1.84,1.22-2.76c0.24-0.54,0.49-1.06,0.7-1.61c0.17-0.42,0.46-0.6,0.9-0.59
				C160.77,72.24,160.89,72.23,161.02,72.23z M161.1,75.63c-0.14-0.64-0.28-1.26-0.41-1.88c-0.02,0-0.03,0-0.05,0
				c-0.24,0.62-0.48,1.24-0.73,1.88C160.32,75.63,160.69,75.63,161.1,75.63z"/>
			<path class="st9" d="M155.33,77.55c-0.46-0.08-0.93-0.16-1.39-0.25c-0.13-0.02-0.19-0.11-0.17-0.25
				c0.04-0.24,0.07-0.48,0.12-0.72c0.04-0.17,0.13-0.21,0.32-0.13c0.44,0.19,0.9,0.25,1.37,0.21c0.15-0.01,0.3-0.06,0.43-0.13
				c0.29-0.15,0.32-0.46,0.07-0.66c-0.13-0.11-0.29-0.18-0.44-0.27c-0.27-0.16-0.56-0.3-0.81-0.48c-0.75-0.56-0.6-1.48-0.05-1.99
				c0.64-0.59,1.43-0.69,2.25-0.63c0.22,0.02,0.44,0.08,0.66,0.12c0.16,0.03,0.22,0.13,0.19,0.29c-0.03,0.19-0.07,0.38-0.1,0.56
				c-0.04,0.24-0.1,0.29-0.33,0.21c-0.36-0.12-0.73-0.17-1.11-0.11c-0.16,0.03-0.33,0.1-0.46,0.2c-0.17,0.12-0.17,0.29-0.02,0.42
				c0.14,0.12,0.31,0.22,0.47,0.32c0.28,0.17,0.58,0.31,0.85,0.5c0.8,0.57,0.56,1.6,0.07,2.07c-0.41,0.4-0.93,0.56-1.48,0.63
				c-0.14,0.02-0.29,0.02-0.43,0.03C155.34,77.51,155.34,77.53,155.33,77.55z"/>
			<path class="st9" d="M148.7,75.81c0.04-0.1,0.07-0.15,0.09-0.21c0.41-1.04,0.82-2.08,1.22-3.12c0.07-0.18,0.17-0.26,0.37-0.25
				c0.29,0.01,0.58,0,0.87,0c0.3,0,0.36,0.08,0.24,0.36c-0.6,1.41-1.21,2.81-1.81,4.22c-0.08,0.17-0.15,0.35-0.22,0.53
				c-0.05,0.12-0.13,0.18-0.27,0.18c-0.37-0.01-0.75-0.01-1.12,0c-0.15,0-0.23-0.07-0.27-0.2c-0.36-1.24-0.72-2.47-1.08-3.71
				c-0.02-0.07,0.01-0.19,0.06-0.22c0.05-0.03,0.17-0.01,0.23,0.04c0.63,0.51,1.17,1.09,1.53,1.83
				C148.6,75.41,148.64,75.59,148.7,75.81z"/>
			<path class="st9" d="M152.05,77.52c-0.14,0-0.29,0-0.43,0c-0.24,0-0.28-0.05-0.25-0.28c0.2-1.19,0.4-2.37,0.6-3.56
				c0.07-0.4,0.14-0.8,0.2-1.2c0.03-0.18,0.11-0.25,0.29-0.25c0.3,0.01,0.6,0,0.91,0c0.22,0,0.28,0.07,0.24,0.27
				c-0.27,1.59-0.55,3.19-0.81,4.78c-0.03,0.17-0.11,0.24-0.28,0.23C152.37,77.51,152.21,77.52,152.05,77.52z"/>
			<path class="st9" d="M146.68,72.23c0.24,0,0.49-0.01,0.73,0c0.34,0.01,0.53,0.16,0.6,0.49c0.09,0.38,0.17,0.77,0.24,1.16
				c0.01,0.07-0.03,0.18-0.08,0.21c-0.04,0.03-0.17-0.01-0.21-0.06c-0.55-0.68-1.26-1.12-2.06-1.44c-0.1-0.04-0.24-0.09-0.19-0.23
				c0.03-0.07,0.17-0.12,0.27-0.12C146.22,72.21,146.45,72.22,146.68,72.23C146.68,72.23,146.68,72.23,146.68,72.23z"/>
		</g>
	</g>
</g>
</svg>
