<?xml version="1.0" encoding="utf-8"?>
<!-- Generator: Adobe Illustrator 24.1.0, SVG Export Plug-In . SVG Version: 6.00 Build 0)  -->
<svg version="1.1" id="Capa_1" xmlns="http://www.w3.org/2000/svg" xmlns:xlink="http://www.w3.org/1999/xlink" x="0px" y="0px"
	 viewBox="0 0 418 205" style="enable-background:new 0 0 418 205;" xml:space="preserve">
<style type="text/css">
	.st0{opacity:0.18;clip-path:url(#SVGID_2_);fill:#4E5ED7;}
	.st1{clip-path:url(#SVGID_2_);fill:#381B91;}
	.st2{clip-path:url(#SVGID_2_);fill-rule:evenodd;clip-rule:evenodd;fill:url(#SVGID_3_);}
	.st3{clip-path:url(#SVGID_2_);fill-rule:evenodd;clip-rule:evenodd;fill:url(#SVGID_4_);}
	.st4{clip-path:url(#SVGID_2_);}
	.st5{fill:#FFFFFF;stroke:#381B91;stroke-width:1.5;stroke-miterlimit:10;}
	.st6{fill:#FFFFFF;stroke:#381B91;stroke-miterlimit:10;}
	.st7{opacity:0.44;fill:#ABC4FF;}
	.st8{fill:none;stroke:#381B91;stroke-miterlimit:10;}
	.st9{fill:#381B91;}
	.st10{fill:#ABC4FF;stroke:#381B91;stroke-miterlimit:10;}
	.st11{fill:#4E5ED7;stroke:#381B91;stroke-width:3;stroke-miterlimit:10;}
	.st12{fill:#ABC4FF;}
	.st13{opacity:0.84;fill:#FFFFFF;}
	.st14{fill:#FFFFFF;stroke:#381B91;stroke-width:2;stroke-miterlimit:10;}
	.st15{fill:#ABC4FF;stroke:#381B91;stroke-width:2;stroke-miterlimit:10;}
	.st16{fill:#4E5ED7;stroke:#381B91;stroke-miterlimit:10;}
	.st17{fill:#4E5ED7;}
	
		.st18{clip-path:url(#SVGID_2_);fill:none;stroke:#4E5ED7;stroke-linecap:round;stroke-linejoin:round;stroke-miterlimit:10;stroke-dasharray:3;}
	.st19{clip-path:url(#SVGID_2_);fill-rule:evenodd;clip-rule:evenodd;fill:url(#SVGID_5_);}
	.st20{clip-path:url(#SVGID_2_);fill-rule:evenodd;clip-rule:evenodd;fill:#FFFFFF;}
	.st21{fill:#CBCBCB;}
	.st22{fill:#C42C24;}
	.st23{fill:#EDEDED;}
	.st24{fill:#E6332A;}
	.st25{fill:#821D18;}
	.st26{fill:#FFFFFF;}
	.st27{fill:#381B91;stroke:#381B91;stroke-width:3;stroke-miterlimit:10;}
	.st28{clip-path:url(#SVGID_2_);fill:#ABC4FF;}
	.st29{fill:url(#SVGID_6_);stroke:#381B91;stroke-miterlimit:10;}
	.st30{opacity:0.3;fill:#1D2063;}
	.st31{fill:#E1EDFF;}
	.st32{clip-path:url(#SVGID_8_);}
	.st33{fill:#FFC88D;}
	.st34{fill:#FFC40E;}
	.st35{fill:#E9D6B8;}
	.st36{fill:#FF3D0D;}
	.st37{fill:#FF7C07;}
	.st38{fill:#161711;}
	.st39{opacity:0.23;clip-path:url(#SVGID_2_);fill:#0D0F21;}
	.st40{fill:#0D0F21;}
	.st41{fill:#0D66A2;}
	.st42{fill:#FFC2A4;}
	.st43{fill:#FFA283;}
	.st44{fill:url(#SVGID_9_);}
	.st45{fill:url(#SVGID_10_);}
	.st46{fill:none;stroke:#FFFFFF;stroke-width:0.25;stroke-linecap:round;stroke-linejoin:round;stroke-miterlimit:10;}
</style>
<g>
	<defs>
		<rect id="SVGID_1_" x="-5.48" y="4.67" width="423.36" height="200.01"/>
	</defs>
	<clipPath id="SVGID_2_">
		<use xlink:href="#SVGID_1_"  style="overflow:visible;"/>
	</clipPath>
	<path class="st0" d="M404.18,157.48c13.99-29.32,3.73-61.69-26.12-91.83C347.88,35.73,308.77,8.88,286.63,10
		c-17.78,0.83-30,16.86-46.91,31.22c-16.38,14.49-39.43,27.83-61.38,25.63c-18.33-1.79-31.03-13.14-46.24-12.98
		c-21.47,0.19-51.41,23.97-74.95,44.29c-23.15,20.83-35.46,38.36-32.56,55.4c2.06,15.2,15.52,31.18,33.92,49.45
		c0.06,0.06,0.11,0.11,0.17,0.17c11.3,11.03,26.49,17.16,42.28,17.16h226.08c15.48,0,30.42-5.88,41.65-16.54
		C383.92,189.3,396.82,173.76,404.18,157.48z"/>
	<path class="st1" d="M361.27,190.56c-0.22-1.82-1.75-3.24-3.63-3.24h-4.23v-72.6v-1.24v-1.24h-0.11c-0.59-3.55-3.68-6.26-7.39-6.26
		H305.1V94.46l-64.79-22.91l-63.9,22.91v11.51h-44.4c-3.71,0-6.8,2.71-7.39,6.26h-0.11v1.24v1.24v72.6h-1.14
		c-1.88,0-3.41,1.42-3.63,3.24h-0.04v7.34h241.61v-7.34H361.27z"/>
	<polygon class="st1" points="310.89,113.83 310.89,117.16 305.12,117.16 305.12,113.83 258.69,113.83 258.69,79.6 209.94,79.6 
		209.94,113.83 188.98,113.83 188.98,86.24 175.73,86.24 175.73,102.16 157.54,102.16 157.54,97.58 81.72,97.58 81.72,113.27 
		74.11,113.27 74.11,116.96 69.65,116.96 69.65,193.11 343.06,193.28 343.06,113.83 	"/>
	
		<linearGradient id="SVGID_3_" gradientUnits="userSpaceOnUse" x1="188.2213" y1="131.5298" x2="258.6851" y2="131.5298" gradientTransform="matrix(0.9833 -0.1819 0.1819 0.9833 -197.9682 70.5181)">
		<stop  offset="0" style="stop-color:#00B5D1"/>
		<stop  offset="1" style="stop-color:#00D1C8"/>
	</linearGradient>
	<path class="st2" d="M84.79,184.38c2.81-10.49-6.49-14.31-9.91-2.64c-1.59,7.14-0.64,11.71,0.42,14.27
		c-0.57-0.66-1.15-1.3-1.73-1.9c-3.18-3.29-6.52-5.67-10-7.13c-0.01-0.01-0.03-0.01-0.04-0.02c-6.97-2.79-12.76-6.91-17.38-12.34
		c-1.17-1.37-2.26-2.83-3.28-4.38c3.72-3.39,6.69-7.33,8.92-11.84c4.06-9.41-5.23-14.87-8.89-3.81c-1.84,6.73-1.36,11.8-0.89,14.31
		c-2.61-4.25-4.68-9.12-6.22-14.58l0,0l0-0.01c-0.13-0.45-0.28-0.91-0.46-1.39c3.28-2.95,5.9-6.39,7.85-10.34
		c3.48-8.08-4.49-12.77-7.63-3.28c-1.56,5.72-1.17,10.05-0.77,12.22c-1.22-2.81-3.12-6.02-5.73-9.64c-0.92-1.28-1.94-2.62-3.03-4
		c1.74-2.97,2.99-6.16,3.76-9.57c1.38-7.84-5.91-10.11-6.76-1.12c-0.15,3.2,0.18,5.81,0.62,7.77c-2.54-3.03-5.46-6.29-8.76-9.77
		c-0.19-0.21-0.48-0.28-0.73-0.21c-1-3.62-2.57-7-4.73-10.13c-4.82-6.34-11.44-2.53-5.41,4.21c4.24,4.3,8.07,5.92,9.62,6.44
		c-0.07,0.25-0.02,0.53,0.17,0.73c4.43,4.67,8.16,8.93,11.19,12.77c0.1,0.21,0.16,0.31,0.16,0.31l0.04-0.06
		c0.3,0.38,0.59,0.75,0.87,1.12c-1.3-0.82-5.03-2.83-11.19-3.38c-9.03-0.36-7.75,7.17,0.2,6.85c3.97-0.35,7.75-1.36,11.32-3.03
		c0.5,0.66,0.99,1.32,1.45,1.95c3.4,4.73,5.58,8.71,6.52,11.95l0,0c1.95,6.94,4.75,12.94,8.4,17.99c-1.2-1.09-5.11-3.82-13.65-2.98
		c-10.2,1.68-7.94,9.93,1.21,8.64c4.59-0.89,8.86-2.62,12.79-5.18c0.61,0.83,1.25,1.63,1.91,2.41c2.21,2.6,4.68,4.91,7.41,6.92
		c-2.38-0.68-5.63-1.09-9.97-0.67c-11.25,1.86-8.75,10.95,1.33,9.52c4.96-0.96,9.57-2.81,13.83-5.54c1.7,0.93,3.49,1.77,5.35,2.52
		l0.01,0c3.29,1.38,6.45,3.65,9.5,6.8c3.08,3.18,6.03,7.27,8.85,12.26c0.2,0.36,0.66,0.49,1.02,0.28c0.36-0.2,0.49-0.66,0.28-1.02
		c-1.78-3.14-3.61-5.93-5.49-8.38C80.59,194.14,83.13,189.5,84.79,184.38z"/>
	
		<linearGradient id="SVGID_4_" gradientUnits="userSpaceOnUse" x1="935.8168" y1="234.2513" x2="985.4041" y2="234.2513" gradientTransform="matrix(-0.9833 -0.1819 -0.1819 0.9833 1339.5133 70.5181)">
		<stop  offset="0" style="stop-color:#00B5D1"/>
		<stop  offset="1" style="stop-color:#00D1C8"/>
	</linearGradient>
	<path class="st3" d="M324.8,143.81c-1.98-7.38,4.57-10.07,6.97-1.86c1.12,5.02,0.45,8.24-0.29,10.04c0.4-0.47,0.81-0.91,1.22-1.34
		c2.24-2.32,4.58-3.99,7.03-5.02c0.01,0,0.02-0.01,0.03-0.01c4.9-1.97,8.98-4.86,12.23-8.68c0.82-0.97,1.59-1.99,2.31-3.08
		c-2.62-2.38-4.71-5.16-6.28-8.33c-2.85-6.62,3.68-10.47,6.26-2.68c1.29,4.73,0.96,8.31,0.62,10.07c1.83-2.99,3.29-6.41,4.37-10.26
		l0,0l0,0c0.09-0.32,0.2-0.64,0.32-0.98c-2.31-2.07-4.15-4.5-5.52-7.28c-2.45-5.68,3.16-8.99,5.37-2.3c1.1,4.02,0.83,7.07,0.54,8.6
		c0.86-1.98,2.2-4.24,4.03-6.78c0.65-0.9,1.36-1.84,2.14-2.82c-1.22-2.09-2.1-4.34-2.64-6.74c-0.97-5.52,4.16-7.12,4.76-0.79
		c0.1,2.25-0.13,4.09-0.44,5.47c1.79-2.13,3.84-4.43,6.17-6.88c0.14-0.14,0.34-0.19,0.52-0.15c0.7-2.55,1.81-4.93,3.33-7.13
		c3.39-4.46,8.05-1.78,3.81,2.96c-2.98,3.02-5.68,4.17-6.77,4.53c0.05,0.17,0.01,0.37-0.12,0.51c-3.12,3.29-5.74,6.28-7.88,8.98
		c-0.07,0.14-0.11,0.22-0.11,0.22l-0.03-0.04c-0.21,0.27-0.41,0.53-0.61,0.79c0.92-0.58,3.54-1.99,7.87-2.38
		c6.35-0.25,5.45,5.05-0.14,4.82c-2.8-0.24-5.45-0.95-7.97-2.13c-0.35,0.47-0.69,0.93-1.02,1.38c-2.4,3.33-3.92,6.13-4.59,8.41l0,0
		c-1.37,4.88-3.34,9.1-5.91,12.66c0.84-0.76,3.6-2.68,9.61-2.1c7.18,1.18,5.59,6.99-0.85,6.08c-3.23-0.63-6.23-1.84-9-3.65
		c-0.43,0.58-0.88,1.15-1.35,1.7c-1.56,1.83-3.3,3.45-5.22,4.87c1.67-0.48,3.96-0.77,7.02-0.47c7.92,1.31,6.16,7.71-0.94,6.7
		c-3.49-0.68-6.74-1.98-9.74-3.9c-1.2,0.66-2.45,1.25-3.76,1.77l-0.01,0c-2.31,0.97-4.54,2.57-6.69,4.79
		c-2.17,2.24-4.24,5.12-6.23,8.62c-0.14,0.25-0.47,0.34-0.72,0.2c-0.25-0.14-0.34-0.47-0.2-0.72c1.25-2.21,2.54-4.17,3.86-5.9
		C327.76,150.68,325.96,147.42,324.8,143.81z"/>
	<rect x="202.62" y="57.26" class="st1" width="19.89" height="24.61"/>
	<rect x="304.18" y="87.34" class="st1" width="15.32" height="24.61"/>
	<rect x="121.29" y="81.29" class="st1" width="19.89" height="24.61"/>
	<g class="st4">
		<polygon class="st5" points="268.26,92.41 199.27,68.02 131.24,92.41 131.24,193.09 268.26,193.09 		"/>
		<rect x="74.06" y="111.91" class="st6" width="247.44" height="81.17"/>
		<path class="st7" d="M247.13,118.71h-98.68c-41.08,0-74.38,33.3-74.38,74.38v0h247.44v0
			C321.51,152.01,288.21,118.71,247.13,118.71z"/>
		<rect x="85.47" y="111.91" class="st8" width="228.65" height="6.79"/>
		<path class="st6" d="M321.51,111.91H74.06l0,0c0-3.78,3.06-6.84,6.84-6.84h233.76C318.44,105.07,321.51,108.14,321.51,111.91
			L321.51,111.91z"/>
		<g>
			<g>
				<g>
					<path class="st9" d="M93.46,129.38h-2.79c-5.1,0-9.23,4.13-9.23,9.23v28.77h21.24V138.6
						C102.69,133.51,98.56,129.38,93.46,129.38z M92.07,130.83c5.1,0,9.23,4.13,9.23,9.23v8.77H82.84v-8.77
						C82.84,134.96,86.97,130.83,92.07,130.83z M82.84,165.92v-15.57h18.45v15.57H82.84z"/>
					<path class="st10" d="M101.29,140.05v8.77H82.84v-8.77c0-5.1,4.13-9.23,9.23-9.23c2.9,0,5.49,1.34,7.18,3.44
						C100.53,135.84,101.29,137.86,101.29,140.05z"/>
					<rect x="82.84" y="150.35" class="st10" width="18.45" height="15.57"/>
				</g>
				<rect x="80.03" y="163.91" class="st9" width="24.07" height="4.4"/>
			</g>
			<g>
				<g>
					<path class="st9" d="M124.18,129.38h-2.79c-5.1,0-9.23,4.13-9.23,9.23v28.77h21.24V138.6
						C133.4,133.51,129.27,129.38,124.18,129.38z M122.78,130.83c5.1,0,9.23,4.13,9.23,9.23v8.77h-18.45v-8.77
						C113.56,134.96,117.69,130.83,122.78,130.83z M113.56,165.92v-15.57h18.45v15.57H113.56z"/>
					<path class="st10" d="M132.01,140.05v8.77h-18.45v-8.77c0-5.1,4.13-9.23,9.23-9.23c2.9,0,5.49,1.34,7.18,3.44
						C131.24,135.84,132.01,137.86,132.01,140.05z"/>
					<rect x="113.56" y="150.35" class="st10" width="18.45" height="15.57"/>
				</g>
				<rect x="110.75" y="163.91" class="st9" width="24.07" height="4.4"/>
			</g>
		</g>
		<g>
			<g>
				<path class="st9" d="M305.23,129.38h-2.79c-5.1,0-9.23,4.13-9.23,9.23v28.77h21.24V138.6
					C314.46,133.51,310.33,129.38,305.23,129.38z M303.84,130.83c5.1,0,9.23,4.13,9.23,9.23v8.77h-18.45v-8.77
					C294.61,134.96,298.74,130.83,303.84,130.83z M294.61,165.92v-15.57h18.45v15.57H294.61z"/>
				<path class="st11" d="M313.07,140.05v8.77h-18.45v-8.77c0-5.1,4.13-9.23,9.23-9.23c2.9,0,5.49,1.34,7.18,3.44
					C312.3,135.84,313.07,137.86,313.07,140.05z"/>
				<rect x="294.61" y="150.35" class="st11" width="18.45" height="15.57"/>
			</g>
			<rect x="291.81" y="163.91" class="st9" width="24.07" height="4.4"/>
		</g>
		<g>
			<g>
				<path class="st9" d="M201.28,130.74L201.28,130.74c-11.65,0-21.09,9.44-21.09,21.09v41.49h3.35v-40.99
					c0-9.3,7.15-16.92,16.25-17.68v58.67h3.25v-58.65c8.98,0.88,16,8.45,16,17.66v40.99h3.35v-41.49
					C222.37,140.18,212.93,130.74,201.28,130.74z"/>
				<g>
					<path class="st12" d="M202.53,193.82v-59.71l0.55,0.05c9.38,0.92,16.45,8.73,16.45,18.16v41.49H202.53z"/>
					<path class="st9" d="M203.03,134.66c8.98,0.88,15.99,8.45,15.99,17.66v40.99h-15.99V134.66 M202.03,133.56v1.1v58.65v1h1h15.99
						h1v-1v-40.99c0-9.69-7.26-17.71-16.9-18.66L202.03,133.56L202.03,133.56z"/>
				</g>
				<path class="st13" d="M219.03,152.32v3.76l-15.99,6.84v-19.05c0-5.36,6.4-8.2,10.33-4.54
					C216.85,142.56,219.03,147.19,219.03,152.32z"/>
				<polygon class="st13" points="203.03,173.74 219.03,166.9 219.03,193.31 203.03,193.31 				"/>
				<g>
					<path class="st12" d="M183.03,193.82v-41.49c0-9.41,7.34-17.39,16.71-18.18l0.54-0.05v59.72H183.03z"/>
					<path class="st9" d="M199.78,134.64v58.67h-16.25v-40.99C183.53,143.03,190.68,135.41,199.78,134.64 M200.78,133.56l-1.08,0.09
						c-9.62,0.81-17.16,9.01-17.16,18.68v40.99v1h1h16.25h1v-1v-58.67V133.56L200.78,133.56z"/>
				</g>
			</g>
			<path class="st13" d="M199.78,144.85v19.46l-16.25,6.95v-18.93c0-4.67,1.81-8.92,4.76-12.09
				C192.4,135.83,199.78,138.84,199.78,144.85z"/>
			<polygon class="st13" points="183.53,182.07 199.78,175.13 199.78,193.31 183.53,193.31 			"/>
		</g>
		<g>
			<rect x="147.79" y="123.05" class="st14" width="7.79" height="70.04"/>
			<rect x="163.39" y="123.05" class="st14" width="7.79" height="70.04"/>
			<rect x="143.32" y="183.47" class="st15" width="31.87" height="9"/>
			<rect x="143.29" y="130.16" class="st15" width="31.87" height="9"/>
		</g>
		<g>
			<rect x="231.19" y="123.11" class="st14" width="7.79" height="70.04"/>
			<rect x="246.79" y="123.11" class="st14" width="7.79" height="70.04"/>
			<rect x="227.37" y="183.53" class="st15" width="31.87" height="9"/>
			<rect x="226.7" y="130.23" class="st15" width="31.87" height="9"/>
		</g>
		<g>
			<path class="st16" d="M261.09,107.67v16.42c0,2.92-2.36,5.28-5.28,5.28H142.72c-2.11,0-3.93-1.24-4.78-3.03
				c-0.33-0.68-0.5-1.45-0.5-2.26v-16.42c0-2.74,2.22-4.96,4.96-4.96h113.73c0.19,0,0.38,0.01,0.56,0.03
				C259.17,103.02,261.09,105.12,261.09,107.67z"/>
		</g>
		<rect x="67.45" y="196.16" class="st9" width="264.05" height="8.02"/>
		<path class="st9" d="M327.49,192.62H71.46c-2.22,0-4.01,1.8-4.01,4.01l0,0H331.5l0,0C331.5,194.41,329.7,192.62,327.49,192.62z"/>
		<g>
			<path class="st17" d="M157.42,94.09c-0.24,0-0.45-0.17-0.49-0.41c-0.04-0.24,0.09-0.47,0.32-0.56l41.84-15.29
				c0.06-0.02,0.11-0.03,0.17-0.03c0.06,0,0.12,0.01,0.17,0.03l41.24,15.29c0.23,0.08,0.36,0.32,0.32,0.56s-0.25,0.41-0.49,0.41
				H157.42z"/>
			<path class="st9" d="M199.27,78.3l41.24,15.29h-83.08L199.27,78.3 M199.27,77.3c-0.12,0-0.23,0.02-0.34,0.06l-41.84,15.29
				c-0.46,0.17-0.73,0.64-0.64,1.11c0.08,0.48,0.5,0.83,0.98,0.83h83.08c0.48,0,0.9-0.35,0.98-0.82c0.09-0.48-0.18-0.95-0.64-1.11
				l-41.24-15.29C199.5,77.33,199.38,77.3,199.27,77.3L199.27,77.3z"/>
		</g>
		<line class="st6" x1="114.53" y1="118.71" x2="164.83" y2="118.71"/>
		<line class="st6" x1="225.53" y1="111.95" x2="275.84" y2="111.95"/>
		<circle class="st10" cx="199.78" cy="115.31" r="6.57"/>
	</g>
	<path class="st18" d="M193.57,62.02c0,0-29.28-44.97-87.46-17.72"/>
	<linearGradient id="SVGID_5_" gradientUnits="userSpaceOnUse" x1="56.7818" y1="60.9298" x2="105.588" y2="60.9298">
		<stop  offset="0" style="stop-color:#00B5D1"/>
		<stop  offset="1" style="stop-color:#00D1C8"/>
	</linearGradient>
	<circle class="st19" cx="81.18" cy="60.93" r="24.4"/>
	<circle class="st20" cx="81.18" cy="60.93" r="20.41"/>
	<g class="st4">
		<path class="st17" d="M82.96,71.95c-3.3,0-6.6,0-9.9,0c-1.13,0-1.89-0.77-1.89-1.9c0-4.23,0-8.47,0-12.7
			c0-0.67,0.29-1.18,0.85-1.54c0.3-0.19,0.63-0.27,0.98-0.27c4.16,0,8.31,0,12.47,0c1,0,2,0,3.01,0c1.49,0,2.98,0,4.47,0
			c1.07,0,1.83,0.78,1.83,1.85c0,4.25,0,8.49,0,12.74c0,1.04-0.78,1.83-1.82,1.83C89.62,71.95,86.29,71.95,82.96,71.95z
			 M72.01,63.01c0,0.07,0,0.11,0,0.16c0,2.33,0,4.66,0,6.98c0,0.07,0,0.14,0.02,0.21c0.12,0.49,0.48,0.75,1.02,0.75
			c4.31,0,8.62,0,12.93,0c2.3,0,4.61,0,6.91,0c0.17,0,0.35-0.02,0.49-0.09c0.41-0.19,0.55-0.54,0.55-0.97c0-2.18,0-4.35,0-6.53
			c0-0.17,0-0.33,0-0.51C86.62,63.01,79.33,63.01,72.01,63.01z M93.94,59c0-0.54,0-1.06,0-1.58c0-0.66-0.39-1.05-1.05-1.05
			c-2.54,0-5.08,0-7.61,0c-3.5,0-7,0-10.5,0c-0.6,0-1.21,0-1.81,0c-0.54,0-0.96,0.42-0.96,0.96c0,0.28,0,0.56,0,0.84
			c0,0.27,0,0.55,0,0.82C79.33,59,86.62,59,93.94,59z M93.93,59.84c-7.32,0-14.62,0-21.91,0c0,0.78,0,1.55,0,2.32
			c7.31,0,14.61,0,21.91,0C93.93,61.38,93.93,60.62,93.93,59.84z"/>
		<path class="st17" d="M88.77,52.95c-0.49,0.12-0.97,0.24-1.45,0.36c-1.19,0.3-2.38,0.6-3.57,0.9c-0.96,0.24-1.92,0.49-2.88,0.73
			c-0.08,0.02-0.16,0.04-0.24,0.05c-0.22,0.02-0.4-0.11-0.45-0.31c-0.05-0.22,0.06-0.44,0.28-0.5c0.42-0.12,0.84-0.21,1.26-0.32
			c2.02-0.51,4.04-1.02,6.06-1.53c0.26-0.06,0.51-0.13,0.79-0.2c-0.04-0.17-0.08-0.33-0.13-0.49c-0.09-0.37-0.18-0.75-0.28-1.12
			c-0.15-0.55-0.65-0.83-1.2-0.69c-1.55,0.39-3.11,0.78-4.66,1.18c-1.29,0.33-2.59,0.66-3.88,0.98c-2.36,0.59-4.72,1.18-7.08,1.77
			c-1.21,0.3-2.42,0.61-3.62,0.92c-0.69,0.18-0.96,0.63-0.79,1.31c0.08,0.31,0.15,0.63,0.23,0.94c0.05,0.19,0.1,0.37,0.15,0.56
			c0.66-0.16,1.3-0.33,1.94-0.49c0.3-0.08,0.6-0.15,0.9-0.22c0.26-0.06,0.48,0.06,0.53,0.29c0.06,0.25-0.08,0.45-0.35,0.52
			c-0.88,0.22-1.76,0.44-2.64,0.66c-0.06,0.01-0.11,0.03-0.18,0.05c0.19,0.75,0.38,1.49,0.57,2.25c0.29-0.07,0.58-0.14,0.86-0.21
			c0.31-0.08,0.62-0.16,0.94-0.23c0.24-0.06,0.47,0.08,0.52,0.29c0.06,0.23-0.08,0.45-0.33,0.52c-0.57,0.15-1.13,0.29-1.7,0.43
			c-0.02,0.01-0.04,0.01-0.08,0.03c0.13,0.52,0.26,1.05,0.39,1.57c0.44,1.76,0.89,3.53,1.33,5.29c0.09,0.37,0.31,0.62,0.67,0.75
			c0.26,0.09,0.36,0.3,0.28,0.54c-0.08,0.23-0.3,0.33-0.56,0.24c-0.64-0.22-1.04-0.67-1.2-1.31c-0.45-1.79-0.9-3.59-1.35-5.38
			c-0.58-2.31-1.17-4.63-1.75-6.94c-0.27-1.06,0.29-1.99,1.35-2.25c2.51-0.63,5.02-1.26,7.52-1.9c1.82-0.46,3.64-0.92,5.46-1.38
			c2.14-0.54,4.28-1.08,6.42-1.62c0.9-0.22,1.84,0.32,2.09,1.22c0.17,0.58,0.3,1.18,0.45,1.77c0.2,0.81,0.41,1.61,0.61,2.42
			c0.07,0.28-0.04,0.52-0.28,0.58c-0.25,0.06-0.46-0.08-0.53-0.35C89.06,54.07,88.92,53.51,88.77,52.95z"/>
		<path class="st17" d="M92.16,68.17c0,0.99-0.81,1.8-1.8,1.8c-0.98,0-1.79-0.8-1.8-1.78c-0.01-1,0.8-1.82,1.8-1.82
			C91.35,66.36,92.16,67.18,92.16,68.17z M91.33,68.18c0-0.53-0.43-0.97-0.95-0.98c-0.52-0.01-0.97,0.44-0.98,0.97
			c0,0.51,0.43,0.96,0.94,0.96C90.88,69.14,91.32,68.71,91.33,68.18z"/>
		<g>
			<path class="st17" d="M84.88,65.29c0.1,0,0.2,0,0.3,0c0.13-0.01,0.19,0.05,0.22,0.17c0.17,0.77,0.34,1.55,0.51,2.32
				c0.08,0.38,0.17,0.75,0.25,1.13c0.04,0.17,0,0.21-0.17,0.21c-0.2,0-0.4,0-0.6,0c-0.11,0-0.17-0.05-0.19-0.15c0,0,0-0.01,0-0.01
				c-0.03-0.13-0.02-0.31-0.11-0.37c-0.1-0.07-0.27-0.03-0.41-0.03c-0.26,0-0.53,0-0.79,0c-0.09,0-0.14,0.03-0.16,0.12
				c-0.04,0.11-0.09,0.22-0.13,0.33c-0.03,0.09-0.09,0.13-0.18,0.13c-0.24,0-0.48,0-0.72,0c-0.18,0-0.22-0.07-0.14-0.24
				c0.29-0.67,0.59-1.33,0.88-2c0.17-0.39,0.35-0.77,0.51-1.17c0.12-0.3,0.33-0.44,0.65-0.43C84.7,65.29,84.79,65.29,84.88,65.29z
				 M84.94,67.75c-0.1-0.46-0.2-0.91-0.3-1.37c-0.01,0-0.02,0-0.03,0c-0.17,0.45-0.35,0.9-0.53,1.36
				C84.38,67.75,84.65,67.75,84.94,67.75z"/>
			<path class="st17" d="M80.76,69.14c-0.34-0.06-0.67-0.12-1.01-0.18c-0.09-0.02-0.14-0.08-0.12-0.18
				c0.03-0.17,0.05-0.35,0.09-0.52c0.03-0.12,0.09-0.15,0.23-0.09c0.32,0.14,0.65,0.18,0.99,0.15c0.11-0.01,0.22-0.04,0.31-0.09
				c0.21-0.11,0.23-0.33,0.05-0.48c-0.1-0.08-0.21-0.13-0.32-0.19c-0.2-0.12-0.41-0.21-0.59-0.35c-0.54-0.4-0.44-1.07-0.04-1.44
				c0.46-0.43,1.03-0.5,1.63-0.45c0.16,0.01,0.32,0.06,0.48,0.09c0.12,0.02,0.16,0.09,0.14,0.21c-0.03,0.14-0.05,0.27-0.07,0.41
				c-0.03,0.17-0.08,0.21-0.24,0.15c-0.26-0.09-0.53-0.13-0.8-0.08c-0.12,0.02-0.24,0.07-0.33,0.14c-0.12,0.09-0.12,0.21-0.01,0.3
				c0.1,0.09,0.22,0.16,0.34,0.23c0.2,0.12,0.42,0.22,0.62,0.36c0.58,0.41,0.41,1.16,0.05,1.5c-0.3,0.29-0.67,0.4-1.07,0.46
				c-0.1,0.01-0.21,0.02-0.31,0.02C80.77,69.12,80.76,69.13,80.76,69.14z"/>
			<path class="st17" d="M75.95,67.88c0.03-0.07,0.05-0.11,0.07-0.15c0.3-0.75,0.59-1.51,0.88-2.26c0.05-0.13,0.12-0.19,0.27-0.18
				c0.21,0.01,0.42,0,0.63,0c0.22,0,0.26,0.06,0.17,0.26c-0.44,1.02-0.88,2.04-1.32,3.06c-0.05,0.13-0.11,0.25-0.16,0.38
				c-0.04,0.09-0.09,0.13-0.2,0.13c-0.27,0-0.54,0-0.82,0c-0.11,0-0.16-0.05-0.19-0.15c-0.26-0.9-0.53-1.79-0.78-2.69
				c-0.01-0.05,0.01-0.14,0.04-0.16c0.04-0.02,0.12,0,0.16,0.03c0.46,0.37,0.85,0.79,1.11,1.33C75.88,67.59,75.9,67.73,75.95,67.88z
				"/>
			<path class="st17" d="M78.38,69.12c-0.1,0-0.21,0-0.31,0c-0.17,0-0.21-0.04-0.18-0.2c0.14-0.86,0.29-1.72,0.44-2.58
				c0.05-0.29,0.1-0.58,0.15-0.87c0.02-0.13,0.08-0.18,0.21-0.18c0.22,0.01,0.44,0,0.66,0c0.16,0,0.2,0.05,0.17,0.2
				c-0.2,1.16-0.4,2.31-0.59,3.47c-0.02,0.12-0.08,0.17-0.2,0.17C78.61,69.12,78.5,69.12,78.38,69.12z"/>
			<path class="st17" d="M74.49,65.29c0.18,0,0.35,0,0.53,0c0.24,0.01,0.38,0.12,0.44,0.35c0.06,0.28,0.12,0.56,0.18,0.84
				c0.01,0.05-0.02,0.13-0.06,0.15c-0.03,0.02-0.12-0.01-0.15-0.05c-0.4-0.49-0.91-0.82-1.49-1.05c-0.08-0.03-0.18-0.07-0.14-0.16
				c0.02-0.05,0.13-0.08,0.2-0.09C74.16,65.27,74.32,65.28,74.49,65.29C74.49,65.28,74.49,65.28,74.49,65.29z"/>
		</g>
	</g>
	<g class="st4">
		<g>
			<rect x="291.48" y="56.11" class="st21" width="22.63" height="25.39"/>
			<g>
				<rect x="291.48" y="79.05" class="st22" width="22.63" height="2.45"/>
				<rect x="291.48" y="74.46" class="st22" width="22.63" height="2.45"/>
				<rect x="291.48" y="69.87" class="st22" width="22.63" height="2.45"/>
				<rect x="291.48" y="65.29" class="st22" width="22.63" height="2.45"/>
				<rect x="291.48" y="60.7" class="st22" width="22.63" height="2.45"/>
				<rect x="291.48" y="56.11" class="st22" width="22.63" height="2.45"/>
			</g>
		</g>
		<rect x="275.83" y="52.69" class="st23" width="26.96" height="25.39"/>
		<g>
			<rect x="275.83" y="75.63" class="st24" width="26.96" height="2.45"/>
			<rect x="275.83" y="71.04" class="st24" width="26.96" height="2.45"/>
			<rect x="275.83" y="66.46" class="st24" width="26.96" height="2.45"/>
			<rect x="277.05" y="61.87" class="st24" width="25.75" height="2.45"/>
			<rect x="277.05" y="57.28" class="st24" width="25.75" height="2.45"/>
			<rect x="277.05" y="52.69" class="st24" width="25.75" height="2.45"/>
		</g>
		<rect x="275.83" y="52.69" class="st17" width="18.98" height="13.76"/>
		<polygon class="st25" points="302.79,78.08 291.48,78.08 291.48,81.5 		"/>
		<g>
			<g>
				<polygon class="st26" points="280.81,56.49 281.31,57.51 282.43,57.67 281.62,58.46 281.81,59.57 280.81,59.05 279.8,59.57 
					280,58.46 279.18,57.67 280.31,57.51 				"/>
				<polygon class="st26" points="285.32,56.49 285.82,57.51 286.94,57.67 286.13,58.46 286.32,59.57 285.32,59.05 284.32,59.57 
					284.51,58.46 283.7,57.67 284.82,57.51 				"/>
				<polygon class="st26" points="289.84,56.49 290.34,57.51 291.46,57.67 290.65,58.46 290.84,59.57 289.84,59.05 288.84,59.57 
					289.03,58.46 288.22,57.67 289.34,57.51 				"/>
			</g>
			<g>
				<polygon class="st26" points="278.55,53.41 279.05,54.42 280.17,54.58 279.36,55.37 279.55,56.49 278.55,55.96 277.55,56.49 
					277.74,55.37 276.93,54.58 278.05,54.42 				"/>
				<polygon class="st26" points="283.06,53.41 283.57,54.42 284.69,54.58 283.88,55.37 284.07,56.49 283.06,55.96 282.06,56.49 
					282.25,55.37 281.44,54.58 282.56,54.42 				"/>
				<polygon class="st26" points="287.58,53.41 288.08,54.42 289.2,54.58 288.39,55.37 288.58,56.49 287.58,55.96 286.58,56.49 
					286.77,55.37 285.96,54.58 287.08,54.42 				"/>
				<polygon class="st26" points="292.1,53.41 292.6,54.42 293.72,54.58 292.91,55.37 293.1,56.49 292.1,55.96 291.1,56.49 
					291.29,55.37 290.48,54.58 291.6,54.42 				"/>
			</g>
			<g>
				<polygon class="st26" points="280.81,62.66 281.31,63.67 282.43,63.84 281.62,64.63 281.81,65.74 280.81,65.21 279.8,65.74 
					280,64.63 279.18,63.84 280.31,63.67 				"/>
				<polygon class="st26" points="285.32,62.66 285.82,63.67 286.94,63.84 286.13,64.63 286.32,65.74 285.32,65.21 284.32,65.74 
					284.51,64.63 283.7,63.84 284.82,63.67 				"/>
				<polygon class="st26" points="289.84,62.66 290.34,63.67 291.46,63.84 290.65,64.63 290.84,65.74 289.84,65.21 288.84,65.74 
					289.03,64.63 288.22,63.84 289.34,63.67 				"/>
			</g>
			<g>
				<polygon class="st26" points="278.55,59.57 279.05,60.59 280.17,60.75 279.36,61.54 279.55,62.66 278.55,62.13 277.55,62.66 
					277.74,61.54 276.93,60.75 278.05,60.59 				"/>
				<polygon class="st26" points="283.06,59.57 283.57,60.59 284.69,60.75 283.88,61.54 284.07,62.66 283.06,62.13 282.06,62.66 
					282.25,61.54 281.44,60.75 282.56,60.59 				"/>
				<polygon class="st26" points="287.58,59.57 288.08,60.59 289.2,60.75 288.39,61.54 288.58,62.66 287.58,62.13 286.58,62.66 
					286.77,61.54 285.96,60.75 287.08,60.59 				"/>
				<polygon class="st26" points="292.1,59.57 292.6,60.59 293.72,60.75 292.91,61.54 293.1,62.66 292.1,62.13 291.1,62.66 
					291.29,61.54 290.48,60.75 291.6,60.59 				"/>
			</g>
		</g>
		<rect x="274.38" y="52.69" class="st27" width="1.07" height="39.43"/>
		<rect x="272.33" y="51.71" class="st9" width="3.71" height="1.88"/>
	</g>
	<path class="st28" d="M203.03,134.68c8.98,0.87,16,8.35,16,17.44v40.49h-16V134.68 M201.53,133.03v1.65v57.93v1.5h1.5h16h1.5v-1.5
		v-40.49c0-9.84-7.46-17.98-17.35-18.94L201.53,133.03L201.53,133.03z"/>
	<path class="st28" d="M199.78,134.66v57.95h-16.25v-40.49C183.53,142.94,190.68,135.42,199.78,134.66 M201.28,133.03l-1.62,0.13
		c-9.88,0.82-17.62,9.15-17.62,18.96v40.49v1.5h1.5h16.25h1.5v-1.5v-57.95V133.03L201.28,133.03z"/>
	<g class="st4">
		<g>
			<linearGradient id="SVGID_6_" gradientUnits="userSpaceOnUse" x1="269.7941" y1="155.1115" x2="286.2864" y2="155.1115">
				<stop  offset="0" style="stop-color:#00B5D1"/>
				<stop  offset="1" style="stop-color:#00D1C8"/>
			</linearGradient>
			<path class="st29" d="M286.29,133.22V177c0,0.88-0.72,1.58-1.6,1.58h-13.3c-0.88,0-1.6-0.7-1.6-1.58v-43.78
				c0-0.88,0.72-1.58,1.6-1.58h13.3C285.57,131.64,286.29,132.34,286.29,133.22z"/>
			<path class="st26" d="M282.89,171.8c0,0.88-0.71,1.6-1.6,1.6h-6.52c-0.88,0-1.6-0.71-1.6-1.6v-6.25c0-0.88,0.71-1.6,1.6-1.6h6.52
				c0.88,0,1.6,0.71,1.6,1.6V171.8z"/>
			<rect x="270.29" y="140.99" class="st26" width="12.35" height="6.74"/>
			<path class="st30" d="M286.29,133.22V177c0,0.88-0.72,1.58-1.6,1.58h-3.24l-2.75-46.94h5.99
				C285.57,131.64,286.29,132.34,286.29,133.22z"/>
			<g>
				<g>
					<path class="st17" d="M284.71,204.44c-1.06,0-1.93-0.87-1.93-1.93V105.7c0-1.06,0.87-1.93,1.93-1.93h67.08
						c1.06,0,1.93,0.86,1.93,1.93v96.81c0,1.06-0.87,1.93-1.93,1.93H284.71z"/>
					<path class="st9" d="M351.79,104.27c0.79,0,1.43,0.64,1.43,1.43v96.81c0,0.79-0.64,1.43-1.43,1.43h-67.08
						c-0.79,0-1.43-0.64-1.43-1.43V105.7c0-0.79,0.64-1.43,1.43-1.43H351.79 M351.79,103.27h-67.08c-1.34,0-2.43,1.09-2.43,2.43
						v96.81c0,1.34,1.09,2.43,2.43,2.43h67.08c1.34,0,2.43-1.09,2.43-2.43V105.7C354.22,104.36,353.13,103.27,351.79,103.27
						L351.79,103.27z"/>
				</g>
				<path class="st31" d="M349.37,111.03v86.15c0,0.7-0.57,1.27-1.27,1.27h-59.69c-0.7,0-1.27-0.57-1.27-1.27v-86.15
					c0-0.7,0.57-1.27,1.27-1.27h59.69C348.8,109.76,349.37,110.33,349.37,111.03z"/>
				<path class="st26" d="M349.37,111.03v86.15c0,0.7-0.57,1.27-1.27,1.27h-6.09l-54.87-79.4v-8.02c0-0.7,0.57-1.27,1.27-1.27h59.69
					C348.8,109.76,349.37,110.33,349.37,111.03z"/>
				<g>
					<path class="st26" d="M325.48,108.7h-14.45c-0.2,0-0.36-0.16-0.36-0.36c0-0.2,0.16-0.36,0.36-0.36h14.45
						c0.2,0,0.36,0.16,0.36,0.36C325.83,108.54,325.67,108.7,325.48,108.7z"/>
				</g>
				<path class="st26" d="M317.09,106.14c0-0.64,0.52-1.16,1.16-1.16c0.64,0,1.16,0.52,1.16,1.16c0,0.64-0.52,1.16-1.16,1.16
					C317.61,107.3,317.09,106.79,317.09,106.14z"/>
				<path class="st26" d="M316.42,200.98c0-1.01,0.82-1.84,1.84-1.84s1.84,0.82,1.84,1.84c0,1.02-0.82,1.84-1.84,1.84
					S316.42,202,316.42,200.98z"/>
			</g>
		</g>
		<path class="st9" d="M336.34,126.5l-17.33-7.81c-0.17-0.08-0.38-0.08-0.55,0l-17.33,7.81c-0.29,0.13-0.45,0.44-0.38,0.75
			c0.07,0.31,0.34,0.53,0.65,0.53h0.96v2.35c0,0.37,0.3,0.67,0.67,0.67h0.83v2.5c0,0.37,0.3,0.67,0.67,0.67h0.08v10.89
			c0,0.06,0.02,0.11,0.03,0.17h-0.12c-0.37,0-0.67,0.3-0.67,0.67v2.87h-0.24c-0.37,0-0.67,0.3-0.67,0.67v3.02
			c0,0.37,0.3,0.67,0.67,0.67h30.94c0.37,0,0.67-0.3,0.67-0.67v-3.02c0-0.37-0.3-0.67-0.67-0.67h-0.49v-2.87
			c0-0.37-0.3-0.67-0.67-0.67h-0.12c0.01-0.06,0.03-0.11,0.03-0.17v-10.89h0.08c0.37,0,0.67-0.3,0.67-0.67v-2.5h0.49
			c0.37,0,0.67-0.3,0.67-0.67v-2.35h0.83c0.32,0,0.59-0.22,0.65-0.53C336.78,126.95,336.62,126.63,336.34,126.5z M318.73,120.04
			l14.21,6.4h-28.42L318.73,120.04z M310.29,132.63h-0.18h-4.82h-0.08v-1.83h5.09V132.63z M309.44,133.97v10.22h-3.48v-10.22H309.44
			z M305.21,146.38h5.09v1.83h-5.09V146.38z M310.96,145.04h-0.22c0.01-0.06,0.03-0.11,0.03-0.17v-10.89h0.18
			c0.37,0,0.67-0.3,0.67-0.67v-2.5h3.03v2.5c0,0.37,0.3,0.67,0.67,0.67h0.13v10.89c0,0.06,0.02,0.11,0.03,0.17h-0.17
			c-0.37,0-0.67,0.3-0.67,0.67v2.87h-3.03v-2.87C311.63,145.34,311.33,145.04,310.96,145.04z M321.09,146.38v1.83H316v-1.83H321.09z
			 M320.29,144.2h-3.48v-10.22h3.48V144.2z M321.09,132.63h-0.13h-4.82H316v-1.83h5.09V132.63z M333.89,151.59h-29.6v-1.68h29.6
			V151.59z M332.73,146.38v1.83h-5.09v-1.83H332.73z M326.97,145.04c-0.37,0-0.67,0.3-0.67,0.67v2.87h-3.87v-2.87
			c0-0.37-0.3-0.67-0.67-0.67h-0.17c0.01-0.06,0.03-0.11,0.03-0.17v-10.89h0.13c0.37,0,0.67-0.3,0.67-0.67v-2.5h3.87v2.5
			c0,0.37,0.3,0.67,0.67,0.67h0.18v10.89c0,0.06,0.02,0.11,0.03,0.17H326.97z M331.97,144.2h-3.48v-10.22h3.48V144.2z
			 M332.73,132.63h-0.08h-4.82h-0.18v-1.83h5.09V132.63z M333.89,129.46h-0.49h-6.43h-5.21h-6.43h-4.37h-6.43h-0.83v-1.68h30.19
			V129.46z"/>
		<g>
			<path class="st9" d="M348.1,110.76c0.15,0,0.27,0.12,0.27,0.27v86.15c0,0.15-0.12,0.27-0.27,0.27h-6.09h-53.6
				c-0.15,0-0.27-0.12-0.27-0.27v-78.13v-8.02c0-0.15,0.12-0.27,0.27-0.27H348.1 M348.1,109.76h-59.69c-0.7,0-1.27,0.57-1.27,1.27
				v8.02v78.13c0,0.7,0.57,1.27,1.27,1.27h53.6h6.09c0.7,0,1.27-0.57,1.27-1.27v-86.15C349.37,110.33,348.8,109.76,348.1,109.76
				L348.1,109.76z"/>
		</g>
	</g>
	<g class="st4">
		<defs>
			<rect id="SVGID_7_" x="43.45" y="68.17" width="67.82" height="147.06"/>
		</defs>
		<clipPath id="SVGID_8_">
			<use xlink:href="#SVGID_7_"  style="overflow:visible;"/>
		</clipPath>
		<g class="st32">
			<g>
				<path class="st17" d="M87.63,101.24c0,4.68-9.49,67.19-40.19,36.12c-15.79-15.98,20.34-14.05,21.76-28.03
					c0.47-4.66,3.39-21.53,9.12-8.48C80.34,105.47,87.63,96.56,87.63,101.24z"/>
				<path class="st33" d="M66.02,102.3c0,0,1.35-0.71-2.43-7.66c-3.78-6.95-10.97-16.36-10.97-16.36l7.28,16.75
					C59.9,95.02,62.97,101.31,66.02,102.3z"/>
				<path class="st34" d="M72.82,111.08L62.34,91.65l-0.49-1.17l-5.95,2.63c0,0,8.29,14.92,8.87,15.58
					c0.58,0.65,3.94,6.96,4.34,8.17c0.4,1.21,3.12,6.97,6.93,4.85C79.86,119.59,72.82,111.08,72.82,111.08z"/>
				<path class="st33" d="M56.33,83.43c-1.85-3.28-1.07-5.48-1.31-7.02c-0.24-1.55-0.23-3.23-0.24-3.21
					c-0.93,1.41-0.38,2.49-0.51,3.24c-0.14,0.75,0.01,0.5-0.74-0.63c-0.42-0.64,0.04-2.37,0.19-3.52c0.13-1-0.09-1.48-0.09-1.48
					s-0.66,1.42-0.96,2.96c-0.36,1.86-0.38,3.94-0.31,4.4c0.13,0.83,1.3,3.06,2.38,4.52C55.97,84.33,57.67,85.79,56.33,83.43z"/>
				<path class="st33" d="M95.47,101.35c0,0-1.35-0.71,2.42-7.67c3.78-6.96,10.97-16.36,10.97-16.36l-7.28,16.75
					C101.59,94.07,98.52,100.36,95.47,101.35z"/>
				<path class="st34" d="M88.67,110.13L99.15,90.7l0.49-1.17l5.95,2.63c0,0-8.29,14.92-8.87,15.58c-0.58,0.65-3.67,7.07-4.34,8.16
					c-2.21,3.62-2.21,5.64-2.71,5.16C86.55,118.1,88.67,110.13,88.67,110.13z"/>
				<path class="st33" d="M105.15,82.48c1.85-3.28,1.07-5.48,1.31-7.02c0.24-1.55,0.23-3.23,0.24-3.21
					c0.94,1.41,0.38,2.49,0.51,3.23c0.14,0.75,0,0.5,0.74-0.62c0.42-0.64-0.04-2.37-0.19-3.52c-0.13-1,0.09-1.48,0.09-1.48
					s0.66,1.42,0.96,2.96c0.37,1.86,0.38,3.94,0.31,4.39c-0.13,0.83-1.3,3.06-2.38,4.52C105.52,83.38,103.82,84.84,105.15,82.48z"/>
				<path class="st35" d="M62.18,220.53l-2.16,10.17c0,0-4.79,3.65-6.34,4.08c-1.55,0.43-1.23-0.15-1.06-0.49
					c0.17-0.34,3.06-2.43,3.75-3.77c0.69-1.34,1.77-10.15,1.96-10.58C58.53,219.52,62.18,220.53,62.18,220.53z"/>
				<path class="st35" d="M95.54,223.01c0,0,1.79,5.77,2.01,7.75c0.22,1.98-0.12,2.63,0.49,3.22c0.61,0.6,4.9,5.32,5.85,5.27
					c0.95-0.05,0.89-0.95,0.89-0.95s-3.37-3.6-3.93-5.02c-0.56-1.41-1.16-9.42-1.21-10.23C99.58,222.24,95.54,223.01,95.54,223.01z"
					/>
				<path class="st36" d="M81.09,150.05l-8.97,36.6l-9.51,35.19l-5.5-0.86c0,0,6.99-36.07,7.17-39.22
					c0.18-3.16,1.56-28.87,6.14-34.34C74.99,141.95,81.09,150.05,81.09,150.05z"/>
				<path class="st36" d="M77.47,151.65c0,0-5.24-5.22-8.4-2.09c-0.32,0.88-0.59,1.91-0.84,3.06c2.89,4.83,5.52,8.83,6.15,9.89
					c0.27,0.47,1.02,1.83,2.05,3.73l1.17-6.55L77.47,151.65z"/>
				<path class="st36" d="M90.3,145.27c0,0,4.71,19.83,5.38,30.63c0.68,10.8,3.8,42.31,3.8,42.31l0.35,5.52l-4.3,0.12L86.3,183.9
					l-8.74-36.73L90.3,145.27z"/>
				<path class="st17" d="M87.56,100.13c0,4.47-3.57,8.09-7.98,8.09c-4.4,0-7.98-3.62-7.98-8.09c0-4.47,3.57-8.09,7.98-8.09
					C83.99,92.04,87.56,95.67,87.56,100.13z"/>
				<path class="st33" d="M78.19,102.51c0,0,0.76,4.33,0.13,5.53c-0.63,1.2-4.94,3.97-5.57,4.81c-0.63,0.84,1.27,7.34,7.47,6.37
					c6.2-0.96,8.78-3.98,8.78-4.94c0-0.96,2.87-2.64,0.85-3.36c-2.02-0.72-5.32-1.2-6.2-2.16c-0.89-0.96-2.03-3.37-1.39-5.89
					C82.88,100.34,78.19,102.51,78.19,102.51z"/>
				<path class="st33" d="M81.56,93.88c-0.13-0.03-0.26-0.06-0.4-0.09c-0.27,1.49-1.52,3.25-3.45,4.63
					c-0.47,0.34-0.95,0.62-1.43,0.87v1.4c0,2.06,1.84,3.74,4.11,3.74c2.27,0,4.11-1.67,4.11-3.74v-3.15
					C83.39,96.83,82.31,95.53,81.56,93.88z"/>
				<path class="st37" d="M88.55,146.93l-18.85,5.21l2.95-16.44l-0.67-19.28c0,0,3.8,1.39,7.12,1.59c2.18,0.13,6.84-1.59,6.84-1.59
					L88.55,146.93z"/>
				<path class="st34" d="M69.38,115.3c0,0,1.54,10.77,1.78,15.11c0.44,7.82-6.83,15.65-7.21,18.18c-0.38,2.53,2.27,4.91,2.27,4.91
					s1.65,0.96,2.53,1.08c0.89,0.12,2.58-0.69,3.16-3.61c0.73-3.61,2.97-16.03,3.42-18.28c0.63-3.19,0.13-12.5,0.63-13.71
					c0.51-1.2,2.34-5.11,2.09-6.07c-0.25-0.96-2.09-2.71-2.09-2.71S70.4,113.01,69.38,115.3z"/>
				<path class="st34" d="M86.89,109.84c0,0-2.47,0.99-3.23,1.35c-0.76,0.36-0.38,4.33,0,4.87c0.38,0.54,1.04,12.72,1.14,15.6
					c0.1,2.89,0.48,14.25,0.95,16.32c0.47,2.07,0.19,4.51,2.47,5.32c2.28,0.81,6.56-3,6.56-3s-3.13-6.07-3.7-8.51
					c-0.57-2.43-1.81-5.54-2-9.23c-0.19-3.7,0.63-9.36,1.32-12.27c0.78-3.27,1.15-7.76,1.34-8.3
					C91.93,111.46,87.65,110.11,86.89,109.84z"/>
				<path class="st38" d="M60.24,230.19c0,0,0.23,0.69-0.02,1.32c-0.2,0.51-1.01,1.97-1.01,1.97l-1.12,0.24l0.16-0.71
					c0,0-2.33,1.75-3.39,2.18c-1.07,0.43-3.36,1.58-4.39,0.97c-0.27-0.16-0.27-0.52-0.27-0.52s2.18-1.5,2.51-1.71
					c0.34-0.21,0.87,0.45,1.71,0.16c0.84-0.29,3.39-1.79,4.1-2.31C59.45,231.1,60.24,230.19,60.24,230.19z"/>
				<path class="st38" d="M97.63,232.63c0,0-0.17,0.69-0.02,1.35c0.12,0.54,0.61,1.38,0.61,1.38l0.98,0.46c0,0,1.91,2,2.83,2.58
					c0.92,0.58,2.87,2.05,3.9,1.59c0.27-0.12,0.32-0.47,0.32-0.47s-1.79-1.8-2.07-2.05c-0.28-0.25-0.86,0.32-1.6-0.09
					c-0.73-0.41-2.87-2.26-3.45-2.88C98.37,233.69,97.63,232.63,97.63,232.63z"/>
				<path class="st37" d="M86.42,109.48l-2.75,1.71c0,0,0.76,0.27,1.14,1.08c0.38,0.81,0.66,1.89,0.66,1.89l2.47-3.97
					C87.94,110.2,86.42,109.21,86.42,109.48z"/>
				<path class="st37" d="M76.26,109.75l0.45,0.7l1.42,2.4c0,0-0.3-0.75-1.39,0.06c-0.74,0.55-1.14,1.89-1.14,1.89l-0.76-4.33
					L76.26,109.75z"/>
			</g>
		</g>
	</g>
	<rect x="200.78" y="132.7" class="st1" width="1.31" height="61.69"/>
	<path class="st39" d="M307.24,169.79c0,0-2.04,24.83,11.98,34.23h21.61c0,0-18.43-19.15-12.13-33.67L307.24,169.79z"/>
	<g class="st4">
		<path class="st17" d="M356.69,186.31c0,0.52,0.42,0.93,0.94,0.93l35.21-0.11c0.52,0,0.93-0.42,0.93-0.94l0,0
			c0-0.52-0.42-0.93-0.94-0.93l-35.21,0.11C357.1,185.37,356.69,185.79,356.69,186.31L356.69,186.31z"/>
		<g>
			<g>
				<path class="st17" d="M393.69,211.61c-0.21,0-0.38-0.17-0.38-0.38v-24.65h-30.13v23.53c0,0.21-0.17,0.38-0.38,0.38
					c-0.21,0-0.38-0.17-0.38-0.38v-23.91c0-0.21,0.17-0.38,0.38-0.38h30.9c0.21,0,0.38,0.17,0.38,0.38v25.04
					C394.07,211.43,393.9,211.61,393.69,211.61z"/>
			</g>
			<path class="st40" d="M351.77,186.52c-0.43,1.05-6.59,20.33-6.59,20.33l4.59,0.96c0,0,6.03-10.61,7.63-13.55
				c1.6-2.94,3.65-6.78,4.48-7.36c0.83-0.58,20.67-1.79,21.05-1.22c0.38,0.58,2.56,3.71,3.2,11.58c0.64,7.87,1.28,12.83,1.28,12.83
				l4.29-0.67c0,0,1.98-15.55,1.92-20.67c-0.06-5.12,0.7-9.54-1.75-13.31c0,0-5.56,1.19-10.17,0.62c-4.61-0.58-8.45-2-8.45-2
				S354.59,179.61,351.77,186.52z"/>
			<path class="st41" d="M350.02,207.95c0.51,0.42-0.58,1.17-2.12,1.15c-0.84-0.01-6.56-0.38-6.81-1.54
				C340.83,206.42,348.1,206.4,350.02,207.95z"/>
			<path class="st41" d="M387.41,210.1c0,0,0.32,0.93,0.58,0.93c0.26,0,7.87,0.67,7.74-0.46
				C395.6,209.43,390.49,208.59,387.41,210.1z"/>
		</g>
		<g>
			<path class="st17" d="M393.69,168.86c0,1.7-1.35,3.07-3.01,3.07h-22.32c-1.66,0-3.01-1.38-3.01-3.07v-11.46
				c0-1.7,1.35-3.07,3.01-3.07h22.32c1.66,0,3.01,1.38,3.01,3.07V168.86z"/>
			<path class="st34" d="M367.05,156.88l3.98,4.94l5.63,13.63l0.01,0.03l4.2,0.57c0,0,1.34,0.48,5,0.48c3.65,0,6-1.09,6-1.09
				s0-7.09-0.26-10.68c-0.22-3.02-0.36-6.63-0.27-7.8v0c0.02-0.22,0.04-0.35,0.08-0.38c0.23-0.16,1.67,4.34,1.67,4.34
				s0.26-0.13,0.68-0.32c0.63-0.28,1.61-0.7,2.62-1.01c1.7-0.51,2.9-0.64,2.9-0.64s-1.52-6.22-2.51-8.18c-1-1.96-3.18-2.6-6.9-3.34
				c-3.72-0.74-8.18-2.15-8.18-2.15s0.22,2.18-0.93,2.31c-0.4,0.05-0.72-0.27-0.97-0.7c-0.18-0.31-0.32-0.67-0.43-1
				c-0.01,0.01-1.92,0.79-5.08,1.55c-0.04,0.01-0.08,0.02-0.12,0.03C370.93,148.25,367.11,150.27,367.05,156.88z"/>
			<path class="st37" d="M374.29,147.46c2.74,0.48,4.69,0.27,5.51-0.54c-0.18-0.31-0.32-0.67-0.43-1
				C379.36,145.91,377.45,146.7,374.29,147.46z"/>
			<path class="st42" d="M372.88,142.43c0.2,0.5,0.45,0.96,0.73,1.36c0.51,0.74,1.13,1.29,1.77,1.57c1.89,0.83,3.72-0.48,3.72-0.48
				s0.08,0.47,0.26,1.02c0.14,0.43,0.33,0.9,0.58,1.24c0.23,0.3,0.5,0.5,0.82,0.46c1.15-0.13,0.93-2.31,0.93-2.31
				s-0.45-0.96-0.55-2.12c-0.1-1.15,0-2.34,0-2.34c1.95,0.8,2.18-1.35,1.6-2.21c-0.37-0.55-0.81-0.4-1.08-0.14
				c-0.06,0.82-0.21,1.47-0.45,1.58c-0.7,0.3-0.93-0.8-1.15-1.83c-0.22-1.03-1.12-2.47-2.02-2.24c-0.9,0.23-2.73,1.86-4.33,2.04
				c-0.44,0.05-0.89,0.04-1.31-0.01C372.15,139.65,372.38,141.18,372.88,142.43z"/>
			<path class="st17" d="M375.12,132.49c4.17-1.15,5.46,0.83,6.1,2.12c0.31,0.61,0.55,2.49,0.45,3.9c-0.06,0.82-0.21,1.47-0.45,1.58
				c-0.7,0.3-0.93-0.8-1.15-1.83c-0.22-1.03-1.12-2.47-2.02-2.24c-0.9,0.22-2.72,1.9-4.33,2.04c-2.4,0.21-3.12-0.45-3.37-1.11
				C369.85,135.61,370.95,133.64,375.12,132.49z"/>
			<path class="st43" d="M379.1,144.89c0,0,0.08,0.47,0.26,1.02c0.14,0.43,0.33,0.9,0.58,1.24c0.45-0.95,0.46-3.82,0.46-3.82
				C380.11,144.1,379.1,144.89,379.1,144.89z"/>
		</g>
		<g>
			<linearGradient id="SVGID_9_" gradientUnits="userSpaceOnUse" x1="344.6784" y1="167.5107" x2="348.5689" y2="219.6443">
				<stop  offset="0" style="stop-color:#095198"/>
				<stop  offset="0.1844" style="stop-color:#00B5D1"/>
				<stop  offset="1" style="stop-color:#00D1C8"/>
			</linearGradient>
			<path class="st44" d="M328.21,169.75h-21.66c4.94,7.3,14,12.69,15.89,13.78c0.88,0.5,1.75,0.98,2.62,1.43
				c0.03-0.07,0.06-0.15,0.09-0.22l0.22-0.52l0.48,0.27c0.32,0.17,0.63,0.34,0.94,0.5c0.18-0.44,0.36-0.88,0.53-1.32l0.19-0.49
				l0.48,0.21c0.31,0.14,0.63,0.28,0.95,0.41l0.7-1.85l0.48,0.14c0.32,0.12,0.64,0.24,0.95,0.35l0.72-1.92l1.43,0.47l0.72-1.93
				l0.45,0.15c0.33,0.11,0.65,0.22,0.98,0.34l0.7-1.87l0.49,0.12c0.33,0.12,0.65,0.25,0.98,0.38c0.1-0.25,0.19-0.5,0.29-0.75
				C331.45,174.27,328.21,169.75,328.21,169.75z M383.09,169.13c-0.56-6.67-6.13-10.63-8.86-11.61c-2.74-0.99-10.99-0.43-12.96-0.43
				s-4.1-0.3-5.86,2.56c-1.75,2.87-0.47,8.04,0,8.64c0.47,0.6,2.23,0.77,5.3,0.94s8.51-0.3,8.49-0.3v1.63
				c0.04,5.98-6.05,8.21-12.51,9.35c-7.42,1.31-13.41,0.01-17.95-2.05c-0.16,0.38-0.31,0.76-0.46,1.15l-0.18,0.48l-0.47-0.2
				c-0.32-0.13-0.64-0.25-0.95-0.38l-0.72,1.91l-0.46-0.17c-0.32-0.11-0.64-0.22-0.97-0.33l-0.71,1.93l-1.43-0.48l-0.72,1.94
				l-0.46-0.16c-0.33-0.12-0.65-0.23-0.98-0.35l-0.72,1.9l-0.47-0.18c-0.33-0.13-0.65-0.26-0.98-0.4c-0.18,0.45-0.36,0.89-0.54,1.34
				l-0.11,0.28c9,4.3,17.55,5.94,28,5.59c9.16-0.3,15.41-3.55,19.71-6.01C379.66,183.14,383.65,175.8,383.09,169.13z M366.61,165.04
				c-0.55-3.03,0.39-4.83,0.39-4.83c1.58,0.81,1.71,2.01,1.71,2.01H367C367.73,164.1,366.61,165.04,366.61,165.04z"/>
		</g>
		<path class="st42" d="M367.22,160.3c0,0,1.45,0.67,1.53,1.91h-1.71c0,0,0.88,1.71-0.29,2.72c0,0-0.47-1.51-0.14-3.13
			C366.89,160.5,367.22,160.3,367.22,160.3z"/>
		<path class="st37" d="M391.34,156.97c0.02-0.22,0.04-0.35,0.08-0.38c0.23-0.16,1.67,4.34,1.67,4.34s0.26-0.13,0.68-0.32
			c-0.38-1.1-1.87-4.66-2.37-4.66C391.27,155.95,391.27,156.35,391.34,156.97z"/>
		<path class="st9" d="M303.08,169.91c0,0.25,0.32,0.45,0.71,0.45h29.17c0.39,0,0.71-0.2,0.71-0.45v-1.19
			c0-0.25-0.32-0.45-0.71-0.45h-29.17c-0.39,0-0.71,0.2-0.71,0.45V169.91z"/>
		<g>
			<path class="st9" d="M333.46,163.63c0,0.85-0.71,1.54-1.59,1.54h-27.31c-0.88,0-1.59-0.69-1.59-1.54v-5.38
				c0-0.85,0.71-1.54,1.59-1.54h27.31c0.88,0,1.59,0.69,1.59,1.54V163.63z"/>
			<g>
				<path class="st26" d="M318.32,160.54c0,1.84-1.12,2.82-2.48,2.82c-1.41,0-2.4-1.09-2.4-2.71c0-1.7,1.06-2.81,2.48-2.81
					C317.38,157.84,318.32,158.96,318.32,160.54z M314.17,160.63c0,1.14,0.62,2.17,1.71,2.17c1.09,0,1.71-1.01,1.71-2.22
					c0-1.06-0.55-2.17-1.71-2.17C314.75,158.4,314.17,159.46,314.17,160.63z"/>
				<path class="st26" d="M319.22,157.92h0.69v2.58h0.02c0.14-0.21,0.29-0.4,0.42-0.57l1.63-2.01h0.86l-1.94,2.27l2.09,3.08h-0.82
					l-1.76-2.63l-0.51,0.59v2.04h-0.69V157.92z"/>
			</g>
		</g>
		<g>
			<linearGradient id="SVGID_10_" gradientUnits="userSpaceOnUse" x1="373.1988" y1="155.845" x2="383.1104" y2="220.754">
				<stop  offset="0" style="stop-color:#095198"/>
				<stop  offset="0.1844" style="stop-color:#00B5D1"/>
				<stop  offset="0.2216" style="stop-color:#00BCCF;stop-opacity:0.9404"/>
				<stop  offset="0.3265" style="stop-color:#00C8CB;stop-opacity:0.7726"/>
				<stop  offset="0.4686" style="stop-color:#00CFC9;stop-opacity:0.5453"/>
				<stop  offset="0.8096" style="stop-color:#00D1C8;stop-opacity:0"/>
			</linearGradient>
			<path class="st45" d="M383.04,168.26c-0.56-6.67-6.07-9.87-8.81-10.85c-0.75-0.27-1.93-0.42-3.28-0.5
				c-0.31-0.02-0.62-0.03-0.94-0.05c-0.1,0.05-0.19,0.12-0.29,0.18c-0.55,0.37-1.78,1.35-2.55,3.17c1.4,0.81,1.54,1.9,1.54,1.9H367
				c0.73,1.88-0.38,2.82-0.38,2.82c-0.05-0.27-0.07-0.51-0.1-0.76c0.06,1.36,1,2.69,2.2,3.77c0.51,0.32,0.75,0.39,0.96,0.46
				c0.66,0.24-0.46,0.42-0.47,0.42v1.62c0.1,1.13-0.3,2.06-0.5,2.88l13.8,1.75C382.82,173,383.22,170.38,383.04,168.26z"/>
		</g>
		<g>
			<g>
				<path class="st26" d="M356.15,165.99h7.76c0.05,0,0.1-0.04,0.1-0.1c0-0.05-0.04-0.1-0.1-0.1h-7.76c-0.05,0-0.1,0.04-0.1,0.1
					C356.05,165.94,356.09,165.99,356.15,165.99z"/>
			</g>
			<g>
				<path class="st26" d="M356.79,162.46h4.62c0.05,0,0.1-0.04,0.1-0.1c0-0.05-0.04-0.1-0.1-0.1h-4.62c-0.05,0-0.1,0.04-0.1,0.1
					C356.69,162.42,356.73,162.46,356.79,162.46z"/>
			</g>
			<g>
				<path class="st26" d="M361.08,159.16h4.62c0.05,0,0.1-0.04,0.1-0.1c0-0.05-0.04-0.1-0.1-0.1h-4.62c-0.05,0-0.1,0.04-0.1,0.1
					C360.98,159.11,361.02,159.16,361.08,159.16z"/>
			</g>
			<g>
				<path class="st26" d="M370.6,168.59c0.98,0,2.01-0.36,2.75-1.04c1.33-1.22,1.48-3.12,0.41-5.23c-0.02-0.03-0.05-0.05-0.08-0.05
					l-6.63-0.15c-0.03,0-0.07,0.02-0.08,0.05c-0.02,0.03-0.02,0.07,0,0.1c0,0.01,0.43,0.83,0.21,1.51c-0.02,0.05,0.01,0.1,0.06,0.12
					c0.05,0.02,0.1-0.01,0.12-0.06c0.19-0.59-0.04-1.24-0.16-1.52l6.41,0.14c1,2,0.85,3.8-0.4,4.95c-1.18,1.08-3.08,1.32-4.32,0.54
					c-2.33-1.45-2.29-4.12-2.29-4.14c0-0.05-0.04-0.1-0.09-0.1c-0.05-0.01-0.1,0.04-0.1,0.09c0,0.03-0.05,2.8,2.38,4.31
					C369.32,168.44,369.95,168.59,370.6,168.59z"/>
			</g>
		</g>
		<path class="st42" d="M371.54,168.67c0.39,0.39-1.03,1.92-2.52,2.22c-1.5,0.3-2.48-0.98-2.01-1.92l2.65-0.3c0,0,0.56-0.26,0.73,0
			c0.17,0.26-0.9,0.77-0.9,0.77S371.24,168.37,371.54,168.67z"/>
		<g>
			<path class="st26" d="M366.51,163.8C366.51,163.8,366.52,163.8,366.51,163.8c0.06,0,0.1-0.05,0.1-0.1
				c-0.21-3.89,2.67-6.3,2.7-6.33c0.04-0.03,0.05-0.09,0.01-0.14c-0.03-0.04-0.09-0.05-0.14-0.01c-0.03,0.02-2.98,2.5-2.77,6.49
				C366.42,163.76,366.46,163.8,366.51,163.8z"/>
		</g>
		<path class="st42" d="M399.29,158.96c0,0,2.05,7.35,0,10.86c-2.05,3.51-6.93,4.62-12.19,4.28c-5.26-0.34-7.05-1.8-7.87-2.14
			c-0.81-0.34-3.8-1.75-3.59-1.92c0.21-0.17,2.14,0.3,2.14,0.3s-2.78-1.11-2.65-1.54c0.13-0.43,2.78,0.21,2.78,0.21
			s-2.57-1.28-2.48-1.58s3.21,0.68,3.21,0.68s-2.1-1.07-1.84-1.28c0.26-0.21,2.74,0.56,2.74,0.56s-0.98-0.63-0.64-0.83
			c0.34-0.2,3.12,2.07,3.42,2.07c0.3,0,4.28,0.6,7.27-0.13c2.99-0.73,4.19-2.78,3.51-7.57c0,0,0.9-0.77,3.08-1.37
			C398.35,158.96,399.29,158.96,399.29,158.96z"/>
		<path class="st46" d="M335.09,186.64"/>
		<path class="st46" d="M336.84,185.36"/>
		<line class="st46" x1="342.93" y1="180.87" x2="340.32" y2="182.8"/>
		<polyline class="st46" points="347.51,181.94 346.21,183.69 344.8,185.59 342.56,188.6 		"/>
		<path class="st46" d="M350.21,189.14"/>
		<line class="st46" x1="352.19" y1="182.12" x2="351.41" y2="184.87"/>
		<polyline class="st46" points="357.14,181.85 357.41,182.81 357.92,184.66 359.1,188.87 		"/>
		<polyline class="st46" points="362.4,180.32 363.68,182.52 365.26,185.26 		"/>
		<path class="st46" d="M322.4,180.41"/>
		<path class="st46" d="M325.1,179.12"/>
		<polyline class="st46" points="367.58,178.25 369.17,179.31 372.07,181.26 374.47,182.87 		"/>
	</g>
</g>
</svg>
