<?xml version="1.0" encoding="utf-8"?>
<!-- Generator: Adobe Illustrator 23.0.0, SVG Export Plug-In . SVG Version: 6.00 Build 0)  -->
<svg version="1.1" id="Capa_1" xmlns="http://www.w3.org/2000/svg" xmlns:xlink="http://www.w3.org/1999/xlink" x="0px" y="0px"
	 viewBox="0 0 100 100" style="enable-background:new 0 0 100 100;" xml:space="preserve">
<style type="text/css">
	.st0{fill:url(#SVGID_1_);}
	.st1{fill:#FFFFFF;}
</style>
<linearGradient id="SVGID_1_" gradientUnits="userSpaceOnUse" x1="-48.667" y1="134.2916" x2="125.1723" y2="-14.313">
	<stop  offset="0" style="stop-color:#381B91"/>
	<stop  offset="1" style="stop-color:#4E5ED7"/>
</linearGradient>
<circle class="st0" cx="50" cy="50" r="49"/>
<g>
	<path class="st1" d="M79.2,31.7c-12.5,0-18.9-1-25.1-2c-6.1-1-12.4-2-24.5-2v-1.7c0-0.4-0.4-0.8-0.8-0.8c-0.4,0-0.8,0.4-0.8,0.8
		v42.2h-1.2c-0.4,0-0.8,0.4-0.8,0.8v4.2h-0.3c-0.4,0-0.8,0.4-0.8,0.8s0.4,0.8,0.8,0.8h6.1c0.4,0,0.8-0.4,0.8-0.8s-0.4-0.8-0.8-0.8
		h-0.3V69c0-0.4-0.4-0.8-0.8-0.8h-1.2V58.1c12,0,18.2,1,24.2,2c6.2,1,12.7,2,25.3,2c0.4,0,0.8-0.4,0.8-0.8V32.5
		C80,32,79.6,31.7,79.2,31.7L79.2,31.7z M30,69.8v3.4h-2.3v-3.4H30z M29.6,29.2c9.6,0,15.5,0.7,20.5,1.4v3.4c0,0,0,0,0,0v11.4
		c-5.1-0.7-11-1.4-20.5-1.4V29.2z M78.4,60.5c-12,0-18.2-1-24.2-2c-6.1-1-12.4-2-24.5-2V54c12,0,18.2,1,24.2,2c6.1,1,12.4,2,24.5,2
		V60.5z M78.4,52.3c-1.5,0-2.9,0-4.2-0.1c0,0,0,0,0,0c-0.4,0-0.8,0.3-0.8,0.8c0,0.4,0.3,0.8,0.8,0.8c1.4,0,2.8,0.1,4.3,0.1v2.5
		c-12,0-18.2-1-24.2-2c-6.1-1-12.4-2-24.5-2v-2.5c12,0,18.2,1,24.2,2c5.7,1.2,13.4,1.6,20.4,2c0,0,0.7-0.2,0.7-0.2
		c0.4,0,0.5-0.2,0.5-0.6c0-0.4-0.2-0.8-0.6-0.8c-6.9-0.3-15.3-0.7-20.7-2c-6.1-1-12.4-2-24.5-2v-2.5c12,0,18.2,1,24.2,2
		c6.1,1,12.4,2,24.5,2L78.4,52.3L78.4,52.3z M78.4,48.1c-12,0-18.2-1-24.2-2c-0.8-0.1-1.6-0.2-2.4-0.4v-2.5c0.7,0.1,1.4,0.2,2.1,0.3
		c6.1,1,12.4,2,24.5,2L78.4,48.1L78.4,48.1z M78.4,44c-12,0-18.2-1-24.2-2c-0.8-0.1-1.6-0.2-2.4-0.4v-2.5c0.7,0.1,1.4,0.2,2.1,0.3
		c6.1,1,12.4,2,24.5,2V44z M78.4,35.8c-9.4,0-15.1-0.7-19.4-1.3c-0.4-0.1-0.8,0.2-0.9,0.7c-0.1,0.4,0.2,0.8,0.7,0.9
		c4.4,0.6,10.1,1.2,19.6,1.3v2.5c-12,0-18.2-1-24.2-2c-0.8-0.1-1.6-0.2-2.4-0.4V35c0.7,0.1,6.6,1,7.2,1.1l1.1,0.2c0,0,0.1,0,0.1,0
		c0.4,0,0.7-0.3,0.8-0.7c0.1-0.4-0.2-0.9-0.7-0.9l-1.1-0.2c-0.8-0.1-6.7-1-7.5-1.1v-2.5c0.7,0.1,1.4,0.2,2.1,0.3
		c6.1,1,12.4,2,24.5,2V35.8z"/>
	<circle class="st1" cx="32" cy="41.4" r="0.8"/>
	<circle class="st1" cx="32" cy="38.2" r="0.8"/>
	<circle class="st1" cx="32" cy="34.9" r="0.8"/>
	<circle class="st1" cx="32" cy="31.7" r="0.8"/>
	<circle class="st1" cx="35.2" cy="41.5" r="0.8"/>
	<circle class="st1" cx="35.2" cy="38.3" r="0.8"/>
	<circle class="st1" cx="35.2" cy="35.1" r="0.8"/>
	<circle class="st1" cx="35.2" cy="31.9" r="0.8"/>
	<circle class="st1" cx="38.3" cy="41.6" r="0.8"/>
	<circle class="st1" cx="38.3" cy="38.4" r="0.8"/>
	<circle class="st1" cx="38.3" cy="35.2" r="0.8"/>
	<circle class="st1" cx="38.3" cy="31.9" r="0.8"/>
	<circle class="st1" cx="41.4" cy="41.8" r="0.8"/>
	<circle class="st1" cx="41.4" cy="38.6" r="0.8"/>
	<circle class="st1" cx="41.4" cy="35.4" r="0.8"/>
	<circle class="st1" cx="41.4" cy="32.2" r="0.8"/>
	<circle class="st1" cx="44.6" cy="42.1" r="0.8"/>
	<circle class="st1" cx="44.6" cy="38.9" r="0.8"/>
	<circle class="st1" cx="44.6" cy="35.7" r="0.8"/>
	<circle class="st1" cx="44.6" cy="32.5" r="0.8"/>
	<circle class="st1" cx="47.7" cy="42.4" r="0.8"/>
	<circle class="st1" cx="47.7" cy="39.2" r="0.8"/>
	<circle class="st1" cx="47.7" cy="36" r="0.8"/>
	<circle class="st1" cx="47.7" cy="32.8" r="0.8"/>
</g>
</svg>
