<?xml version="1.0" encoding="utf-8"?>
<!-- Generator: Adobe Illustrator 23.0.0, SVG Export Plug-In . SVG Version: 6.00 Build 0)  -->
<svg version="1.1" id="Capa_1" xmlns="http://www.w3.org/2000/svg" xmlns:xlink="http://www.w3.org/1999/xlink" x="0px" y="0px"
	 viewBox="0 0 221 242" style="enable-background:new 0 0 221 242;" xml:space="preserve">
<style type="text/css">
	.st0{fill:#4E5ED7;}
</style>
<g>
	<path class="st0" d="M198.64,102.8h-3.19c-2.69,0-4.95-1.95-5.43-4.6c-6.03-33.44-32.54-59.74-66.09-65.45
		c-2.65-0.45-4.62-2.7-4.62-5.39V8.52c0-3.05-2.47-5.52-5.52-5.52h-7.12c-3.05,0-5.52,2.47-5.52,5.52v18.84
		c0,2.69-1.97,4.94-4.62,5.39C62.99,38.46,36.48,64.76,30.45,98.2c-0.48,2.65-2.74,4.6-5.43,4.6h-3.19c-3.05,0-5.52,2.47-5.52,5.52
		v4.13c0,3.05,2.47,5.52,5.52,5.52h176.81c3.05,0,5.52-2.47,5.52-5.52v-4.13C204.16,105.27,201.69,102.8,198.64,102.8z"/>
	<path class="st0" d="M198.64,197.9L198.64,197.9c-3.05,0-5.52-2.47-5.52-5.52v-57.77c0-3.05-2.47-5.52-5.52-5.52h-5.55
		c-3.05,0-5.52,2.47-5.52,5.52v57.77c0,3.05-2.47,5.52-5.52,5.52h-9.06c-3.05,0-5.52-2.47-5.52-5.52v-57.77
		c0-3.05-2.47-5.52-5.52-5.52h-5.55c-3.05,0-5.52,2.47-5.52,5.52v57.77c0,3.05-2.47,5.52-5.52,5.52h-9.06
		c-3.05,0-5.52-2.47-5.52-5.52v-57.77c0-3.05-2.47-5.52-5.52-5.52h-5.55c-3.05,0-5.52,2.47-5.52,5.52v57.77
		c0,3.05-2.47,5.52-5.52,5.52h-9.06c-3.05,0-5.52-2.47-5.52-5.52v-57.77c0-3.05-2.47-5.52-5.52-5.52h-5.55
		c-3.05,0-5.52,2.47-5.52,5.52v57.77c0,3.05-2.47,5.52-5.52,5.52h-9.06c-3.05,0-5.52-2.47-5.52-5.52v-57.77
		c0-3.05-2.47-5.52-5.52-5.52H35.3c-3.05,0-5.52,2.47-5.52,5.52v57.77c0,3.05-2.47,5.52-5.52,5.52h-2.42
		c-3.05,0-5.52,2.47-5.52,5.52v4.13c0,3.05,2.47,5.52,5.52,5.52h176.81c3.05,0,5.52-2.47,5.52-5.52v-4.13
		C204.16,200.37,201.69,197.9,198.64,197.9z"/>
	<path class="st0" d="M3.71,230.35v4.13c0,3.05,2.47,5.52,5.52,5.52h202.02c3.05,0,5.52-2.47,5.52-5.52v-4.13
		c0-3.05-2.47-5.52-5.52-5.52H9.23C6.18,224.83,3.71,227.3,3.71,230.35z"/>
</g>
</svg>
