<?xml version="1.0" encoding="UTF-8"?>
<!DOCTYPE svg PUBLIC "-//W3C//DTD SVG 1.1//EN" "http://www.w3.org/Graphics/SVG/1.1/DTD/svg11.dtd">
<!-- Creator: CorelDRAW 2019 (64-Bit Versión de evaluación) -->
<svg xmlns="http://www.w3.org/2000/svg" xml:space="preserve" width="210mm" height="297mm" version="1.1" style="shape-rendering:geometricPrecision; text-rendering:geometricPrecision; image-rendering:optimizeQuality; fill-rule:evenodd; clip-rule:evenodd"
viewBox="0 0 21000 29700"
 xmlns:xlink="http://www.w3.org/1999/xlink">
 <defs>
  <style type="text/css">
   <![CDATA[
    .fil0 {fill:#4E5ED7}
   ]]>
  </style>
 </defs>
 <g id="Capa_x0020_1">
  <metadata id="CorelCorpID_0Corel-Layer"/>
  <path class="fil0" d="M20020.39 8620.02l-16235.96 0 -115.15 0 0 -115.15 -287.87 -2706c-57.58,-345.44 -345.45,-633.31 -690.9,-633.31l-1727.23 0c-403.02,0 -690.89,345.44 -690.89,690.89 0,345.44 345.45,690.89 690.89,690.89l978.77 0 115.15 0 0 115.15 0 0 0 0 0 287.87 0 0 0 57.57 0 0 0 287.88 0 57.57 921.18 10305.81c57.58,806.04 518.17,1612.08 1151.49,2130.25l115.15 115.15 -115.15 115.15c-575.74,748.47 -690.89,1727.23 -287.87,2590.85 403.02,863.61 1266.64,1381.78 2187.83,1381.78 806.04,0 1554.5,-403.02 2015.1,-1036.34 460.59,-633.32 575.74,-1496.93 287.87,-2245.4l57.57 -230.3 230.3 0 4663.52 0 230.3 0 -57.57 172.73c-287.87,748.46 -172.73,1554.5 287.87,2245.4 460.59,690.89 1209.06,1036.34 2015.1,1036.34 1324.21,0 2418.13,-1093.92 2418.13,-2418.13 0,-1324.21 -1093.92,-2418.12 -2418.13,-2418.12l-9614.92 0c-690.89,0 -1324.21,-403.02 -1612.08,-1036.34l-57.57 -172.72 230.3 0 13645.12 -921.19c287.87,0 575.74,-230.3 633.32,-518.17l1727.23 -6966.5c57.57,-230.3 0,-460.59 -115.15,-633.32 -115.15,-115.14 -345.45,-230.29 -575.75,-230.29zm-4318.07 11860.31c575.74,0 1036.34,460.6 1036.34,1036.34 0,575.75 -460.6,1036.34 -1036.34,1036.34 -575.75,0 -1036.34,-460.59 -1036.34,-1036.34 0,-575.74 460.59,-1036.34 1036.34,-1036.34zm-9557.35 0c575.75,0 1036.34,460.6 1036.34,1036.34 0,575.75 -460.59,1036.34 -1036.34,1036.34 -575.74,0 -1036.33,-460.59 -1036.33,-1036.34 57.57,-575.74 460.59,-1036.34 1036.33,-1036.34zm12954.23 -10248.23l-1324.21 5239.27 0 115.14 -115.14 0 -13126.96 748.47 -115.15 0 0 -115.15 -518.17 -6045.31 0 -172.72 57.58 0 14969.33 0 172.72 0 0 230.3z"/>
 </g>
</svg>
