<?xml version="1.0" encoding="utf-8"?>
<!-- Generator: Adobe Illustrator 23.0.0, SVG Export Plug-In . SVG Version: 6.00 Build 0)  -->
<svg version="1.1" id="Capa_1" xmlns="http://www.w3.org/2000/svg" xmlns:xlink="http://www.w3.org/1999/xlink" x="0px" y="0px"
	 viewBox="0 0 263.7 231" style="enable-background:new 0 0 263.7 231;" xml:space="preserve">
<style type="text/css">
	.st0{opacity:0.1;fill:#FFFFFF;}
	.st1{fill:#FFFFFF;}
	.st2{opacity:0.55;fill:#381B91;}
</style>
<g>
	<path class="st0" d="M234.4,90.5c10.8,13.2,21.2,27.5,24.8,44.2c3.6,16.7-1,36.2-15.2,45.7c-6.3,4.3-13.9,6.2-21.5,7.3
		c-18.7,2.7-38.1,0.3-55.7-6.8c-7.6-3.1-15.2-7.2-23.4-7.4c-21.7-0.7-34.8,23.6-53.8,34.1c-21.4,11.9-50.3,4.2-66.4-14.3
		C7.2,174.9,2.8,148.2,7.4,124.2C15.8,80.4,58.1,15.6,107.9,13C156,10.5,206.5,56.6,234.4,90.5z"/>
	<rect x="69" y="87.7" class="st1" width="14.4" height="4.8"/>
	<path class="st0" d="M95.4,145.3v-7.2c0-1.3,1.1-2.4,2.4-2.4h2.4V97.3h-2.4c-1.3,0-2.4-1.1-2.4-2.4v-7.2h-7.2v7.2
		c0,1.3-1.1,2.4-2.4,2.4h-2.4v38.4h2.4c1.3,0,2.4,1.1,2.4,2.4v7.2H95.4z"/>
	<rect x="73.8" y="97.3" class="st1" width="4.8" height="38.4"/>
	<rect x="61.8" y="150.1" class="st1" width="48" height="4.8"/>
	<rect x="69" y="140.5" class="st1" width="14.4" height="4.8"/>
	<path class="st0" d="M119.4,87.7v7.2c0,1.3-1.1,2.4-2.4,2.4h-2.4v28.8h19.2V97.3h-2.4c-1.3,0-2.4-1.1-2.4-2.4v-7.2H119.4z"/>
	<rect x="100.2" y="140.5" class="st1" width="9.6" height="4.8"/>
	<rect x="57" y="159.7" class="st1" width="52.8" height="4.8"/>
	<path class="st1" d="M191.4,63.1l-67.2-18.5L57,63.1v19.8h134.4V63.1z M186.6,75.7c0,1.3-1.1,2.4-2.4,2.4h-120
		c-1.3,0-2.4-1.1-2.4-2.4v-7.1c0-1.1,0.7-2,1.8-2.3l60-16.6c0.4-0.1,0.9-0.1,1.3,0l60,16.6c1,0.3,1.8,1.2,1.8,2.3V75.7z"/>
	<path class="st0" d="M165,97.3h-2.4c-1.3,0-2.4-1.1-2.4-2.4v-7.2H153v7.2c0,1.3-1.1,2.4-2.4,2.4h-2.4v28.8H165V97.3z"/>
	<path class="st2" d="M121.8,63.7c0,1.3,1.1,2.4,2.4,2.4c1.3,0,2.4-1.1,2.4-2.4c0-1.3-1.1-2.4-2.4-2.4
		C122.9,61.3,121.8,62.4,121.8,63.7z"/>
	<path class="st1" d="M66.6,70.5v2.9h115.2v-2.9l-57.6-15.9L66.6,70.5z M131.4,63.7c0,4-3.2,7.2-7.2,7.2s-7.2-3.2-7.2-7.2
		c0-4,3.2-7.2,7.2-7.2S131.4,59.7,131.4,63.7z"/>
	<polygon class="st1" points="148.2,92.5 148.2,87.7 133.8,87.7 133.8,92.5 145.8,92.5 	"/>
	<rect x="138.6" y="97.3" class="st1" width="4.8" height="28.8"/>
	<rect x="114.6" y="140.5" class="st1" width="76.8" height="4.8"/>
	<rect x="165" y="87.7" class="st1" width="14.4" height="4.8"/>
	<path class="st1" d="M114.6,178.9h76.8v-28.8h-76.8V178.9z M164.5,162.1c2.7-2.9,7.2-3.2,10.2-0.5c1.3-1.2,3-1.9,4.8-1.9
		c1.8,0,3.5,0.7,4.9,1.9c2.9,2.7,3.2,7.2,0.5,10.2c-2.7,2.9-7.2,3.2-10.2,0.5c-2.7,2.5-6.9,2.5-9.7,0
		C162,169.6,161.8,165,164.5,162.1z M136.2,164.5h19.2c1.3,0,2.4,1.1,2.4,2.4s-1.1,2.4-2.4,2.4h-19.2c-1.3,0-2.4-1.1-2.4-2.4
		S134.9,164.5,136.2,164.5z M121.8,164.5h4.8c1.3,0,2.4,1.1,2.4,2.4s-1.1,2.4-2.4,2.4h-4.8c-1.3,0-2.4-1.1-2.4-2.4
		S120.5,164.5,121.8,164.5z"/>
	<rect x="105" y="97.3" class="st1" width="4.8" height="38.4"/>
	<rect x="114.6" y="130.9" class="st1" width="76.8" height="4.8"/>
	<path class="st1" d="M169.8,169.3c1.3,0,2.4-1.1,2.4-2.4s-1.1-2.4-2.4-2.4c-1.3,0-2.4,1.1-2.4,2.4S168.5,169.3,169.8,169.3z"/>
	<polygon class="st1" points="114.6,87.7 100.2,87.7 100.2,92.5 112.2,92.5 114.6,92.5 	"/>
	<circle class="st1" cx="179.4" cy="166.9" r="2.4"/>
	<rect x="169.8" y="97.3" class="st1" width="4.8" height="28.8"/>
	<path class="st2" d="M181.8,97.3c1.3,0,2.4-1.1,2.4-2.4v-7.2h9.6c1.3,0,2.4-1.1,2.4-2.4v-24c0-1.1-0.7-2-1.8-2.3l-69.6-19.2
		c-0.4-0.1-0.9-0.1-1.3,0L54,59c-1,0.3-1.8,1.2-1.8,2.3v24c0,1.3,1.1,2.4,2.4,2.4h9.6v7.2c0,1.3,1.1,2.4,2.4,2.4H69v38.4h-2.4
		c-1.3,0-2.4,1.1-2.4,2.4v7.2h-4.8c-1.3,0-2.4,1.1-2.4,2.4v7.2h-2.4c-1.3,0-2.4,1.1-2.4,2.4v9.6c0,1.3,1.1,2.4,2.4,2.4h55.2v12
		c0,1.3,1.1,2.4,2.4,2.4h81.6c1.3,0,2.4-1.1,2.4-2.4v-52.8c0-1.3-1.1-2.4-2.4-2.4h-14.4V97.3H181.8z M57,82.9V63.1l67.2-18.5
		l67.2,18.5v19.8H57z M133.8,92.5v-4.8h14.4v4.8h-2.4H133.8z M143.4,97.3v28.8h-4.8V97.3H143.4z M148.2,97.3h2.4
		c1.3,0,2.4-1.1,2.4-2.4v-7.2h7.2v7.2c0,1.3,1.1,2.4,2.4,2.4h2.4v28.8h-16.8V97.3z M131.4,97.3h2.4v28.8h-19.2V97.3h2.4
		c1.3,0,2.4-1.1,2.4-2.4v-7.2h9.6v7.2C129,96.2,130.1,97.3,131.4,97.3z M85.8,135.7h-2.4V97.3h2.4c1.3,0,2.4-1.1,2.4-2.4v-7.2h7.2
		v7.2c0,1.3,1.1,2.4,2.4,2.4h2.4v38.4h-2.4c-1.3,0-2.4,1.1-2.4,2.4v7.2h-7.2v-7.2C88.2,136.8,87.2,135.7,85.8,135.7z M69,92.5v-4.8
		h14.4v4.8H69z M78.6,97.3v38.4h-4.8V97.3H78.6z M69,140.5h14.4v4.8H69V140.5z M109.8,164.5H57v-4.8h52.8V164.5z M109.8,154.9h-48
		v-4.8h48V154.9z M109.8,145.3h-9.6v-4.8h9.6V145.3z M109.8,135.7H105V97.3h4.8V135.7z M100.2,92.5v-4.8h14.4v4.8h-2.4H100.2z
		 M191.4,178.9h-76.8v-28.8h76.8V178.9z M191.4,145.3h-76.8v-4.8h76.8V145.3z M191.4,130.9v4.8h-76.8v-4.8H191.4z M169.8,126.1V97.3
		h4.8v28.8H169.8z M165,92.5v-4.8h14.4v4.8H165z"/>
	<path class="st2" d="M184.9,66.3l-60-16.6c-0.4-0.1-0.9-0.1-1.3,0l-60,16.6c-1,0.3-1.8,1.2-1.8,2.3v7.1c0,1.3,1.1,2.4,2.4,2.4h120
		c1.3,0,2.4-1.1,2.4-2.4v-7.1C186.6,67.6,185.9,66.6,184.9,66.3z M181.8,73.3H66.6v-2.9l57.6-15.9l57.6,15.9V73.3z"/>
	<path class="st2" d="M117,63.7c0,4,3.2,7.2,7.2,7.2s7.2-3.2,7.2-7.2c0-4-3.2-7.2-7.2-7.2S117,59.7,117,63.7z M126.6,63.7
		c0,1.3-1.1,2.4-2.4,2.4c-1.3,0-2.4-1.1-2.4-2.4c0-1.3,1.1-2.4,2.4-2.4C125.6,61.3,126.6,62.4,126.6,63.7z"/>
	<path class="st2" d="M174.6,172.2c2.9,2.7,7.5,2.5,10.2-0.5c2.7-2.9,2.5-7.5-0.5-10.2c-1.3-1.2-3.1-1.9-4.9-1.9
		c-1.8,0-3.5,0.7-4.8,1.9c-2.9-2.7-7.5-2.5-10.2,0.5c-2.7,2.9-2.5,7.5,0.5,10.2C167.7,174.7,171.9,174.7,174.6,172.2z M179.4,164.5
		c1.3,0,2.4,1.1,2.4,2.4s-1.1,2.4-2.4,2.4s-2.4-1.1-2.4-2.4S178.1,164.5,179.4,164.5z M169.8,164.5c1.3,0,2.4,1.1,2.4,2.4
		s-1.1,2.4-2.4,2.4c-1.3,0-2.4-1.1-2.4-2.4S168.5,164.5,169.8,164.5z"/>
	<path class="st2" d="M121.8,169.3h4.8c1.3,0,2.4-1.1,2.4-2.4s-1.1-2.4-2.4-2.4h-4.8c-1.3,0-2.4,1.1-2.4,2.4
		S120.5,169.3,121.8,169.3z"/>
	<path class="st2" d="M136.2,169.3h19.2c1.3,0,2.4-1.1,2.4-2.4s-1.1-2.4-2.4-2.4h-19.2c-1.3,0-2.4,1.1-2.4,2.4
		S134.9,169.3,136.2,169.3z"/>
</g>
</svg>
