<?xml version="1.0" encoding="UTF-8"?>
<!DOCTYPE svg PUBLIC "-//W3C//DTD SVG 1.1//EN" "http://www.w3.org/Graphics/SVG/1.1/DTD/svg11.dtd">
<!-- Creator: CorelDRAW 2019 (64-Bit Versión de evaluación) -->
<svg xmlns="http://www.w3.org/2000/svg" xml:space="preserve" width="210mm" height="297mm" version="1.1" style="shape-rendering:geometricPrecision; text-rendering:geometricPrecision; image-rendering:optimizeQuality; fill-rule:evenodd; clip-rule:evenodd"
viewBox="0 0 21000 29700"
 xmlns:xlink="http://www.w3.org/1999/xlink">
 <defs>
  <style type="text/css">
   <![CDATA[
    .fil0 {fill:#4E5ED7}
   ]]>
  </style>
 </defs>
 <g id="Capa_x0020_1">
  <metadata id="CorelCorpID_0Corel-Layer"/>
  <path class="fil0" d="M20528.59 9321.75l-9894.29 -4445.26c-95.6,-47.8 -191.19,-47.8 -334.59,0l-9894.29 4445.26c-143.39,95.59 -238.99,238.99 -238.99,430.18 47.8,191.2 191.19,286.79 382.39,286.79l525.78 0 0 1338.36c0,191.19 191.2,382.39 382.39,382.39l477.98 0 0 1433.95c0,191.2 191.2,382.39 382.39,382.39l47.8 0 0 6213.8c0,47.8 0,47.8 0,95.6l-47.8 0c-191.19,0 -382.39,191.2 -382.39,382.39l0 1625.15 -143.39 0c-191.2,0 -382.39,191.19 -382.39,382.39l0 1720.74c0,191.2 191.19,382.39 382.39,382.39l17685.44 0c191.19,0 382.39,-191.19 382.39,-382.39l0 -1720.74c0,-191.2 -191.2,-382.39 -382.39,-382.39l-286.79 0 0 -1625.15c0,-191.19 -191.19,-382.39 -382.39,-382.39l-47.8 0c0,-47.8 0,-47.8 0,-95.6l0 -6213.8 47.8 0c191.2,0 382.39,-191.19 382.39,-382.39l0 -1433.95 286.79 0c191.19,0 382.39,-191.2 382.39,-382.39l0 -1338.36 477.98 0c191.2,0 334.59,-143.39 382.39,-286.79 47.8,-143.39 -47.8,-334.59 -191.19,-430.18zm-10085.48 -3680.49l8125.74 3680.49 -16251.49 0 8125.75 -3680.49zm-4779.85 7217.57l-95.6 0 -2772.31 0 -47.8 0 0 -1051.56 2915.71 0 0 1051.56zm-525.79 764.78l0 5831.42 -2007.53 0 0 -5831.42 2007.53 0zm-2389.92 7074.18l2915.71 0 0 1051.56 -2915.71 0 0 -1051.56zm3298.09 -764.78l-143.39 0c0,-47.8 0,-47.8 0,-95.6l0 -6213.8 95.6 0c191.19,0 382.38,-191.19 382.38,-382.39l0 -1433.95 1720.75 0 0 1433.95c0,191.2 191.19,382.39 382.39,382.39l95.59 0 0 6213.8c0,47.8 0,47.8 0,95.6l-95.59 0c-191.2,0 -382.39,191.19 -382.39,382.39l0 1625.15 -1720.75 0 0 -1625.15c47.8,-238.99 -143.39,-382.39 -334.59,-382.39zm5783.62 764.78l0 1051.56 -2915.71 0 0 -1051.56 2915.71 0zm-477.98 -1242.76l-2007.54 0 0 -5831.42 2007.54 0 0 5831.42zm477.98 -6596.2l-95.6 0 -2772.31 0 -95.59 0 0 -1051.56 2915.7 0 0 1051.56 47.8 0zm7313.17 10802.46l-16920.66 0 0 -955.97 16920.66 0 0 955.97zm-669.18 -2963.5l0 1051.56 -2915.71 0 0 -1051.56 2915.71 0zm-3298.09 -764.78c-191.2,0 -382.39,191.19 -382.39,382.39l0 1625.15 -2198.73 0 0 -1625.15c0,-191.2 -191.2,-382.39 -382.39,-382.39l-95.6 0c0,-47.8 0,-47.8 0,-95.6l0 -6213.8 95.6 0c191.19,0 382.39,-191.19 382.39,-382.39l0 -1433.95 2198.73 0 0 1433.95c0,191.2 191.19,382.39 382.39,382.39l95.59 0 0 6213.8c0,47.8 0,47.8 0,95.6l-95.59 0zm2867.91 -477.98l-2007.54 0 0 -5831.42 2007.54 0 0 5831.42zm430.18 -6596.2l0 0 -2820.11 0 -95.6 0 0 -1051.56 2915.71 0 0 1051.56zm669.18 -1816.34l-286.79 0 -3680.48 0 -2963.51 0 -3680.48 0 -2485.53 0 -3680.48 0 -477.98 0 0 -955.97 17255.25 0 0 955.97z"/>
 </g>
</svg>
