<?xml version="1.0" encoding="utf-8"?>
<!-- Generator: Adobe Illustrator 23.0.0, SVG Export Plug-In . SVG Version: 6.00 Build 0)  -->
<svg version="1.1" id="Capa_1" xmlns="http://www.w3.org/2000/svg" xmlns:xlink="http://www.w3.org/1999/xlink" x="0px" y="0px"
	 viewBox="0 0 215 214" style="enable-background:new 0 0 215 214;" xml:space="preserve">
<style type="text/css">
	.st0{fill:#4E5ED7;}
</style>
<path class="st0" d="M211.28,52.15c-17.41,4.99-32.69,12.12-47,20.2c-14.71,7.69-27.94,16.86-40.71,26.5
	c-18.06,13.88-34.81,29.07-50.25,45.57c-5.5-3.69-11.08-7.31-17.02-10.56c-8.08-4.58-16.2-9.12-25.03-12.96
	c-8.61-4.05-17.79-7.53-27.67-10.31l-2.72,2.71c12.39,12.94,24.56,26.09,37.21,38.76l37.66,38.32l2.41,2.45l2.52-2.45
	c22.75-22.06,44.98-44.64,67.13-67.29c22.24-22.57,44.49-45.12,66.18-68.24L211.28,52.15z"/>
</svg>
