<?xml version="1.0" encoding="utf-8"?>
<!-- Generator: Adobe Illustrator 23.0.0, SVG Export Plug-In . SVG Version: 6.00 Build 0)  -->
<svg version="1.1" id="Capa_1" xmlns="http://www.w3.org/2000/svg" xmlns:xlink="http://www.w3.org/1999/xlink" x="0px" y="0px"
	 viewBox="0 0 300 242" style="enable-background:new 0 0 300 242;" xml:space="preserve">
<style type="text/css">
	.st0{fill:#4E5ED7;}
</style>
<g>
	<path class="st0" d="M203.28,126.41V93.13c0-1.96-1.59-3.55-3.55-3.55c-1.96,0-3.55,1.59-3.55,3.55v33.28
		c-3.89,1.45-6.67,5.16-6.67,9.55c0,5.64,4.58,10.22,10.22,10.22c5.64,0,10.22-4.58,10.22-10.22
		C209.95,131.57,207.17,127.86,203.28,126.41z"/>
	<path class="st0" d="M224.77,109.04l-13.92,13.92c-1.39,1.39-1.39,3.64,0,5.02c0.69,0.69,1.6,1.04,2.51,1.04
		c0.9,0,1.81-0.35,2.52-1.04l13.92-13.92c1.39-1.39,1.39-3.64,0-5.02C228.41,107.66,226.16,107.66,224.77,109.04z"/>
	<path class="st0" d="M214.28,42.82c-2.87,5.07-8.3,8.49-14.54,8.49c-6.24,0-11.67-3.43-14.54-8.49
		c-45.15,7-79.72,46.03-79.72,93.14c0,52.06,42.2,94.27,94.27,94.27c52.06,0,94.27-42.2,94.27-94.27
		C294,88.85,259.44,49.81,214.28,42.82z M199.73,213.52c-42.83,0-77.55-34.72-77.55-77.56s34.72-77.55,77.55-77.55
		s77.55,34.72,77.55,77.55S242.57,213.52,199.73,213.52z"/>
	<path class="st0" d="M199.84,45.41c4.88,0,8.83-3.95,8.83-8.83v-8.15H191v8.15C191,41.46,194.96,45.41,199.84,45.41z"/>
	<path class="st0" d="M178.92,25.53h41.85c1.76,0,3.17-1.42,3.17-3.17v-7.21c0-1.75-1.42-3.17-3.17-3.17h-41.85
		c-1.75,0-3.17,1.42-3.17,3.17v7.21C175.75,24.11,177.16,25.53,178.92,25.53z"/>
	<path class="st0" d="M78.79,135.96c0-3.33-2.7-6.02-6.02-6.02H11.24c-3.32,0-6.02,2.7-6.02,6.02c0,3.33,2.7,6.02,6.02,6.02h61.53
		C76.09,141.98,78.79,139.29,78.79,135.96z"/>
	<path class="st0" d="M90.34,171.44c0-3.33-2.7-6.02-6.02-6.02H27.6c-3.32,0-6.02,2.7-6.02,6.02c0,3.32,2.7,6.02,6.02,6.02h56.72
		C87.64,177.46,90.34,174.77,90.34,171.44z"/>
	<path class="st0" d="M27.6,103.2h56.72c3.32,0,6.02-2.7,6.02-6.02c0-3.32-2.7-6.02-6.02-6.02H27.6c-3.32,0-6.02,2.7-6.02,6.02
		C21.58,100.51,24.28,103.2,27.6,103.2z"/>
	<path class="st0" d="M61.4,64.43h44.68c3.32,0,6.02-2.7,6.02-6.02c0-3.33-2.7-6.02-6.02-6.02H61.4c-3.32,0-6.02,2.7-6.02,6.02
		C55.38,61.73,58.08,64.43,61.4,64.43z"/>
	<path class="st0" d="M107.15,202.15H62.46c-3.32,0-6.02,2.7-6.02,6.02s2.7,6.02,6.02,6.02h44.68c3.32,0,6.01-2.7,6.02-6.02
		C113.17,204.85,110.47,202.15,107.15,202.15z"/>
</g>
</svg>
