<?xml version="1.0" encoding="utf-8"?>
<!-- Generator: Adobe Illustrator 24.1.0, SVG Export Plug-In . SVG Version: 6.00 Build 0)  -->
<svg version="1.1" id="Capa_1" xmlns="http://www.w3.org/2000/svg" xmlns:xlink="http://www.w3.org/1999/xlink" x="0px" y="0px"
	 viewBox="0 0 770.85 478.78" style="enable-background:new 0 0 770.85 478.78;" xml:space="preserve">
<style type="text/css">
	.st0{opacity:0.65;fill-rule:evenodd;clip-rule:evenodd;fill:#ABC4FF;}
	.st1{fill-rule:evenodd;clip-rule:evenodd;fill:#E3ECFF;}
	.st2{fill-rule:evenodd;clip-rule:evenodd;fill:#97BAFF;}
	.st3{fill-rule:evenodd;clip-rule:evenodd;fill:#F5EBF4;}
	.st4{fill-rule:evenodd;clip-rule:evenodd;fill:#FFFFFF;}
	.st5{fill-rule:evenodd;clip-rule:evenodd;fill:#ABC4FF;}
	.st6{fill:#FAC7B8;}
	.st7{fill:#381B91;}
	.st8{fill:#0D0F21;}
	.st9{fill:#1A1E33;}
	.st10{fill:#FFC88D;}
	.st11{fill:#4E5ED7;}
	.st12{fill:#444748;}
	.st13{fill:url(#SVGID_1_);}
	.st14{fill:#F26636;}
	.st15{fill:#ABC4FF;}
	.st16{fill:#D88D55;}
	.st17{fill:#97BAFF;}
	.st18{fill:#E3ECFF;}
	.st19{fill:#0A7CBB;}
	.st20{opacity:0.53;clip-path:url(#SVGID_3_);fill:none;stroke:#FFFFFF;stroke-width:12;stroke-miterlimit:10;}
	.st21{opacity:0.53;clip-path:url(#SVGID_3_);fill:none;stroke:#FFFFFF;stroke-width:6;stroke-miterlimit:10;}
	.st22{fill:#FFFFFF;}
	.st23{fill:none;stroke:#ABC4FF;stroke-miterlimit:10;}
	.st24{clip-path:url(#SVGID_5_);fill:#F26636;}
	.st25{opacity:0.82;clip-path:url(#SVGID_7_);fill:#061059;}
	.st26{clip-path:url(#SVGID_7_);fill:#061059;}
	.st27{clip-path:url(#SVGID_9_);fill:#FF884D;}
	.st28{clip-path:url(#SVGID_11_);fill:#FF884D;}
	.st29{clip-path:url(#XMLID_3_);fill:#C9300A;}
	.st30{opacity:0.24;clip-path:url(#XMLID_4_);fill:#AD1A1A;}
	.st31{clip-path:url(#SVGID_13_);fill:#FF884D;}
	.st32{clip-path:url(#SVGID_15_);fill:#FF884D;}
	.st33{fill:none;}
	.st34{fill:#D83B6E;}
	.st35{clip-path:url(#SVGID_17_);}
	.st36{opacity:0.38;fill:#000211;}
	.st37{opacity:0.38;clip-path:url(#SVGID_17_);}
	.st38{fill:#000211;}
	.st39{fill:#2C43C6;}
	.st40{fill:url(#SVGID_18_);}
	.st41{opacity:0.57;fill:#04288C;}
	.st42{opacity:0.57;fill:#1340A5;}
	.st43{opacity:0.57;}
	.st44{fill:#1340A5;}
	.st45{opacity:0.63;fill:#1340A5;}
	.st46{fill:#E86B18;}
	.st47{fill:#FF9178;}
	.st48{clip-path:url(#XMLID_5_);fill:#D34616;}
	.st49{fill:#FF7145;}
	.st50{fill:#AA3502;}
	.st51{fill:#0071BC;}
	.st52{fill-rule:evenodd;clip-rule:evenodd;fill:url(#SVGID_19_);}
	.st53{fill:#C42C24;}
	.st54{fill:#E6332A;}
	.st55{fill:#821D18;}
	.st56{fill:#381B91;stroke:#381B91;stroke-miterlimit:10;}
	.st57{fill-rule:evenodd;clip-rule:evenodd;fill:url(#SVGID_20_);}
	.st58{fill:#FF884D;}
</style>
<path class="st0" d="M704.1,304.02c0.04,6.09-0.25,12.32-0.89,18.69c-0.03,0.38-0.07,0.77-0.12,1.15
	c-1.53,14.61-4.87,29.91-10.37,45.85c-1.88,5.47-4.01,11.01-6.42,16.63c-1.07,2.27-2.2,4.48-3.39,6.64
	c-8.27,15.09-19.3,27.57-32.43,37.72c-13.77,10.67-29.86,18.77-47.47,24.64c-5.88,1.96-11.93,3.68-18.12,5.15
	c-61.43,14.68-136.82,6.21-198-13.08c-35.95-10.53-83.38-8.43-142.29,6.32c-37.92,11-77.93,6.85-112.12-10.4
	c-14.68-7.4-28.28-17.22-40.19-29.29c-5.01-5.08-9.62-10.46-13.82-16.09c-0.38-0.5-0.75-1.01-1.12-1.52
	c-10.56-14.52-18.39-30.66-23.3-47.61c-0.76-2.63-1.45-5.28-2.07-7.95c-1.94-8.34-3.19-16.85-3.71-25.43
	c-0.3-4.93-0.37-9.88-0.2-14.83c0.19-5.14,0.63-10.29,1.34-15.42c0.87-6.43,2.16-12.83,3.88-19.18c0.43-1.61,0.89-3.21,1.38-4.81
	c3.62-11.88,8.62-23.12,14.79-33.53c6.3-10.64,13.83-20.42,22.4-29.16c3.42-3.5,7.01-6.84,10.75-9.99c3.2-2.7,6.51-5.27,9.93-7.71
	c0.87-0.62,1.76-1.24,2.65-1.84c1.77-1.21,3.58-2.39,5.4-3.52c6.84-4.25,14.04-7.98,21.54-11.13c0.89-0.38,1.78-0.75,2.68-1.1
	c3.28-1.31,6.62-2.51,10.01-3.59c5.24-1.68,10.6-3.09,16.07-4.21c0.1-0.02,0.19-0.04,0.29-0.06c13.16-3.18,24.81-9.99,33.85-19.34
	c0.91-0.93,1.79-1.89,2.64-2.88c1.02-1.18,2-2.39,2.93-3.63c0.72-0.94,1.4-1.9,2.06-2.88c3.68-5.41,6.62-11.37,8.67-17.73
	c0.32-0.95,0.6-1.91,0.87-2.88c0.33-1.2,0.63-2.41,0.9-3.63c0.12-0.52,0.23-1.05,0.33-1.58c0.05-0.44,0.11-0.87,0.17-1.3
	c1.12-8.64,3.24-16.98,6.23-24.89c1.27-3.35,2.69-6.63,4.27-9.82c1.55-3.15,3.25-6.22,5.09-9.19c1.95-3.18,4.06-6.24,6.33-9.19
	c15.57-20.36,38.08-35.2,64.31-40.97c46.16-10.16,93.69,10.01,118.45,50.27c2.72,4.68,5.53,9.21,8.45,13.57
	c1.1,1.65,2.22,3.28,3.35,4.89c2.5,3.56,5.08,7,7.71,10.34c0,0,0,0,0.01,0c0.1,0.12,0.19,0.25,0.3,0.37c0,0,0,0,0,0.01
	c1.26,1.59,2.54,3.15,3.84,4.68c1.24,1.47,2.5,2.92,3.77,4.35c1.42,1.59,2.85,3.16,4.31,4.69c1.24,1.31,2.5,2.6,3.77,3.86
	c20.86,20.83,45.23,35.79,73.1,44.89c14.07,4.59,29.03,7.69,44.89,9.29c7.46,0.63,14.77,1.91,21.86,3.78
	c36.36,9.56,67.15,34.73,83.56,69.39C697.45,251.49,704,276.35,704.1,304.02z"/>
<path class="st1" d="M704.89,325.71l-0.78,5.43l-3.14,11.1c-2.01,11.9-5.53,24.75-12.01,39.47c-1.85,3.91-3.86,7.67-6.05,11.27
	c-8.27,15.09-19.3,27.57-32.43,37.72c-13.77,10.67-29.86,18.77-47.47,24.64l-5.07,2.63l-3.07,4.35c-3.35-0.54-6.68-1.15-9.98-1.83
	c-2.35-0.48-4.68-0.99-6.98-1.54c-5.47-1.3-10.81-2.77-15.95-4.39c-18.5-5.41-42.89-4.33-73.19,3.25
	c-27.89,8.09-57.96,0.26-78.35-20.41c-16.27-16.49-24.29-39.05-22.56-61.59c0.15-1.94,0.37-3.88,0.66-5.81
	c0.17-1.11,0.37-2.22,0.59-3.33c0.51-2.64,1.16-5.28,1.96-7.89c1.18-3.87,2.64-7.61,4.37-11.19c0.63-1.32,1.3-2.62,2-3.9
	c1.66-3.02,3.51-5.9,5.53-8.65c1-1.37,2.05-2.7,3.14-4c0.28-0.34,0.57-0.68,0.87-1.02c0.76-0.87,1.53-1.73,2.34-2.57
	c3.97-4.2,8.4-7.95,13.2-11.18c8.48-5.72,18.12-9.83,28.48-11.93c6.39-1.54,12.08-4.75,16.61-9.14c1.92-1.87,3.63-3.94,5.1-6.2
	c0.42-0.64,0.82-1.3,1.2-1.98c1.09-1.93,2.01-3.98,2.73-6.13c0.22-0.62,0.41-1.25,0.58-1.89c0.25-0.89,0.47-1.8,0.65-2.72
	c0.91-7.69,3.34-14.93,7.01-21.39c0.47-0.84,0.96-1.67,1.48-2.48c0.53-0.83,1.07-1.65,1.64-2.45c4.79-6.73,11.01-12.4,18.25-16.53
	c0.62-0.37,1.26-0.71,1.9-1.05c3.04-1.58,6.24-2.91,9.59-3.94c1.5-0.46,3.03-0.87,4.58-1.21c4.96-1.09,9.96-1.5,14.87-1.27
	c4.97,0.22,9.86,1.09,14.55,2.58c5.85,1.83,11.39,4.61,16.38,8.23c0.57,0.41,1.13,0.83,1.69,1.28c5.24,4.09,9.81,9.14,13.44,15.04
	c6.37,10.98,13.77,20.23,22.2,27.77c5.26,4.71,10.91,8.74,16.97,12.1c11.76,6.54,25.02,10.55,39.78,12.05
	c15.65,1.33,30.04,8.14,40.89,18.85c0.01,0,0.03,0.01,0.04,0.04C703.73,324.48,704.33,325.09,704.89,325.71z"/>
<g>
	<path class="st1" d="M345.25,200.52c1.61,0,2.93-1.32,2.93-2.93V58.54c0-1.61-1.32-2.93-2.93-2.93H145.06
		c-1.61,0-2.93,1.32-2.93,2.93v139.05c0,1.61,1.32,2.93,2.93,2.93H345.25z"/>
	<path class="st2" d="M347.81,64.8c0.2,0,0.37-0.17,0.37-0.37V46.79c0-0.2-0.17-0.37-0.37-0.37H142.5c-0.2,0-0.37,0.17-0.37,0.37
		v17.64c0,0.2,0.17,0.37,0.37,0.37H347.81z"/>
	<circle class="st3" cx="153.28" cy="55.29" r="2.88"/>
	<circle class="st3" cx="164.5" cy="55.29" r="2.88"/>
	<path class="st3" d="M179.06,55.29c0-1.59-1.29-2.88-2.88-2.88c-1.59,0-2.88,1.29-2.88,2.88c0,1.59,1.29,2.88,2.88,2.88
		C177.77,58.17,179.06,56.88,179.06,55.29z"/>
	<path class="st4" d="M335.87,181.51c0.82,0,1.49-0.67,1.49-1.49V76.11c0-0.82-0.67-1.49-1.49-1.49h-70.71
		c-0.82,0-1.49,0.67-1.49,1.49v103.91c0,0.82,0.67,1.49,1.49,1.49H335.87z"/>
	<path class="st5" d="M288.02,98.95c0,8.59,6.96,15.55,15.55,15.55c8.59,0,15.55-6.96,15.55-15.55h-15.55V83.4
		C294.98,83.4,288.02,90.36,288.02,98.95z"/>
	<path class="st5" d="M330.97,123.67c0.03,0,0.06-0.03,0.06-0.06v-2.76c0-0.03-0.03-0.06-0.06-0.06h-60.62
		c-0.03,0-0.06,0.03-0.06,0.06v2.76c0,0.03,0.03,0.06,0.06,0.06H330.97z"/>
	<path class="st5" d="M330.97,131.07c0.03,0,0.06-0.03,0.06-0.06v-2.76c0-0.03-0.03-0.06-0.06-0.06h-60.62
		c-0.03,0-0.06,0.03-0.06,0.06v2.76c0,0.03,0.03,0.06,0.06,0.06H330.97z"/>
	<path class="st5" d="M330.97,138.54c0.03,0,0.06-0.03,0.06-0.06v-2.76c0-0.03-0.03-0.06-0.06-0.06h-60.62
		c-0.03,0-0.06,0.03-0.06,0.06v2.76c0,0.03,0.03,0.06,0.06,0.06H330.97z"/>
	<path class="st5" d="M330.97,145.94c0.03,0,0.06-0.03,0.06-0.06v-2.76c0-0.03-0.03-0.06-0.06-0.06h-60.62
		c-0.03,0-0.06,0.03-0.06,0.06v2.76c0,0.03,0.03,0.06,0.06,0.06H330.97z"/>
	<path class="st5" d="M330.97,153.11c0.03,0,0.06-0.03,0.06-0.06v-2.76c0-0.03-0.03-0.06-0.06-0.06h-60.62
		c-0.03,0-0.06,0.03-0.06,0.06v2.76c0,0.03,0.03,0.06,0.06,0.06H330.97z"/>
	<path class="st5" d="M330.97,160.51c0.03,0,0.06-0.03,0.06-0.06v-2.76c0-0.03-0.03-0.06-0.06-0.06h-60.62
		c-0.03,0-0.06,0.03-0.06,0.06v2.76c0,0.03,0.03,0.06,0.06,0.06H330.97z"/>
	<path class="st5" d="M330.97,167.97c0.03,0,0.06-0.03,0.06-0.06v-2.76c0-0.03-0.03-0.06-0.06-0.06h-60.62
		c-0.03,0-0.06,0.03-0.06,0.06v2.76c0,0.03,0.03,0.06,0.06,0.06H330.97z"/>
	<path class="st5" d="M330.97,175.38c0.03,0,0.06-0.03,0.06-0.06v-2.76c0-0.03-0.03-0.06-0.06-0.06h-60.62
		c-0.03,0-0.06,0.03-0.06,0.06v2.76c0,0.03,0.03,0.06,0.06,0.06H330.97z"/>
	<path class="st4" d="M254.35,181.51c1.13,0,2.06-0.93,2.06-2.06V76.68c0-1.13-0.93-2.06-2.06-2.06h-97.48
		c-1.13,0-2.06,0.93-2.06,2.06v102.78c0,1.13,0.93,2.06,2.06,2.06H254.35z"/>
	<path class="st1" d="M244.33,102.39c0.04,0,0.08-0.03,0.08-0.06v-2.76c0-0.03-0.03-0.06-0.08-0.06h-78.14
		c-0.04,0-0.08,0.03-0.08,0.06v2.76c0,0.03,0.03,0.06,0.08,0.06H244.33z"/>
	<path class="st1" d="M244.33,108.9c0.04,0,0.08-0.03,0.08-0.06v-2.76c0-0.03-0.03-0.06-0.08-0.06h-78.14
		c-0.04,0-0.08,0.03-0.08,0.06v2.76c0,0.03,0.03,0.06,0.08,0.06H244.33z"/>
	<path class="st5" d="M200.97,95.64c0.02,0,0.03-0.03,0.03-0.06v-2.76c0-0.03-0.02-0.06-0.03-0.06h-34.82
		c-0.02,0-0.03,0.03-0.03,0.06v2.76c0,0.03,0.02,0.06,0.03,0.06H200.97z"/>
	<path class="st1" d="M244.33,129.5c0.04,0,0.08-0.03,0.08-0.06v-2.76c0-0.03-0.03-0.06-0.08-0.06h-78.14
		c-0.04,0-0.08,0.03-0.08,0.06v2.76c0,0.03,0.03,0.06,0.08,0.06H244.33z"/>
	<path class="st1" d="M244.33,136.01c0.04,0,0.08-0.03,0.08-0.06v-2.76c0-0.03-0.03-0.06-0.08-0.06h-78.14
		c-0.04,0-0.08,0.03-0.08,0.06v2.76c0,0.03,0.03,0.06,0.08,0.06H244.33z"/>
	<path class="st5" d="M200.97,122.76c0.02,0,0.03-0.03,0.03-0.06v-2.76c0-0.03-0.02-0.06-0.03-0.06h-34.82
		c-0.02,0-0.03,0.03-0.03,0.06v2.76c0,0.03,0.02,0.06,0.03,0.06H200.97z"/>
</g>
<g>
	
		<rect x="192.07" y="374.12" transform="matrix(0.9212 -0.3891 0.3891 0.9212 -132.3669 106.6259)" class="st6" width="9.99" height="11.98"/>
</g>
<g>
	
		<rect x="149.38" y="371.93" transform="matrix(0.9646 0.2636 -0.2636 0.9646 105.0854 -27.3261)" class="st6" width="9.99" height="11.98"/>
</g>
<g>
	<path class="st7" d="M126.83,302.67l15.85,94.57c0.23,1.15,1.93,0.89,1.82-0.27l-10.25-94.3H126.83z"/>
</g>
<g>
	<path class="st7" d="M94.95,302.67L79.1,397.24c-0.23,1.15-1.93,0.89-1.82-0.27l10.25-94.3H94.95z"/>
</g>
<g>
	<polygon class="st7" points="81.03,245.42 85.69,289.36 102.33,289.36 95.67,246.75 	"/>
</g>
<g>
	<path class="st7" d="M102.33,210.81c-5.33-8.65-3.99-11.98-13.31-12.65s-21.97-2-22.63,4.66c-0.67,6.66,5.33,41.94,9.32,45.93
		c3.99,3.99,32.62,2,32.62,2L102.33,210.81z"/>
</g>
<g>
	<path class="st7" d="M139.61,302.67H87.68c-5.88,0-10.65-4.77-10.65-10.65l0,0c0-2.94,1.19-5.6,3.12-7.53
		c1.93-1.93,4.59-3.12,7.53-3.12h51.92c5.88,0,10.65,4.77,10.65,10.65l0,0C150.26,297.9,145.49,302.67,139.61,302.67z"/>
</g>
<g>
	<path class="st8" d="M126.96,269.39c0,0,41.27,2,55.25,10.65c13.98,8.65-16.64,99.19-16.64,99.19l-21.97-3.99l14.65-75.22
		l-25.96-7.99L126.96,269.39z"/>
</g>
<g>
	<path class="st9" d="M85.69,265.39c0,0-2,32.62,26.63,33.28c13.63,0.32,22.28,0.33,27.6,0.26c4.74-0.06,9.07,2.63,11.12,6.9
		l36.5,76.05l19.3-5.99l-35.45-85.82c-1.59-3.84-4.74-6.83-8.67-8.2l-35.77-12.49L85.69,265.39z"/>
</g>
<g>
	<path class="st10" d="M148.26,230.78l22.63-10.65v11.98c0,0-21.97,15.98-27.11,14.42c-2.09-0.64-0.5-3.78-0.5-3.78L148.26,230.78z"
		/>
</g>
<g>
	<polygon class="st11" points="132.28,204.15 150.26,229.45 144.27,246.75 136.52,243.06 	"/>
</g>
<g>
	<path class="st7" d="M248.16,254.74h-77.99c-2.55,0-4.61-2.06-4.61-4.61v-59.35c0-2.55,2.06-4.61,4.61-4.61h80.03
		c1.41,0,2.56,1.15,2.56,2.56v61.4C252.77,252.68,250.71,254.74,248.16,254.74z"/>
</g>
<g>
	<path class="st12" d="M201.42,382.86l0.44-0.71c0.54-0.87,1.54-1.33,2.55-1.18l16.96,2.52c0.88,0.13,1.63,0.71,1.98,1.53l0,0
		c0.55,1.3-0.06,2.8-1.36,3.35l-22.27,9.41c-1.3,0.55-2.8-0.06-3.35-1.36l-2.79-6.61c-0.38-0.89-0.22-1.92,0.41-2.66l0.07-0.08
		c0.23-0.27,0.52-0.49,0.84-0.65l5.45-2.6C200.79,383.61,201.16,383.28,201.42,382.86z"/>
</g>
<g>
	<path class="st12" d="M156.09,382.78l0.78-0.28c0.96-0.35,2.03-0.1,2.73,0.65l11.78,12.46c0.61,0.65,0.84,1.57,0.61,2.43l0,0
		c-0.37,1.36-1.78,2.17-3.14,1.79l-23.32-6.37c-1.36-0.37-2.16-1.78-1.79-3.14l1.89-6.92c0.26-0.93,1.02-1.64,1.97-1.83l0.11-0.02
		c0.35-0.07,0.71-0.07,1.06,0.01l5.89,1.33C155.14,382.98,155.63,382.95,156.09,382.78z"/>
</g>
<g>
	
		<linearGradient id="SVGID_1_" gradientUnits="userSpaceOnUse" x1="-178.3582" y1="233.5981" x2="-125.0974" y2="233.5981" gradientTransform="matrix(-1 0 0 1 -39.412 0)">
		<stop  offset="0" style="stop-color:#00B5D1"/>
		<stop  offset="1" style="stop-color:#00D1C8"/>
	</linearGradient>
	<path class="st13" d="M138.94,268.72c0.67,1.33-53.25-2-53.25-2l2-58.58l11.28-7.36l4.03-2.63h15.31c0,0,1.68,0.33,3.93,0.96
		c3.24,0.91,7.69,2.4,10.05,4.37C134.28,210.81,138.27,267.39,138.94,268.72z"/>
</g>
<g>
	<path class="st14" d="M87.69,259.41c12.65,0.66,51.26,0,51.26,0s3.98,2.66,9.31,1.33c0.15-0.03,0.31-0.07,0.46-0.1
		c1.87-0.36,3.4,0.03,4.65,0.65c2.09,1.06,3.4,2.77,4.22,2.77c0.82,0,1.12-0.75,0.63-2.09c-0.14,0.17-0.36,0.26-0.63,0.26
		c-0.27,0-0.58-0.19-0.97-0.48c-1.53-1.14-4.09-3.92-8.36-2.84c-5.33,1.33-9.31-1.33-9.31-1.33s-4.63,0.09-11.22,0.15
		c-12.43,0.15-31.76,0.27-40.04-0.15c-7.98-0.44-10.4-3.52-10.78-6.89C76.61,254.71,78.26,258.9,87.69,259.41z"/>
</g>
<g>
	<path class="st10" d="M76.91,250.64c0,0.02,0,0.02,0,0.03c0.37,3.37,2.79,6.45,10.78,6.89c8.27,0.43,27.61,0.31,40.04,0.15
		c6.59-0.07,11.22-0.15,11.22-0.15s3.98,2.66,9.31,1.33c4.27-1.07,6.83,1.7,8.36,2.84c0.39,0.29,0.7,0.48,0.97,0.48
		c0.27,0,0.49-0.09,0.63-0.26c-0.31-0.85-0.94-1.94-1.97-3.23c-2.66-3.32-5.31-5.98-10.64-6.66c-5.33-0.66-47.27-6.66-47.27-6.66
		l-20.63,1.34C77.36,247.94,77.03,249.28,76.91,250.64z"/>
</g>
<g>
	<path class="st11" d="M87.68,208.14c0,0,0.01,0,0.02,0.01c8.89,4.23,13.99,13.76,12.59,23.51l-1.97,13.76c0,0-14.65,0-22.63,3.33
		L87.68,208.14z"/>
</g>
<g>
	<rect x="209.5" y="236.77" class="st15" width="14.65" height="28.62"/>
</g>
<g>
	<polygon class="st11" points="209.5,265.39 205.51,265.39 205.51,238.77 209.5,236.77 	"/>
</g>
<g>
	<polygon class="st15" points="209.5,236.77 204.18,229.45 220.15,229.45 224.15,236.77 	"/>
</g>
<g>
	<polygon class="st11" points="209.5,236.77 205.51,238.77 204.18,234.77 204.18,229.45 	"/>
</g>
<g>
	<path class="st7" d="M263.42,270.05l21.33,127.26c0.3,1.54,2.6,1.2,2.45-0.36l-13.79-126.9H263.42z"/>
</g>
<g>
	<path class="st7" d="M228.81,270.05l21.33,127.26c0.3,1.54,2.6,1.2,2.45-0.36l-13.79-126.9H228.81z"/>
</g>
<g>
	<path class="st7" d="M115.46,270.05L94.13,397.31c-0.3,1.54-2.6,1.2-2.45-0.36l13.79-126.9H115.46z"/>
</g>
<g>
	<path class="st7" d="M150.08,270.05l-21.33,127.26c-0.3,1.54-2.6,1.2-2.45-0.36l13.79-126.9H150.08z"/>
</g>
<g>
	<path class="st16" d="M116.97,190.84l1.33,7.32c0,0-0.67,4.66-5.99,5.99c-5.33,1.33-9.32-5.33-9.32-5.33l1.72-11.28L116.97,190.84z
		"/>
</g>
<g>
	<path class="st7" d="M113.14,204.15c0,0-0.01,0-0.01,0.01c-0.27,0.15-4.79,2.78-4.15,6.65l-10.02-10.02l4.03-2.63
		c0,0,4.9,5.23,10.01,5.97C113.04,204.14,113.1,204.14,113.14,204.15z"/>
</g>
<g>
	<path class="st7" d="M122.24,199.12l-3.27,9.03c0,0-1.94-3.89-5.84-3.99c-0.05-0.01-0.1-0.01-0.15-0.01l0.02-0.02l5.31-5.97
		L122.24,199.12z"/>
</g>
<g>
	<rect x="57.73" y="265.39" class="st7" width="249.63" height="8.65"/>
</g>
<circle class="st15" cx="151.64" cy="138.54" r="25.61"/>
<g>
	
		<rect x="321.05" y="180.36" transform="matrix(-1 -4.486734e-11 4.486734e-11 -1 805.9276 556.1688)" class="st17" width="163.83" height="195.45"/>
	
		<rect x="328.71" y="189.5" transform="matrix(-1 -4.485313e-11 4.485313e-11 -1 805.9276 556.1688)" class="st18" width="148.51" height="177.17"/>
	
		<rect x="402.96" y="189.5" transform="matrix(-1 -4.392276e-11 4.392276e-11 -1 809.075 556.1688)" class="st19" width="3.15" height="177.17"/>
	<g>
		<defs>
			
				<rect id="SVGID_2_" x="328.71" y="189.5" transform="matrix(-1 -4.485313e-11 4.485313e-11 -1 805.9276 556.1688)" width="148.51" height="177.17"/>
		</defs>
		<clipPath id="SVGID_3_">
			<use xlink:href="#SVGID_2_"  style="overflow:visible;"/>
		</clipPath>
		<line class="st20" x1="477.22" y1="189.5" x2="328.71" y2="366.67"/>
		<line class="st21" x1="490.73" y1="205.22" x2="342.22" y2="382.4"/>
	</g>
	
		<rect x="402.96" y="189.5" transform="matrix(-1 -4.392276e-11 4.392276e-11 -1 809.075 556.1688)" class="st15" width="3.15" height="177.17"/>
	<circle class="st15" cx="418.96" cy="278.08" r="5.58"/>
	<circle class="st15" cx="391.95" cy="278.08" r="5.58"/>
</g>
<g>
	<path class="st5" d="M538.4,124.01h83.75c0.84,0,1.52,0.68,1.52,1.52v33.39c0,0.84-0.68,1.52-1.52,1.52h-73.01
		c-1.5,0-2.98,0.23-4.41,0.7c-2.74,0.89-8.11,2.64-16.11,5.24c-1.18,0.38-2.11-1.03-1.29-1.95c1.77-1.98,4.31-4.83,7.65-8.57
		c1.21-1.36,1.89-3.12,1.89-4.94v-25.39C536.88,124.69,537.57,124.01,538.4,124.01z"/>
	<path class="st4" d="M609.67,132.38c0.04,0,0.07,0.03,0.07,0.07v3.35c0,0.04-0.03,0.07-0.07,0.07h-59.01
		c-0.04,0-0.07-0.03-0.07-0.07v-3.35c0-0.04,0.03-0.07,0.07-0.07H609.67z"/>
	<path class="st4" d="M609.67,139.76c0.04,0,0.07,0.03,0.07,0.07v3.35c0,0.04-0.03,0.07-0.07,0.07h-59.01
		c-0.04,0-0.07-0.03-0.07-0.07v-3.35c0-0.04,0.03-0.07,0.07-0.07H609.67z"/>
	<path class="st4" d="M609.67,147.26c0.04,0,0.07,0.03,0.07,0.07v3.35c0,0.04-0.03,0.07-0.07,0.07h-59.01
		c-0.04,0-0.07-0.03-0.07-0.07v-3.35c0-0.04,0.03-0.07,0.07-0.07H609.67z"/>
</g>
<path class="st4" d="M533.61,236.77c0,10.01,8.11,18.12,18.12,18.12c10.01,0,18.12-8.11,18.12-18.12h-18.12v-18.12
	C541.73,218.65,533.61,226.76,533.61,236.77z"/>
<g>
	
		<rect x="365.18" y="122.63" transform="matrix(-1 -4.494905e-11 4.494905e-11 -1 841.3596 250.1132)" class="st17" width="111" height="4.85"/>
	<g>
		
			<rect x="382.96" y="69.29" transform="matrix(-1 -4.557167e-11 4.557167e-11 -1 777.775 191.9172)" class="st18" width="11.85" height="53.35"/>
		<path class="st22" d="M387.56,107.01h2.65c0.46,0,0.83-0.37,0.83-0.83V85.2c0-0.46-0.37-0.83-0.83-0.83h-2.65
			c-0.46,0-0.83,0.37-0.83,0.83v20.97C386.73,106.63,387.1,107.01,387.56,107.01z"/>
	</g>
	<g>
		
			<rect x="394.81" y="69.29" transform="matrix(-1 -4.472790e-11 4.472790e-11 -1 801.4846 191.9172)" class="st17" width="11.85" height="53.35"/>
		<path class="st22" d="M399.42,107.01h2.65c0.46,0,0.83-0.37,0.83-0.83V85.2c0-0.46-0.37-0.83-0.83-0.83h-2.65
			c-0.46,0-0.83,0.37-0.83,0.83v20.97C398.59,106.63,398.96,107.01,399.42,107.01z"/>
	</g>
	<g>
		
			<rect x="428.22" y="69.29" transform="matrix(-1 -4.472790e-11 4.472790e-11 -1 868.3022 191.9172)" class="st18" width="11.85" height="53.35"/>
		<path class="st22" d="M432.83,107.01h2.65c0.46,0,0.83-0.37,0.83-0.83V85.2c0-0.46-0.37-0.83-0.83-0.83h-2.65
			c-0.46,0-0.83,0.37-0.83,0.83v20.97C432,106.63,432.37,107.01,432.83,107.01z"/>
	</g>
	<g>
		
			<rect x="411.52" y="68.75" transform="matrix(-0.9857 0.1684 -0.1684 -0.9857 844.9998 119.19)" class="st17" width="11.85" height="53.35"/>
		<path class="st22" d="M418,106.53l2.61-0.45c0.45-0.08,0.75-0.51,0.68-0.96l-3.53-20.67c-0.08-0.45-0.51-0.75-0.96-0.68
			l-2.61,0.45c-0.45,0.08-0.76,0.51-0.68,0.96l3.53,20.67C417.12,106.31,417.55,106.61,418,106.53z"/>
	</g>
	<g>
		
			<rect x="440.08" y="69.29" transform="matrix(-1 -4.472790e-11 4.472790e-11 -1 892.0117 191.9172)" class="st17" width="11.85" height="53.35"/>
		<path class="st22" d="M444.68,107.01h2.65c0.46,0,0.83-0.37,0.83-0.83V85.2c0-0.46-0.37-0.83-0.83-0.83h-2.65
			c-0.46,0-0.83,0.37-0.83,0.83v20.97C443.85,106.63,444.22,107.01,444.68,107.01z"/>
	</g>
	<g>
		
			<rect x="451.93" y="69.29" transform="matrix(-1 -4.465107e-11 4.465107e-11 -1 915.7213 191.9172)" class="st18" width="11.85" height="53.35"/>
		<path class="st22" d="M456.53,107.01h2.65c0.46,0,0.83-0.37,0.83-0.83V85.2c0-0.46-0.37-0.83-0.83-0.83h-2.65
			c-0.46,0-0.83,0.37-0.83,0.83v20.97C455.71,106.63,456.08,107.01,456.53,107.01z"/>
	</g>
</g>
<g>
	<circle class="st22" cx="153.23" cy="133.2" r="0.7"/>
	<circle class="st22" cx="150.41" cy="133.2" r="0.7"/>
	<circle class="st22" cx="147.59" cy="133.2" r="0.7"/>
	<circle class="st22" cx="153.23" cy="136.01" r="0.7"/>
	<circle class="st22" cx="150.41" cy="136.01" r="0.7"/>
	<circle class="st22" cx="147.59" cy="136.01" r="0.7"/>
	<circle class="st22" cx="150.41" cy="138.83" r="0.7"/>
	<circle class="st22" cx="147.59" cy="138.83" r="0.7"/>
	<circle class="st22" cx="150.41" cy="141.65" r="0.7"/>
	<circle class="st22" cx="147.59" cy="141.65" r="0.7"/>
	<circle class="st22" cx="141.96" cy="141.65" r="0.7"/>
	<circle class="st22" cx="139.85" cy="141.65" r="0.7"/>
	<circle class="st22" cx="141.96" cy="144.47" r="0.7"/>
	<circle class="st22" cx="139.85" cy="144.47" r="0.7"/>
	<circle class="st22" cx="141.96" cy="147.28" r="0.7"/>
	<circle class="st22" cx="139.85" cy="147.28" r="0.7"/>
	<circle class="st22" cx="150.41" cy="144.47" r="0.7"/>
	<circle class="st22" cx="147.59" cy="144.47" r="0.7"/>
	<circle class="st22" cx="150.41" cy="147.28" r="0.7"/>
	<circle class="st22" cx="158.16" cy="141.65" r="0.7"/>
	<circle class="st22" cx="158.16" cy="144.47" r="0.7"/>
	<circle class="st22" cx="158.16" cy="147.28" r="0.7"/>
	<circle class="st22" cx="156.05" cy="141.65" r="0.7"/>
	<circle class="st22" cx="156.05" cy="144.47" r="0.7"/>
	<circle class="st22" cx="156.05" cy="147.28" r="0.7"/>
	<circle class="st22" cx="147.59" cy="147.28" r="0.7"/>
	<path class="st22" d="M156.05,136.01c-0.42,0-0.7-0.28-0.7-0.7v-5.63h-2.11c-0.35,0-0.63-0.21-0.7-0.56l-0.63-3.38h-3.03
		l-0.21,1.27c-0.07,0.35-0.42,0.63-0.85,0.56c-0.35-0.07-0.63-0.42-0.56-0.85l0.35-1.83c0.07-0.35,0.35-0.56,0.7-0.56h1.41v-3.1
		c0-0.42,0.28-0.7,0.7-0.7c0.42,0,0.7,0.28,0.7,0.7v3.03h1.41c0.35,0,0.63,0.21,0.7,0.56l0.56,3.45h2.25c0.42,0,0.7,0.28,0.7,0.7
		v6.34C156.75,135.73,156.47,136.01,156.05,136.01z"/>
	<path class="st22" d="M151.12,128.27c0.42,0,0.7,0.28,0.7,0.7c0,0.42-0.28,0.7-0.7,0.7h-3.52h-2.11v18.31c0,0.42-0.28,0.7-0.7,0.7
		c-0.42,0-0.7-0.28-0.7-0.7v-19.02c0-0.42,0.28-0.7,0.7-0.7h2.82H151.12z"/>
	<path class="st22" d="M137.03,138.13h1.41v-2.11c0-0.21,0.14-0.42,0.28-0.56l1.83-1.2v-1.76c0-0.28,0.14-0.49,0.42-0.63l1.41-0.7
		c0.35-0.14,0.77,0,0.92,0.28c0.14,0.28,0,0.77-0.28,0.92l-0.99,0.49v1.76c0,0.21-0.14,0.42-0.28,0.56l-1.83,1.2v1.76h1.27
		l1.27-0.63c0.35-0.14,0.77,0,0.92,0.28c0.14,0.35,0,0.77-0.28,0.92l-1.41,0.7c-0.21,0.14-0.28,0.14-0.42,0.14h-3.52v10.57h26.77
		v-20.43h-2.82v2.82c0,0.42-0.28,0.7-0.7,0.7h-1.41v2.11c0,0.42-0.28,0.7-0.7,0.7c-0.42,0-0.7-0.28-0.7-0.7v-2.82
		c0-0.42,0.28-0.7,0.7-0.7h1.41v-2.82c0-0.42,0.28-0.7,0.7-0.7h4.23c0.42,0,0.7,0.28,0.7,0.7v21.83c0,0.42-0.28,0.7-0.7,0.7h-28.17
		c-0.42,0-0.7-0.28-0.7-0.7v-11.97C136.32,138.41,136.61,138.13,137.03,138.13z"/>
	<path class="st22" d="M153.23,148.69c-0.42,0-0.7-0.28-0.7-0.7v-9.86c0-0.42,0.28-0.7,0.7-0.7h7.75c0.42,0,0.7,0.28,0.7,0.7v9.86
		c0,0.42-0.28,0.7-0.7,0.7s-0.7-0.28-0.7-0.7v-9.16h-6.34v9.16C153.93,148.41,153.65,148.69,153.23,148.69z"/>
</g>
<g>
	<path class="st15" d="M515.33,387.51h5.88c1,0,1.81-0.81,1.81-1.81v-26.36c0-1-0.81-1.81-1.81-1.81h-5.88c-1,0-1.81,0.81-1.81,1.81
		v26.36C513.52,386.7,514.33,387.51,515.33,387.51z"/>
	<path class="st15" d="M598.25,387.51h5.88c1,0,1.81-0.81,1.81-1.81v-26.36c0-1-0.81-1.81-1.81-1.81h-5.88c-1,0-1.81,0.81-1.81,1.81
		v26.36C596.44,386.7,597.25,387.51,598.25,387.51z"/>
	<path class="st17" d="M622.42,290.85h10.74v-9.99H486.3v9.99h11.24v71.68h-11.49v10h146.86v-10h-10.49V290.85z M502.54,290.85
		v71.68h114.89v-71.68H502.54z"/>
	
		<rect x="502.53" y="290.6" transform="matrix(-1 -4.489044e-11 4.489044e-11 -1 1063.0085 653.1322)" class="st23" width="57.94" height="71.93"/>
	
		<rect x="559.98" y="290.6" transform="matrix(-1 -4.493262e-11 4.493262e-11 -1 1177.399 653.1322)" class="st23" width="57.45" height="71.93"/>
	<circle class="st15" cx="551.73" cy="326.82" r="3.75"/>
	<circle class="st15" cx="569.72" cy="326.82" r="3.75"/>
</g>
<g>
	<defs>
		<path id="SVGID_4_" d="M519.01,265.06l1.09,13.16c0,0,35.62,19.03,42.86,19.33c12.02,0.51,27.15,1.04,26.37,10.18
			c-0.78,9.14-28.98,0-28.98,0s-22.62-7.23-34.89-11.67c-12.27-4.44-19.56-8.95-20.84-12.4c-1.27-3.45-1.23-16.46-1.23-16.46
			L519.01,265.06z"/>
	</defs>
	<use xlink:href="#SVGID_4_"  style="overflow:visible;fill:#FFC88D;"/>
	<clipPath id="SVGID_5_">
		<use xlink:href="#SVGID_4_"  style="overflow:visible;"/>
	</clipPath>
	<path class="st24" d="M509.18,270.57c0,0-0.99,6.92,0.32,11.43c1.31,4.52,51.19,25.84,51.19,25.84s-45.65-10.76-45.76-10.93
		s-16.13-10.09-16.13-10.09l-0.7-18.4L509.18,270.57z"/>
	<path class="st24" d="M581.36,297.52c-0.26,0-20.36,3.22-18.8,16.62c0,0,20.45,5.13,20.8,4.7s10.01-7.14,10.01-8.18
		S581.36,297.52,581.36,297.52z"/>
</g>
<path class="st7" d="M466.91,166.26c0.52-3.03,1.52-5.9,2.32-8.72l0.36-1.27l1.07,0.33c3.08,0.94,6.46,0.83,9.52-0.12
	c0.89-0.28,1.75-0.63,2.59-1.01l-5.01-1.91l5.41-3.89c2.91-2.09,6.49-3.13,10-2.95c3.51,0.16,6.99,1.52,9.65,3.91
	c2.66,2.39,4.25,5.6,4.72,8.82c0.46,3.21-0.13,6.54-1.89,9l-0.34-0.11l-28.4,22c0,0.01,0.01,0.02,0.01,0.03l-0.6,0.39
	c-2.42-1.86-4.32-4.27-5.84-6.9c-1.52-2.63-2.6-5.52-3.27-8.49C466.5,172.39,466.37,169.27,466.91,166.26z"/>
<g>
	<defs>
		<path id="SVGID_6_" d="M653.27,158.67c-0.48,0.72-7.31-0.61-11.4,5.4c-4.09,6,0.7,16.62,8.44,18.71
			c7.74,2.09,17.93,14.36,19.75,20.01c1.83,5.66,8.7,11.57,14.45,18.19c5.74,6.61-0.78,28.02,14.53,37.33
			c15.32,9.31,44.73,17.84,62.13-7.05c17.4-24.89-16.36-32.72-23.49-41.07c-7.14-8.35-3.39-18.45-17.66-22.02
			s-20.01-5.13-22.97-16.1c-2.96-10.96-8.31-17.84-18.45-20.14C668.45,149.62,657.18,152.8,653.27,158.67z"/>
	</defs>
	<use xlink:href="#SVGID_6_"  style="overflow:visible;fill:#381B91;"/>
	<clipPath id="SVGID_7_">
		<use xlink:href="#SVGID_6_"  style="overflow:visible;"/>
	</clipPath>
	<path class="st25" d="M768.3,244.43c-2.44,9.75-16.53,15.66-32.02,8.88c-15.49-6.79-17.78-23.45-29.59-29.72
		c-11.8-6.27-20.88-16.14-19.84-23.62c1.04-7.48-1.04-18.82-9.28-18.59c-8.24,0.23-13.28-5.69-16.71-8.18
		c-3.42-2.49-12.7,6.09-17.98,2.78c-5.28-3.31-4.87-8.01-4.87-8.01l1.04,16.3l16.13,12.47l28.95,31.44l3.64,41l49.47,6.13L764,262.4
		L768.3,244.43z"/>
	<path class="st26" d="M561.94,206.27"/>
</g>
<g>
	<defs>
		<path id="SVGID_8_" d="M650.48,221.62c-1.23-1.83-2.98-3.24-4.81-2.13c-1.83,1.11-33.59,32.83-37.6,33.25
			s-19.42-26.23-20.86-30.23c-1.45-4,0-5.11-1.32-9.62c-1.32-4.51-10.94-10.81-17.24-13.37c-6.3-2.55-13.33-1.28-10.9,5.66
			c2.43,6.94,17.88,16.18,19.03,19.88s14.65,44.39,27.09,45.64c12.44,1.25,32.42-19.87,32.42-19.87L650.48,221.62z"/>
	</defs>
	<use xlink:href="#SVGID_8_"  style="overflow:visible;fill:#FFC88D;"/>
	<clipPath id="SVGID_9_">
		<use xlink:href="#SVGID_8_"  style="overflow:visible;"/>
	</clipPath>
	<path class="st27" d="M640.45,239.46c-1.63,1.4-24.08,26.58-33.48,28.15c-9.4,1.57-22.58-22.54-22.58-22.54l12.53,32.08l22.97-0.13
		l22.19-29.11L640.45,239.46"/>
</g>
<g>
	<defs>
		<path id="SVGID_10_" d="M626.68,381.18c0,0-0.61,2.44-0.57,5.96c0.04,3.52,0.96,49.17,0.87,57.87c0,0,5.7-2.13,11.79-5.66
			c0,0,5.4-27.06,5.22-35.94c-0.17-8.88-0.78-13.23-0.78-13.23l0.26-4.35L626.68,381.18z"/>
	</defs>
	<use xlink:href="#SVGID_10_"  style="overflow:visible;fill:#FFC88D;"/>
	<clipPath id="SVGID_11_">
		<use xlink:href="#SVGID_10_"  style="overflow:visible;"/>
	</clipPath>
	<path class="st28" d="M636.21,385.61c-0.26,0-2.87-1.91-4.7,8.01c-1.83,9.92,2.39,8.01-1.24,24.45c-3.63,16.45-6.94,25.5-6.94,25.5
		s-9.83,0.7-10.18-2.87c-0.35-3.57,2.61-62.22,2.61-62.22l12.88,1.13L636.21,385.61z"/>
</g>
<path class="st10" d="M670.9,419.28c-2.77,3.08-5.7,6.01-8.76,8.81c-0.95,0.87-1.92,1.73-2.9,2.57c-0.64-1.7-1.34-3.55-2.07-5.5
	c-0.2-0.51-0.39-1.03-0.59-1.55c-0.85-2.25-1.75-4.6-2.65-6.97c-4.65-12.24-9.56-25.05-10.27-26.92c-0.71-1.86-1.1-3.46-1.31-4.51
	c-0.16-0.81-0.21-1.28-0.21-1.28l17.37-1.41l1.25,4.18c0,0,2.07,3.87,5.29,12.15c0.49,1.26,1,2.96,1.52,4.94
	c0.44,1.67,0.88,3.53,1.32,5.5v0.01c0.22,1.03,0.45,2.09,0.67,3.16C670.03,414.72,670.48,417.04,670.9,419.28z"/>
<g>
	<defs>
		<path id="XMLID_21_" d="M674.15,293.04l2.26,1.68c0,0,5.61,12.36,6.79,26.98c1.17,14.62-8.75,41.73-20.36,63.78
			c0,0-17.75,8.61-37.98-3.13c0,0-1.7-31.85-1.7-45.81s5.18-35.33,12.97-46.77l1.94-1.02L674.15,293.04z"/>
	</defs>
	<use xlink:href="#XMLID_21_"  style="overflow:visible;fill:#FF3D0D;"/>
	<clipPath id="XMLID_3_">
		<use xlink:href="#XMLID_21_"  style="overflow:visible;"/>
	</clipPath>
	<path class="st29" d="M662.31,294.2c0.36,1.39,8.71,38.81,0.88,42.64c-7.83,3.83-22.8-4.7-20.19,2.96
		c2.61,7.66,14.79,7.14,13.05,21.23c-1.74,14.1-2.93,27.21,4,33.94c0,0-36.72,14.97-40.03-6.44c-3.31-21.41-6.09-84.76,4-97.29
		s12.53-7.14,12.53-7.14L662.31,294.2z"/>
</g>
<g>
	<defs>
		<path id="XMLID_20_" d="M664.78,217.1l-0.55-0.29c0,0-13.66,0.2-16.19,0.46c-2.52,0.26-6.18,11.36-8.44,15.45
			c-2.26,4.09-5.05,8.22-5.96,10.18s-1.26,9.53,2.22,19.36c3.48,9.83,0.26,27.5,0.26,27.5s17.23,15.49,40.29,4.96
			c0,0-0.7-13.05,3.31-22.28c4-9.22,10.44-22.02,11.66-32.89c1.22-10.88-3.18-14.44-5.96-16.36c-2.78-1.91-7.56-4.64-7.56-4.64
			L664.78,217.1z"/>
	</defs>
	<use xlink:href="#XMLID_20_"  style="overflow:visible;fill:#FFC40E;"/>
	<clipPath id="XMLID_4_">
		<use xlink:href="#XMLID_20_"  style="overflow:visible;"/>
	</clipPath>
	<path class="st30" d="M631.12,240.86c0,0-3.49,11.31,9.79,17.88c13.28,6.57,32.88,3.78,29.1,13.83
		c-3.78,10.06-7.31,20.71-11.56,23.02c-4.24,2.31-18.08,5.05-18.08,5.05l-10.01-11.06C630.36,289.58,620.9,252.61,631.12,240.86z"/>
</g>
<g>
	<defs>
		<path id="SVGID_12_" d="M649.2,177.19c0,0-1.68,16.13,0,23.73s9.17,11.78,15.55,6.67l-0.52,9.22c0,0,3.42,7.95,13.63,1.74
			l0.58-9.98c0,0-4.41-3.48-4.41-7.89c0-4.41,2.84-3.68,4.41-7.11c1.57-3.42-0.64-8.03-3.8-8.32c-3.16-0.29-3.8,4.58-3.8,4.58
			s-1.31-4.29-2.84-4.96c-1.54-0.67-3.39,1.65-6.38,0.49c-2.99-1.16-1.91-4.61-4.9-5.16C653.73,179.66,650.16,179.4,649.2,177.19z"
			/>
	</defs>
	<use xlink:href="#SVGID_12_"  style="overflow:visible;fill:#FFC88D;"/>
	<clipPath id="SVGID_13_">
		<use xlink:href="#SVGID_12_"  style="overflow:visible;"/>
	</clipPath>
	<path class="st31" d="M680.04,194.42c-0.09-0.61-1.94-7.48-5.02-6.35c-3.07,1.13-3.74,4.7-3.74,4.7s-1.39-4.84-4.52-4.81
		c-3.13,0.03-8.27,0.55-10.18-4.55c-0.49-1.77-3.54-0.81-5.4-1.68s-3.71-2.61-3.71-2.61l0.99-3.74l31.96,8.09l2.44,6.99
		L680.04,194.42z"/>
	<path class="st31" d="M663.23,209.12l1.52-1.53c0,0,4.42-2.76,5.81-4.21s-5.02,4.42-6.27,12.43c-1.25,8,0,0,0,0L663.23,209.12z"/>
</g>
<g>
	<defs>
		<path id="SVGID_14_" d="M690.68,227.78c-3.35-4.26-10.21-2.38-14.91,4.47c-4.7,6.85-26.6,40.91-29.3,43.52
			c-2.7,2.61-43.33,23.71-46.12,24.5c-2.78,0.78-13.28-2.29-21.99-0.16c-8.7,2.13-12.18,5.92-12.75,10.09
			c-0.57,4.18,8.79,8.57,18.36,6.13c9.57-2.44,18.4-3.26,20.41-5.83c0,0,44.74-15.07,51.79-21.33s30.11-38.33,33.74-45.55
			S692.29,229.83,690.68,227.78z"/>
	</defs>
	<use xlink:href="#SVGID_14_"  style="overflow:visible;fill:#FFC88D;"/>
	<clipPath id="SVGID_15_">
		<use xlink:href="#SVGID_14_"  style="overflow:visible;"/>
	</clipPath>
	<path class="st32" d="M691.59,226.15c-8.82,2.26-14.39,7.66-19.53,17.49c-5.13,9.83-16.97,32.28-24.54,34.98
		c-7.57,2.7-46.38,25.58-48.21,22.8s20.36-12.53,23.49-16.01s55.89-64.66,55.89-64.66l12.24,1.14L691.59,226.15z"/>
</g>
<g>
	<g>
		<g>
			<g>
				<g>
					<path class="st33" d="M395.89,470.03c-0.09-0.43-0.18-0.88-0.26-1.36"/>
				</g>
			</g>
			<g>
				<g>
					<path class="st33" d="M395.09,465.27c-0.05-0.4-0.1-0.82-0.15-1.25"/>
				</g>
			</g>
			<g>
				<g>
					<path class="st34" d="M394.55,459.48L394.55,459.48z"/>
				</g>
			</g>
		</g>
	</g>
	<g>
		<defs>
			<path id="SVGID_16_" d="M452.96,287.08l-0.72,0.42c0,0-7.57,12.1-11.51,27.03c-3.95,14.92-7.55,46.49-11.32,56.78
				s-39.45,60.21-39.45,60.21s-0.34,13.72,16.64,18.01c0,0,45.11-48.54,53-59.69s10.81-22.47,10.81-22.47s1.03,35.16,1.2,54.03
				c0.17,18.87-1.54,36.71-1.54,36.71s13.21,8.92,27.27,0c0,0,4.29-41.51,4.97-71.19c0.69-29.68-0.32-97.83-0.32-97.83l-11.34,2.11
				L452.96,287.08z"/>
		</defs>
		<use xlink:href="#SVGID_16_"  style="overflow:visible;fill:#0D0F21;"/>
		<clipPath id="SVGID_17_">
			<use xlink:href="#SVGID_16_"  style="overflow:visible;"/>
		</clipPath>
		<g class="st35">
			<path class="st36" d="M469.32,374.43l1.13-5.24c0,0,6.99-30.76,9.28-43.68s-0.69-6.06-1.6-0.11
				c-0.91,5.95-6.75,35.22-10.98,45.86s-8.92,17.16-19.56,29.94s-44.35,49.19-44.35,49.19s5.13,2.29,5.13,1.94
				s40.83-45.86,40.83-45.86l16.35-19.44L469.32,374.43z"/>
		</g>
		<g class="st37">
			<path class="st38" d="M390.35,435.94c0,0,9.07-9.22,14.48-16.77s24.41-34.12,30.64-47.5s5.86-31.75,10.78-48.79
				c4.92-17.04,24.98-29.7,24.98-29.7l-18.78-8.08l-18.41,33.05l-11.27,57.5l-31.15,47.65l-2.52,9.43L390.35,435.94z"/>
		</g>
	</g>
	<g>
		<g>
			<path class="st39" d="M454.56,280.22l-1.14,0.34l-1.18,6.94c0,0,5.68,9.07,27.56,8.54c21.88-0.53,22.19-6.95,22.19-6.95
				l-0.19-7.27l-1.41-0.23L454.56,280.22z"/>
		</g>
	</g>
	<g>
		<g id="XMLID_14_">
			
				<linearGradient id="SVGID_18_" gradientUnits="userSpaceOnUse" x1="-559.5526" y1="244.4225" x2="-459.3231" y2="244.4225" gradientTransform="matrix(-1 0 0 1 -39.412 0)">
				<stop  offset="0" style="stop-color:#00B5D1"/>
				<stop  offset="1" style="stop-color:#00D1C8"/>
			</linearGradient>
			<path class="st40" d="M419.91,258.27c0,0,7.2,13.04,19.21,7.32l14.07-30.53l0.23,45.51c0,0,5.72,9.38,24.7,8.46
				c0.74-0.04,1.47-0.08,2.17-0.13c0,0,0,0,0,0c11.65-0.86,17.39-3.81,19.87-5.61c1.18-0.86,1.63-1.46,1.63-1.46
				s0.82-17.14,2.07-22.86v11.49c0,0,3.17,1.71,7.12,1.8c2.95,0.07,6.33-0.77,9.16-3.89c0,0,0.37-47.45-7.64-56.49
				c-8-9.03-26.17-9.59-26.17-9.59l-17.44-2.53c0,0-10.8,0.56-17.48,3.14c-0.33,0.13-0.66,0.26-0.98,0.39
				c-11.53,4.87-12.29,12.96-17.49,24.52c-3.95,8.76-9.62,22.28-11.96,27.89C420.31,257.31,419.91,258.27,419.91,258.27z"/>
			<g>
				<path class="st41" d="M481.43,299.05c0.36,0,0.68-0.26,0.75-0.62c6.4-33.25,6.58-58.03,5.6-72.96
					c-1.06-16.22-3.6-24.44-3.71-24.78c-0.13-0.4-0.56-0.63-0.96-0.5c-0.4,0.13-0.63,0.56-0.5,0.96c0.03,0.08,2.61,8.44,3.65,24.5
					c0.96,14.83,0.78,39.44-5.58,72.49c-0.08,0.42,0.19,0.82,0.61,0.9C481.33,299.05,481.38,299.05,481.43,299.05z"/>
			</g>
			<path class="st42" d="M453.19,235.05l0.23,45.51c0,0,5.72,9.38,24.7,8.46c0.74-0.04,1.47-0.08,2.17-0.13
				c-11.24-1.73-15.99-9.57-18.79-15.25c-3.4-6.89-2.48-18.96-1.17-26.4c1.31-7.44-2.35-26.37-2.35-26.37
				C457.71,227.54,453.19,235.05,453.19,235.05z"/>
			<g class="st43">
				<g>
					<path class="st44" d="M420.98,255.7l6.73,2.4c0,0,4.29-8.58,5.89-17.47c1.6-8.89,10.07-13.24,11-23.02
						c0.57-6.02,3.46-11.12,5.84-14.32c-11.53,4.87-12.29,12.96-17.49,24.52C429,236.57,423.32,250.09,420.98,255.7z"/>
				</g>
			</g>
			<g class="st43">
				<path class="st45" d="M500.16,283.28c1.18-0.86,1.63-1.46,1.63-1.46s0.82-17.14,2.07-22.86v11.49c0,0,3.17,1.71,7.12,1.8
					c-1.69-7.01-3.77-17.43-3.97-27.09c-0.03-1.5,0.54-5.99,0.54-5.99s1.29-7.66,0.15-13.44c-1.14-5.77-2.17-4.06-1.6,2.23
					c0.57,6.29-0.34,13.04-1.31,18.87C503.97,251.68,501.1,275.41,500.16,283.28z"/>
			</g>
		</g>
	</g>
	<g>
		<g>
			<path class="st39" d="M519.58,262.67l-16.11,1.13c-0.8,0.06-1.44,0.7-1.45,1.46l-0.11,7c-0.01,0.81,0.68,1.43,1.53,1.37
				l16.65-1.15c0.84-0.06,1.5-0.77,1.45-1.57l-0.43-6.98C521.07,263.18,520.39,262.62,519.58,262.67z"/>
		</g>
	</g>
	<g>
		<path class="st46" d="M431.87,354.91c0,0,2.29-10.42,2.72-14.15s-1.77-5.06-8.76-6.56c-6.99-1.5-17.1-3.91-19.96-4.39
			c-2.86-0.49-7.93-0.35-9.39,4.69c-1.46,5.03-3.21,11.32-3.21,11.32s1.68,3.22,6.24,1.63c0,0,2.26-7.84,3.05-10
			c0.79-2.16,2.73-2.8,8.09-1.6c5.36,1.2,13.72,2.87,15.83,3.59s1.8,2.4,1.31,5.54c-0.49,3.13-1.64,9.16-1.64,9.16
			S427.56,356.19,431.87,354.91z"/>
		<path class="st47" d="M451.09,355.09c0,0,0.65,2.24,0.45,6.3c-0.2,4.06-7.22,46.7-7.22,46.7l-3.49-1.41l-4.91,2.74l-1.16-2.01
			l12.38-50.16L451.09,355.09z"/>
		<g>
			<defs>
				<path id="XMLID_13_" d="M379.15,340.97l-14.53,52.55c0,0,28.63,16.98,71.3,15.9l13.38-53.32L379.15,340.97z"/>
			</defs>
			<use xlink:href="#XMLID_13_"  style="overflow:visible;fill:#EA6024;"/>
			<clipPath id="XMLID_5_">
				<use xlink:href="#XMLID_13_"  style="overflow:visible;"/>
			</clipPath>
			<path class="st48" d="M452.39,359.04c0,0.52-15.58,26.02-46.21,19.23s-30.37-21.49-30.11-36.2l0.87-4.18l57.57,9.64l18.4,2.02
				L452.39,359.04z"/>
		</g>
		<path class="st49" d="M451.94,354.7l-73.32-14.81c0,0-8.64,29.94,25.15,35.88C437.56,381.7,451.94,354.7,451.94,354.7z"/>
		<path class="st50" d="M408.54,374.6l-11.61-2.7c-0.6-0.14-1.21,0.23-1.37,0.82l-0.75,2.84c-0.17,0.63,0.22,1.27,0.86,1.41
			l11.66,2.62c0.61,0.14,1.21-0.24,1.36-0.84l0.7-2.77C409.55,375.38,409.16,374.75,408.54,374.6z"/>
	</g>
	<g>
		<g id="XMLID_12_">
			<path class="st10" d="M411.05,345.25c5.85,1.92,13.54,0.13,14.96-5.98c0.34-1.44,0.32-3.13-0.15-5.06
				c-0.03-0.12-0.06-0.24-0.09-0.35c-2.79-10.41-4.44-13.36-2.3-26.17c1.39-8.32,4.87-21.21,7.13-31.67
				c0.38-1.76-0.18-2.47,2.27-7.08c0.31-0.58,0.66-1.22,1.07-1.93c0.44-0.77,0.95-1.62,1.54-2.57L421.07,260l-1.15-0.35
				c0,0-0.76,1.86-1.7,4.47c-0.18,0.5-0.37,1.03-0.56,1.58c-1.24,3.56-2.61,7.94-3.01,10.95c-1.75,13.44-2.94,34.79-4.12,44.6
				c0,0.01,0,0.02,0,0.02c-0.23,1.89-0.45,3.35-0.68,4.24c-0.4,1.54-0.89,3.18-1.35,4.82c-0.47,1.66-0.92,3.34-1.22,4.95
				C406.41,339.86,406.74,343.84,411.05,345.25z"/>
			<path class="st14" d="M410.52,321.27c0,0,0-0.01,0-0.02c1.18-9.81,2.37-31.17,4.12-44.6c0.39-3.02,1.76-7.39,3.01-10.95
				l-0.14-0.03c-0.54-0.12-0.99-0.42-1.29-0.82L410.52,321.27z"/>
			<path class="st14" d="M410.52,321.25c0.17-0.94,7.36-40.96,8.74-48.01c0.71-3.64,2.66-5.41,4.4-6.27
				c1.67-0.83,3.15-0.81,3.15-0.81l-8.59-2.05l-1.15-0.27l-0.84,1c0.3,0.4,0.75,0.71,1.29,0.82l0.14,0.03
				c-1.24,3.56-2.61,7.94-3.01,10.95C412.89,290.09,411.7,311.44,410.52,321.25z"/>
		</g>
	</g>
	<g>
		<g>
			<path class="st39" d="M416.22,264.84c0.3,0.4,0.75,0.71,1.29,0.82l0.14,0.03l6.01,1.28l9.22,1.96l4.75,1.01
				c1.07,0.23,2.14-0.37,2.51-1.4l2.89-8.02c0.3-0.83,0.06-1.72-0.52-2.3c-0.26-0.26-0.59-0.45-0.97-0.56l-12.18-3.27l-7.05-1.89
				l-0.67-0.18c-1.11-0.3-2.26,0.32-2.63,1.4l-3.11,9.08C415.65,263.54,415.8,264.29,416.22,264.84z"/>
		</g>
	</g>
</g>
<path id="XMLID_1_" class="st10" d="M504.97,165.37c0,0,0.53,15.04-0.69,21.37s-6.54,8.56-12.28,5.9
	c-5.74-2.66-3.77,10.07-3.77,10.07s-5.12,3.65-12.81-1.22c0,0,2.09-8.72,1.17-10.87c-0.11-0.27,0.47-0.51,0.47-0.51
	s3.26-1.47,2.97-3.66c-0.3-2.19-3.91-4.62-4.01-7.08s0.76-4.96,3.99-4.86c0,0,1.87-5.37,5.73-6.86
	C489.58,166.17,500.64,168.08,504.97,165.37z"/>
<g>
	<g>
		<path class="st39" d="M482.54,199.35l-2.63,9c0,0-7.23-1.37-8.61-8.46c0,0,3.69-7.09,5-6.35c1.22,0.69,1.7,3.39,5.51,4.56
			C482.36,198.26,482.68,198.81,482.54,199.35z"/>
	</g>
</g>
<polygon class="st51" points="485.86,199.1 484.78,203.92 482.29,199.33 478.89,208.07 485.45,209.57 488.15,206.44 "/>
<g>
	<g>
		<path class="st39" d="M485.21,199.01l2.42,8.76c0,0,1.85-0.21,2.31-4.5l-1.37-6c-0.02-0.17-0.22-0.25-0.35-0.14
			c-0.47,0.42-0.67,1.23-2.45,1.28C485.45,198.43,485.2,198.7,485.21,199.01z"/>
	</g>
</g>
<linearGradient id="SVGID_19_" gradientUnits="userSpaceOnUse" x1="-137.9402" y1="302.7971" x2="-49.6918" y2="302.7971" gradientTransform="matrix(-1 0 0 1 -39.412 0)">
	<stop  offset="0" style="stop-color:#00B5D1"/>
	<stop  offset="1" style="stop-color:#00D1C8"/>
</linearGradient>
<path class="st52" d="M94.64,362.06c-5.3,6.4-11.59,11.6-18.88,15.6c1.31,4.58,2.34,9.63,3.1,15.14c0.09,0.63-0.35,1.22-0.99,1.31
	c-0.63,0.09-1.22-0.35-1.31-0.99c-1.21-8.76-3.12-16.3-5.72-22.62c-2.58-6.26-5.83-11.32-9.76-15.17l-0.01-0.01
	c-2.25-2.13-4.33-4.35-6.24-6.66c-7.67,1.49-15.33,1.51-22.99,0.07c-15.28-3.7-13.68-18.16,3.51-14.42
	c6.46,1.86,10.89,4.31,13.92,6.64c-2.77-4.45-5-9.16-6.69-14.15c-0.51-1.49-0.96-3.01-1.37-4.55c-7.1,1.43-14.19,1.49-21.29,0.15
	c-13.86-3.35-12.41-16.47,3.19-13.08c12.72,3.67,16.78,9.81,17.88,12.05c-2.35-9.32-2.95-19.52-1.8-30.58l0,0
	c0.5-5.18-0.35-12.13-2.54-20.85c-0.3-1.18-0.62-2.39-0.96-3.63c-6.08,0.36-12.07-0.34-17.96-2.1c-11.59-4.07-9.13-15.6,3.61-9.94
	c8.52,4.29,12.72,9.29,14.12,11.21c-0.2-0.69-0.4-1.4-0.61-2.11l-0.09,0.06c0,0-0.03-0.18-0.06-0.54
	c-2.17-7.24-5.1-15.47-8.78-24.68c-0.16-0.4-0.08-0.83,0.16-1.14c-1.92-1.62-6.49-6.14-10.12-14.71
	c-4.81-13.09,6.86-14.78,10.16-2.95c1.31,5.72,1.65,11.46,1.01,17.23c0.41,0.05,0.77,0.31,0.93,0.72c2.75,6.87,5.08,13.21,7,19
	c0.49-3.07,1.5-6.99,3.53-11.5c6.34-12.42,15.5-5,9.06,5.45c-3.04,4.45-6.65,8.32-10.84,11.59c0.79,2.61,1.48,5.1,2.07,7.47
	c1.68,6.67,2.58,12.36,2.73,17.08c0.66-3.35,2.57-9.77,8.06-17.08c9.91-11.83,18.67-0.56,9.08,9.04
	c-5.04,4.55-10.75,8.01-17.14,10.36c-0.02,0.78-0.07,1.53-0.13,2.25l0,0.01l0,0c-0.91,8.71-0.7,16.86,0.61,24.45
	c0.75-3.86,2.95-11.41,9.42-20.02c11.54-13.78,21.75-0.65,10.58,10.53c-5.76,5.2-12.27,9.17-19.53,11.91
	c0.58,2.79,1.32,5.51,2.21,8.15c3.53,10.42,9.49,19.61,17.9,27.58c0.02,0.01,0.03,0.03,0.05,0.05c4.16,4.08,7.58,9.39,10.27,15.92
	c0.49,1.2,0.96,2.44,1.41,3.72c-0.06-4.28,1.19-11.37,7.53-20.7C93.48,337.84,104.65,348.62,94.64,362.06z"/>
<circle class="st10" cx="488.89" cy="166.74" r="5.08"/>
<g>
	<path class="st10" d="M102.87,180.07c0.55,2.21-0.22,4.3-1.72,4.67l0,0c-1.5,0.37-3.16-1.11-3.71-3.32l-0.69-2.78
		c-0.55-2.2,0.22-4.29,1.72-4.67l0,0c1.5-0.37,3.16,1.11,3.7,3.32L102.87,180.07z"/>
	<path class="st10" d="M119.99,190.6c-1.02,3.7-2.55,4.59-5.25,4.99c-2.57,0.26-3.2,0.51-5.77,0.77c-2.72,0.13-5.5-3.48-6.13-6.78
		c-1.02-5.44-3.98-9.91-4.99-15.35c-0.66-3.26,0.74-6.18,4.71-8.54c3.63-2.12,7.94-6.43,11.82-5.07c4.24,1.55,6.56,7.99,6.37,11.34
		C120.48,177.52,120.23,185.03,119.99,190.6z"/>
	<path class="st7" d="M95.86,169.98l1.98,4.25c0,0,4.21-4.74,7.17-8.63c0.94-1.23,10.54-1.34,12.93-0.91
		c1.74,0.31,1.94,2.54,2.33,3.83c1.43,4.62-0.61-7.78-0.61-7.78s-3.26-5.84-9.36-6.33c-3.38-0.27-4.95,1.69-6.23,4.24
		c-0.3,0.6,3.72-0.97,3.02-1.06c-0.18-0.02-4.13,3.45-4.25,3.72c-0.6,1.32-1.25,2.65-2.11,3.81
		C97.48,169.49,95.86,169.98,95.86,169.98z"/>
	<polygon class="st16" points="110.22,172.52 112.87,172.89 112.16,174.51 114.26,175.29 116.32,183.43 112.85,183.69 
		112.31,178.71 110.2,176.2 104.87,175.71 	"/>
</g>
<circle class="st11" cx="512.23" cy="95.96" r="26.81"/>
<g>
	<circle class="st22" cx="509.85" cy="91.15" r="0.63"/>
	<circle class="st22" cx="512.39" cy="91.15" r="0.63"/>
	<circle class="st22" cx="514.93" cy="91.15" r="0.63"/>
	<circle class="st22" cx="509.85" cy="93.69" r="0.63"/>
	<circle class="st22" cx="512.39" cy="93.69" r="0.63"/>
	<circle class="st22" cx="514.93" cy="93.69" r="0.63"/>
	<circle class="st22" cx="512.39" cy="96.22" r="0.63"/>
	<circle class="st22" cx="514.93" cy="96.22" r="0.63"/>
	<circle class="st22" cx="512.39" cy="98.76" r="0.63"/>
	<circle class="st22" cx="514.93" cy="98.76" r="0.63"/>
	<circle class="st22" cx="520" cy="98.76" r="0.63"/>
	<circle class="st22" cx="521.9" cy="98.76" r="0.63"/>
	<circle class="st22" cx="520" cy="101.3" r="0.63"/>
	<circle class="st22" cx="521.9" cy="101.3" r="0.63"/>
	<circle class="st22" cx="520" cy="103.83" r="0.63"/>
	<circle class="st22" cx="521.9" cy="103.83" r="0.63"/>
	<circle class="st22" cx="512.39" cy="101.3" r="0.63"/>
	<circle class="st22" cx="514.93" cy="101.3" r="0.63"/>
	<circle class="st22" cx="512.39" cy="103.83" r="0.63"/>
	<circle class="st22" cx="505.41" cy="98.76" r="0.63"/>
	<circle class="st22" cx="505.41" cy="101.3" r="0.63"/>
	<circle class="st22" cx="505.41" cy="103.83" r="0.63"/>
	<circle class="st22" cx="507.32" cy="98.76" r="0.63"/>
	<circle class="st22" cx="507.32" cy="101.3" r="0.63"/>
	<circle class="st22" cx="507.32" cy="103.83" r="0.63"/>
	<circle class="st22" cx="514.93" cy="103.83" r="0.63"/>
	<path class="st22" d="M507.32,93.69c0.38,0,0.63-0.25,0.63-0.63v-5.07h1.9c0.32,0,0.57-0.19,0.63-0.51l0.57-3.04h2.73l0.19,1.14
		c0.06,0.32,0.38,0.57,0.76,0.51c0.32-0.06,0.57-0.38,0.51-0.76l-0.32-1.65c-0.06-0.32-0.32-0.51-0.63-0.51h-1.27v-2.79
		c0-0.38-0.25-0.63-0.63-0.63s-0.63,0.25-0.63,0.63v2.73h-1.27c-0.32,0-0.57,0.19-0.63,0.51l-0.51,3.11h-2.03
		c-0.38,0-0.63,0.25-0.63,0.63v5.71C506.68,93.43,506.93,93.69,507.32,93.69z"/>
	<path class="st22" d="M511.75,86.71c-0.38,0-0.63,0.25-0.63,0.63c0,0.38,0.25,0.63,0.63,0.63h3.17h1.9v16.49
		c0,0.38,0.25,0.63,0.63,0.63s0.63-0.25,0.63-0.63V87.34c0-0.38-0.25-0.63-0.63-0.63h-2.54H511.75z"/>
	<path class="st22" d="M524.44,95.59h-1.27v-1.9c0-0.19-0.13-0.38-0.25-0.51l-1.65-1.08v-1.59c0-0.25-0.13-0.44-0.38-0.57
		l-1.27-0.63c-0.32-0.13-0.7,0-0.82,0.25c-0.13,0.25,0,0.7,0.25,0.82l0.89,0.44v1.59c0,0.19,0.13,0.38,0.25,0.51l1.65,1.08v1.59
		h-1.14l-1.14-0.57c-0.32-0.13-0.7,0-0.82,0.25c-0.13,0.32,0,0.7,0.25,0.82l1.27,0.63c0.19,0.13,0.25,0.13,0.38,0.13h3.17v9.51
		h-24.1V87.98h2.54v2.54c0,0.38,0.25,0.63,0.63,0.63h1.27v1.9c0,0.38,0.25,0.63,0.63,0.63c0.38,0,0.63-0.25,0.63-0.63v-2.54
		c0-0.38-0.25-0.63-0.63-0.63h-1.27v-2.54c0-0.38-0.25-0.63-0.63-0.63h-3.8c-0.38,0-0.63,0.25-0.63,0.63V107
		c0,0.38,0.25,0.63,0.63,0.63h25.37c0.38,0,0.63-0.25,0.63-0.63V96.22C525.07,95.84,524.82,95.59,524.44,95.59z"/>
	<path class="st22" d="M509.85,105.1c0.38,0,0.63-0.25,0.63-0.63v-8.88c0-0.38-0.25-0.63-0.63-0.63h-6.98
		c-0.38,0-0.63,0.25-0.63,0.63v8.88c0,0.38,0.25,0.63,0.63,0.63c0.38,0,0.63-0.25,0.63-0.63v-8.24h5.71v8.24
		C509.22,104.85,509.47,105.1,509.85,105.1z"/>
</g>
<path class="st4" d="M650.48,430.7c-13.77,10.67-29.86,18.77-47.47,24.64L650.48,430.7z"/>
<path class="st4" d="M650.48,430.7l6.17-7.17l16.86-19.61l19.21-34.21l0.98-1.74l7.27-25.73c-2.01,11.9-5.53,24.75-12.01,39.47
	c-1.85,3.91-3.86,7.67-6.05,11.27C674.64,408.07,663.61,420.55,650.48,430.7z"/>
<g>
	<g>
		<g>
			<rect x="299.92" y="193.03" class="st22" width="36.4" height="40.84"/>
			<g>
				<rect x="299.92" y="229.92" class="st53" width="36.4" height="3.94"/>
				<rect x="299.92" y="222.54" class="st53" width="36.4" height="3.95"/>
				<rect x="299.92" y="215.16" class="st53" width="36.4" height="3.95"/>
				<rect x="299.92" y="207.78" class="st53" width="36.4" height="3.95"/>
				<rect x="299.92" y="200.41" class="st53" width="36.4" height="3.95"/>
				<rect x="299.92" y="193.03" class="st53" width="36.4" height="3.95"/>
			</g>
		</g>
		<rect x="274.75" y="187.53" class="st22" width="43.37" height="40.84"/>
		<g>
			<rect x="274.75" y="224.42" class="st54" width="43.37" height="3.95"/>
			<rect x="274.75" y="217.04" class="st54" width="43.37" height="3.95"/>
			<rect x="274.75" y="209.66" class="st54" width="43.37" height="3.95"/>
			<rect x="276.7" y="202.29" class="st54" width="41.42" height="3.95"/>
			<rect x="276.7" y="194.91" class="st54" width="41.42" height="3.95"/>
			<rect x="276.7" y="187.53" class="st54" width="41.42" height="3.95"/>
		</g>
		<rect x="274.75" y="187.53" class="st11" width="30.53" height="22.14"/>
		<polygon class="st55" points="318.12,228.37 299.92,228.37 299.92,233.87 		"/>
		<g>
			<g>
				<polygon class="st22" points="282.75,193.63 283.56,195.27 285.36,195.53 284.05,196.8 284.36,198.6 282.75,197.75 
					281.14,198.6 281.45,196.8 280.14,195.53 281.94,195.27 				"/>
				<polygon class="st22" points="290.02,193.63 290.82,195.27 292.62,195.53 291.32,196.8 291.63,198.6 290.02,197.75 288.4,198.6 
					288.71,196.8 287.41,195.53 289.21,195.27 				"/>
				<polygon class="st22" points="297.28,193.63 298.09,195.27 299.89,195.53 298.59,196.8 298.89,198.6 297.28,197.75 
					295.67,198.6 295.98,196.8 294.67,195.53 296.47,195.27 				"/>
			</g>
			<g>
				<polygon class="st22" points="279.12,188.67 279.92,190.31 281.72,190.57 280.42,191.84 280.73,193.63 279.12,192.79 
					277.51,193.63 277.81,191.84 276.51,190.57 278.31,190.31 				"/>
				<polygon class="st22" points="286.38,188.67 287.19,190.31 288.99,190.57 287.69,191.84 287.99,193.63 286.38,192.79 
					284.77,193.63 285.08,191.84 283.77,190.57 285.58,190.31 				"/>
				<polygon class="st22" points="293.65,188.67 294.45,190.31 296.26,190.57 294.95,191.84 295.26,193.63 293.65,192.79 
					292.04,193.63 292.34,191.84 291.04,190.57 292.84,190.31 				"/>
				<polygon class="st22" points="300.91,188.67 301.72,190.31 303.52,190.57 302.22,191.84 302.53,193.63 300.91,192.79 
					299.3,193.63 299.61,191.84 298.31,190.57 300.11,190.31 				"/>
			</g>
			<g>
				<polygon class="st22" points="282.75,203.56 283.56,205.19 285.36,205.45 284.05,206.72 284.36,208.52 282.75,207.67 
					281.14,208.52 281.45,206.72 280.14,205.45 281.94,205.19 				"/>
				<polygon class="st22" points="290.02,203.56 290.82,205.19 292.62,205.45 291.32,206.72 291.63,208.52 290.02,207.67 
					288.4,208.52 288.71,206.72 287.41,205.45 289.21,205.19 				"/>
				<polygon class="st22" points="297.28,203.56 298.09,205.19 299.89,205.45 298.59,206.72 298.89,208.52 297.28,207.67 
					295.67,208.52 295.98,206.72 294.67,205.45 296.47,205.19 				"/>
			</g>
			<g>
				<polygon class="st22" points="279.12,198.6 279.92,200.23 281.72,200.49 280.42,201.76 280.73,203.56 279.12,202.71 
					277.51,203.56 277.81,201.76 276.51,200.49 278.31,200.23 				"/>
				<polygon class="st22" points="286.38,198.6 287.19,200.23 288.99,200.49 287.69,201.76 287.99,203.56 286.38,202.71 
					284.77,203.56 285.08,201.76 283.77,200.49 285.58,200.23 				"/>
				<polygon class="st22" points="293.65,198.6 294.45,200.23 296.26,200.49 294.95,201.76 295.26,203.56 293.65,202.71 
					292.04,203.56 292.34,201.76 291.04,200.49 292.84,200.23 				"/>
				<polygon class="st22" points="300.91,198.6 301.72,200.23 303.52,200.49 302.22,201.76 302.53,203.56 300.91,202.71 
					299.3,203.56 299.61,201.76 298.31,200.49 300.11,200.23 				"/>
			</g>
		</g>
		<rect x="272.41" y="187.53" class="st56" width="1.72" height="63.43"/>
		<rect x="269.12" y="185.94" class="st7" width="5.96" height="3.02"/>
	</g>
	<path class="st7" d="M255.8,265.84c0-9.65,7.82-17.47,17.47-17.47c9.65,0,17.47,7.82,17.47,17.47H255.8z"/>
</g>
<linearGradient id="SVGID_20_" gradientUnits="userSpaceOnUse" x1="-415.1501" y1="342.4756" x2="-288.6679" y2="342.4756" gradientTransform="matrix(-1 0 0 1 -39.412 0)">
	<stop  offset="0" style="stop-color:#00B5D1"/>
	<stop  offset="1" style="stop-color:#00D1C8"/>
</linearGradient>
<path class="st57" d="M356.67,391.79c9.85-19.48,25.02-9.7,16.63,7.9c-4.6,8.49-10.61,15.85-18.03,22.06
	c2.53,4.94,4.84,10.46,6.95,16.58c0.24,0.7-0.13,1.47-0.83,1.71c-0.7,0.24-1.47-0.13-1.71-0.83c-3.35-9.72-7.23-17.9-11.62-24.52
	c-4.35-6.56-9.2-11.6-14.55-15.11l-0.02-0.01c-3.05-1.93-5.92-3.99-8.62-6.19c-8.41,3.43-17.16,5.18-26.23,5.26
	c-18.27-0.78-19.7-17.65,0.76-17.25c7.79,0.67,13.4,2.46,17.38,4.44c-4.16-4.45-7.77-9.33-10.83-14.64
	c-0.91-1.59-1.78-3.22-2.59-4.88c-7.78,3.24-15.86,4.89-24.26,4.97c-16.57-0.7-17.87-16,0.69-15.64
	c15.34,1.32,21.36,7.42,23.12,9.72c-4.78-10.11-7.77-21.61-8.95-34.5l0,0c-0.6-6.03-3.14-13.77-7.6-23.22
	c-0.6-1.28-1.24-2.58-1.91-3.92c-6.86,1.78-13.85,2.33-20.97,1.65c-14.14-2.04-13.94-15.74,1.88-12.16
	c10.69,2.97,16.61,7.74,18.64,9.62c-0.38-0.75-0.77-1.5-1.17-2.27l-0.08,0.09c0,0-0.07-0.2-0.18-0.6
	c-4.11-7.77-9.3-16.5-15.59-26.19c-0.27-0.42-0.28-0.93-0.07-1.34c-2.55-1.42-8.8-5.54-14.87-14.51
	c-8.44-13.85,4.49-18.41,10.93-5.65c2.78,6.23,4.46,12.71,5.04,19.43c0.47-0.04,0.95,0.18,1.23,0.61
	c4.69,7.22,8.78,13.93,12.27,20.11c-0.14-3.61,0.13-8.32,1.44-13.92c4.44-15.6,16.57-9.2,11.57,4.18
	c-2.47,5.77-5.72,10.99-9.75,15.67c1.49,2.81,2.84,5.49,4.05,8.06c3.42,7.23,5.74,13.53,6.96,18.88c0-3.97,0.73-11.73,5.35-21.31
	c8.64-15.73,21.18-4.85,12.4,8.27c-4.73,6.33-10.47,11.56-17.22,15.69c0.15,0.89,0.27,1.76,0.35,2.6l0,0.01l0,0
	c0.93,10.15,3,19.41,6.21,27.77c-0.02-4.58,0.8-13.69,6.24-24.97c10.07-18.33,24.68-5.65,14.44,9.64
	c-5.4,7.23-11.94,13.23-19.61,17.99c1.29,3.06,2.75,5.99,4.36,8.8c6.37,11.09,15.26,20.24,26.64,27.45
	c0.02,0.01,0.04,0.03,0.06,0.04c5.67,3.72,10.77,9.01,15.31,15.86c0.83,1.26,1.65,2.56,2.44,3.92
	C351.71,412.25,351.54,403.87,356.67,391.79z"/>
<path class="st58" d="M662.14,428.09c-0.95,0.87-1.92,1.73-2.9,2.57c-0.64-1.7-1.34-3.55-2.07-5.5c-0.2-0.51-0.39-1.03-0.59-1.55
	c-0.85-2.25-1.75-4.6-2.65-6.97c-4.65-12.24-9.56-25.05-10.27-26.92c-0.71-1.86-0.28-0.33-0.49-1.38l6.93,0.09
	c0,0-1.26,0.1,1.07,6.97c2.01,5.92,5.74,12.12,7.57,17.12c0.59,1.61,1,3.08,1.13,4.37c0.06,0.65,0.19,1.48,0.37,2.44
	c0.13,0.77,0.3,1.62,0.49,2.52C661.13,423.78,661.63,425.94,662.14,428.09z"/>
<path class="st11" d="M704.59,324.09l-0.01,1.29l-0.02,1.61c-0.01,0.41-0.02,0.81-0.03,1.22v0.04c-0.2,7.27-0.79,14.59-1.95,21.86
	c-1.2,7.69-3.05,15.3-5.39,22.76c-0.58,1.87-1.2,3.72-1.85,5.57c-0.65,1.83-1.33,3.68-2.08,5.57c-1.57,3.73-3.24,7.27-5.14,10.81
	c-3.76,6.99-8.24,13.69-13.31,19.9c-1.26,1.55-2.57,3.08-3.91,4.56c-2.77,3.08-5.7,6.01-8.76,8.81c-0.95,0.87-1.92,1.73-2.9,2.57
	c-0.45,0.4-0.9,0.79-1.36,1.17c-6.12,5.22-12.73,9.83-19.61,13.93c-6.89,4.1-14.05,7.71-21.41,10.79
	c-14.7,6.19-30.05,10.59-45.57,13.46c-15.52,3-31.22,4.49-46.89,5.08c-15.68,0.55-31.35-0.01-46.92-1.3
	c-15.56-1.37-31.02-3.61-46.34-6.6c-7.64-1.55-15.26-3.23-22.82-5.15c-3.8-0.89-7.55-1.96-11.32-2.99
	c-1.87-0.53-3.77-1.01-5.62-1.57l-5.55-1.71l-5.45-1.68c-1.57-0.47-3.35-0.96-5.03-1.39c-3.43-0.88-6.9-1.62-10.42-2.25l-2.64-0.46
	l-2.72-0.42c-1.72-0.29-3.53-0.45-5.3-0.68c-1.77-0.24-3.58-0.38-5.38-0.56l-2.7-0.25l-2.72-0.17c-14.49-0.98-29.25-0.37-44.01,0.95
	c-7.39,0.72-14.77,1.6-22.15,2.74c-3.7,0.51-7.38,1.16-11.07,1.75c-3.68,0.68-7.38,1.29-11.05,2.05l-5.52,1.1l-5.42,1.13l-2.71,0.57
	l-2.85,0.66l-2.87,0.67c-0.95,0.23-1.91,0.45-2.9,0.62c-7.84,1.65-15.81,2.59-23.78,2.98c-1.99,0.11-3.98,0.21-5.97,0.19
	c-1.99-0.01-3.98,0.07-5.97-0.02l-5.96-0.23l-5.93-0.51c-7.89-0.84-15.71-2.21-23.35-4.16c-7.64-1.95-15.11-4.5-22.31-7.59
	c-7.2-3.11-14.19-6.63-20.78-10.78c-13.24-8.19-25.06-18.42-34.92-30.11c6.53,5.66,13.45,10.79,20.67,15.33
	c0.01,0,0.01,0.01,0.02,0.01c5.55,3.49,11.28,6.63,17.15,9.42c6.76,3.21,13.74,5.88,20.83,8.09c7.08,2.21,14.28,3.98,21.56,5.1
	c14.54,2.37,29.32,2.72,43.76,0.92c1.81-0.22,3.61-0.42,5.4-0.76c1.79-0.32,3.59-0.55,5.36-0.93l5.33-1.1l5.26-1.33
	c0.88-0.21,1.76-0.47,2.65-0.74l2.66-0.8l2.67-0.8l2.84-0.78l5.7-1.55l5.63-1.42c15.02-3.79,30.3-6.86,45.82-8.94
	c15.52-2.08,31.31-3.13,47.27-2.52l2.99,0.1l2.99,0.2c2,0.13,4,0.25,6.01,0.48c2.02,0.23,4.01,0.38,6.05,0.68l2.94,0.41l3,0.46
	c3.99,0.64,7.99,1.43,11.97,2.37c2.01,0.48,3.91,0.97,6,1.56l5.51,1.59l5.4,1.59c1.8,0.54,3.59,0.98,5.39,1.47
	c3.59,0.96,7.17,1.96,10.8,2.79c0.2,0.05,0.41,0.1,0.61,0.15h0.01c7.02,1.74,14.09,3.24,21.19,4.64
	c14.59,2.91,29.33,5.13,44.12,6.55c8.99,0.92,18,1.53,27,1.84c0.01,0,0.01,0,0.02,0c5.8,0.2,11.6,0.27,17.4,0.22
	c9.94-0.07,19.87-0.59,29.72-1.58c0.01,0,0.01,0,0.02,0c4.79-0.47,9.58-1.06,14.34-1.75l5.44-0.87l2.72-0.44l2.69-0.53
	c1.81-0.34,3.6-0.71,5.38-1.12l2.68-0.59l2.67-0.65c7.1-1.71,14.11-3.77,20.94-6.25c6.83-2.49,13.52-5.32,19.96-8.63
	c6.44-3.3,12.6-7.1,18.44-11.34c1.7-1.23,3.37-2.5,5-3.83c1.64-1.31,3.25-2.68,4.82-4.11c2.24-1.99,4.41-4.09,6.5-6.26
	c0.79-0.81,1.56-1.64,2.32-2.48c4.11-4.5,7.86-9.36,11.25-14.51c2-3.01,3.9-6.21,5.6-9.37c1.62-3.17,3.2-6.65,4.68-10.03
	c2.98-6.83,5.44-13.87,7.47-21.08c2.01-7.21,3.52-14.6,4.66-22.09l0.42-2.8c0.06-0.42,0.12-0.83,0.18-1.25v-0.01
	c0.06-0.54,0.13-1.06,0.19-1.59l0.67-5.67c0.44-3.79,0.91-7.58,1.4-11.37l0.01-0.06l0.01-0.07v0.13c0.13,3.82,0.24,7.64,0.31,11.47
	l0.13,5.75C704.58,322.2,704.6,323.15,704.59,324.09z"/>
</svg>
