<?xml version="1.0" encoding="UTF-8"?>
<!DOCTYPE svg PUBLIC "-//W3C//DTD SVG 1.1//EN" "http://www.w3.org/Graphics/SVG/1.1/DTD/svg11.dtd">
<!-- Creator: CorelDRAW 2019 (64-Bit Versión de evaluación) -->
<svg xmlns="http://www.w3.org/2000/svg" xml:space="preserve" width="210mm" height="297mm" version="1.1" style="shape-rendering:geometricPrecision; text-rendering:geometricPrecision; image-rendering:optimizeQuality; fill-rule:evenodd; clip-rule:evenodd"
viewBox="0 0 21000 29700"
 xmlns:xlink="http://www.w3.org/1999/xlink">
 <defs>
  <style type="text/css">
   <![CDATA[
    .fil0 {fill:#4E5ED7}
   ]]>
  </style>
 </defs>
 <g id="Capa_x0020_1">
  <metadata id="CorelCorpID_0Corel-Layer"/>
  <g id="_2024323631280">
   <g>
    <g>
     <g>
      <path class="fil0" d="M8165.02 6395.05c-217.76,0 -381.08,163.32 -381.08,381.08 0,217.76 163.32,381.08 381.08,381.08 217.77,0 381.09,-163.32 381.09,-381.08 0,-217.76 -163.32,-381.08 -381.09,-381.08z"/>
     </g>
    </g>
   </g>
   <g>
    <g>
     <g>
      <path class="fil0" d="M10560.41 9607.04c-217.76,0 -381.08,-163.32 -381.08,-381.08 0,-217.77 163.32,-381.09 381.08,-381.09 163.32,0 272.2,54.44 435.52,217.77 163.33,163.32 435.53,163.32 544.41,0 163.32,-163.33 163.32,-435.53 0,-544.41 -217.76,-217.76 -381.08,-326.64 -598.85,-381.08l0 -489.97c0,-217.76 -163.32,-381.08 -381.08,-381.08 -217.76,0 -381.08,163.32 -381.08,381.08l0 489.97c-489.97,163.32 -816.61,598.84 -816.61,1143.25 0,653.28 544.4,1197.69 1197.69,1197.69 217.76,0 381.08,163.32 381.08,381.08 0,217.77 -163.32,381.09 -381.08,381.09 -163.32,0 -381.08,-108.88 -544.41,-326.64 -163.32,-163.33 -381.08,-217.77 -544.4,-54.45 -163.32,163.33 -217.76,381.09 -54.44,544.41 217.76,272.2 489.96,435.53 707.72,544.41l0 489.96c0,217.76 163.33,381.09 381.09,381.09 217.76,0 381.08,-163.33 381.08,-381.09l0 -489.96c489.97,-163.33 816.61,-598.85 816.61,-1143.26 54.44,-653.28 -489.96,-1197.69 -1143.25,-1197.69z"/>
     </g>
    </g>
   </g>
   <g>
    <g>
     <g>
      <path class="fil0" d="M19162.02 9824.8c-871.05,0 -1578.78,707.73 -1578.78,1578.78l0 2830.91c-544.4,-163.32 -1143.25,0 -1524.33,435.53l-2667.59 2667.58c-381.08,381.09 -598.85,871.05 -598.85,1415.46l0 2340.94 -381.08 0c-217.76,0 -381.09,163.33 -381.09,381.09l0 2504.27c0,217.76 163.33,381.08 381.09,381.08l5552.94 0c217.76,0 381.08,-163.32 381.08,-381.08l0 -2504.27c0,-217.76 -163.32,-381.09 -381.08,-381.09l-381.09 0 0 -163.32c0,-108.88 54.45,-217.76 108.89,-272.2l2504.26 -2504.27c381.09,-381.08 598.85,-871.05 598.85,-1415.45l0 -5335.18c0,-871.05 -707.73,-1578.78 -1633.22,-1578.78zm-1578.78 13827.91l-4790.77 0 0 -1687.66 4790.77 0 0 1687.66zm2395.39 -6913.95c0,326.64 -108.88,598.84 -326.64,871.05l-2504.27 2504.26c-217.76,217.77 -326.64,544.41 -326.64,871.05l0 163.32 -3212 0 0 -2340.94c0,-326.64 108.88,-598.85 326.65,-871.05l2667.58 -2667.59c326.65,-326.64 762.17,-326.64 1088.82,-54.44 0,0 0,0 0,0 0,0 0,0 0,0 163.32,163.32 217.76,326.64 217.76,544.41 0,217.76 -108.88,435.52 -217.76,544.4l-1905.42 2068.75c-163.33,163.32 -163.33,435.52 0,544.4 163.32,163.32 435.52,163.32 544.4,0l1959.86 -1959.86c326.65,-326.64 489.97,-707.73 489.97,-1143.25 0,-381.09 -163.32,-762.17 -381.09,-1034.37l0 -3320.88c0,-435.52 381.09,-816.61 816.61,-816.61 435.53,0 816.61,381.09 816.61,816.61l0 5280.74 -54.44 0z"/>
     </g>
    </g>
   </g>
   <g>
    <g>
     <g>
      <path class="fil0" d="M8709.43 21148.44l-381.08 0 0 -2340.94c0,-544.41 -217.77,-1034.37 -598.85,-1415.46l-2667.59 -2667.58c-435.52,-435.53 -979.93,-544.41 -1524.34,-435.53l0 -2830.91c0,-871.05 -707.72,-1578.78 -1578.77,-1578.78 -871.05,0 -1578.78,707.73 -1578.78,1578.78l0 5335.18c0,544.4 217.76,1034.37 598.85,1415.45l2504.26 2504.27c54.44,54.44 108.88,163.32 108.88,272.2l0 163.32 -381.08 0c-217.76,0 -381.08,163.33 -381.08,381.09l0 2504.27c0,217.76 163.32,381.08 381.08,381.08l5498.5 0c217.76,0 381.08,-163.32 381.08,-381.08l0 -2504.27c0,-217.76 -163.32,-381.09 -381.08,-381.09zm-7240.6 -3538.63c-217.76,-217.77 -326.64,-544.41 -326.64,-871.05l0 -5335.18c0,-435.52 381.08,-816.61 816.61,-816.61 435.52,0 816.61,381.09 816.61,816.61l0 3320.88c-272.21,272.2 -381.09,653.28 -381.09,1034.37 0,435.52 163.32,816.61 489.97,1143.25l2014.3 2014.3c163.32,163.32 435.52,163.32 544.4,0 163.33,-163.32 163.33,-435.52 0,-544.4l-2014.3 -2014.31c-163.32,-163.32 -217.76,-326.64 -217.76,-544.4 0,-217.76 108.88,-435.53 217.76,-544.41 0,0 0,0 0,0l0 0c326.65,-272.2 816.61,-272.2 1088.81,54.44l2667.59 2667.59c217.77,217.76 326.65,544.41 326.65,871.05l0 2340.95 -3212 0 0 -163.33c0,-326.64 -108.88,-598.84 -326.64,-871.05l-2504.27 -2558.7zm6859.52 6042.9l-4790.78 0 0 -1687.66 4790.78 0 0 1687.66z"/>
     </g>
    </g>
   </g>
   <g>
    <g>
     <g>
      <path class="fil0" d="M10560.41 3999.66c-3320.88,0 -5988.47,2667.59 -5988.47,5988.47 0,3320.87 2667.59,5988.46 5988.47,5988.46 3320.87,0 5988.46,-2667.59 5988.46,-5988.46 0,-3320.88 -2722.03,-5988.47 -5988.46,-5988.47zm0 11214.76c-2885.35,0 -5171.86,-2340.94 -5171.86,-5171.85 0,-2830.91 2340.95,-5171.86 5171.86,-5171.86 2830.91,0 5171.85,2340.95 5171.85,5171.86 0,2830.91 -2340.94,5171.85 -5171.85,5171.85z"/>
     </g>
    </g>
   </g>
   <g>
    <g>
     <g>
      <path class="fil0" d="M13282.44 6558.37c-1034.37,-816.61 -2395.39,-1143.25 -3756.4,-871.05 -217.76,54.44 -326.65,272.2 -326.65,489.96 54.45,217.77 272.21,326.65 489.97,326.65 1088.81,-217.76 2232.06,0 3048.67,707.73 925.49,653.28 1415.46,1687.65 1415.46,2776.47 0,1959.86 -1633.22,3593.07 -3593.08,3593.07 -1959.86,0 -3593.08,-1633.21 -3593.08,-3593.07 0,-598.85 163.32,-1197.7 435.53,-1687.66 108.88,-217.77 54.44,-435.53 -163.33,-544.41 -217.76,-108.88 -435.52,-54.44 -544.4,163.32 -326.65,653.29 -544.41,1361.02 -544.41,2068.75 0,2449.82 1959.86,4409.68 4409.69,4409.68 2449.83,0 4409.69,-1959.86 4409.69,-4409.68 0,-1306.58 -598.85,-2558.71 -1687.66,-3429.76z"/>
     </g>
    </g>
   </g>
  </g>
 </g>
</svg>
