<?xml version="1.0" encoding="UTF-8"?>
<!DOCTYPE svg PUBLIC "-//W3C//DTD SVG 1.1//EN" "http://www.w3.org/Graphics/SVG/1.1/DTD/svg11.dtd">
<!-- Creator: CorelDRAW 2019 (64-Bit Versión de evaluación) -->
<svg xmlns="http://www.w3.org/2000/svg" xml:space="preserve" width="210mm" height="297mm" version="1.1" style="shape-rendering:geometricPrecision; text-rendering:geometricPrecision; image-rendering:optimizeQuality; fill-rule:evenodd; clip-rule:evenodd"
viewBox="0 0 21000 29700"
 xmlns:xlink="http://www.w3.org/1999/xlink">
 <defs>
  <style type="text/css">
   <![CDATA[
    .fil0 {fill:#4E5ED7}
   ]]>
  </style>
 </defs>
 <g id="Capa_x0020_1">
  <metadata id="CorelCorpID_0Corel-Layer"/>
  <g id="_2024170436048">
   <path class="fil0" d="M8108.85 19296.26c-331.23,0 -607.25,-276.03 -607.25,-607.25 0,-331.23 -276.03,-607.26 -607.26,-607.26 -331.23,0 -607.25,276.03 -607.25,607.26 0,772.86 496.84,1435.32 1214.51,1656.14l0 496.85c0,331.23 276.02,607.25 607.25,607.25 331.23,0 607.26,-276.02 607.26,-607.25l0 -441.64c662.46,-220.82 1159.3,-883.28 1159.3,-1656.15 0,-993.69 -772.87,-1766.56 -1766.56,-1766.56 -331.23,0 -607.25,-276.02 -607.25,-607.25 0,-331.23 276.02,-607.26 607.25,-607.26 331.23,0 607.26,276.03 607.26,607.26 0,331.23 276.02,607.25 607.25,607.25 331.23,0 607.26,-276.02 607.26,-607.25 0,-772.87 -496.85,-1435.33 -1159.31,-1656.15l0 -883.28c0,-331.23 -276.02,-607.25 -607.25,-607.25 -331.23,0 -607.26,276.02 -607.26,607.25l0 883.28c-717.66,220.82 -1214.51,883.28 -1214.51,1656.15 0,993.69 772.87,1766.56 1766.56,1766.56 331.23,0 607.26,276.02 607.26,607.25 0,276.02 -276.03,552.05 -607.26,552.05z"/>
   <path class="fil0" d="M2809.18 22884.58c1214.51,662.46 2925.86,993.69 5299.67,993.69 1932.18,0 3422.71,-220.82 4582.01,-607.25 331.23,386.43 828.08,607.25 1380.13,607.25l4802.83 0c993.69,0 1766.55,-772.87 1766.55,-1766.56 0,-441.64 -165.61,-883.28 -441.63,-1159.3 276.02,-331.23 441.63,-717.67 441.63,-1159.31 0,-441.64 -165.61,-883.28 -441.63,-1159.3 276.02,-331.23 441.63,-717.66 441.63,-1159.3 0,-441.64 -165.61,-883.28 -441.63,-1159.31 276.02,-331.23 441.63,-717.66 441.63,-1159.3 0,-993.69 -772.86,-1766.56 -1766.55,-1766.56l-4802.83 0c-55.21,0 -110.41,0 -165.62,0 -607.25,-717.66 -1269.71,-1324.92 -2042.58,-1766.56 276.02,-331.23 441.64,-717.66 441.64,-1159.3 0,-717.67 -441.64,-1324.92 -993.69,-1600.94l993.69 -3036.28c55.2,-165.61 55.2,-386.43 -110.41,-552.05 -110.41,-165.61 -276.03,-220.82 -496.85,-220.82l-1876.96 0c-220.82,-662.46 -883.28,-1159.3 -1656.15,-1159.3 -772.87,0 -1435.33,496.84 -1656.15,1159.3l-1932.17 0c-165.62,0 -386.44,110.41 -496.85,220.82 -110.41,165.62 -165.61,331.23 -110.41,552.05l993.69 3036.28c-607.25,276.02 -993.69,883.27 -993.69,1600.94 0,441.64 165.62,883.28 441.64,1159.3 -2373.81,1435.33 -4029.96,4140.37 -4029.96,7121.44 0,1821.76 828.07,3312.3 2429.02,4140.37zm16616.69 -5520.49c0,331.23 -276.03,607.25 -607.26,607.25l-4802.83 0c-331.23,0 -607.25,-276.02 -607.25,-607.25 0,-331.23 276.02,-607.26 607.25,-607.26l4802.83 0c331.23,0 607.26,276.03 607.26,607.26zm0 2373.81c0,331.23 -276.03,607.25 -607.26,607.25l-4802.83 0c-331.23,0 -607.25,-276.02 -607.25,-607.25 0,-331.23 276.02,-607.26 607.25,-607.26l4802.83 0c331.23,0 607.26,276.03 607.26,607.26zm-607.26 2981.07l-4802.83 0c-331.23,0 -607.25,-276.03 -607.25,-607.26 0,-331.23 276.02,-607.25 607.25,-607.25l4802.83 0c331.23,0 607.26,276.02 607.26,607.25 0,331.23 -276.03,607.26 -607.26,607.26zm607.26 -7728.7c0,331.23 -276.03,607.26 -607.26,607.26l-4802.83 0c-331.23,0 -607.25,-276.03 -607.25,-607.26 0,-331.23 276.02,-607.25 607.25,-607.25l4802.83 0c331.23,0 607.26,276.02 607.26,607.25zm-8943.21 -4140.37l-4692.42 0c0,0 0,0 0,0l0 0c-331.23,0 -607.25,-276.02 -607.25,-607.25 0,-331.23 276.02,-607.26 607.25,-607.26l0 0c0,0 0,0 0,0l4747.63 0c0,0 0,0 0,0l0 0c331.23,0 607.25,276.03 607.25,607.26 -55.2,331.23 -331.23,607.25 -662.46,607.25l0 0c0,0 0,0 0,0zm-3533.11 -4802.83c331.23,0 607.25,-276.02 607.25,-607.25 0,-331.23 276.03,-607.26 607.26,-607.26 331.23,0 607.25,276.03 607.25,607.26l0 1159.3c0,331.23 276.03,607.26 607.26,607.26 331.23,0 607.25,-276.03 607.25,-607.26l0 -552.05 938.48 0 -772.86 2429.02 -3864.35 0 -883.28 -2429.02 1545.74 0zm-1048.9 5962.14l4526.81 0c883.28,386.43 1711.35,938.48 2373.81,1711.35 -331.23,331.23 -496.84,772.87 -496.84,1214.51 0,441.64 165.61,883.28 441.64,1159.3 -276.03,331.23 -441.64,717.67 -441.64,1159.31 0,441.64 165.61,883.28 441.64,1159.3 -276.03,331.23 -441.64,717.66 -441.64,1159.3 0,441.64 165.61,883.28 441.64,1159.31 -276.03,331.23 -441.64,717.66 -441.64,1159.3 0,0 0,0 0,55.21 -993.69,386.43 -2318.61,552.05 -4140.37,552.05 -2208.2,0 -3698.73,-276.03 -4747.63,-828.08 -1214.51,-662.46 -1766.56,-1711.35 -1766.56,-3312.29 -55.2,-2594.64 1711.36,-5244.47 4250.78,-6348.57z"/>
  </g>
 </g>
</svg>
