<?xml version="1.0" encoding="utf-8"?>
<!-- Generator: Adobe Illustrator 23.0.0, SVG Export Plug-In . SVG Version: 6.00 Build 0)  -->
<svg version="1.1" id="Capa_1" xmlns="http://www.w3.org/2000/svg" xmlns:xlink="http://www.w3.org/1999/xlink" x="0px" y="0px"
	 viewBox="0 0 100 100" style="enable-background:new 0 0 100 100;" xml:space="preserve">
<style type="text/css">
	.st0{fill:url(#SVGID_1_);}
	.st1{fill:#FFFFFF;}
</style>
<g>
	<linearGradient id="SVGID_1_" gradientUnits="userSpaceOnUse" x1="-28.0792" y1="139.0112" x2="106.0235" y2="-16.045">
		<stop  offset="0" style="stop-color:#381B91"/>
		<stop  offset="1" style="stop-color:#4E5ED7"/>
	</linearGradient>
	<circle class="st0" cx="49.1" cy="49.7" r="48.9"/>
	<g>
		<path class="st1" d="M68.9,25.5C68.9,25.5,68.9,25.5,68.9,25.5c0.1,13.7,0.1,27.4,0.1,41.1c0.9,0,1.7,0,2.6,0c0,0.9,0,1.8,0,2.6
			c-14.5,0-29,0-43.5,0c0-0.9,0-1.8,0-2.6c0.8,0,1.7,0,2.6,0c0-9.5,0-18.8,0-28.3c0.9,0,1.7,0,2.5,0c0-1.7,0-3.4,0-5.1
			c1.7,0,3.4,0,5.1,0c0-2.6,0-5.2,0-7.8c0.9,0,1.7,0,2.6,0c0,2.6,0,5.2,0,7.8c1.7,0,3.4,0,5.1,0c0,1.7,0,3.4,0,5.1
			c0.9,0,1.7,0,2.6,0c0,2.6,0,5.1,0,7.6c0.9,0,1.7,0,2.5,0c0-4.9,0-9.7,0-14.5c0.1,0,0.3-0.1,0.4-0.1c5.5-1.8,11.1-3.7,16.6-5.5
			C68.3,25.7,68.6,25.6,68.9,25.5z M66.3,66.6c0-12.5,0-25,0-37.5c-0.1,0-0.2,0.1-0.3,0.1c-4.1,1.4-8.1,2.7-12.2,4
			c-0.3,0.1-0.3,0.3-0.3,0.5c0,4.8,0,9.6,0,14.4c0,0.2,0,0.3,0,0.5c-1.7,0-3.4,0-5.1,0c0,6,0,12,0,18c0.8,0,1.7,0,2.5,0
			c0-3.4,0-6.9,0-10.3c4.3,0,8.5,0,12.8,0c0,3.4,0,6.8,0,10.3C64.7,66.6,65.5,66.6,66.3,66.6z M45.9,66.6c0-8.6,0-17.1,0-25.7
			c-4.3,0-8.5,0-12.7,0c0,8.6,0,17.1,0,25.6c0.9,0,1.7,0,2.5,0c0-2.6,0-5.1,0-7.7c2.6,0,5.1,0,7.7,0c0,2.6,0,5.2,0,7.7
			C44.2,66.6,45,66.6,45.9,66.6z M53.6,66.6c0.9,0,1.7,0,2.5,0c0-2.6,0-5.2,0-7.7c-0.8,0-1.7,0-2.5,0C53.6,61.5,53.6,64,53.6,66.6z
			 M61.2,58.9c-0.9,0-1.7,0-2.5,0c0,2.6,0,5.2,0,7.7c0.9,0,1.7,0,2.5,0C61.2,64,61.2,61.5,61.2,58.9z M43.3,35.9c-2.6,0-5.1,0-7.6,0
			c0,0.9,0,1.7,0,2.5c2.6,0,5.1,0,7.6,0C43.3,37.5,43.3,36.7,43.3,35.9z M38.2,61.4c0,1.7,0,3.5,0,5.2c0.9,0,1.7,0,2.5,0
			c0-1.7,0-3.4,0-5.2C39.9,61.4,39.1,61.4,38.2,61.4z"/>
		<path class="st1" d="M63.8,35.9c0,0.9,0,1.7,0,2.5c-2.5,0-5.1,0-7.6,0c0-0.8,0-1.7,0-2.5C58.7,35.9,61.2,35.9,63.8,35.9z"/>
		<path class="st1" d="M63.8,43.5c-2.5,0-5.1,0-7.6,0c0-0.8,0-1.7,0-2.5c2.5,0,5.1,0,7.6,0C63.8,41.8,63.8,42.6,63.8,43.5z"/>
		<path class="st1" d="M56.2,48.6c0-0.8,0-1.7,0-2.5c2.5,0,5.1,0,7.6,0c0,0.8,0,1.6,0,2.5C61.3,48.6,58.7,48.6,56.2,48.6z"/>
		<path class="st1" d="M53.5,53.7c-0.8,0-1.7,0-2.5,0c0-0.8,0-1.7,0-2.5c0.8,0,1.7,0,2.5,0C53.5,52.1,53.5,52.9,53.5,53.7z"/>
		<path class="st1" d="M56.1,53.7c0-0.9,0-1.7,0-2.5c0.8,0,1.7,0,2.5,0c0,0.8,0,1.6,0,2.5C57.8,53.7,57,53.7,56.1,53.7z"/>
		<path class="st1" d="M63.8,53.7c-0.8,0-1.7,0-2.5,0c0-0.8,0-1.7,0-2.5c0.8,0,1.6,0,2.5,0C63.8,52,63.8,52.9,63.8,53.7z"/>
		<path class="st1" d="M38.2,43.5c0,0.8,0,1.7,0,2.5c-0.8,0-1.7,0-2.5,0c0-0.8,0-1.7,0-2.5C36.5,43.5,37.3,43.5,38.2,43.5z"/>
		<path class="st1" d="M40.8,43.5c0.8,0,1.7,0,2.5,0c0,0.8,0,1.7,0,2.5c-0.8,0-1.7,0-2.5,0C40.8,45.2,40.8,44.4,40.8,43.5z"/>
		<path class="st1" d="M38.2,51.2c-0.8,0-1.7,0-2.5,0c0-0.8,0-1.7,0-2.5c0.8,0,1.7,0,2.5,0C38.2,49.5,38.2,50.3,38.2,51.2z"/>
		<path class="st1" d="M40.8,48.6c0.8,0,1.7,0,2.5,0c0,0.8,0,1.7,0,2.5c-0.8,0-1.7,0-2.5,0C40.8,50.3,40.8,49.5,40.8,48.6z"/>
		<path class="st1" d="M38.2,56.3c-0.8,0-1.7,0-2.5,0c0-0.8,0-1.7,0-2.5c0.8,0,1.7,0,2.5,0C38.2,54.6,38.2,55.4,38.2,56.3z"/>
		<path class="st1" d="M40.8,56.3c0-0.8,0-1.7,0-2.5c0.8,0,1.7,0,2.5,0c0,0.8,0,1.6,0,2.5C42.5,56.3,41.7,56.3,40.8,56.3z"/>
	</g>
</g>
</svg>
