<?xml version="1.0" encoding="utf-8"?>
<!-- Generator: Adobe Illustrator 23.0.0, SVG Export Plug-In . SVG Version: 6.00 Build 0)  -->
<svg version="1.1" id="Capa_1" xmlns="http://www.w3.org/2000/svg" xmlns:xlink="http://www.w3.org/1999/xlink" x="0px" y="0px"
	 viewBox="0 0 448 412" style="enable-background:new 0 0 448 412;" xml:space="preserve">
<style type="text/css">
	.st0{opacity:0.15;fill:url(#SVGID_1_);}
	.st1{opacity:0.15;fill:url(#SVGID_2_);}
	.st2{opacity:0.28;fill:#394BB7;}
	.st3{opacity:0.5;fill:#394BB7;}
	.st4{opacity:0.28;fill:#A6B4D1;}
	.st5{opacity:0.28;fill:#4E5ED7;}
	.st6{fill:none;stroke:#381B91;stroke-width:3.4475;stroke-miterlimit:10;stroke-dasharray:3.4475,3.4475;}
	.st7{fill:url(#SVGID_3_);stroke:#381B91;stroke-width:3.8548;stroke-linecap:round;stroke-linejoin:round;stroke-miterlimit:10;}
	.st8{fill:url(#SVGID_4_);stroke:#381B91;stroke-width:3.8548;stroke-linecap:round;stroke-linejoin:round;stroke-miterlimit:10;}
	.st9{fill:url(#SVGID_5_);stroke:#381B91;stroke-width:3.8548;stroke-linecap:round;stroke-linejoin:round;stroke-miterlimit:10;}
	.st10{fill:url(#SVGID_6_);stroke:#381B91;stroke-width:3.8548;stroke-linecap:round;stroke-linejoin:round;stroke-miterlimit:10;}
	.st11{fill:url(#SVGID_7_);stroke:#381B91;stroke-width:3.8548;stroke-linecap:round;stroke-linejoin:round;stroke-miterlimit:10;}
	.st12{fill:#FFFFFF;stroke:#4E5ED7;stroke-width:5;stroke-miterlimit:10;}
	.st13{fill:url(#SVGID_8_);stroke:#FFFFFF;stroke-width:0.8677;stroke-miterlimit:10;}
	.st14{fill:url(#SVGID_9_);stroke:#FFFFFF;stroke-width:0.8677;stroke-miterlimit:10;}
	.st15{fill:url(#SVGID_10_);stroke:#FFFFFF;stroke-width:1.6561;stroke-linecap:round;stroke-linejoin:round;stroke-miterlimit:10;}
	.st16{fill:url(#SVGID_11_);stroke:#FFFFFF;stroke-width:1.6561;stroke-linecap:round;stroke-linejoin:round;stroke-miterlimit:10;}
	.st17{fill:url(#SVGID_12_);stroke:#FFFFFF;stroke-width:1.6561;stroke-linecap:round;stroke-linejoin:round;stroke-miterlimit:10;}
	.st18{fill:url(#SVGID_13_);stroke:#FFFFFF;stroke-width:1.6561;stroke-linecap:round;stroke-linejoin:round;stroke-miterlimit:10;}
	.st19{fill:url(#SVGID_14_);stroke:#FFFFFF;stroke-width:1.6561;stroke-linecap:round;stroke-linejoin:round;stroke-miterlimit:10;}
	.st20{fill:url(#SVGID_15_);stroke:#FFFFFF;stroke-width:1.6561;stroke-linecap:round;stroke-linejoin:round;stroke-miterlimit:10;}
	.st21{fill:url(#SVGID_16_);stroke:#FFFFFF;stroke-width:1.6561;stroke-linecap:round;stroke-linejoin:round;stroke-miterlimit:10;}
	.st22{fill:url(#SVGID_17_);stroke:#FFFFFF;stroke-width:1.6561;stroke-linecap:round;stroke-linejoin:round;stroke-miterlimit:10;}
	.st23{fill:url(#SVGID_18_);stroke:#FFFFFF;stroke-width:1.6561;stroke-linecap:round;stroke-linejoin:round;stroke-miterlimit:10;}
	.st24{fill:url(#SVGID_19_);stroke:#FFFFFF;stroke-width:0.8677;stroke-miterlimit:10;}
	.st25{fill:url(#SVGID_20_);stroke:#FFFFFF;stroke-width:0.8677;stroke-miterlimit:10;}
	.st26{fill:url(#SVGID_21_);stroke:#FFFFFF;stroke-width:1.6561;stroke-linecap:round;stroke-linejoin:round;stroke-miterlimit:10;}
	.st27{fill:url(#SVGID_22_);stroke:#FFFFFF;stroke-width:1.6561;stroke-linecap:round;stroke-linejoin:round;stroke-miterlimit:10;}
	.st28{fill:url(#SVGID_23_);stroke:#FFFFFF;stroke-width:1.6561;stroke-linecap:round;stroke-linejoin:round;stroke-miterlimit:10;}
	.st29{fill:url(#SVGID_24_);stroke:#FFFFFF;stroke-width:1.6561;stroke-linecap:round;stroke-linejoin:round;stroke-miterlimit:10;}
	.st30{fill:url(#SVGID_25_);stroke:#FFFFFF;stroke-width:1.6561;stroke-linecap:round;stroke-linejoin:round;stroke-miterlimit:10;}
	.st31{fill:url(#SVGID_26_);stroke:#FFFFFF;stroke-width:1.6561;stroke-linecap:round;stroke-linejoin:round;stroke-miterlimit:10;}
	.st32{fill:url(#SVGID_27_);stroke:#FFFFFF;stroke-width:1.6561;stroke-linecap:round;stroke-linejoin:round;stroke-miterlimit:10;}
	.st33{fill:url(#SVGID_28_);stroke:#FFFFFF;stroke-width:1.6561;stroke-linecap:round;stroke-linejoin:round;stroke-miterlimit:10;}
	.st34{fill:url(#SVGID_29_);stroke:#FFFFFF;stroke-width:1.6561;stroke-linecap:round;stroke-linejoin:round;stroke-miterlimit:10;}
	.st35{fill:url(#SVGID_30_);stroke:#FFFFFF;stroke-width:0.8677;stroke-miterlimit:10;}
	.st36{fill:url(#SVGID_31_);stroke:#FFFFFF;stroke-width:0.8677;stroke-miterlimit:10;}
	.st37{fill:url(#SVGID_32_);stroke:#FFFFFF;stroke-width:1.6561;stroke-linecap:round;stroke-linejoin:round;stroke-miterlimit:10;}
	.st38{fill:none;stroke:#FFFFFF;stroke-width:1.6561;stroke-linecap:round;stroke-linejoin:round;stroke-miterlimit:10;}
	.st39{fill:url(#SVGID_33_);stroke:#FFFFFF;stroke-width:1.6561;stroke-linecap:round;stroke-linejoin:round;stroke-miterlimit:10;}
	.st40{fill:url(#SVGID_34_);stroke:#FFFFFF;stroke-width:1.6561;stroke-linecap:round;stroke-linejoin:round;stroke-miterlimit:10;}
	.st41{fill:url(#SVGID_35_);stroke:#FFFFFF;stroke-width:1.6561;stroke-linecap:round;stroke-linejoin:round;stroke-miterlimit:10;}
	.st42{fill:url(#SVGID_36_);stroke:#FFFFFF;stroke-width:1.6561;stroke-linecap:round;stroke-linejoin:round;stroke-miterlimit:10;}
	.st43{fill:none;stroke:#4E5ED7;stroke-width:5;stroke-linecap:round;stroke-linejoin:round;stroke-miterlimit:10;}
	.st44{fill:url(#SVGID_37_);}
	.st45{fill:#ABC4FF;}
	.st46{fill:#FFFFFF;}
	.st47{fill:#DEF4FC;}
	.st48{fill:none;stroke:#FFFFFF;stroke-width:2.0737;stroke-linecap:round;stroke-linejoin:round;stroke-miterlimit:10;}
	.st49{fill:url(#SVGID_38_);stroke:#FFFFFF;stroke-width:2.0737;stroke-linecap:round;stroke-linejoin:round;stroke-miterlimit:10;}
	.st50{fill:none;stroke:#4A52CA;stroke-width:6.0784;stroke-linecap:round;stroke-linejoin:round;stroke-miterlimit:10;}
	.st51{fill:none;stroke:#4A52CA;stroke-width:4.5588;stroke-linecap:round;stroke-linejoin:round;stroke-miterlimit:10;}
	.st52{fill:#5BA1E1;}
	.st53{fill:#4E5ED7;stroke:#4A52CA;stroke-width:4.5588;stroke-linecap:round;stroke-linejoin:round;stroke-miterlimit:10;}
	.st54{fill:url(#SVGID_39_);}
	.st55{opacity:0.51;fill:#381B91;}
	.st56{fill:#3C463B;}
	.st57{fill:url(#SVGID_40_);}
	.st58{fill:url(#SVGID_41_);}
	.st59{fill:#0071BC;}
	.st60{fill:#C4804D;}
	.st61{fill:#163F59;}
	.st62{fill:#F9AA69;}
	.st63{fill:#161711;}
	.st64{fill:#323B31;}
	.st65{fill:url(#SVGID_42_);}
	.st66{fill:#B6C2C9;}
	.st67{fill:#879BA6;}
	.st68{fill:url(#SVGID_43_);}
	.st69{fill:url(#SVGID_44_);}
	.st70{fill:url(#SVGID_45_);}
	.st71{fill:url(#SVGID_46_);}
	.st72{fill:url(#SVGID_47_);}
</style>
<g>
	<linearGradient id="SVGID_1_" gradientUnits="userSpaceOnUse" x1="29.0729" y1="64.6706" x2="376.1129" y2="326.0306">
		<stop  offset="0" style="stop-color:#4E5ED7;stop-opacity:0"/>
		<stop  offset="1" style="stop-color:#381B91"/>
	</linearGradient>
	<path class="st0" d="M214.8,23.2c-100,0-181.4,81.4-181.4,181.4c0,100,81.4,181.4,181.4,181.4c100,0,181.4-81.3,181.4-181.4
		C396.1,104.5,314.8,23.2,214.8,23.2z"/>
	<linearGradient id="SVGID_2_" gradientUnits="userSpaceOnUse" x1="99.5765" y1="190.2298" x2="418.5365" y2="229.8298">
		<stop  offset="0" style="stop-color:#4E5ED7;stop-opacity:0"/>
		<stop  offset="1" style="stop-color:#381B91"/>
	</linearGradient>
	<path class="st1" d="M222.7,23.4C283.7,52.6,325.9,115,325.9,187c0,100-81.4,181.4-181.4,181.4c-2.7,0-5.3-0.1-8-0.2
		c23.7,11.4,50.2,17.8,78.3,17.8c100,0,181.4-81.3,181.4-181.4C396.1,107.2,319,27.6,222.7,23.4z"/>
	<g>
		<path class="st2" d="M229.4,296.9c2.3-1.4,6.2-7.2,7.5-8.4c1.3-1.2,2.2-5.6,2.5-6.6c0.3-0.9,2.2-2.5,3-2.7
			c0.7-0.2,3.1-10,5.1-12.1c2.1-2.1,4.5-12.5,4.2-16.2c-0.3-3.7,1.3-10.8,1.8-12.5c0.5-1.7,3.1-4.7,3.9-5.3c0.8-0.6,5.8-8,7.4-10.7
			c1.6-2.7,3.1-8.5,2.8-9.8c-0.3-1.4-3.8-2.3-4.4-1.7c-0.6,0.7-3.9,1.2-4.9,1.2c-1.1,0-3.5-5.6-4.9-6.7c-1.5-1.2-2.8-7.6-3.7-8.8
			c-0.9-1.2-3.3-4.3-4-5c-0.7-0.7-0.9-4.1-1.1-5c-0.2-0.9,1.5,0.6,1.7,2c0.3,1.4,4.1,6.8,5.3,8.7c1.2,1.8,4.3,7.7,5.1,9.5
			c0.8,1.8,7.8,0.9,10-0.2c2.3-1.1,5.1-2.9,5.2-3.5c0.1-0.6,3.7-2.3,4.7-3.1c1-0.8,1.9-5,2.5-5.7c0.7-0.7-0.5-4.7-1.3-5.9
			c-0.7-1.2-4.4-2.1-5.1-1.7c-0.7,0.5-2.3-2.7-2.9-3.8c-0.5-1.2-3.3-2.6-3.6-3.4c-0.3-0.8,0.7-2,1.2-2.3c0.4-0.3,5.5,3.3,7,5.1
			c1.4,1.8,3.1,5.1,3.4,5.6c0.3,0.6,4.3,0.9,5.2,0.2c0.9-0.7,1.9-0.5,2.3,0.4c0,0,0,0,1.3-0.2c4.4-0.7,4.4-0.7,4.4-0.7
			c2.1,2.3,2.7,4.2,2.6,4.7c-0.1,0.4,1.3,2.3,2.1,2.5c0.9,0.2,1.5,3.1,1.7,3.8c0.3,0.7,2.8,5.1,3.3,6.9c0.5,1.8,2.7,5.4,3.2,6.3
			c0.5,1,1,3.7,1,4.5c0,0.7,1.6,2.3,2.6,2.2c1-0.1,3-6.4,3.5-8.8c0.5-2.4,2.1-4.3,2.5-4.3c0.5,0,0.8-1.3,0.8-1.8
			c0-0.5,2.6-0.4,2.8-1.1c0.2-0.6,1-4.8,1.9-5.4c0.9-0.6,4.2-2.8,5.3-3.2c1.1-0.4,4,2.1,4.7,3.3c0.6,1.2,1.2,4.1,1,4.6
			c-0.2,0.5,1.5,3,3.1,3c1.5,0,2,2,2.1,2.7c0.1,0.7,2.1,2.8,2.5,3.7c0.4,0.9,0.3,3.5,0,4c-0.3,0.6-0.1,3.9,0.2,4.8
			c0.3,0.9,5,5.7,6.8,7.2c1.8,1.4,2.6-3,1.7-4.4c-0.9-1.4-4-4.6-4.7-5.5c-0.7-1-0.9-4.8-0.6-5.9c0.3-1.1,2.7,0.6,3.7,1.4
			c1,0.8,2.4,2.5,2.4,3.1c0,0.6,6.4-3,6.6-6.9c0.2-3.9,2.4-8.2,2.6-9.3c0.2-1-0.6-2.4-1.2-2.5c-0.5-0.1,0.9-3,2.8-2.9
			c1.8,0.1,6.1-4.7,7.1-6.6c1-1.9,3.1-3.5,3.3-3.7c0.3-0.2,1.7-4.7,1.9-6.6c0.3-1.9-1-4.8-1.2-5.7c-0.2-1-1.7-3.2-2.1-3.9
			c-0.4-0.7-0.8-3.3-0.5-3.8c0.2-0.5,1.8-1,2-1.4c0.2-0.4,2-2.4,1.9-3.3c-0.1-0.8,1.1,1.1,2,1.8c0.8,0.7,1.7,5.3,2.8,5.8
			c1,0.5,5.3-4.9,4.8-8.4c-0.5-3.5,1.2-8,2.2-8.4c0.8-0.3,2.8-3.1,4.1-5.1c-9.3-26.9-24.7-50.9-44.6-70.4c-0.2,0-0.5,0-0.7,0
			c-1.6-0.3-1.6-0.3-1.6-0.3c-2.6-0.6-4.1-3.4-3.7-4c0.1-0.2,0.1-0.7,0-1.2c-1.5-1.3-3-2.6-4.4-3.9c-1.2,0-2.5,0-3.3,0
			c-1.6-0.1-4.9-1.2-5.5-1.8c-0.6-0.6-2.6,0.5-2.8,1.7c-0.1,1.1-3.7,1.6-4,2.5c-0.4,0.9-2.2,0.9-2.5,0.4c-0.4-0.5-3.7,1.2-5.3,1.4
			c-1.6,0.2-4.7,1.6-5.4,1.9c-0.7,0.3-2.5,2-2.7,2.7c-0.3,0.7-2.4,1.9-3,2.2c-0.7,0.3-0.5,3.3,0.3,3.8c0.9,0.4-1.6-0.4-2.7-0.9
			c-1.1-0.6-2.3,1.3-2.7,1.9c-0.4,0.6-1.4-0.4-1.3-1.3c0-0.9-2.7-1.6-3.1-0.9c-0.4,0.7-2.3-0.2-3.1-0.6c-0.8-0.4-4.2,3.1-5.5,4.4
			c-1.3,1.3-7.3,2.3-8.5,1.8c-1.1-0.5-2.2,2.7-1.3,2.9c1,0.2-2.5-0.2-4.3,0c-1.9,0.2-7.4,2.4-8.7,3.3c-1.3,1-2.4-0.2-2.4-0.9
			c0-0.7-2.1-1.4-2.7-1.6c-0.6-0.2-1.8,4.1-2.9,4.9c-1.1,0.8-2.4-3.3-5-4c-2.5-0.7-6.5-3.2-7.7-3.4c-1.1-0.3-3.4-2.7-4.1-3.4
			c-0.6-0.7-3.9-1.3-4.9-1.3c-1,0-4.4,1.9-5.3,2.7c-0.9,0.8-2.3,0.6-2.7,0.9c-0.5,0.3-4.3,4-5.7,5.2c-1.5,1.2-4.1,6.2-4.9,7.4
			c-0.9,1.2-2.1,1.4-2.6,1.5c-0.5,0-0.9,1.4-0.9,1.9c0,0.5-4.4,2.8-4.8,4.8c-0.5,2,0.4,6.5,0.4,8.2c0,1.6,1.6,4.8,2.8,4.9
			c1.2,0,0.6,2.8,0.3,3.5c-0.3,0.8,0.8,1.6,0.7,2.2c0,0.6-3.1,1.5-4,1.9c-0.9,0.3-2.5,2.5-2.7,3.3c-0.2,0.7-3.1,1.2-4.1,2.1
			c0.2-0.7,0.6-1.6,0.8-2.1c0.6-1.1-0.2-2.9-0.7-3.3c-0.4-0.4-0.7-5.7-1.4-6.8c-0.7-1.1-2.6-3-3-3.4c-0.5-0.3,0.3-1.7,0.6-2.4
			c0.2-0.6-2.5-0.9-3.2-0.5c-0.8,0.4-1.2,5.6-1.5,7.1c-0.3,1.4,1.4,3.6,1.8,3.7c0.5,0.1,0.3,2.7-0.6,2.8c-1,0.1-1.9,3.9-1.4,4.7
			c0.5,0.9-0.7,2.5-1.2,2.9c-0.6,0.4,3.7,0.2,5.6,0.1c1.9,0,3.4,0.8,3.2,1c-0.2,0.2-3.7,0.7-4.3,1.5c-0.6,0.8-3,2.4-3.4,3.1
			c-0.5,0.6,0.8,2.1,1.8,2c1-0.1,2.1,3.5,2.9,4.1c0.8,0.7,0.5,2.5,0.2,3c-0.4,0.5-5.1-0.4-6.9,0.1c-1.8,0.5-4.1,4.2-4.2,5.7
			c-0.2,1.5,0.3,5.6,0.5,6.7c0.2,1.1,4,1.8,4.7,2.4c0.8,0.5,4.4,0,5.1,0.4c0.7,0.3,3.2-3.6,3.7-5.5c0.5-1.9,4.3-5.3,5.1-6.5
			c0.8-1.2,4.9-1.1,5.9-1.8c1-0.6,0.5,3.1,0.9,5.2c0.5,2.1,4.4,1.8,3.9-0.1c-0.6-1.9,0.4-2.8,0.5-2.1c0.2,0.7,4,2.2,4.7,3.4
			c0.7,1.1,0.5,3.4-0.3,3.4c-0.9,0-0.9,2.6,0,2.9c0.9,0.3,2.1-2.9,3-3.4c1-0.5,1.8-2.5,1.3-2.6c-0.4-0.2,0.8-2,1.4-1.4
			c0.5,0.6-2-3.9-3.7-5.5c-1.6-1.6-0.5-0.9,2.5,1.6c0,0,0,0,2.1,2.9c0.4,0.5,1,2.1,1.3,2.7c0.5,0.9,0.5,0.9,0.5,0.9
			c0.4,1,0.8,3.8,0.8,4.6c0,0.8,1.6,2.3,2.6,2.2c1-0.1,1.7,0.5,1.6,0.5c-0.2,0,0.7,2,1.6,2c1,0,1.4-2.5,0.4-2.6
			c-1-0.1-0.8-3.7-1-5.3c-0.1-1.6,0.7-2.9,1.1-2.9c0.3,0,0,3.3,0,4.1c0,0.7,0.4,2.2,0.9,3.3c0,0,0,0,1,0.8c2.3,1.8,2.3,1.8,2.3,1.8
			c3.3-1,7.7-0.2,7.5,0.4c-0.2,0.7,2.4,0.8,2.6-0.2c0.2-1.1,0.3,0,0.3,0.8c0,0.7-2.1,3.7-2.5,5c-0.4,1.4-8,0.5-11.2,0.2
			c-3.3-0.3-8.1,0.8-8.5,1.8c-0.3,1-5.4-2.2-7.8-3.2c-2.3-1-4.2-4.5-4.6-5c-0.5-0.5,0.4-1.6,0.2-2.3c-0.2-0.7-5.6-0.9-7.1-0.3
			c-1.5,0.6-9.5,1.4-11.4,2.2c-1.9,0.9-4.8,0-5.6-0.2c-0.9-0.2-3,2.5-4.1,2.9c-1.1,0.5-2.4,4.2-3,8.2c0,0,0,0-1.5,2.8
			c-0.9,1.8-0.9,1.8-0.9,1.8c-2.6,2-5.5,8.7-6.4,10c-0.9,1.3-1.5,11-1.5,14.2c0,3.3,2.8,10.1,3.6,12c0.8,1.9,5.7,6.1,7.3,7.1
			c1.6,1,6.9,1.1,8.7,1.1c1.7,0,3.7-1.6,4.4-3.7c0,0,0,0,2.6,0.3c1.2,0.1,1.2,0.1,1.2,0.1c0,1.4,3.8,2.6,4.7,3
			c0.9,0.5,3.4,0.1,4.1-0.1c0.7-0.2,1.6,6.4,1,8.4c-0.5,1.9,1.3,8.7,1.8,10.7c0.6,2,2.9,7.6,3.1,9.6c0.2,2-1.4,8.6-1.6,10.9
			c-0.3,2.3,2.9,8.8,3.7,11.1c0.8,2.2,1.5,7,1.5,8.1c0,1.1,3.4,7.8,4.2,10.6C218.4,297.5,227.1,298.2,229.4,296.9z"/>
		<path class="st3" d="M388.7,253.4c-2.4,0.1-5.5,1.2-5.5,2c0,0.8-3.3,2.3-4.5,2.7c-1.1,0.4-3.2,3.8-3.7,4.9
			c-0.5,1.1-3.1,0.8-4.2,1.2c-1,0.5-3,2.1-3,3.1c0,1-0.6,0.9-1.2-0.3c0,0,0,0-1.3,1.4c-1.6,1.7-1.6,1.7-1.6,1.7
			c-0.9,2.8-3.8,6.3-4.9,6.6c-1,0.3-1.2,5.2-1.2,7.1c0,2,0.8,4.4,1.7,5.4c0,0,0,0,0.2,1.6c0.4,3.1,0.4,3.1,0.4,3.1
			c-0.5,2.4,1.3,4.6,1.8,5c0.5,0.4,5-0.8,6.7-1.2c0.7-0.2,1.6-0.6,2.4-1c8-13.4,14.3-28,18.7-43.3
			C389.4,253.4,389,253.4,388.7,253.4z"/>
		<path class="st4" d="M89.3,258.1c-0.2,0.5,3,3.8,4.3,5c1.2,1.1,3.9,6.6,4.4,8.4c0.5,1.8,0.2,4.7,0.1,5.4c-0.2,0.7,0.6,2.2,0.7,2.8
			c0.1,0.6-1.1,6-0.6,8.1c0.5,2.1-2.5,8.8-2.5,12.1c0.1,3.3,1.6,7.7,2.2,7.4c0.6-0.3,0.8,3-0.2,3.4c-1,0.4-2.2,3.1-1.6,3.2
			c0.6,0.1,0,2.8,0.1,3.8c0.1,1.1,1,8,1.2,9.7c0.2,1.7,2.6,5.9,3.2,7.3c0.5,1.4,1,4.1,1.3,4.5c0.2,0.4,0.5,0.8,0.5,0.9
			c0,0,2,0.7,2.6,1.2c0.6,0.4,4.5,0.1,5.7-0.1c1.3-0.2,0.1-1.4-0.5-2c-0.6-0.6-1.1-3.7-1.7-4c-0.6-0.3-0.9-4.2-0.4-5.1
			c0.6-0.9,2.9-2.2,3.2-3c0.2-0.7,0.3-4.1-0.3-4.6c-0.6-0.5,0.2-4.6-0.3-6.6c-0.5-2,3.6-3.9,3.8-5.5c0.2-1.6,4.6-3.4,5.6-4.2
			c1-0.8,1.8-5.5,1.4-6.5c-0.5-1,1.6-1.8,2.5-1.8c0.9,0,2-0.7,2.3-0.7c0.4,0,1.5-2.1,2.1-2.5c0.6-0.5,1.8-5.4,2.9-6.2
			c1.1-0.8,2-3.8,2-4.7c0-0.9,1.6-3.5,2.2-4.2c0.5-0.8,4.6-2.6,5.4-3c0.7-0.3,1.8-6.8,2.1-9.2c0.3-2.4,1.5-5.5,1.6-6.3
			c0.1-0.8,1.4-1.4,1.6-1.7c0.3-0.3,1.2-3.2,1.9-3.9c0.6-0.7,2.9-3.5,2.9-4.2c0-0.6,0.4-2.3,0.7-3.6c0,0,0,0,0-1.6
			c0-2.5,0-2.5,0-2.5c-0.7-2-2.9-4.4-3.5-3.9c-0.6,0.5-3.1-1.7-4.4-2.2c-1.3-0.5-4.5-0.9-5.3-0.9c-0.8,0-3.6-2.3-4.9-2.7
			c-1.2-0.4-4.5-1-5-1.4c-0.6-0.4-1.4-5.1-3.9-6.7c-2.6-1.6-7.1-5.2-7.6-6.5c-0.5-1.3-5.5-4.1-7-5c-1.5-0.8-3.8-1-4.1-0.7
			c-0.3,0.3-2.2-2.6-3.2-3.4c-1-0.8-4-1.5-4.1-0.8c-0.1,0.8-2.1,0.4-2.6-0.3c-0.4-0.6-2,0.2-2.7,0.5c-0.7,0.2-3.2,4-4.3,4.9
			c-1.1,0.9-2.5-0.9-3.2-1.2c-0.7-0.3-3.6,0.6-4.4,1.1c-0.8,0.5-2.6-4-2.1-6.1c0.4-2.1-1.9-6.2-3.6-6.3c-1.8-0.1-2.3-4.5-2-6.1
			c0.4-1.6-3.2-2.6-4.1-2.7c-0.9-0.1-3.1,2.2-3.5,3.2c-0.4,1.1-8.4-1.5-7.5-6.3c0.9-4.8,4.7-9.8,5.7-10.4c0.9-0.6,6.1-0.9,7.2-0.2
			c1.1,0.7,2.2,0,2.4-0.3c0.2-0.3,4.4,0,5.7,0.6c1.2,0.5,3.1,5.4,4.3,6c1.3,0.6,1.8-3.1,2-4c0.2-0.9-0.6-3.2-0.9-3.9
			c-0.3-0.6,2.1-6.5,4.1-7.5c2-1,4-4.3,3.9-4.9c-0.2-0.6,1.6-1,2-1.3c0.5-0.2-0.1-5,0.7-6c0.8-1,4.5-3.2,5.6-3.7
			c1.2-0.5,2-3.5,1.6-4c-0.4-0.5,3-3.5,4.8-4c1.8-0.5,3.3,1,2.9,1.3c0.4-0.2,2.8-1.5,3.9-2.2c1.2-0.8,0-3-0.8-3.7
			c-0.8-0.6-0.3-3.2,0.6-3.5c1-0.2,1.8-2.5,1.5-3c-0.3-0.5,3.9,0.4,5.5-0.8c1.6-1.2,0.5,2.8-0.7,4.5c-1.2,1.6,0.9,3.1,1.6,2.8
			c0.8-0.3,1.5,0.9,1.7,1.3c0.1,0.4,1.8-0.5,2.8,0c1,0.5,1.7-1.4,1.8-2.3c0.1-0.9-2.5-2.7-2.9-3.8c-0.4-1.1-0.6-7.2-0.6-8.5
			c-0.1-1.3-1.7-3.3-2.3-2.9c-0.5,0.3-1.6-3.3-2.5-4.1c-0.9-0.8-1.1-2.5-1-3.1c0-0.6-3-3.7-3.7-5.2c-0.7-1.5-1.7-1.2-1.8-0.5
			c-0.1,0.7-2.2,0.8-3,0.7c-0.9-0.1-1.6-3.4-1.6-4.7c0-1.2-3.9-1.5-4.5-2.5c-0.6-1-3.2-0.5-3.6-1.2c-0.4-0.7-2.6-1.3-3.1-1.1
			c-0.5,0.3-0.3,9.3-0.7,11.7c-0.5,2.4-2.5,4.6-3.3,4.5c-0.7,0-0.3,1.7,0.2,1.6c0.5-0.2-1.5,2.7-1.7,4.5c-0.3,1.8-2.2-0.1-2.4-1.8
			c-0.3-1.7-2.1-3.9-2.5-3.4c-0.4,0.6-1.6-0.7-2.2-0.3c-0.5,0.4-4-2-5.4-2.8c-1.4-0.7-2.2-5-3-5.4c-0.8-0.4-0.1-0.9-0.1-1.5
			c0-0.6,2.7-3.1,3.5-4.1c0.8-1,3.8-4.9,5-5.7c1.2-0.8,2.1-3.1,1.9-3.5c-0.2-0.4,5.1-2.1,6.5-2.6c1.4-0.5,2.7-4.5,2.9-5.6
			c0.2-1.1-0.9-3.3-1.5-3.6c-0.7-0.3,2-0.4,2.9,0.1c0.9,0.4,3.6-0.8,4.7-0.2c1.1,0.6,3.3,1.9,4.8,2.9c0,0,0,0-0.3,2.9
			c-0.6,5-0.6,5-0.6,5c-4.2,1.7-5.4,4.7-3.9,4.7c1.5-0.1,8.1,2.9,10,4.3c1.9,1.3,2.5-2,3-3.1c0.6-1.1,0.4-4.3-0.1-4.9
			c-0.5-0.6,2.2-0.4,2.9,0.3c0.8,0.7,1.6-0.7,2.2-1c0.6-0.3,0.8-3,1.2-3.5c0.3-0.6-1.3-1.1-1.3-1.8c-0.1-0.7-3.1-2-4-2.5
			c-1-0.5-1.2-2.5-0.7-2.9c0.5-0.4-0.3-3-0.8-3.9c-0.4-0.9-3.6-1.6-4.6-1.6c-1,0-2.1-2.4-2.7-2.8c-0.6-0.3-4.6-0.8-5.6-0.5
			c-1,0.3-2.8-2.8-4.5-1.9c-1.7,1-3.4-1.1-4.2-1.5c-0.8-0.4-4.7,3.8-4.7,6.8c0.1,3,1.5,5.8,2.2,5.9c0.6,0.1-0.1,2.8-0.8,3.5
			c-0.7,0.7-2.3-0.8-1.7-1.5c0.6-0.7-1.7-3.8-2.5-5c-0.6-0.9-2.6-1.7-4-2.3c-0.8,0.9-1.6,1.8-2.4,2.7c0.3,1.1,0.7,2.5,0.3,3.5
			c-0.6,1.8-2.1,2.1-2.2,1.3c0-0.4-0.8-0.6-1.7-0.7c-22,26.3-36.6,59-40.8,94.8c0.9,1,1.9,2.2,2.1,3c0.5,1.6,3.3,2.6,3.8,3
			c0.5,0.3,0.7-3.1,0.3-3.9c-0.4-0.9,0.7-1.4,0.7-0.8c0,0.7,2.6,3.6,3.5,4.7c0.9,1.1,1.8,8,2.6,9.5c0.8,1.5,8.8,4.6,11.4,5.1
			c2.6,0.5,5.8,3.4,6.3,4.2c0.5,0.8,3.9,1.3,4.6,1.6c0.8,0.3,2.5,2.7,3.2,3.1c0.7,0.5,1.3,1.9,1.3,2.2c0,0.4,4.5,2.1,5.6,3.3
			c1.1,1.2,2.9,0.9,3.2,0.4c0.3-0.5,1.2,2.4,1.7,3.4c0.5,1,0.6,3.5,0.2,3.9c-0.4,0.4-1,4.9-1.8,5.8c-0.8,0.9-2.4,7.5-2,8.8
			c0.3,1.3,2.5,4,3.4,4.4c0.9,0.4,0.5,1.8-0.2,1.9c-0.7,0.1-0.4,6.4,1.3,7.3C88.1,254.8,89.5,257.6,89.3,258.1z"/>
		<path class="st4" d="M110.6,147.6L110.6,147.6C110.6,147.6,110.6,147.7,110.6,147.6z"/>
		<path class="st4" d="M98.2,71.1c2.2-0.4,5.8-1,6-1.6c0.2-0.5,0.2-2-0.2-2.5c0.3,0,0.7,0,1.1,0c0.8,0,2.2-4.5,3.1-5.6
			c0.9-1.1,5.8-2.6,7-3.3c1.2-0.7,3.8-3.2,4.8-3.5c1-0.3,2.5-2.6,2.2-3.1c-0.2-0.5,3.4-2.6,4.7-3.2c1.4-0.6,2.1-2.2,1.5-2.3
			c-0.3,0-7.9,4-14.8,7.9c-7.9,5.4-15.4,11.4-22.3,17.9C93.5,71.8,96.8,71.4,98.2,71.1z"/>
		<path class="st3" d="M378.9,214.5c0.2,0.5,2.4-1.3,3.7-1.4c1.3-0.2,2.1-3.7,1.1-4c-1-0.3-2.3-3-3.1-3.3c-0.7-0.3-2.2,1.2-2.1,2.2
			c0,1.1-2.4,1.5-2.8,2.4c-0.4,0.9-0.4,1.5,0.1,1.4C376.3,211.8,378.7,214,378.9,214.5z"/>
		<path class="st3" d="M376.2,233.6c0.6-0.2-0.1-3.7-1.4-4c-1.4-0.3-5.1,4.6-4.4,7.4c0.7,2.8,1.5,2.6,1.9,2c0.4-0.6,2.6,0.4,3.3,0.6
			c0.7,0.2,0.7-0.5,0-1.5C374.9,237,375.6,233.8,376.2,233.6z"/>
		<path class="st3" d="M368.8,230.2c0.2-1.2,0.4-5.1,0.6-5.9c0.2-0.8-2.1-3-3.3-3.4c-1.1-0.4-4.8,7.5-7.4,8.9
			c-2.6,1.4-3.6,6.3-2.9,7.4c0.7,1.1,6.2,1.7,7.1,2.6c1,0.8,2-0.1,2.6-0.3c0.6-0.1,0.4-0.5,0.2-0.6c-0.2-0.1,1.9-2.4,2.2-3.8
			C368.3,233.6,368.7,231.4,368.8,230.2z"/>
		<path class="st3" d="M353.9,243.4c-2.1-0.8-4.5,0.4-4.7,1.2c-0.2,0.8,7.9,2.1,10.6,2.8c2.7,0.7,4.4,1,3.7,0.5
			C363,247.5,356,244.2,353.9,243.4z"/>
		<path class="st3" d="M370.4,190.6c0.7-0.9-0.9-5.1-1.7-4.2c-0.8,0.9-0.2,3.4,0,4.3C369,191.6,369.7,191.5,370.4,190.6z"/>
		<path class="st3" d="M375.3,199.7c0.5-1.1-0.6-2.3-2.4-2.7c-1.7-0.4-1.5,4.9-0.7,5.6C373,203.3,374.8,200.8,375.3,199.7z"/>
		<path class="st3" d="M384.4,232.4c2.1,1.5,6.8,0.8,6.9-2.1C389.2,229.1,384.2,229.3,384.4,232.4z"/>
		<path class="st3" d="M383.3,167.7c-0.9,0.6-1.3,2.2-1.1,2.8c-0.1,0-0.2,0-0.4,0c-0.7,0-0.8,2.8,0,3.2c0.7,0.5,2.5-2.2,3.4-2.8
			c0.9-0.6,2.8-1,3.1-0.8c0.3,0.2,1.9-0.3,3.6-1.1c0.3-0.1,0.7-0.6,1-1.2c-0.4-2-0.9-4-1.4-6c-0.9,0.6-1.9,1.3-2.3,1.7
			C388.3,164.4,384.4,166.9,383.3,167.7z"/>
		<path class="st4" d="M335.3,223.4C335.3,223.4,335.3,223.4,335.3,223.4C335,223.1,334.9,223.1,335.3,223.4z"/>
		<path class="st2" d="M348.4,235.6c-0.8-1.7-3.3-4.6-5.6-6.5c0,0,0,0-0.9-1.4c-0.9-1.6-0.9-1.6-0.9-1.6c-0.9-1.7-3.5-3.1-3.7-3.6
			c-0.2-0.5-1,1.5-1.9,0.9c0.5,0.3,1.4,1,2.8,2c2.4,1.8,7.1,13.6,8.2,14.4C347.4,240.6,349.1,237.3,348.4,235.6z"/>
		<path class="st4" d="M311,216.5c-0.7,1.3,3.5,4.2,3.8,3.5c0.3-0.7-0.5-3.9-1.3-4.7C312.7,214.7,311.6,215.2,311,216.5z"/>
		<path class="st4" d="M256.2,279.6c0.2,1.4,3,2.5,3.8,2.3c0.8-0.2,3.1-4.5,3.5-5.7c0.3-1.2,0.6-3.8,0.6-4.5c0-0.6,0.4-2,0.7-2.2
			c0.3-0.2,0.8-1.6,1.2-3.2c0.3-1.6-1.7-9-1.8-10.4c0-1.3-1.5,0.7-1.9,2c-0.4,1.3-4.1,4-4.9,5.2c-0.8,1.1-1.7,4.9-1.4,5.6
			c0.3,0.6-0.3,3.2-0.7,4C254.8,273.3,256,278.2,256.2,279.6z"/>
		<path class="st4" d="M122.4,331.1c0.8,0,1.6,0,2.5,0C125.4,328.4,122.3,328.9,122.4,331.1z"/>
		<path class="st4" d="M188.9,50.5c-1.1,0.1-3.8-0.4-4.2-0.9c-0.5-0.5-4.5-0.9-5.7-0.4c-1.2,0.5-0.3-2.9,1.3-3.2
			c1.6-0.3,0.2-2.6-1.5-2.7c-1.7,0-6-0.6-7-0.4c-1,0.2-3-0.7-3.7-0.8c-0.7-0.1-5.9,1.5-8.3,1.4c-2.4-0.1-8.4,0.1-9.7,0.5
			c-1.3,0.3-2.3,2.9-2.1,3.8c0.2,0.9-5.8,0.9-7.6,0.9c-1.9,0-11.9,2.2-14.5,3.6c-2.6,1.4-4.6,5.1-3.8,5.2c0.9,0-1.4,2.1-2.9,2.6
			c-1.4,0.5-4.7,0.7-5.5,1.5c-0.8,0.8,0.8,1.3,1.1,1.9c0.3,0.5,1.3-0.5,2.1,0.1c0.9,0.5,3.8,0.7,4.5,1c0.8,0.3-2.5,0.9-4,1
			c-1.5,0.1-1.2,3.1,0,3.5c1.3,0.4,4.5,0.9,4.8,0.3c0.3-0.5,3.8,0.6,5.4,0.7c1.6,0.2,2.8,4.1,3.2,4.9c0.5,0.9,0.6,3.9,0.5,4.7
			c-0.1,0.9,2.8,2.5,3.3,1.9c0.5-0.5,0.4,1.4-0.8,1.3c-1.2-0.1-0.4,3.2,1,3.7c1.4,0.5,0.5,2.5-0.4,3.1c-0.8,0.6-0.4,2.6-1.2,3.3
			c-0.8,0.7,3,7.3,2.9,10.7c0,3.4,2.1,6.2,2.9,6.2c0.8,0,3.6,0.7,4,1.4c0.4,0.7,1.7-0.5,2.3-1.1c0.5-0.5,1.7-2.2,2.5-3.6
			c0.9-1.4,2.8-8.3,3-9c0.3-0.7,3.5-0.3,4.2-0.6c0.7-0.4,2.8-2,3.4-2.5c0.6-0.5,5.2-2.4,6.4-3.3c1.2-0.9,3.3-4.8,4.3-5.6
			c1-0.8-0.5-0.6-1.7-1.4c-1.2-0.8-0.7-1.8-0.3-2.1c0.4-0.4,4,0.6,5.3,1.1c1.3,0.5,3.7-1.3,2.8-1.9c-0.9-0.7-0.4-0.7,0-0.4
			c0.5,0.3,0.9-2.2,0.4-2.7c-0.5-0.5,3.7-3.6,3-6.5c-0.7-2.9,1.2-5.9,2.3-5.9c1.1-0.1,0.8-3.3-0.6-3.6c-1.3-0.3-0.1-0.6,0.4-1.1
			c0.5-0.5,1.1-3.4,0.9-3.9c-0.3-0.5,2.1-1.2,2.5-1.8c0.4-0.7,3.2-2,4.1-2.2C189.4,52.9,189.9,50.4,188.9,50.5z"/>
		<path class="st4" d="M212.5,52.9c-1.3-0.4-3.9,1-3.6,1.8c0.3,0.8-2.1-1.1-3.8-0.2c-1.7,0.9-2.2,3.9-1.4,4.3
			c0.8,0.4,1.4,2.8,1.4,3.2c0,0.5,3.3,0.1,4.2-0.6c0.8-0.7,0.7,2.4-0.1,3.3c-0.8,0.8,0.3,2.5,1.2,2.7c0.9,0.1,2.2,2.3,3.1,2.3
			c1,0,2.6-3.7,2.9-5.1c0.4-1.4,3.5-0.3,5,0.2c1.4,0.4,2-5.1,0.4-5.9c-1.6-0.8-3.5-0.4-4.2-1c-0.7-0.6-1.8-1.2-2.5-1.3
			C214.5,56.6,213.8,53.3,212.5,52.9z"/>
		<path class="st4" d="M225.2,55.5c2.5,0.4,5.4-1.7,6.1-2.3c0.6-0.6-7.1-2.2-10-2.3c-3-0.1-5.3,0.3-5.3,0.9
			C216,52.4,222.6,55.2,225.2,55.5z"/>
		<path class="st4" d="M178.5,124.7c-0.7-0.3-1,2.2-0.9,3.2c0.1,1,2.5,0.9,3.5,0.7c1-0.1,1.8-1,1.7-1.8c0-0.8-1.5-4.6-2-4.6
			C180.3,122.2,179.2,125,178.5,124.7z"/>
		<path class="st4" d="M186.1,95.3c-0.5-0.9-4.5-0.8-5.5-0.9c-1,0-4-1-4.6-1.7c-0.6-0.6-1,2.5-1.9,2.9c-0.9,0.4,0.4,1,0.8,0.7
			c0.4-0.3,0,1.6-0.4,2.3c-0.4,0.7,2.7,1.1,3,2.1c0.3,1,1.6,1.6,2.8,1.4c1.2-0.2,3.6-1.4,4.5-1.5C185.7,100.5,186.6,96.2,186.1,95.3
			z"/>
		<path class="st4" d="M270.4,72.3c1.4-1.4,7.1-3.3,7.7-4.7c0.7-1.4-0.4-2.6-1-2.6c-0.6,0-1.3,0.7-1.4,0.9c-0.1,0.2-6.6,1.8-8.6,2.7
			c-2,1-4.3,2.4-5.2,3.3c-0.8,0.8-2.2,7.3-2.7,8c-0.5,0.7,2.2,3.4,3.3,4.1c1.2,0.7,2.8,0.3,3.2,0.2c0.5-0.1-0.6-4.6-1.2-6.2
			C263.9,76.5,269,73.7,270.4,72.3z"/>
		<path class="st4" d="M263.4,55.5c2.2,2.1,3.3-0.9,5.7-0.6C269.1,50.5,263.2,52,263.4,55.5z"/>
		<path class="st3" d="M305.1,56.3c-0.1,0.8,5.9,1.4,7.7,1.1c1.8-0.3-0.4-3-2.9-2.9C307.3,54.7,305.1,55.5,305.1,56.3z"/>
		<path class="st4" d="M88.1,100.7c-0.6,0.6-0.1,3.5,1.1,3.6c1.2,0.1,3.1-4.4,4.6-3.5c1.5,0.9,2.5,1.3,2.2,0.8
			c-0.2-0.5-4.4-2.3-4.9-2.6C90.6,98.6,88.7,100.2,88.1,100.7z"/>
		<path class="st4" d="M103.4,200.2c0,0.5,2.6,0.4,3-0.4c0.4-0.8,0.2-1.4-0.5-1.4C105.3,198.4,103.4,199.7,103.4,200.2z"/>
		<path class="st4" d="M91.8,195.9c1.3-0.2,0.6,1.8,1,2.5c0.3,0.7,3.3,1.3,3.9,1.8c0.6,0.5,2.1-0.9,3.3-0.8c1.2,0.2-0.4-4.1-2.4-4
			c-2,0.2-3.6-1.8-4.1-2c-0.5-0.2-2.8-1.6-3.5-2.2c-0.7-0.5-5.8-1-7.5-1c-1.7,0-3.6,1.8-3.9,2.3c-0.3,0.6,2.8,1,3.6,0.5
			c0.8-0.5,4.9,0.5,5.7,1.5C88.8,195.6,90.5,196.2,91.8,195.9z"/>
		<path class="st4" d="M86.3,200.2c0,0.5,2.6,0.2,3.3,0.2c0.6,0,0.6-0.4-0.1-1C88.9,199,86.3,199.7,86.3,200.2z"/>
		<path class="st4" d="M88.2,186.7c-0.7-0.3-1.2,0.8-1.2,1.3c0,0.5,0.4,0.9,0.8,0.9C88.3,188.9,88.9,186.9,88.2,186.7z"/>
		<path class="st4" d="M93.7,187.1c-0.2-0.5-1.4-0.9-1.7-0.9c-0.3,0-0.6,0.9-0.5,1.9C91.6,189.2,94,187.6,93.7,187.1z"/>
		<path class="st4" d="M97.7,193.2c1.1-0.5,1.2-1.8,0.6-1.7c-0.6,0.1-1.8-1.8-2.5-2.1c-0.7-0.3-1.3,1.1-1.3,1.7
			c0,0.6,0.4,1.1,0.9,0.9C95.9,192,96.6,193.7,97.7,193.2z"/>
		<path class="st3" d="M392.3,234.6c-0.5,0.3-3.2,0.6-3.6,0.1c-0.3-0.5-0.9,1.1-1.4,1.3c-0.5,0.3-0.2,1.7,0.6,1.2
			c0.6-0.3,3.1,1.1,5.2,2.4c0.4-2,0.8-4.1,1.1-6.1C393.4,233.9,392.7,234.5,392.3,234.6z"/>
		<path class="st5" d="M104.3,67.4c-0.2-0.2-0.9,0.4-0.6,0.7C103.8,68.4,104.6,67.8,104.3,67.4z"/>
		<path class="st5" d="M124.4,127.3c-0.1-0.2-0.9,0.4-0.6,0.7C123.9,128.2,124.7,127.7,124.4,127.3z"/>
		<path class="st2" d="M342,74.6c-0.2,0-0.5,0-0.7,0c-1.6-0.3-1.6-0.3-1.6-0.3c-2.6-0.6-4.1-3.4-3.7-4c0.1-0.2,0.1-0.7,0-1.2
			c-1.5-1.3-3-2.6-4.4-3.9c-1.2,0-2.5,0-3.3,0c-1.6-0.1-4.9-1.2-5.5-1.8c-0.6-0.6-2.6,0.5-2.8,1.7c-0.1,1.1-3.7,1.6-4,2.5
			c-0.4,0.9-2.2,0.9-2.5,0.4c-0.4-0.5-3.7,1.2-5.3,1.4c-1.6,0.2-4.7,1.6-5.4,1.9c-0.7,0.3-2.5,2-2.7,2.7c-0.3,0.7-2.4,1.9-3,2.2
			c-0.7,0.3-0.5,3.3,0.3,3.8c0.9,0.4-1.6-0.4-2.7-0.9c-1-0.5-2.1,0.9-2.5,1.7c21.5,29.8,34.3,66.4,34.3,105.9c0,2.5-0.1,5-0.2,7.5
			c1.3,0.7,2.8,2.1,3.2,2.9c0.6,1.2,1.2,4.1,1,4.6c-0.2,0.5,1.5,3,3.1,3c1.5,0,2,2,2.1,2.7c0.1,0.7,2.1,2.8,2.5,3.7
			c0.4,0.9,0.3,3.5,0,4c-0.3,0.6-0.1,3.9,0.2,4.8c0.3,0.9,5,5.7,6.8,7.2c1.8,1.4,2.6-3,1.7-4.4c-0.9-1.4-4-4.6-4.7-5.5
			c-0.7-1-0.9-4.8-0.6-5.9c0.3-1.1,2.7,0.6,3.7,1.4c1,0.8,2.4,2.5,2.4,3.1c0,0.6,6.4-3,6.6-6.9c0.2-3.9,2.4-8.2,2.6-9.3
			c0.2-1-0.6-2.4-1.2-2.5c-0.5-0.1,0.9-3,2.8-2.9c1.8,0.1,6.1-4.7,7.1-6.6c1-1.9,3.1-3.5,3.3-3.7c0.3-0.2,1.7-4.7,1.9-6.6
			c0.3-1.9-1-4.8-1.2-5.7c-0.2-1-1.7-3.2-2.1-3.9c-0.4-0.7-0.8-3.3-0.5-3.8c0.2-0.5,1.8-1,2-1.4c0.2-0.4,2-2.4,1.9-3.3
			c-0.1-0.8,1.1,1.1,2,1.8c0.8,0.7,1.7,5.3,2.8,5.8c1,0.5,5.3-4.9,4.8-8.4c-0.5-3.5,1.2-8,2.2-8.4c0.8-0.3,2.8-3.1,4.1-5.1
			C377.3,118.1,361.9,94.1,342,74.6z"/>
	</g>
</g>
<g>
	<path class="st6" d="M356,144.5c0,0-60.7-11-83.8,59.1"/>
	<linearGradient id="SVGID_3_" gradientUnits="userSpaceOnUse" x1="349.1082" y1="144.4628" x2="362.9726" y2="144.4628">
		<stop  offset="0" style="stop-color:#00B5D1"/>
		<stop  offset="1" style="stop-color:#00D1C8"/>
	</linearGradient>
	<circle class="st7" cx="356" cy="144.5" r="6.9"/>
</g>
<g>
	<path class="st6" d="M360.9,225.7c0,0-33.6-51.7-100.5-20.4"/>
	<linearGradient id="SVGID_4_" gradientUnits="userSpaceOnUse" x1="353.9794" y1="225.6621" x2="367.8431" y2="225.6621">
		<stop  offset="0" style="stop-color:#00B5D1"/>
		<stop  offset="1" style="stop-color:#00D1C8"/>
	</linearGradient>
	<circle class="st8" cx="360.9" cy="225.7" r="6.9"/>
</g>
<g>
	<path class="st6" d="M109,301.9c0,0,7.5-61.2,81.3-62.5"/>
	<linearGradient id="SVGID_5_" gradientUnits="userSpaceOnUse" x1="102.0221" y1="301.8928" x2="115.8827" y2="301.8928">
		<stop  offset="0" style="stop-color:#00B5D1"/>
		<stop  offset="1" style="stop-color:#00D1C8"/>
	</linearGradient>
	<circle class="st9" cx="109" cy="301.9" r="6.9"/>
</g>
<g>
	<path class="st6" d="M72.9,235.9c0,0,36.2-49.9,101.4-15.2"/>
	
		<linearGradient id="SVGID_6_" gradientUnits="userSpaceOnUse" x1="23.0187" y1="879.4009" x2="36.8825" y2="879.4009" gradientTransform="matrix(0.965 0.2622 -0.2622 0.965 274.5539 -620.5406)">
		<stop  offset="0" style="stop-color:#00B5D1"/>
		<stop  offset="1" style="stop-color:#00D1C8"/>
	</linearGradient>
	<circle class="st10" cx="72.9" cy="235.9" r="6.9"/>
</g>
<g>
	<path class="st6" d="M127,90.2c0,0,61.4,5.2,65.5,78.9"/>
	<linearGradient id="SVGID_7_" gradientUnits="userSpaceOnUse" x1="120.0821" y1="90.2391" x2="133.943" y2="90.2391">
		<stop  offset="0" style="stop-color:#00B5D1"/>
		<stop  offset="1" style="stop-color:#00D1C8"/>
	</linearGradient>
	<circle class="st11" cx="127" cy="90.2" r="6.9"/>
</g>
<circle class="st12" cx="59.2" cy="91.1" r="46.4"/>
<circle class="st12" cx="134.4" cy="376.9" r="28.7"/>
<circle class="st12" cx="403.6" cy="180" r="35.6"/>
<g>
	<g>
		<linearGradient id="SVGID_8_" gradientUnits="userSpaceOnUse" x1="27.9889" y1="86.4689" x2="81.1027" y2="86.4689">
			<stop  offset="0" style="stop-color:#00B5D1"/>
			<stop  offset="1" style="stop-color:#00D1C8"/>
		</linearGradient>
		<rect x="28" y="72.7" class="st13" width="53.1" height="27.5"/>
		<linearGradient id="SVGID_9_" gradientUnits="userSpaceOnUse" x1="27.9889" y1="86.4689" x2="81.1027" y2="86.4689">
			<stop  offset="0" style="stop-color:#00B5D1"/>
			<stop  offset="1" style="stop-color:#00D1C8"/>
		</linearGradient>
		<polygon class="st14" points="28,100.2 81.1,72.7 28,72.7 		"/>
		<linearGradient id="SVGID_10_" gradientUnits="userSpaceOnUse" x1="27.9889" y1="86.4689" x2="81.1027" y2="86.4689">
			<stop  offset="0" style="stop-color:#00B5D1"/>
			<stop  offset="1" style="stop-color:#00D1C8"/>
		</linearGradient>
		<rect x="28" y="72.7" class="st15" width="53.1" height="27.5"/>
		<g>
			<linearGradient id="SVGID_11_" gradientUnits="userSpaceOnUse" x1="62.1947" y1="86.4683" x2="75.2417" y2="86.4683">
				<stop  offset="0" style="stop-color:#00B5D1"/>
				<stop  offset="1" style="stop-color:#00D1C8"/>
			</linearGradient>
			<path class="st16" d="M62.2,94.2h7.4c-0.9-3.6,2-6.3,5.7-6.7v-8.8h-13"/>
			<linearGradient id="SVGID_12_" gradientUnits="userSpaceOnUse" x1="33.8526" y1="86.4683" x2="46.8958" y2="86.4683">
				<stop  offset="0" style="stop-color:#00B5D1"/>
				<stop  offset="1" style="stop-color:#00D1C8"/>
			</linearGradient>
			<path class="st17" d="M46.9,78.7H41c-0.6,3.6-3.5,6.3-7.2,6.7v8.8h13"/>
		</g>
		<g>
			<linearGradient id="SVGID_13_" gradientUnits="userSpaceOnUse" x1="74.5042" y1="94.3878" x2="76.2456" y2="94.3878">
				<stop  offset="0" style="stop-color:#00B5D1"/>
				<stop  offset="1" style="stop-color:#00D1C8"/>
			</linearGradient>
			<path class="st18" d="M74.5,94.4c0-0.5,0.4-0.9,0.9-0.9c0.5,0,0.9,0.4,0.9,0.9c0,0.5-0.4,0.9-0.9,0.9
				C74.9,95.3,74.5,94.9,74.5,94.4z"/>
			<linearGradient id="SVGID_14_" gradientUnits="userSpaceOnUse" x1="32.848" y1="78.5488" x2="34.5901" y2="78.5488">
				<stop  offset="0" style="stop-color:#00B5D1"/>
				<stop  offset="1" style="stop-color:#00D1C8"/>
			</linearGradient>
			<path class="st19" d="M32.8,78.5c0-0.5,0.4-0.9,0.9-0.9c0.5,0,0.9,0.4,0.9,0.9c0,0.5-0.4,0.9-0.9,0.9
				C33.2,79.4,32.8,79,32.8,78.5z"/>
		</g>
		<g>
			<g>
				<linearGradient id="SVGID_15_" gradientUnits="userSpaceOnUse" x1="51.5738" y1="89.9903" x2="57.5196" y2="89.9903">
					<stop  offset="0" style="stop-color:#00B5D1"/>
					<stop  offset="1" style="stop-color:#00D1C8"/>
				</linearGradient>
				<path class="st20" d="M51.6,90.5c0,1.6,1.3,3,3,3l0,0c1.6,0,3-1.3,3-3v-1.1c0-1.6-1.3-3-3-3l0,0"/>
				<linearGradient id="SVGID_16_" gradientUnits="userSpaceOnUse" x1="51.5738" y1="82.9404" x2="57.5196" y2="82.9404">
					<stop  offset="0" style="stop-color:#00B5D1"/>
					<stop  offset="1" style="stop-color:#00D1C8"/>
				</linearGradient>
				<path class="st21" d="M57.5,82.4c0-1.6-1.3-3-3-3l0,0c-1.6,0-3,1.3-3,3v1.1c0,1.6,1.3,3,3,3l0,0"/>
			</g>
			<g>
				<linearGradient id="SVGID_17_" gradientUnits="userSpaceOnUse" x1="54.5452" y1="96.3425" x2="54.5452" y2="96.3425">
					<stop  offset="0" style="stop-color:#00B5D1"/>
					<stop  offset="1" style="stop-color:#00D1C8"/>
				</linearGradient>
				<line class="st22" x1="54.5" y1="99" x2="54.5" y2="93.7"/>
				<linearGradient id="SVGID_18_" gradientUnits="userSpaceOnUse" x1="54.5452" y1="76.5965" x2="54.5452" y2="76.5965">
					<stop  offset="0" style="stop-color:#00B5D1"/>
					<stop  offset="1" style="stop-color:#00D1C8"/>
				</linearGradient>
				<line class="st23" x1="54.5" y1="79.2" x2="54.5" y2="74"/>
			</g>
		</g>
	</g>
	<g>
		<linearGradient id="SVGID_19_" gradientUnits="userSpaceOnUse" x1="32.8972" y1="91.3775" x2="86.0122" y2="91.3775">
			<stop  offset="0" style="stop-color:#00B5D1"/>
			<stop  offset="1" style="stop-color:#00D1C8"/>
		</linearGradient>
		<rect x="32.9" y="77.6" class="st24" width="53.1" height="27.5"/>
		<linearGradient id="SVGID_20_" gradientUnits="userSpaceOnUse" x1="32.8972" y1="91.3775" x2="86.0122" y2="91.3775">
			<stop  offset="0" style="stop-color:#00B5D1"/>
			<stop  offset="1" style="stop-color:#00D1C8"/>
		</linearGradient>
		<polygon class="st25" points="32.9,105.1 86,77.6 32.9,77.6 		"/>
		<linearGradient id="SVGID_21_" gradientUnits="userSpaceOnUse" x1="32.8972" y1="91.3775" x2="86.0122" y2="91.3775">
			<stop  offset="0" style="stop-color:#00B5D1"/>
			<stop  offset="1" style="stop-color:#00D1C8"/>
		</linearGradient>
		<rect x="32.9" y="77.6" class="st26" width="53.1" height="27.5"/>
		<g>
			<linearGradient id="SVGID_22_" gradientUnits="userSpaceOnUse" x1="67.1032" y1="91.3775" x2="80.1515" y2="91.3775">
				<stop  offset="0" style="stop-color:#00B5D1"/>
				<stop  offset="1" style="stop-color:#00D1C8"/>
			</linearGradient>
			<path class="st27" d="M67.1,99.1h7.4c-0.9-3.6,2-6.3,5.7-6.7v-8.8h-13"/>
			<linearGradient id="SVGID_23_" gradientUnits="userSpaceOnUse" x1="38.7612" y1="91.3775" x2="51.8043" y2="91.3775">
				<stop  offset="0" style="stop-color:#00B5D1"/>
				<stop  offset="1" style="stop-color:#00D1C8"/>
			</linearGradient>
			<path class="st28" d="M51.8,83.6h-5.9c-0.6,3.6-3.5,6.3-7.2,6.7v8.8h13"/>
		</g>
		<g>
			<linearGradient id="SVGID_24_" gradientUnits="userSpaceOnUse" x1="79.413" y1="99.297" x2="81.154" y2="99.297">
				<stop  offset="0" style="stop-color:#00B5D1"/>
				<stop  offset="1" style="stop-color:#00D1C8"/>
			</linearGradient>
			<path class="st29" d="M79.4,99.3c0-0.5,0.4-0.9,0.9-0.9c0.5,0,0.9,0.4,0.9,0.9c0,0.5-0.4,0.9-0.9,0.9
				C79.8,100.2,79.4,99.8,79.4,99.3z"/>
			<linearGradient id="SVGID_25_" gradientUnits="userSpaceOnUse" x1="37.7575" y1="83.458" x2="39.4986" y2="83.458">
				<stop  offset="0" style="stop-color:#00B5D1"/>
				<stop  offset="1" style="stop-color:#00D1C8"/>
			</linearGradient>
			<path class="st30" d="M37.8,83.5c0-0.5,0.4-0.9,0.9-0.9c0.5,0,0.9,0.4,0.9,0.9c0,0.5-0.4,0.9-0.9,0.9
				C38.1,84.3,37.8,83.9,37.8,83.5z"/>
		</g>
		<g>
			<g>
				<linearGradient id="SVGID_26_" gradientUnits="userSpaceOnUse" x1="56.4823" y1="94.8997" x2="62.4284" y2="94.8997">
					<stop  offset="0" style="stop-color:#00B5D1"/>
					<stop  offset="1" style="stop-color:#00D1C8"/>
				</linearGradient>
				<path class="st31" d="M56.5,95.5c0,1.6,1.3,3,3,3l0,0c1.6,0,3-1.3,3-3v-1.1c0-1.6-1.3-3-3-3l0,0"/>
				<linearGradient id="SVGID_27_" gradientUnits="userSpaceOnUse" x1="56.4823" y1="87.8502" x2="62.4284" y2="87.8502">
					<stop  offset="0" style="stop-color:#00B5D1"/>
					<stop  offset="1" style="stop-color:#00D1C8"/>
				</linearGradient>
				<path class="st32" d="M62.4,87.3c0-1.6-1.3-3-3-3l0,0c-1.6,0-3,1.3-3,3v1.1c0,1.6,1.3,3,3,3l0,0"/>
			</g>
			<g>
				<linearGradient id="SVGID_28_" gradientUnits="userSpaceOnUse" x1="59.4539" y1="101.2522" x2="59.4539" y2="101.2522">
					<stop  offset="0" style="stop-color:#00B5D1"/>
					<stop  offset="1" style="stop-color:#00D1C8"/>
				</linearGradient>
				<line class="st33" x1="59.5" y1="103.9" x2="59.5" y2="98.6"/>
				<linearGradient id="SVGID_29_" gradientUnits="userSpaceOnUse" x1="59.4539" y1="81.5054" x2="59.4539" y2="81.5054">
					<stop  offset="0" style="stop-color:#00B5D1"/>
					<stop  offset="1" style="stop-color:#00D1C8"/>
				</linearGradient>
				<line class="st34" x1="59.5" y1="84.1" x2="59.5" y2="78.9"/>
			</g>
		</g>
	</g>
	<g>
		<linearGradient id="SVGID_30_" gradientUnits="userSpaceOnUse" x1="37.8071" y1="96.2875" x2="90.9206" y2="96.2875">
			<stop  offset="0" style="stop-color:#00B5D1"/>
			<stop  offset="1" style="stop-color:#00D1C8"/>
		</linearGradient>
		<rect x="37.8" y="82.5" class="st35" width="53.1" height="27.5"/>
		<linearGradient id="SVGID_31_" gradientUnits="userSpaceOnUse" x1="37.8071" y1="96.2875" x2="90.9206" y2="96.2875">
			<stop  offset="0" style="stop-color:#00B5D1"/>
			<stop  offset="1" style="stop-color:#00D1C8"/>
		</linearGradient>
		<polygon class="st36" points="37.8,110 90.9,82.5 37.8,82.5 		"/>
		<linearGradient id="SVGID_32_" gradientUnits="userSpaceOnUse" x1="37.8071" y1="96.2875" x2="90.9206" y2="96.2875">
			<stop  offset="0" style="stop-color:#00B5D1"/>
			<stop  offset="1" style="stop-color:#00D1C8"/>
		</linearGradient>
		<rect x="37.8" y="82.5" class="st37" width="53.1" height="27.5"/>
		<g>
			<path class="st38" d="M72,104h7.4c-0.9-3.6,2-6.3,5.7-6.7v-8.8H72"/>
			<path class="st38" d="M56.7,88.5h-5.9c-0.6,3.6-3.5,6.3-7.2,6.7v8.8h13"/>
		</g>
		<g>
			<linearGradient id="SVGID_33_" gradientUnits="userSpaceOnUse" x1="84.3216" y1="104.2066" x2="86.0628" y2="104.2066">
				<stop  offset="0" style="stop-color:#00B5D1"/>
				<stop  offset="1" style="stop-color:#00D1C8"/>
			</linearGradient>
			<path class="st39" d="M84.3,104.2c0-0.5,0.4-0.9,0.9-0.9c0.5,0,0.9,0.4,0.9,0.9c0,0.5-0.4,0.9-0.9,0.9
				C84.7,105.1,84.3,104.7,84.3,104.2z"/>
			<linearGradient id="SVGID_34_" gradientUnits="userSpaceOnUse" x1="42.6661" y1="88.3674" x2="44.4073" y2="88.3674">
				<stop  offset="0" style="stop-color:#00B5D1"/>
				<stop  offset="1" style="stop-color:#00D1C8"/>
			</linearGradient>
			<path class="st40" d="M42.7,88.4c0-0.5,0.4-0.9,0.9-0.9c0.5,0,0.9,0.4,0.9,0.9c0,0.5-0.4,0.9-0.9,0.9
				C43.1,89.2,42.7,88.8,42.7,88.4z"/>
		</g>
		<g>
			<g>
				<linearGradient id="SVGID_35_" gradientUnits="userSpaceOnUse" x1="64.3633" y1="106.1612" x2="64.3633" y2="106.1612">
					<stop  offset="0" style="stop-color:#00B5D1"/>
					<stop  offset="1" style="stop-color:#00D1C8"/>
				</linearGradient>
				<line class="st41" x1="64.4" y1="108.8" x2="64.4" y2="103.5"/>
				<linearGradient id="SVGID_36_" gradientUnits="userSpaceOnUse" x1="64.3633" y1="86.4147" x2="64.3633" y2="86.4147">
					<stop  offset="0" style="stop-color:#00B5D1"/>
					<stop  offset="1" style="stop-color:#00D1C8"/>
				</linearGradient>
				<line class="st42" x1="64.4" y1="89" x2="64.4" y2="83.8"/>
			</g>
		</g>
	</g>
</g>
<path class="st43" d="M405.9,225.7c-9.4,97.6-91.7,173.9-191.7,173.9c-14.7,0-29-1.6-42.8-4.8"/>
<path class="st43" d="M98.4,52.9c32.2-24.2,72.3-38.6,115.7-38.6c77.9,0,144.9,46.2,175.3,112.6"/>
<path class="st43" d="M97.8,360.5c-46.4-35.2-76.4-90.9-76.4-153.6c0-21.3,3.5-41.8,9.9-61"/>
<g>
	<g>
		<linearGradient id="SVGID_37_" gradientUnits="userSpaceOnUse" x1="379.9934" y1="180.9709" x2="427.1911" y2="180.9709">
			<stop  offset="0" style="stop-color:#00B5D1"/>
			<stop  offset="1" style="stop-color:#00D1C8"/>
		</linearGradient>
		<path class="st44" d="M427.2,192.4c0,2.1-1.7,3.9-3.9,3.9h-39.5c-2.1,0-3.9-1.7-3.9-3.9v-22.9c0-2.1,1.7-3.9,3.9-3.9h39.5
			c2.1,0,3.9,1.7,3.9,3.9V192.4z"/>
		<rect x="380" y="171.7" class="st45" width="47.2" height="6.6"/>
		<polygon class="st46" points="394.2,178.3 427.2,178.3 427.2,171.7 383.6,171.7 		"/>
		<line class="st47" x1="386.7" y1="183.1" x2="392.9" y2="183.1"/>
		<line class="st47" x1="386.7" y1="186.8" x2="392.9" y2="186.8"/>
		<line class="st47" x1="386.7" y1="190.5" x2="389.8" y2="190.5"/>
		<line class="st47" x1="420.5" y1="183.1" x2="420.5" y2="183.1"/>
	</g>
	<g>
		<path class="st48" d="M427.2,192.4c0,2.1-1.7,3.9-3.9,3.9h-39.5c-2.1,0-3.9-1.7-3.9-3.9v-22.9c0-2.1,1.7-3.9,3.9-3.9h39.5
			c2.1,0,3.9,1.7,3.9,3.9V192.4z"/>
		<linearGradient id="SVGID_38_" gradientUnits="userSpaceOnUse" x1="379.9934" y1="175.005" x2="427.1911" y2="175.005">
			<stop  offset="0" style="stop-color:#00B5D1"/>
			<stop  offset="1" style="stop-color:#00D1C8"/>
		</linearGradient>
		<rect x="380" y="171.7" class="st49" width="47.2" height="6.6"/>
		<line class="st48" x1="386.7" y1="183.1" x2="392.9" y2="183.1"/>
		<line class="st48" x1="386.7" y1="186.8" x2="392.9" y2="186.8"/>
		<line class="st48" x1="386.7" y1="190.5" x2="389.8" y2="190.5"/>
		<line class="st48" x1="420.5" y1="183.1" x2="420.5" y2="183.1"/>
	</g>
</g>
<g>
	<g>
		<g>
			<g>
				<path class="st45" d="M134.4,186l21.2,78.6c1.7,6.2,7.2,10.4,13.6,10.4h91.9c6.4,0,12-4.3,13.7-10.4l21.2-78.6H134.4z"/>
				<path class="st46" d="M167.4,274.1h84.8c5.9,0,11.1-4.3,12.6-10.4l17-68.2H137.9l17,68.2C156.4,269.8,161.5,274.1,167.4,274.1z"
					/>
				<path class="st46" d="M152.4,312.9c0,9.3,7.5,16.8,16.7,16.8c9.3,0,16.8-7.5,16.8-16.8c0-9.2-7.5-16.8-16.8-16.8
					C159.9,296.1,152.4,303.6,152.4,312.9z"/>
				<path class="st46" d="M244.3,312.9c0,9.3,7.5,16.8,16.8,16.8c9.3,0,16.8-7.5,16.8-16.8c0-9.2-7.5-16.8-16.8-16.8
					C251.8,296.1,244.3,303.6,244.3,312.9z"/>
				<path class="st45" d="M160.8,312.9c0,4.6,3.7,8.4,8.4,8.4c4.6,0,8.4-3.7,8.4-8.4c0-4.6-3.7-8.4-8.4-8.4
					C164.6,304.5,160.8,308.3,160.8,312.9z"/>
				<path class="st45" d="M252.7,312.9c0,4.6,3.8,8.4,8.4,8.4c4.6,0,8.4-3.7,8.4-8.4c0-4.6-3.7-8.4-8.4-8.4
					C256.5,304.5,252.7,308.3,252.7,312.9z"/>
			</g>
		</g>
		<g>
			<g>
				<path class="st50" d="M134.4,186l21.2,78.6c1.7,6.2,7.2,10.4,13.6,10.4h91.9c6.4,0,12-4.3,13.7-10.4l21.2-78.6H134.4z"/>
				<polyline class="st50" points="135.1,187.4 128.5,162.9 106.4,162.9 				"/>
				<path class="st50" d="M152.4,312.9c0,9.3,7.5,16.8,16.7,16.8c9.3,0,16.8-7.5,16.8-16.8c0-9.2-7.5-16.8-16.8-16.8
					C159.9,296.1,152.4,303.6,152.4,312.9z"/>
				<path class="st50" d="M244.3,312.9c0,9.3,7.5,16.8,16.8,16.8c9.3,0,16.8-7.5,16.8-16.8c0-9.2-7.5-16.8-16.8-16.8
					C251.8,296.1,244.3,303.6,244.3,312.9z"/>
			</g>
			<path class="st50" d="M256.4,275h-99.7c-5.8,0-10.5,4.7-10.5,10.5l0,0c0,5.8,4.7,10.5,10.5,10.5h99.7"/>
		</g>
		<line class="st51" x1="140" y1="206.8" x2="290.3" y2="206.8"/>
		<line class="st51" x1="145.9" y1="228.7" x2="284.4" y2="228.7"/>
		<line class="st51" x1="150.8" y1="250.5" x2="277.8" y2="250.5"/>
	</g>
	<g>
		<g>
			<g>
				<rect x="169" y="139.9" class="st46" width="46.1" height="46.1"/>
				<rect x="184.4" y="139.9" class="st52" width="15.4" height="16.4"/>
				<rect x="184.4" y="139.9" class="st53" width="15.4" height="16.4"/>
				<rect x="169" y="139.9" class="st51" width="46.1" height="46.1"/>
			</g>
			<g>
				<rect x="215.2" y="139.9" class="st46" width="46.1" height="46.1"/>
				<rect x="230.5" y="139.9" class="st52" width="15.4" height="16.4"/>
				<rect x="230.5" y="139.9" class="st53" width="15.4" height="16.4"/>
				<rect x="215.2" y="139.9" class="st51" width="46.1" height="46.1"/>
			</g>
		</g>
		<g>
			<rect x="192.1" y="93.7" class="st46" width="46.1" height="46.1"/>
			<linearGradient id="SVGID_39_" gradientUnits="userSpaceOnUse" x1="207.4446" y1="101.9385" x2="222.8439" y2="101.9385">
				<stop  offset="0" style="stop-color:#00B5D1"/>
				<stop  offset="1" style="stop-color:#00D1C8"/>
			</linearGradient>
			<rect x="207.4" y="93.7" class="st54" width="15.4" height="16.4"/>
			<rect x="207.4" y="93.7" class="st51" width="15.4" height="16.4"/>
			<rect x="192.1" y="93.7" class="st51" width="46.1" height="46.1"/>
		</g>
	</g>
</g>
<rect x="230.6" y="96" class="st45" width="5.9" height="41.6"/>
<rect x="206.9" y="142" class="st45" width="5.9" height="41.9"/>
<rect x="253" y="142" class="st45" width="5.9" height="41.9"/>
<polygon class="st55" points="242.3,198.8 233,198.8 232.8,197.6 222.9,195.4 206.1,195.4 190.2,201.2 186.7,246.4 191.7,252.3 
	195.6,244.9 196.3,224.4 197.4,205.9 217.3,201.2 233.5,204.8 233.5,205.2 234.6,217.6 242.4,253.7 247.5,255 249.5,243.3 "/>
<g>
	<path class="st56" d="M208.8,199.7c0,0,27.9,0.1,38.7,0.2c7.5,0.1,8.1-10.5,5.2-12.1c-8.9-4.9-36.8-7.4-36.8-7.4L197,197.8
		C197,197.8,198,197.8,208.8,199.7z"/>
	<linearGradient id="SVGID_40_" gradientUnits="userSpaceOnUse" x1="232.9091" y1="164.4575" x2="249.5258" y2="164.4575">
		<stop  offset="0" style="stop-color:#00B5D1"/>
		<stop  offset="1" style="stop-color:#00D1C8"/>
	</linearGradient>
	<path class="st57" d="M235.1,142.7c0,0,7.2-2,10.3,7.4c4.8,14.4,4.4,27.6,3.7,30.4c-0.3,1.3-1.2,5.8-9.3,5.9
		c-3.2,0.1-1.9-6.9-1.9-6.9s-2.1-5.9-4.3-15.9C231.4,153.5,235.1,142.7,235.1,142.7z"/>
	<linearGradient id="SVGID_41_" gradientUnits="userSpaceOnUse" x1="190.8597" y1="161.0242" x2="240.7967" y2="161.0242">
		<stop  offset="0" style="stop-color:#00B5D1"/>
		<stop  offset="1" style="stop-color:#00D1C8"/>
	</linearGradient>
	<path class="st58" d="M240.8,143.5l-18.4-6l-13.9-0.9l-15.3,4.6c0,0-5,3.4-0.4,14.5c4.6,11.1,2.9,28.4,2.9,28.4l39.4,1.3
		c0,0,0.7-16,3.4-32.1C239,149.8,239.1,145.6,240.8,143.5z"/>
	<path class="st59" d="M213.8,184.6h2c2.1-15.5,2-31.5-0.3-46.9c-0.6,0.4-1.2,0.7-1.8,1.1C214.2,154.6,213.3,170.4,213.8,184.6z"/>
	<g>
		<path class="st60" d="M221.6,141.9c-0.3,2.1-2,4-3.8,4.1c-1.7,0-3.5,0-5.2,0c-1.8-0.1-3.6-1.9-3.8-4.1c-0.4-3.5-0.9-7-1.3-10.5
			c-0.3-2.1,1-6.3,3.7-7.6c2.5-1.1,5.4-1.1,8,0c2.8,1.2,4,5.5,3.7,7.6C222.5,134.9,222,138.4,221.6,141.9z"/>
	</g>
	<polygon class="st59" points="215,146.2 211.7,151.6 205.6,144.1 206.6,140.1 208.5,138.5 208.5,141.5 	"/>
	<polygon class="st59" points="215.4,146.2 218.7,151.6 224.3,144.6 223.4,140.3 222,138.4 221.4,142 	"/>
	<g>
		<path class="st61" d="M214.4,117.1c-1.5,0-2.7,0.7-3.5,1.9h-1.4c-1.8,0-3.2,1.4-3.2,3.2v8h2.3v-3.2c0-1.3,1-2.3,2.3-2.3h1.3H210
			h1.4c2.3,0,4.2-1.9,4.2-4.2v-3.4H214.4z"/>
		<path class="st60" d="M210.4,133.2c0,1.1-0.9,2-2,2h-0.2c-1.1,0-2-0.9-2-2v-2.4c0-1.1,0.9-2,2-2h0.2c0.8,0,1.5,0.5,1.8,1.2"/>
		<path class="st61" d="M212.6,120.3v-3.2h1.3h3.4h2.1c2.3,0,4.2,1.9,4.2,4.2v3.2h-1.3h-3.4h-2.1
			C214.5,124.4,212.6,122.6,212.6,120.3z"/>
		<path class="st62" d="M223,136.2c0,1.7-1.3,4.5-3.4,5.3c-2.9,1.2-6.2,1.2-9.1,0c-2.1-0.9-3.4-3.7-3.4-5.3c0-4.7,0-9.4,0-14.1
			c0-1.7,1.6-3.1,3.7-3.1c2.8,0,5.6,0,8.4,0c2,0,3.7,1.4,3.7,3.1C223,126.8,223,131.5,223,136.2z"/>
		<path class="st61" d="M216.7,117.1c1.5,0,2.7,0.7,3.5,1.9h1.4c1.8,0,3.2,1.4,3.2,3.2v8h-2.3v-3.2c0-1.3-1-2.3-2.3-2.3h0h0.8h-3.7
			c-2.3,0-4.2-1.9-4.2-4.2v-3.4H216.7z"/>
		<path class="st62" d="M220.8,130.8c0-1.1,0.9-2,2-2h0.2c1.1,0,2,0.9,2,2v2.4c0,1.1-0.9,2-2,2h-0.2c-0.8,0-1.5-0.5-1.8-1.2"/>
		<path class="st61" d="M213.3,121.1c0.1-0.3,0.1-0.5,0.1-0.8v-3.2H212h-1.6c-2.3,0-4.2,1.9-4.2,4.2v3.2h0.9h0.4h1.6
			c0.3,0,0.6,0,0.9-0.1C210.4,122.7,211.6,121.4,213.3,121.1z"/>
	</g>
	<path class="st63" d="M176.7,253c-0.4,0.5-0.1,1.9-0.1,1.9s7.5,0.8,9.9,0.3c0.6-0.1,1.7-0.7,2.7-1.3c0.2-0.1,0.5-0.7,0.6-0.8
		c0.3-0.2,0.5,0.1,0.7,0c0.7-0.4,1.1-0.8,1.1-0.8c0.7-3.4-0.2-4.8-0.2-4.8s-6.4-2.1-7.6-0.6C181.1,250.4,177.7,251.9,176.7,253z"/>
	<path class="st63" d="M247,249.3l0.5,5.7l5.7,0.6c0,0,0.4-0.8,0.9-0.7c0.4,0,0.9,0.9,1.4,0.9c1.2,0.1,2.5,0.2,3.1,0.3
		c1.1,0.1,11.4,1.1,11.4,1.1s0.4-1.1,0.1-1.6c-0.1-0.2-1.1-0.7-1.7-0.9c-2.9-1.1-11-4.5-12.2-7.5C254.7,243.6,247,249.3,247,249.3z"
		/>
	<g>
		<path class="st62" d="M238.4,177.4l-19.2,7.8c0,0,13.6,1.9,22.2,0.2C247.1,184.3,238.6,177.2,238.4,177.4z"/>
	</g>
	<path class="st56" d="M194.7,189.4c0,0-1.9,17.5-1.6,26.8c0.2,7,0.2,20.4-1.4,31.8c-0.1,0.7-9,0.2-9,0.2s-3.2-43.5-4.2-50.7
		C177.6,190.4,180.3,185.2,194.7,189.4z"/>
	<path class="st64" d="M251,193.6c0,0-2.9,4.5-10.8,5.6c-2.9,0.4,4.6,50.9,4.6,50.9l11.7-3.7l-2.3-55.9L251,193.6z"/>
	<path class="st64" d="M218.8,199.2c0,0-15.3,2.2-25.4,3.2c-3.7,0.4-7-10.1-7.4-10.5c-2.7-2.9-5.4-2.5-5.3-2.6
		c2.2-2.4,13.6-4.6,25.6-7.4c11.9-2.8,13.8-1,13.8-1L218.8,199.2z"/>
	<path class="st56" d="M206.2,182c-11.9,2.8-23.4,5-25.6,7.4c-0.1,0.1,2.6-0.3,5.3,2.6c0.1,0.1,0.8,3.5,1.3,4.7
		c-1.9-3.5,26.1-13.4,32.2-16C218.3,180.3,215,179.9,206.2,182z"/>
	<polygon class="st64" points="193.1,199.1 191.9,233.3 190.7,241.2 190.6,233.3 190.8,228.3 188.1,220.7 186.7,202.9 188.8,203.7 
		188.5,195.9 	"/>
	<path class="st56" d="M250.6,189.4l2.9,0.8l1,41l-6,14.7l2.9-10l-1.2-20.6c0,0-4.2,10-4.2,9.5c0-0.5,3.5-21.7,3.5-21.7
		s-3.9,3.2-3.5,3.1C246.4,206,248.4,191.3,250.6,189.4z"/>
	<linearGradient id="SVGID_42_" gradientUnits="userSpaceOnUse" x1="212.0382" y1="149.3154" x2="196.8316" y2="160.9205">
		<stop  offset="0" style="stop-color:#00B5D1"/>
		<stop  offset="1" style="stop-color:#00D1C8"/>
	</linearGradient>
	<path class="st65" d="M201.6,141.4c0,0-6.1-4.8-12.1,4.1c-8.8,13.1-12.6,27-14,31c-1.1,3.1-0.5,11.8,3.1,15.4
		c0.9,0.9,6.1,0.2,6.1,0.2l3.4-2.4l-1.4-2.7l-0.1-2.2c0,0,4.4-10.5,9.7-20.5C201.6,154.4,201.6,141.4,201.6,141.4z"/>
	<g>
		<path class="st62" d="M186.6,181.4l19.9,1c0,0-19.2,8.8-19.8,7.3C183.1,181.1,186.6,181.4,186.6,181.4z"/>
		<g>
			<path class="st46" d="M197.6,180.8c1.2-0.6,1.1-0.6,1.1-0.6s1.1,1.3,2.6,1.5c0.8,0.1,3.2,0.1,3.2,0.1l3.7,0.1l1.7-0.1
				c0,0,1-0.1,1.2,0c0.7,0.5,0.1,0.9,0.1,0.9l-6.6,0.9l6.3,0.8c0,0,0.8,0.2,0.8,0.7c0,0.4-0.2,0.4-0.2,0.4l-7.3,0.8l3.2,0.8
				c0,0,0.8,0.2,0.8,0.7c0.1,0.5,0.1,0.6,0.1,0.6l-6.7-0.7C201.6,187.6,196.4,181.3,197.6,180.8z"/>
			<path class="st46" d="M204.9,184.8l4.4,0.8c0,0,1,0.1,1.5,0.4c0.5,0.4,0.2,0.8,0.2,0.8l-6.8-0.6L204.9,184.8z"/>
		</g>
	</g>
	<g>
		<path class="st66" d="M232.6,188.3C232.6,188.3,232.6,188.3,232.6,188.3V187h-39.2v1.3c0,0,0,0,0,0l0.1,0.2
			c0.7,1.1,1.9,1.3,3.2,1.3h32.5c1.4,0,2.6-0.2,3.2-1.3L232.6,188.3z"/>
		<g>
			<rect x="200" y="187.3" class="st67" width="26" height="0.9"/>
		</g>
		<g>
			<path class="st46" d="M232.5,187.1l0.1-25.7c0-0.7-0.5-1.2-1.2-1.2h-36.7c-0.7,0-1.2,0.6-1.2,1.2l-0.1,25.7H232.5z"/>
			<path class="st66" d="M215.4,173.7c0,1.3-1.1,2.4-2.4,2.4c-1.3,0-2.4-1.1-2.4-2.4c0-1.3,1.1-2.4,2.4-2.4
				C214.3,171.3,215.4,172.4,215.4,173.7z"/>
		</g>
	</g>
	<polygon class="st59" points="184,191.3 182.7,182.6 184.9,180.3 190,181.1 188.9,190.7 	"/>
	<polygon class="st59" points="245.1,185.1 245.6,181.8 239.3,176.1 235.8,177.7 240.3,186.3 	"/>
</g>
<g>
	<linearGradient id="SVGID_43_" gradientUnits="userSpaceOnUse" x1="117.2944" y1="379.7565" x2="151.406" y2="379.7565">
		<stop  offset="0" style="stop-color:#00B5D1"/>
		<stop  offset="1" style="stop-color:#00D1C8"/>
	</linearGradient>
	<path class="st68" d="M149.4,388.2v-18h-30.1v18c0,0.6,0.4,1,1,1h28.1C149,389.2,149.4,388.8,149.4,388.2z"/>
	<path class="st46" d="M128.4,381v4.5h-4.2V381H128.4 M129.4,380.1h-6v6.3h6V380.1L129.4,380.1z"/>
	<path class="st46" d="M136.4,377.3v8.2h-4.2v-8.2H136.4 M137.3,376.4h-6v10h6V376.4L137.3,376.4z"/>
	<path class="st46" d="M144.4,373.3v12.2h-4.2v-12.2H144.4 M145.3,372.4h-6v14h6V372.4L145.3,372.4z"/>
	<linearGradient id="SVGID_44_" gradientUnits="userSpaceOnUse" x1="117.2944" y1="365.1303" x2="151.406" y2="365.1303">
		<stop  offset="0" style="stop-color:#00B5D1"/>
		<stop  offset="1" style="stop-color:#00D1C8"/>
	</linearGradient>
	<path class="st69" d="M151.4,368.3v-4c0-0.6-0.4-1-1-1h-15.1v-1.1c0-0.6-0.4-1-1-1c-0.6,0-1,0.4-1,1v1.1h-15.1c-0.6,0-1,0.4-1,1v4
		c0,0.4,0.2,0.7,0.5,0.9h33C151.2,369,151.4,368.6,151.4,368.3z"/>
	<linearGradient id="SVGID_45_" gradientUnits="userSpaceOnUse" x1="117.2944" y1="392.8051" x2="151.406" y2="392.8051">
		<stop  offset="0" style="stop-color:#00B5D1"/>
		<stop  offset="1" style="stop-color:#00D1C8"/>
	</linearGradient>
	<path class="st70" d="M127.6,393.2h-1.3c-0.6,0-1,0.4-1,1c0,0.6,0.4,1,1,1h2c0.3,0,0.8-0.2,0.9-0.7c0.1-0.2,0.8-2.5,1.4-4.2h-2.1
		L127.6,393.2z"/>
	<linearGradient id="SVGID_46_" gradientUnits="userSpaceOnUse" x1="117.2944" y1="392.8051" x2="151.406" y2="392.8051">
		<stop  offset="0" style="stop-color:#00B5D1"/>
		<stop  offset="1" style="stop-color:#00D1C8"/>
	</linearGradient>
	<path class="st71" d="M133.4,394.2c0,0.6,0.4,1,1,1c0.6,0,1-0.4,1-1v-3.9h-2V394.2z"/>
	<linearGradient id="SVGID_47_" gradientUnits="userSpaceOnUse" x1="117.2944" y1="392.8051" x2="151.406" y2="392.8051">
		<stop  offset="0" style="stop-color:#00B5D1"/>
		<stop  offset="1" style="stop-color:#00D1C8"/>
	</linearGradient>
	<path class="st72" d="M139.4,394.6c0.1,0.4,0.6,0.7,0.9,0.7h2c0.6,0,1-0.4,1-1c0-0.6-0.4-1-1-1h-1.3l-1-2.9H138
		C138.3,391.3,138.8,392.6,139.4,394.6z"/>
</g>
</svg>
