<?xml version="1.0" encoding="utf-8"?>
<!-- Generator: Adobe Illustrator 23.0.0, SVG Export Plug-In . SVG Version: 6.00 Build 0)  -->
<svg version="1.1" id="Capa_1" xmlns="http://www.w3.org/2000/svg" xmlns:xlink="http://www.w3.org/1999/xlink" x="0px" y="0px"
	 viewBox="0 0 536 368" style="enable-background:new 0 0 536 368;" xml:space="preserve">
<style type="text/css">
	.st0{opacity:0.21;}
	.st1{fill:url(#SVGID_1_);}
	.st2{opacity:0.3;fill:#615C61;}
	.st3{fill:#F2F2F2;}
	.st4{fill:#ABC4FF;}
	.st5{fill:#4E5ED7;}
	.st6{fill:#CBCBCB;}
	.st7{fill:#C42C24;}
	.st8{fill:#EDEDED;}
	.st9{fill:#E6332A;}
	.st10{fill:#821D18;}
	.st11{fill:#FFFFFF;}
	.st12{fill:#381B91;stroke:#381B91;stroke-width:3;stroke-miterlimit:10;}
	.st13{fill:#381B91;}
	.st14{fill:none;stroke:#381B91;stroke-width:5;stroke-linecap:round;stroke-linejoin:round;stroke-miterlimit:10;}
	.st15{fill:none;stroke:#381B91;stroke-width:4;stroke-linecap:round;stroke-linejoin:round;stroke-miterlimit:10;}
	.st16{fill:#FFFFFF;stroke:#381B91;stroke-width:4;stroke-miterlimit:10;}
	.st17{fill:#FFFFFF;stroke:#381B91;stroke-width:3;stroke-miterlimit:10;}
	.st18{opacity:0.44;fill:#ABC4FF;}
	.st19{fill:none;stroke:#381B91;stroke-width:2.8838;stroke-miterlimit:10;}
	.st20{fill:#ABC4FF;stroke:#381B91;stroke-width:3;stroke-miterlimit:10;}
	.st21{opacity:0.84;fill:#FFFFFF;}
	.st22{fill:#4E5ED7;stroke:#381B91;stroke-width:3;stroke-miterlimit:10;}
	.st23{fill:#FF3D0D;}
	.st24{fill:#F9AA69;}
	.st25{fill:#4A52CA;}
	.st26{fill:#15100C;}
	.st27{fill:#FF7F00;}
	.st28{fill:#E2C59C;}
	.st29{fill:#E9D6B8;}
	.st30{fill:#FFC400;}
	.st31{fill:#CDD5D7;}
	.st32{fill:#B7BEC0;}
	.st33{fill:none;stroke:#4E5ED7;stroke-width:2;stroke-miterlimit:10;}
	.st34{fill:none;stroke:#4E5ED7;stroke-width:2;stroke-miterlimit:10;stroke-dasharray:3.4545,3.4545;}
	.st35{fill:#FFFFFF;stroke:#4E5ED7;stroke-width:2;stroke-miterlimit:10;}
	.st36{fill:#FFFFFF;stroke:#381B91;stroke-width:3.6927;stroke-linecap:round;stroke-linejoin:round;stroke-miterlimit:10;}
	.st37{fill:#0D0F21;}
	.st38{fill:#D88D55;}
	.st39{fill:url(#SVGID_2_);}
	.st40{fill:url(#SVGID_3_);}
	.st41{fill:#0071BC;}
	.st42{fill:url(#SVGID_4_);}
	.st43{fill:url(#SVGID_5_);}
	.st44{fill:none;stroke:#4E5ED7;stroke-width:1.023;stroke-linecap:round;stroke-linejoin:round;stroke-miterlimit:10;}
	.st45{fill:#FFFFFF;stroke:#4E5ED7;stroke-width:1.1584;stroke-linecap:round;stroke-linejoin:round;stroke-miterlimit:10;}
</style>
<g class="st0">
	<linearGradient id="SVGID_1_" gradientUnits="userSpaceOnUse" x1="510.8595" y1="84.6651" x2="71.4642" y2="368.8324">
		<stop  offset="0" style="stop-color:#381B91"/>
		<stop  offset="1" style="stop-color:#4E5ED7"/>
	</linearGradient>
	<path class="st1" d="M529.9,157.5c-0.6-19-3.9-37.9-10.9-55.6c-14.1-35.7-44.5-66.1-82.1-73.8c-33.2-6.8-67.2,4.2-98.6,16.8
		c-48.4,19.5-94.9,43.5-138.9,71.5c-27.4,17.5-55.2,37.1-87.5,41.3c-25.7,3.4-53.8-3-76.6,9.5c-18,9.9-27.6,29.8-29.1,50.6
		c-0.7,9.4,0.2,19,2.8,28c1.6,5.6,3.6,13.3,6.4,21.9C27.9,307,55,366.4,123.1,352.1c38.3-8,105.7-11,168.7-10c2,0,4,0.1,6,0.1
		c31.5,0.7,62.8,4.6,93.6,11c14.2,2.9,28.3,4.5,42.3,1.4c20.1-4.4,34.7-17.7,45.2-34.1c3.6-5.6,6.8-11.6,9.5-17.7
		c13.1-29.1,26.4-58.6,33.4-89.8c0.7-3.2,1.3-6.3,1.9-9.5c0-0.2,0.1-0.4,0.1-0.5C527.3,188.1,529.4,172.8,529.9,157.5z"/>
</g>
<ellipse class="st2" cx="416.3" cy="326.7" rx="29.3" ry="5.8"/>
<g>
	<polygon class="st3" points="214.7,120.7 185.5,120.7 185.5,213.4 257.7,285.7 317.5,285.7 357.7,322.5 373.4,322.5 387.7,308.2 
		378.3,298.8 383.8,285.7 457.3,285.7 484.4,312.9 496.5,300.8 496.5,287.5 485.1,276.2 485.1,260.2 501.7,243.6 501.7,164.9 
		513.9,152.7 513.9,132.2 496,114.3 447.5,162.8 427.4,162.8 383.9,119.3 	"/>
	<polygon class="st4" points="319.3,227.8 319.3,287.3 357.7,322.4 373.4,322.4 387.7,308.1 378.3,298.8 383.8,285.6 431.2,285.6 
		431.2,227.8 	"/>
	<polygon class="st5" points="363,296.9 372.3,306.3 358,320.6 373.2,320.6 387.5,306.3 378.2,296.9 383.6,283.8 368.4,283.8 	"/>
	<rect x="418.5" y="226.6" class="st5" width="15.2" height="57.8"/>
	<rect x="300.8" y="226.7" class="st4" width="15.1" height="57.8"/>
	<polygon class="st4" points="398.8,134.6 384.7,120.5 215.4,121.9 186.2,121.9 186.2,214.6 195.7,224.1 398.8,224.1 	"/>
	<polygon class="st5" points="384.7,120.5 367,120.6 381,134.6 381,224.1 398.8,224.1 398.8,134.6 	"/>
	<path class="st4" d="M512.8,133.2V152L501,163.7v59.6h-19.4v-64.8l13.6-14.2l-13.7-14.2l14.1-14.1L512.8,133.2z"/>
	<path class="st4" d="M485.7,260.3l-0.6,15.8l11.4,11.4v13.3l-12.1,12.1l-9-9l9.3-10.4l-15.6-13.6v-23.1l14.3-15.9l-0.2-13.4h18
		l0.6,16.1C495.9,248.7,490.4,256.2,485.7,260.3L485.7,260.3z"/>
	<g>
		<g>
			<rect x="284.9" y="82.2" class="st6" width="58.6" height="65.8"/>
			<g>
				<rect x="284.9" y="141.6" class="st7" width="58.6" height="6.4"/>
				<rect x="284.9" y="129.8" class="st7" width="58.6" height="6.4"/>
				<rect x="284.9" y="117.9" class="st7" width="58.6" height="6.4"/>
				<rect x="284.9" y="106" class="st7" width="58.6" height="6.4"/>
				<rect x="284.9" y="94.1" class="st7" width="58.6" height="6.4"/>
				<rect x="284.9" y="82.2" class="st7" width="58.6" height="6.4"/>
			</g>
		</g>
		<rect x="244.3" y="73.4" class="st8" width="69.8" height="65.8"/>
		<g>
			<rect x="244.3" y="132.8" class="st9" width="69.8" height="6.4"/>
			<rect x="244.3" y="120.9" class="st9" width="69.8" height="6.4"/>
			<rect x="244.3" y="109" class="st9" width="69.8" height="6.4"/>
			<rect x="247.5" y="97.1" class="st9" width="66.7" height="6.4"/>
			<rect x="247.5" y="85.2" class="st9" width="66.7" height="6.4"/>
			<rect x="247.5" y="73.4" class="st9" width="66.7" height="6.4"/>
		</g>
		<rect x="244.3" y="73.4" class="st5" width="49.2" height="35.7"/>
		<polygon class="st10" points="314.2,139.1 284.9,139.1 284.9,148 		"/>
		<g>
			<g>
				<polygon class="st11" points="257.2,83.2 258.5,85.8 261.4,86.2 259.3,88.3 259.8,91.2 257.2,89.8 254.6,91.2 255.1,88.3 
					253,86.2 255.9,85.8 				"/>
				<polygon class="st11" points="268.9,83.2 270.2,85.8 273.1,86.2 271,88.3 271.5,91.2 268.9,89.8 266.3,91.2 266.8,88.3 
					264.7,86.2 267.6,85.8 				"/>
				<polygon class="st11" points="280.6,83.2 281.9,85.8 284.8,86.2 282.7,88.3 283.2,91.2 280.6,89.8 278,91.2 278.5,88.3 
					276.4,86.2 279.3,85.8 				"/>
			</g>
			<g>
				<polygon class="st11" points="251.4,75.2 252.7,77.8 255.6,78.3 253.5,80.3 254,83.2 251.4,81.8 248.8,83.2 249.3,80.3 
					247.2,78.3 250.1,77.8 				"/>
				<polygon class="st11" points="263.1,75.2 264.4,77.8 267.3,78.3 265.2,80.3 265.7,83.2 263.1,81.8 260.5,83.2 261,80.3 
					258.9,78.3 261.8,77.8 				"/>
				<polygon class="st11" points="274.8,75.2 276.1,77.8 279,78.3 276.9,80.3 277.4,83.2 274.8,81.8 272.2,83.2 272.7,80.3 
					270.6,78.3 273.5,77.8 				"/>
				<polygon class="st11" points="286.5,75.2 287.8,77.8 290.7,78.3 288.6,80.3 289.1,83.2 286.5,81.8 283.9,83.2 284.4,80.3 
					282.3,78.3 285.2,77.8 				"/>
			</g>
			<g>
				<polygon class="st11" points="257.2,99.2 258.5,101.8 261.4,102.2 259.3,104.3 259.8,107.2 257.2,105.8 254.6,107.2 
					255.1,104.3 253,102.2 255.9,101.8 				"/>
				<polygon class="st11" points="268.9,99.2 270.2,101.8 273.1,102.2 271,104.3 271.5,107.2 268.9,105.8 266.3,107.2 266.8,104.3 
					264.7,102.2 267.6,101.8 				"/>
				<polygon class="st11" points="280.6,99.2 281.9,101.8 284.8,102.2 282.7,104.3 283.2,107.2 280.6,105.8 278,107.2 278.5,104.3 
					276.4,102.2 279.3,101.8 				"/>
			</g>
			<g>
				<polygon class="st11" points="251.4,91.2 252.7,93.8 255.6,94.2 253.5,96.3 254,99.2 251.4,97.8 248.8,99.2 249.3,96.3 
					247.2,94.2 250.1,93.8 				"/>
				<polygon class="st11" points="263.1,91.2 264.4,93.8 267.3,94.2 265.2,96.3 265.7,99.2 263.1,97.8 260.5,99.2 261,96.3 
					258.9,94.2 261.8,93.8 				"/>
				<polygon class="st11" points="274.8,91.2 276.1,93.8 279,94.2 276.9,96.3 277.4,99.2 274.8,97.8 272.2,99.2 272.7,96.3 
					270.6,94.2 273.5,93.8 				"/>
				<polygon class="st11" points="286.5,91.2 287.8,93.8 290.7,94.2 288.6,96.3 289.1,99.2 286.5,97.8 283.9,99.2 284.4,96.3 
					282.3,94.2 285.2,93.8 				"/>
			</g>
		</g>
		<rect x="240.6" y="73.4" class="st12" width="2.8" height="102.1"/>
		<rect x="235.3" y="70.8" class="st13" width="9.6" height="4.9"/>
	</g>
	<g>
		<line class="st14" x1="198.3" y1="225.4" x2="500.9" y2="225.4"/>
		<line class="st14" x1="400.5" y1="137.3" x2="400.5" y2="224.6"/>
		<line class="st14" x1="433.7" y1="226.8" x2="433.7" y2="284.2"/>
		<line class="st14" x1="316.8" y1="226.6" x2="316.8" y2="284.6"/>
		<polyline class="st15" points="235,120.5 214.7,120.7 185.5,120.7 185.5,213.4 257.7,285.7 317.5,285.7 357.7,322.5 373.4,322.5 
			387.7,308.2 378.3,298.8 383.8,285.7 457.3,285.7 484.4,312.9 496.5,300.8 496.5,287.5 485.1,276.2 485.1,260.2 501.7,243.6 
			501.7,164.9 513.9,152.7 513.9,132.2 496,114.3 447.5,162.8 427.4,162.8 383.9,119.3 349.7,119.6 		"/>
	</g>
</g>
<g>
	<polygon class="st16" points="261.8,198.6 185.5,172.6 110.2,198.6 110.2,311 261.8,311 	"/>
	<rect x="46.9" y="221.2" class="st17" width="273.9" height="89.8"/>
	<path class="st18" d="M238.4,228.7H129.2c-45.5,0-82.3,36.9-82.3,82.3v0h273.9v0C320.8,265.6,283.9,228.7,238.4,228.7z"/>
	<rect x="59.5" y="221.2" class="st19" width="253.1" height="7.5"/>
	<path class="st17" d="M320.8,221.2H46.9l0,0c0-4.2,3.4-7.6,7.6-7.6h258.7C317.4,213.6,320.8,217,320.8,221.2L320.8,221.2z"/>
	<g>
		<g>
			<g>
				<path class="st13" d="M68.4,240.5h-3.1c-5.6,0-10.2,4.6-10.2,10.2v31.8h23.5v-31.8C78.6,245.1,74,240.5,68.4,240.5z M66.8,242.1
					c5.6,0,10.2,4.6,10.2,10.2v9.7H56.6v-9.7C56.6,246.7,61.2,242.1,66.8,242.1z M56.6,281v-17.2H77V281H56.6z"/>
				<path class="st20" d="M77,252.3v9.7H56.6v-9.7c0-5.6,4.6-10.2,10.2-10.2c3.2,0,6.1,1.5,7.9,3.8C76.2,247.7,77,249.9,77,252.3z"
					/>
				<rect x="56.6" y="263.7" class="st20" width="20.4" height="17.2"/>
			</g>
			<rect x="53.5" y="278.7" class="st13" width="26.6" height="4.9"/>
		</g>
		<g>
			<g>
				<path class="st13" d="M102.4,240.5h-3.1c-5.6,0-10.2,4.6-10.2,10.2v31.8h23.5v-31.8C112.6,245.1,108,240.5,102.4,240.5z
					 M100.8,242.1c5.6,0,10.2,4.6,10.2,10.2v9.7H90.6v-9.7C90.6,246.7,95.2,242.1,100.8,242.1z M90.6,281v-17.2H111V281H90.6z"/>
				<path class="st20" d="M111,252.3v9.7H90.6v-9.7c0-5.6,4.6-10.2,10.2-10.2c3.2,0,6.1,1.5,7.9,3.8
					C110.2,247.7,111,249.9,111,252.3z"/>
				<rect x="90.6" y="263.7" class="st20" width="20.4" height="17.2"/>
			</g>
			<rect x="87.5" y="278.7" class="st13" width="26.6" height="4.9"/>
		</g>
	</g>
	<g>
		<g>
			<path class="st13" d="M302.8,240.5h-3.1c-5.6,0-10.2,4.6-10.2,10.2v31.8H313v-31.8C313,245.1,308.4,240.5,302.8,240.5z
				 M301.2,242.1c5.6,0,10.2,4.6,10.2,10.2v9.7H291v-9.7C291,246.7,295.6,242.1,301.2,242.1z M291,281v-17.2h20.4V281H291z"/>
			<path class="st20" d="M311.4,252.3v9.7H291v-9.7c0-5.6,4.6-10.2,10.2-10.2c3.2,0,6.1,1.5,7.9,3.8
				C310.6,247.7,311.4,249.9,311.4,252.3z"/>
			<rect x="291" y="263.7" class="st20" width="20.4" height="17.2"/>
		</g>
		<rect x="287.9" y="278.7" class="st13" width="26.6" height="4.9"/>
	</g>
	<g>
		<g>
			<path class="st13" d="M187.7,242L187.7,242c-12.9,0-23.3,10.5-23.3,23.3v45.9h3.7v-45.4c0-10.3,7.9-18.7,18-19.6v64.9h3.6v-64.9
				c9.9,1,17.7,9.4,17.7,19.5v45.4h3.7v-45.9C211.1,252.5,200.6,242,187.7,242z"/>
			<path class="st4" d="M189.6,246.4v64.9h17.7v-45.4C207.3,255.7,199.6,247.4,189.6,246.4z"/>
			<path class="st21" d="M207.3,265.9v4.2l-17.7,7.6v-21.1c0-5.9,7.1-9.1,11.4-5C204.9,255.1,207.3,260.2,207.3,265.9z"/>
			<polygon class="st21" points="189.6,289.6 207.3,282.1 207.3,311.3 189.6,311.3 			"/>
			<path class="st4" d="M168.1,265.9v45.4h18v-64.9C176,247.2,168.1,255.6,168.1,265.9z"/>
		</g>
		<path class="st21" d="M186,257.7v21.5l-18,7.7v-21c0-5.2,2-9.9,5.3-13.4C177.9,247.7,186,251,186,257.7z"/>
		<polygon class="st21" points="168.1,298.9 186,291.2 186,311.3 168.1,311.3 		"/>
	</g>
	<g>
		<g>
			<path class="st13" d="M268.8,240.5h-3.1c-5.6,0-10.2,4.6-10.2,10.2v31.8H279v-31.8C279,245.1,274.4,240.5,268.8,240.5z
				 M267.2,242.1c5.6,0,10.2,4.6,10.2,10.2v9.7H257v-9.7C257,246.7,261.6,242.1,267.2,242.1z M257,281v-17.2h20.4V281H257z"/>
			<path class="st20" d="M277.4,252.3v9.7H257v-9.7c0-5.6,4.6-10.2,10.2-10.2c3.2,0,6.1,1.5,7.9,3.8
				C276.6,247.7,277.4,249.9,277.4,252.3z"/>
			<rect x="257" y="263.7" class="st20" width="20.4" height="17.2"/>
		</g>
		<rect x="253.9" y="278.7" class="st13" width="26.6" height="4.9"/>
	</g>
	<g>
		<rect x="128.5" y="233.5" class="st17" width="8.6" height="77.5"/>
		<rect x="145.8" y="233.5" class="st17" width="8.6" height="77.5"/>
		<rect x="123.5" y="298.8" class="st17" width="35.3" height="10"/>
		<rect x="123.5" y="241.4" class="st17" width="35.3" height="10"/>
	</g>
	<g>
		<rect x="220.8" y="233.6" class="st17" width="8.6" height="77.5"/>
		<rect x="238.1" y="233.6" class="st17" width="8.6" height="77.5"/>
		<rect x="216.6" y="298.9" class="st17" width="35.3" height="10"/>
		<rect x="215.8" y="241.5" class="st17" width="35.3" height="10"/>
	</g>
	<g>
		<path class="st22" d="M253.9,216.5v18.2c0,3.2-2.6,5.8-5.8,5.8H122.9c-2.3,0-4.4-1.4-5.3-3.3c-0.4-0.8-0.6-1.6-0.6-2.5v-18.2
			c0-3,2.5-5.5,5.5-5.5h125.9c0.2,0,0.4,0,0.6,0C251.8,211.4,253.9,213.7,253.9,216.5z"/>
	</g>
	<rect x="39.6" y="314.4" class="st13" width="292.3" height="8.9"/>
	<path class="st13" d="M327.4,310.5H44c-2.5,0-4.4,2-4.4,4.4l0,0h292.3l0,0C331.8,312.5,329.8,310.5,327.4,310.5z"/>
	<polygon class="st13" points="139.2,200.9 231.1,200.9 185.5,184 	"/>
	<line class="st17" x1="91.7" y1="228.7" x2="147.4" y2="228.7"/>
	<line class="st17" x1="214.5" y1="221.2" x2="270.2" y2="221.2"/>
	<circle class="st17" cx="186" cy="225" r="7.3"/>
</g>
<g>
	<g>
		<g>
			<path class="st23" d="M96.8,202.7C96.8,202.7,96.8,202.6,96.8,202.7c0-0.1,0-0.1,0-0.2c-0.8-4.3-2.1-8.6-4.1-12.4
				c-1.4-2.7-4.2-5.2-5.4-6.5c-3.2,1.7-6.4,0.9-9.3,3.2c-0.4,1.2-0.7,2.6-0.9,4c-0.5,2.6-0.8,5-1.2,7.3c-4.6,0.4-16.1,1.3-20.4,2.2
				c-2.6,0.6-2.7,1.6-3.1,1.9c0.2,4.2,3.6,6.5,5.6,9.8c0.4,0.6,27.7,0.1,32.4,0.3C89.8,212.7,99.1,211.4,96.8,202.7z"/>
			<path class="st24" d="M54.1,208.1c-0.8-0.9-1.2-2-1.7-2.9c-0.4-1.9-0.4-3.1,0.1-3.6c2-1.7,8.9,1.8,26.3,27.8
				c3.8,5.7,11.3,16.5,9.7,15.3c-1.8-1.3-3.2-2.9-4.9-4.7C59.8,215.5,57.6,212.2,54.1,208.1z"/>
			<path class="st25" d="M89,243.8l-3.1-4.9c-0.3-0.5-0.8-0.7-1.2-0.7L87,242c0.5,0.7,0.3,1.7-0.3,2.2c-0.2,0.2-0.4,0.2-0.7,0.3
				l0.7,1.1c0.5,0.7,1.3,0.9,1.9,0.5C89.3,245.5,89.4,244.6,89,243.8z"/>
			<path class="st26" d="M78,186.7c0,0.1,0.6,0.2,1.4,0.1l8.5-0.5c0.8,0,1.4-0.2,1.3-0.3l0-0.5c0-0.1-0.6-0.2-1.4-0.1l-8.5,0.5
				c-0.8,0-1.4,0.2-1.3,0.3L78,186.7z"/>
			<path class="st24" d="M58.9,210c-0.6-0.9-0.8-2.1-1.2-3.1c-0.1-1.9,0.2-3,0.8-3.4c2.3-2.1,7.5,1.8,15.8,18.9
				c4.2,8.6,7.5,16.6,13.2,21.2c0.8,0.7,1,0.8,1.3,1.5c0.8,2.4,0.5,5.4,0.4,5.3C85.1,246.9,69.9,227.5,58.9,210z"/>
			<path class="st25" d="M90.7,248.7l-2.7-5.2c-0.3-0.5-0.7-0.8-1.2-0.8l2.1,4c0.4,0.8,0.2,1.7-0.4,2.2c-0.2,0.1-0.5,0.2-0.7,0.2
				l0.6,1.2c0.4,0.8,1.2,1,1.9,0.6C90.9,250.5,91.1,249.5,90.7,248.7z"/>
		</g>
	</g>
	<g>
		<path class="st13" d="M69.4,156.8c0.7-1.2,1.7-2.2,3-3c4-2.4,9.1-1.1,11.4,2.8c2.3,3.9,1,9-3,11.4c-3.9,2.3-8.9,1.2-11.3-2.5
			C70.7,162.8,70.8,159.6,69.4,156.8z"/>
		<g>
			<path class="st27" d="M74.2,161.7c-1-0.2-2.5,1-2.8,3c-1.7,9.6-0.7,20.8-0.7,20.8s0.2,3.1,1.9,2.4c1.7-0.7,3.7-7.5,5.1-21.2
				C78,162.9,75.9,162,74.2,161.7z"/>
			<g>
				<path class="st28" d="M59.5,194.3c0,0-1.5,0.8-1.9,1.5c-0.3,0.5-1.1,3.2-1.1,3.2s0.9-0.6,1.2-1.6
					C58.2,195.8,59.5,194.3,59.5,194.3z"/>
				<path class="st28" d="M58.3,195.8c-1,0.4-1.6,1.4-2,2.8c-0.4,1.3-1.3,1.6-1.3,1.6s0.2-0.9,1-2.9c0.2-0.6,0.5-1.1,0.8-1.7
					C57.8,194,60.8,194.8,58.3,195.8z"/>
				<path class="st29" d="M60.9,193.5c-0.1,0.7-1.1,1.7-1,2.1c0.3,1.3,0.8,1.9,0.8,1.9c-1.5,0-1.8-2.2-2.5-2.9
					C57.6,194,61.1,191.6,60.9,193.5z"/>
				<path class="st24" d="M68.3,188.9c-2.6,1-5.5,2.1-6.7,3.2c-1.6,1.6-1.8,3.1-3.3,3.7c-0.2,0.1-0.3,0.2-0.5,0.2
					c-0.4,0.2-0.9,0.4-1.1,0.5c-0.2,0.1-0.6,0.6-0.5,0.3c1-2.2,2.3-4.5,2.8-4.8c1-0.7,6.5-4.3,8.8-5.2
					C70.5,185.9,71.8,187.5,68.3,188.9z"/>
				<path class="st29" d="M58.3,195.6c0,0-0.2-0.5-0.6-0.4c-0.7,0.2-1.8,1.2-2.1,1.6c-0.4,0.4-2,2.7-2,2.7s1-0.3,1.6-1.2
					C56.1,197,58.3,195.6,58.3,195.6z"/>
				<path class="st24" d="M71.3,184.6c1.8,0.5,2,0.8,2.1,1.8c-4.3,3.4-13.4,5.1-13.4,5.1L71.3,184.6z"/>
			</g>
			<path class="st27" d="M66.3,191.2c-0.2-1.2-1.1-2.3-1.6-3.1c2.4-1.8,4.6-3,7.3-4.5c1-0.6,2.2,0.4,2.1,1.4
				c-0.3,1.9-0.6,2.6-2.6,3.8C69.6,189.8,67.8,190.6,66.3,191.2z"/>
		</g>
		<path class="st13" d="M80.2,149.9c0.5-0.3,1.1-0.6,1.6-0.8c0.2,0.6,0.5,1.1,0.8,1.6c2.5,4.2,7.7,5.9,12.2,4.2
			c1.6,4.4-0.1,9.6-4.4,12.2c-4.8,2.9-11.1,1.4-13.9-3.4C73.7,158.9,75.4,152.7,80.2,149.9z"/>
		<path class="st13" d="M67.8,153.5c0.9,4.2,4.9,7,8.8,6.1c4-0.9,6.4-5,5.5-9.2c-0.9-4.2-4.9-7-8.8-6.1
			C69.4,145.2,66.9,149.3,67.8,153.5z"/>
		<path class="st24" d="M86.9,162.4c0,0-2,7.3-5.7,9.1c-3.8,1.8-5.9,1.3-6.8-0.1c-0.9-1.5-1.8-4.6-1-5.6c0.7-1,1.5-2,1.9-3.6
			c0.4-1.3-0.3-3.5-1.1-5.1c-0.8-1.6-2.2-1.4-1-2.5c1.2-1.1,0.5-1.8,1.9-1.8c1.4-0.1,2.1-0.8,2.4,0.6c0.5,2.4,1.1,5.8,2.7,7
			C82,161.6,83.6,161.8,86.9,162.4z"/>
		<path class="st24" d="M71.3,148c0.1-0.1,0.2-0.1,0.3-0.2c0.6,1.4,2,2.8,4.1,3.7c0.5,0.2,1,0.4,1.5,0.5l0.3,1.3
			c0.4,2-0.9,3.9-2.9,4.3c-2,0.4-4-0.8-4.5-2.7l-0.6-3C70.3,151.1,71,149.7,71.3,148z"/>
		<path class="st26" d="M77.7,187.9c0,0.1,0.7,0.2,1.5,0.2l9.5-0.6c0.8-0.1,1.5-0.2,1.5-0.4l0-0.5c0-0.1-0.7-0.2-1.5-0.2l-9.5,0.6
			c-0.8,0.1-1.5,0.2-1.5,0.4L77.7,187.9z"/>
		<path class="st30" d="M72.9,173.2c-0.2-4.5,0.2-6.3,1.1-8.6c0.2-0.6,0.8-1.2,1-1.7c-1.4,9,5.2,5.1,7.6,0.7
			c1.5,1.4,6.9,2.4,6.9,2.7c0.1,3.1,0,6.2,0.1,9.3c0,1.3-0.7,2.5-1.5,3.4c0.1,0.2,0.1,0.5,0.1,0.8l0.2,1.5c0,1.2,2.6,5.5,1.7,5.5
			l-12.5,0.7c-0.9,0.1-2-2.5-2-3.7l-1.3-6.1c0-0.1,0-0.2,0-0.3C73.4,176.2,72.9,174.7,72.9,173.2z"/>
		<path class="st27" d="M82.9,161.5c0,0,4.9-0.5,6.2,1.8c1.7,3,1.3,6.2,1,8.3c-0.4,2.5-0.2,5.7-0.7,8.9c-0.7,3.9,2.6,7.3,1.9,6.7
			c-0.1-0.1-4.7,0.5-7.3-0.6c-2.5-1.1-1.2-6.1-1-7.5c0.4-3.2-2.4-9.5-2-12C81.5,164.3,82.9,161.5,82.9,161.5z"/>
		<path class="st27" d="M71.8,167.7c0.1-1,0.7-2,1.4-3.4c0.2-0.4,0.8-0.9,1.3-1.3c0.8-0.6,0.7-0.5,0.4,0.2c-0.6,1.4-1.3,4-0.7,9.3
			c0.2,1.5,1.6,5.1,2.3,7.5c0.7,2.4,1.7,6.8,1.7,6.8s-2.5,0.8-2.6,1.2c-0.1,0.4,0.3-3.3-0.8-6.6C72,173.4,71.2,172,71.8,167.7z"/>
		<g>
			<path class="st27" d="M86.6,162.2c-0.9-0.4-2.5-0.6-3,1.5c-1.8,9-2.9,26.7-2.9,26.7s0.8,0.9,2.6,0.4c3-0.8,3-7.1,5.7-21.6
				C89.8,164.9,88.2,162.9,86.6,162.2z"/>
			<g>
				<path class="st24" d="M73,193.5c0,0-4.4,3.8-4.8,3.9c-0.4,0.1-0.6,0-1.6-0.1c-0.9,0-1.1,0-1.8,0c-0.7,0-0.8,0-0.8,0
					s0.1,0.4,0.3,0.5c0.3,0.1,0.9,0,1.1,0.1c0.2,0.1-0.5,0-1.6,0.3c-1,0.2-2,0.6-2.5,0.8c-0.3,0.1-0.3,0.1-0.3,0.2
					c0,0.1,0,0.2,0.2,0.2c0.1,0,0.5-0.1,0.5-0.1c-0.1,0.1-0.7,0.4-0.8,0.4c-0.1,0-0.3,0.1-0.4,0.1c-0.2,0.1-0.1,0.3,0.3,0.4
					c0,0,0.1,0.2,0.2,0.2c0.1,0,0.1,0,0.1,0c0.1,0,0.1,0,0.2,0c0.2,0,0.5,0,0.7,0c0.1,0,0.9-0.2,0.9-0.1c0,0-0.6,0.2-0.6,0.3
					c0,0.1,0.2,0.2,0.3,0.2c0.2,0,0.5-0.1,1.3-0.3c0.9-0.2,1.1-0.4,2.3-0.4c1,0,1.3-0.2,1.9-0.8c2-1.8,6.4-3.5,7-4
					C75.8,194.8,73,193.5,73,193.5z"/>
			</g>
			<path class="st27" d="M73.9,197.2c-1.1-0.6-1.1-2-1.7-3.4c3.1-2.3,5.3-4.6,8.7-6.8c1.3-0.8,4.1,0.1,4.4,1
				c0.6,1.6-4.6,5.1-7.2,6.7C76.6,195.6,75,196.9,73.9,197.2z"/>
		</g>
	</g>
	<g>
		<rect x="53.2" y="200.1" class="st31" width="24" height="0.5"/>
		<path class="st11" d="M66.6,200.1c0,0.4-0.3,0.7-0.6,0.7H53.7c-0.3,0-0.8-0.2-1.2-1.2l-6.1-11.1c0-0.5,0.4-0.8,0.7-0.7l12.6,0.4
			c0.3,0.1,0.6,0.3,0.8,0.8L66.6,200.1z"/>
		<path class="st32" d="M65.1,200.6h0.1h12c-0.4,0.2-1.2,0.4-2,0.4H65.3h-0.1H55.1c-0.8,0-1.5-0.1-2-0.4H65.1z"/>
	</g>
</g>
<g>
	<g>
		<path class="st33" d="M83,140.7c0.2-0.5,0.4-1.1,0.6-1.6"/>
		<path class="st34" d="M84.9,135.9c26.5-63.5,89.1-108.1,162.2-108.1c89.8,0,163.9,67.4,174.4,154.3"/>
		<path class="st33" d="M421.8,183.9c0.1,0.6,0.1,1.1,0.2,1.7"/>
	</g>
</g>
<circle class="st35" cx="125.6" cy="77.2" r="20.1"/>
<circle class="st35" cx="225.1" cy="28.9" r="21"/>
<rect x="331.8" y="315" class="st13" width="75.2" height="8.4"/>
<rect x="343.9" y="291.4" class="st36" width="31.9" height="31.9"/>
<rect x="375.8" y="291.4" class="st36" width="31.9" height="31.9"/>
<rect x="359.5" y="259.5" class="st36" width="31.9" height="31.9"/>
<rect x="371.2" y="259.7" class="st36" width="9" height="9.4"/>
<rect x="355" y="291.4" class="st36" width="9" height="9.4"/>
<rect x="387.2" y="291.4" class="st36" width="9" height="9.4"/>
<rect x="385.4" y="262" class="st4" width="4.2" height="27"/>
<rect x="369.7" y="293.9" class="st4" width="4.2" height="27"/>
<rect x="401.7" y="293.9" class="st4" width="4.2" height="27"/>
<g>
	<path class="st37" d="M427.9,259.8c0,0-6.7,23.6-12,32.1c-5.3,8.5-7.2-2.5-7.2-2.5l6.6-39.3l15.5-0.1
		C430.9,249.9,430.5,250.8,427.9,259.8z"/>
	<path class="st37" d="M420.6,250c0,0,4.5,38.7,5.1,40.7c2.2,6.6,7.1,2.3,7.9,0.1c0.8-2.2,2-18.4,1.8-30.3
		c-0.3-11.8-0.3-11.1-0.3-11.1L420.6,250z"/>
	<path d="M434.2,326.1c0.2,0.3,0.1,1,0.1,1s-4,0.4-5.3,0.1c-0.3-0.1-0.9-0.4-1.4-0.7c-0.1-0.1-0.2-0.4-0.3-0.4
		c-0.2-0.1-0.2,0.1-0.4,0c-0.4-0.2-0.6-0.4-0.6-0.4c-0.4-1.8,0.1-2.6,0.1-2.6s3.4-1.1,4.1-0.3C431.8,324.6,433.7,325.5,434.2,326.1z
		"/>
	<path d="M409.2,324.4l-0.6,3h-3.1c0,0-0.2-0.4-0.4-0.4c-0.2,0-0.5,0.4-0.8,0.4c-0.6,0-1.4,0-1.6,0c-0.6,0-6.1,0-6.1,0
		s-0.1-0.6,0-0.8c0.1-0.1,0.6-0.3,0.9-0.4c1.6-0.4,6.1-1.8,6.9-3.3C405.4,321,409.2,324.4,409.2,324.4z"/>
	<path class="st38" d="M428.2,207.9c-0.2,1,0.1,1.9,0.8,2l0,0c0.7,0.2,1.4-0.5,1.6-1.4l0.3-1.2c0.2-1-0.1-1.9-0.8-2l0,0
		c-0.7-0.2-1.4,0.5-1.6,1.4L428.2,207.9z"/>
	<path class="st38" d="M422.2,216.9c0.1,1.7,1.1,3.2,2,3.3c0.9,0,1.9,0,2.8,0c1-0.1,1.9-1.6,2.1-3.3c0.2-2.8,0.5-5.7,0.7-8.5
		c0.2-1.7-0.5-5.1-2-6.2c-1.4-0.9-2.9-0.9-4.3,0c-1.5,1-2.1,4.4-2,6.2C421.8,211.2,422,214,422.2,216.9z"/>
	<path class="st24" d="M443,244.4l-9.9,10.2c0,0,12-2.7,12.5-7.7C446.1,241.9,443,244.4,443,244.4z"/>
	<linearGradient id="SVGID_2_" gradientUnits="userSpaceOnUse" x1="413.7115" y1="224.1933" x2="455.1115" y2="269.4333">
		<stop  offset="0" style="stop-color:#00B5D1"/>
		<stop  offset="1" style="stop-color:#00D1C8"/>
	</linearGradient>
	<path class="st39" d="M413.3,220.6l7.9-3l4.3,1.3l5.4-0.6l5.9,2.6c0,0,2.7,2.6,0.2,10.8c-2.5,8.2-1.5,21.2-1.5,21.2l-21,0.9
		c0,0-0.8-12-1.8-23.9C411.9,220.5,414.2,222.6,413.3,220.6z"/>
	<linearGradient id="SVGID_3_" gradientUnits="userSpaceOnUse" x1="433.0587" y1="235.2243" x2="448.9113" y2="235.2243">
		<stop  offset="0" style="stop-color:#00B5D1"/>
		<stop  offset="1" style="stop-color:#00D1C8"/>
	</linearGradient>
	<path class="st40" d="M433.1,221.2c0,0,3.3-2.6,6.5,2.2c4.9,7.3,8.2,15.4,8.8,17c0.6,1.6,1.3,6.6-1,8.1c-2.3,1.5-2.3,1.5-2.3,1.5
		l-4.8-2.9l0.8-1.5l0.4-0.9c0,0-2.7-5.9-5.5-11.2C433.1,228.2,433.1,221.2,433.1,221.2z"/>
	<path class="st24" d="M420.8,212.5c0.4,1.6,1.1,2,2.3,2.2c1.1,0.1,1.4,0.2,2.5,0.3c1.2,0.1,2.4-1.5,2.7-3c0.4-2.4,1.7-4.3,2.2-6.7
		c0.3-1.4-0.3-2.7-2.1-3.7c-1.6-0.9-3.5-2.8-5.1-2.2c-1.8,0.7-2.9,3.5-2.8,4.9C420.6,206.8,420.7,210,420.8,212.5z"/>
	<polygon class="st41" points="425.7,218.9 427.4,221.8 430.9,217.9 429.4,216.3 	"/>
	<polygon class="st41" points="422,216.2 424.1,218.4 422.7,220.9 421,217.6 	"/>
	<path class="st37" d="M424.5,274.2c0,0,1,14.7,0.8,22.5c-0.1,5.9-0.1,17.1,0.8,26.6c0.1,0.6,4.8,0.1,4.8,0.1s3.2-36.6,3.7-42.6
		C435.2,274.8,428.3,269.9,424.5,274.2z"/>
	<path class="st37" d="M410.4,290.4c0,0,1.3,0.3,5.6,0.7c1.9,0.2-5.7,33.9-5.7,33.9l-6-2.6l4.5-34L410.4,290.4z"/>
	<path class="st13" d="M431.3,203.5l-0.9,1.9c0,0-1.8-2.1-3.1-3.8c-0.4-0.5-4.6-0.6-5.6-0.4c-0.8,0.1-0.8,1.1-1,1.7
		c-0.6,2,0.3-3.4,0.3-3.4s1.4-2.5,4.1-2.8c1.5-0.1,2.2,0.7,2.7,1.8c0.1,0.3-1.6-0.4-1.3-0.5c0.1,0,1.8,1.5,1.9,1.6
		c0.3,0.6,0.5,1.2,0.9,1.7C430.6,203.3,431.3,203.5,431.3,203.5z"/>
	<polygon class="st38" points="425,204.6 423.9,204.7 424.2,205.4 423.3,205.8 422.4,209.3 423.9,209.4 424.1,207.3 425.1,206.2 
		427.4,206 	"/>
	<polygon class="st41" points="445.2,249 441.1,245.6 439.5,247.7 443.5,251 	"/>
	<g>
		<path class="st24" d="M436,250.7c-0.7,0.2-0.6,0.2-0.6,0.2s0,0.9-0.5,1.5c-0.3,0.3-1.2,1.2-1.2,1.2l-1.4,1.4l-0.7,0.6
			c0,0-0.4,0.3-0.5,0.5c-0.1,0.5,0.3,0.4,0.3,0.4l2.9-2l-2.2,2.6c0,0-0.2,0.4-0.1,0.6c0.1,0.2,0.2,0.1,0.2,0.1l3.2-2.3l-1,1.5
			c0,0-0.2,0.4-0.1,0.6c0.1,0.2,0.2,0.3,0.2,0.3l2.4-2.7C436.9,254.9,436.7,250.5,436,250.7z"/>
		<path class="st24" d="M434.6,254.9l-1.5,1.9c0,0-0.4,0.4-0.4,0.7c-0.1,0.3,0.2,0.4,0.2,0.4l2.5-2.7L434.6,254.9z"/>
	</g>
	<path class="st41" d="M425.8,253.2h-2.2c-2.3-11.5-2.2-23.4,0.3-34.9c0.7,0.3,1.3,0.5,2,0.8C423.4,230.3,423.4,241.9,425.8,253.2z"
		/>
	<g>
		<g>
			<path class="st24" d="M397,248.9l-7.7,10.8l-3.1,0c0,0,0-0.2,0.7-0.5c0.2-0.1,1.2,0,1.3-0.2c0.2-0.2,1.2-0.6,1.2-1
				c0.4-3.1,0.5-7.7,2-10.9C394,242.1,397.2,248.8,397,248.9z"/>
			<linearGradient id="SVGID_4_" gradientUnits="userSpaceOnUse" x1="392.516" y1="247.2811" x2="408.236" y2="230.961">
				<stop  offset="0" style="stop-color:#00B5D1"/>
				<stop  offset="1" style="stop-color:#00D1C8"/>
			</linearGradient>
			<path class="st42" d="M414.9,220c0,0-5.2,1.1-14,12.2c-9,11.3-8.1,11.7-8.1,11.7l-1.4,3l4.7,3.6l15.3-17.5L414.9,220z"/>
			<linearGradient id="SVGID_5_" gradientUnits="userSpaceOnUse" x1="415.0763" y1="231.1038" x2="384.5963" y2="248.3838">
				<stop  offset="0" style="stop-color:#00B5D1"/>
				<stop  offset="1" style="stop-color:#00D1C8"/>
			</linearGradient>
			<path class="st43" d="M415.7,228.2l-10.9,11.9l-4.4,3.9l1.4-2.3c0,0,0.9-1.4,6.1-8c2.9-3.8,4.3-5.1,6.2-6.8L415.7,228.2z"/>
			<polygon class="st41" points="393.3,245 397.1,247.5 398,248.3 396.1,250.5 391.3,246.8 			"/>
		</g>
		<path class="st24" d="M385,257.8c-0.9,0.5-2.6,1.3-2,1.6l3.1-1.2l1.6,0l1,0.9l0.6-0.9c0.4-0.1,0.7-0.2,0.5-0.9l0.3-0.4
			c-1.2-0.2-1.7-0.4-2.1-0.3l-1.5,0.4C386,257.1,385,257.8,385,257.8z"/>
	</g>
</g>
<g>
	<g>
		<g>
			<rect x="133.1" y="80.2" class="st5" width="3" height="1"/>
			<rect x="129.1" y="80.2" class="st5" width="3" height="1"/>
			<rect x="125.2" y="80.2" class="st5" width="3" height="1"/>
			<path class="st5" d="M141.1,70.6l-9.9-9.9c-0.3-0.3-0.7-0.4-1.1-0.4h0c-0.4,0-0.8,0.2-1.1,0.4l-10.5,10.5h-5.5
				c-0.8,0-1.5,0.7-1.5,1.5v14c0,0.8,0.7,1.5,1.5,1.5h7.4l1.5,1.5c0.3,0.3,0.7,0.4,1.1,0.4h0c0.4,0,0.8-0.2,1.1-0.4l1.5-1.5h11.4
				c0.8,0,1.5-0.7,1.5-1.5V75.2l2.5-2.5c0.3-0.3,0.4-0.7,0.4-1.1C141.5,71.3,141.4,70.9,141.1,70.6z M134.8,65.7l-5.5,5.5H125
				l7.6-7.6L134.8,65.7z M129.8,61.5c0.2-0.2,0.5-0.2,0.7,0c0,0,0,0,0,0l1.4,1.4l-8.3,8.3h-3.5L129.8,61.5z M123.5,88.9
				c-0.1,0.1-0.2,0.1-0.3,0.1c-0.1,0-0.3-0.1-0.4-0.1l-0.8-0.8h2.3L123.5,88.9z M137.6,86.7c0,0.3-0.2,0.5-0.5,0.5h-23.9
				c-0.3,0-0.5-0.2-0.5-0.5v-7h24.9V86.7z M137.6,78.7h-24.9v-3h24.9V78.7z M137.6,74.7h-24.9v-2c0-0.3,0.2-0.5,0.5-0.5h23.9
				c0.3,0,0.5,0.2,0.5,0.5V74.7z M140.4,72L140.4,72l-1.8,1.8v-1.1c0-0.8-0.7-1.5-1.5-1.5h-6.5l4.8-4.8l4.9,4.9
				c0.1,0.1,0.1,0.2,0.1,0.4C140.5,71.8,140.5,71.9,140.4,72z"/>
			<path class="st5" d="M116.5,86.2c0.1-0.1,0.1-0.1,0.2-0.2c0.7,0.8,1.8,0.9,2.6,0.3c0.5-0.4,0.9-1,0.9-1.6c0-1.1-0.9-2-2-2
				c-0.1,0-0.2,0-0.3,0l0,0c0,0,0,0,0,0c-0.5,0.1-0.9,0.3-1.2,0.7c-0.7-0.8-2-0.9-2.8-0.2c-0.8,0.7-0.9,2-0.2,2.8
				C114.4,86.8,115.6,86.9,116.5,86.2z M118.1,83.7c0,0,0.1,0,0.1,0c0.6,0,1,0.4,1,1c0,0.2-0.1,0.4-0.2,0.6c0,0,0,0-0.1,0.1
				c0,0,0,0,0,0c-0.2,0.2-0.5,0.3-0.7,0.3c-0.6,0-1-0.5-1-1C117.2,84.2,117.6,83.8,118.1,83.7z M115.2,83.7c0.6,0,1,0.4,1,1
				c0,0.6-0.4,1-1,1c-0.6,0-1-0.4-1-1C114.2,84.1,114.6,83.7,115.2,83.7z"/>
		</g>
	</g>
</g>
<g>
	<g>
		
			<rect x="212.1" y="20.4" transform="matrix(0.8604 -0.5097 0.5097 0.8604 17.8047 118.2987)" class="st44" width="25.4" height="12.5"/>
		<g>
			<path class="st5" d="M230.7,20c-0.6,0.4-1.5,0.2-1.9-0.5c-0.1-0.2-0.4-0.3-0.7-0.2l-4.8,2.8l0,0l-2.8,1.7c0,0,0,0,0,0l-0.6,0.3
				c-0.2,0.1-0.3,0.5-0.2,0.7l0,0c0.1,0.2,0.5,0.3,0.7,0.2l0.6-0.3c0,0,0,0,0,0l2.8-1.7v0l4.4-2.6c0.6,0.7,1.6,0.9,2.5,0.6l1.9,3.3
				c-0.7,0.6-0.9,1.6-0.6,2.5l-1.3,0.8c-0.2,0.1-0.3,0.4-0.2,0.7c0.1,0.3,0.5,0.4,0.7,0.2l1.7-1c0.2-0.1,0.3-0.4,0.2-0.7
				c-0.4-0.6-0.2-1.5,0.5-1.9c0.2-0.1,0.3-0.4,0.2-0.7c-0.6-1-1.8-3.1-2.4-4C231.2,19.9,230.9,19.8,230.7,20z"/>
			<path class="st5" d="M226.6,30l-2.8,1.7l0,0l-4.4,2.6c-0.6-0.7-1.6-0.9-2.5-0.6l-1.9-3.3c0.7-0.6,0.9-1.6,0.6-2.5l1.3-0.8
				c0.2-0.1,0.3-0.4,0.2-0.7c-0.1-0.3-0.5-0.4-0.7-0.2l-1.7,1c-0.2,0.1-0.3,0.4-0.2,0.7c0.4,0.6,0.2,1.5-0.5,1.9
				c-0.2,0.1-0.3,0.4-0.2,0.7c0.6,1,1.8,3.1,2.4,4c0.1,0.2,0.4,0.3,0.7,0.2c0.6-0.4,1.5-0.2,1.9,0.5c0.1,0.2,0.4,0.3,0.7,0.2
				l4.8-2.8l0,0l2.8-1.7c0,0,0,0,0,0l0.6-0.3c0.2-0.1,0.3-0.5,0.2-0.7v0c-0.1-0.2-0.5-0.3-0.7-0.2L226.6,30
				C226.6,30,226.6,30,226.6,30z"/>
		</g>
	</g>
	<g>
		<rect x="210.4" y="24.4" class="st45" width="28.8" height="14.2"/>
		<path class="st5" d="M227.2,30.6L227.2,30.6c-0.4-1-1.4-1.7-2.5-1.7c0,0,0,0,0,0c0,0,0,0,0,0c-1.1,0-2.1,0.7-2.5,1.7v0
			c-0.1,0.3-0.2,0.7-0.2,1c0,0.4,0.1,0.7,0.2,1v0c0.4,1,1.4,1.7,2.5,1.7c0,0,0,0,0,0c0,0,0,0,0,0c1.1,0,2.1-0.7,2.5-1.7v0
			c0.1-0.3,0.2-0.7,0.2-1C227.4,31.2,227.3,30.9,227.2,30.6z M224.7,33.2C224.7,33.2,224.7,33.2,224.7,33.2
			C224.7,33.2,224.7,33.2,224.7,33.2c-0.9,0-1.6-0.7-1.6-1.6c0-0.9,0.7-1.6,1.6-1.6c0,0,0,0,0,0c0,0,0,0,0,0c0.9,0,1.6,0.7,1.6,1.6
			C226.3,32.5,225.6,33.2,224.7,33.2z"/>
		<g>
			<path class="st5" d="M235.6,28.4c-0.9,0-1.5-0.7-1.5-1.5c0-0.3-0.3-0.6-0.6-0.6h-6.3v0h-3.7c0,0,0,0,0,0h-0.8
				c-0.3,0-0.6,0.3-0.6,0.6l0,0c0,0.3,0.3,0.6,0.6,0.6h0.8c0,0,0,0,0,0h3.7v0h5.8c0.2,1,1,1.8,2,2v4.3c-1,0.2-1.8,1-2,2h-1.8
				c-0.3,0-0.6,0.2-0.6,0.5c0,0.3,0.2,0.6,0.6,0.6h2.3c0.3,0,0.6-0.3,0.6-0.6c0-0.9,0.7-1.5,1.5-1.5c0.3,0,0.6-0.3,0.6-0.6
				c0-1.3,0-4,0-5.3C236.2,28.6,235.9,28.4,235.6,28.4z"/>
			<path class="st5" d="M225.9,35.8h-3.7v0h-5.8c-0.2-1-1-1.8-2-2v-4.3c1-0.2,1.8-1,2-2h1.8c0.3,0,0.6-0.2,0.6-0.5
				c0-0.3-0.2-0.6-0.6-0.6h-2.3c-0.3,0-0.6,0.3-0.6,0.6c0,0.9-0.7,1.5-1.5,1.5c-0.3,0-0.6,0.3-0.6,0.6c0,1.3,0,4,0,5.3
				c0,0.3,0.3,0.6,0.6,0.6c0.9,0,1.5,0.7,1.5,1.5c0,0.3,0.3,0.6,0.6,0.6h6.3v0h3.7c0,0,0,0,0,0h0.8c0.3,0,0.6-0.3,0.6-0.6l0,0
				c0-0.3-0.3-0.6-0.6-0.6L225.9,35.8C225.9,35.8,225.9,35.8,225.9,35.8z"/>
		</g>
	</g>
</g>
</svg>
