<?xml version="1.0" encoding="utf-8"?>
<!-- Generator: Adobe Illustrator 23.0.0, SVG Export Plug-In . SVG Version: 6.00 Build 0)  -->
<svg version="1.1" id="Capa_1" xmlns="http://www.w3.org/2000/svg" xmlns:xlink="http://www.w3.org/1999/xlink" x="0px" y="0px"
	 viewBox="0 0 449 334" style="enable-background:new 0 0 449 334;" xml:space="preserve">
<style type="text/css">
	.st0{fill:#FFFFFF;}
	.st1{fill:url(#SVGID_1_);}
	.st2{fill:#381B91;}
	.st3{fill:url(#SVGID_2_);}
	.st4{opacity:0.23;}
	.st5{fill:#ABC4FF;stroke:#381B91;stroke-width:3.2417;stroke-miterlimit:10;}
	.st6{opacity:0.78;fill:#FFFFFF;}
	.st7{opacity:0.3;fill:#381B91;}
	.st8{fill:#4E5ED7;}
	.st9{fill:none;stroke:#381B91;stroke-width:3.2417;stroke-miterlimit:10;}
	.st10{opacity:0.2;fill:#FFFFFF;}
	.st11{opacity:0.3;fill:#FFFFFF;}
	.st12{fill:#FFFFFF;stroke:#381B91;stroke-width:3.2417;stroke-miterlimit:10;}
	.st13{opacity:0.9;fill:#FFFFFF;}
	.st14{fill:#FFFFFF;stroke:#381B91;stroke-width:2.7377;stroke-miterlimit:10;}
	.st15{fill:#ABC4FF;stroke:#381B91;stroke-width:2.7377;stroke-miterlimit:10;}
	.st16{fill:#ABC4FF;stroke:#381B91;stroke-width:1.8251;stroke-miterlimit:10;}
	.st17{fill:none;stroke:#ABC4FF;stroke-width:6.3879;stroke-miterlimit:10;}
	.st18{fill:none;stroke:#ABC4FF;stroke-width:3.6503;stroke-miterlimit:10;}
	.st19{opacity:0.44;fill:none;stroke:#ABC4FF;stroke-width:5.4754;stroke-miterlimit:10;}
	.st20{fill:#F2F2F2;stroke:#381B91;stroke-width:3.2357;stroke-miterlimit:10;}
	.st21{opacity:0.5;fill:#C6ABFF;}
	.st22{fill:#FFFFFF;stroke:#381B91;stroke-width:3.2357;stroke-miterlimit:10;}
	.st23{opacity:0.3;}
	.st24{fill:none;stroke:#381B91;stroke-width:3.2357;stroke-miterlimit:10;}
	.st25{fill:#FF394C;}
	.st26{fill:#486FFF;}
	.st27{fill:#161711;}
	.st28{fill:#E9D6B8;}
	.st29{fill:#3D3988;}
	.st30{fill:url(#SVGID_3_);}
	.st31{fill:url(#SVGID_4_);}
	.st32{fill:#1C151D;}
	.st33{fill:#E2C59C;}
	.st34{fill:#C9300A;}
	.st35{fill:#FF3D0D;}
	.st36{fill:#FF7C07;}
	.st37{fill:#FFC40E;}
</style>
<g>
	<path class="st0" d="M283.2,298.5c-53,20.4-109.9,23.5-160.3-2.8c-50.3-26.2-86.1-78.6-92.2-135.1c-3.4-31.5,2.6-65.1,22-90.1
		s53.7-39.6,84.1-30.5c21.2,6.3,38.4,22.8,59.9,27.7c25.9,5.9,52.3-6.1,75.2-19.5s46-29,72.5-31.1c34.2-2.8,67.9,19.2,83.3,49.9
		s14.3,68.1,1.5,100c-12.7,31.9-36,58.7-62.7,80.4C347,263.4,300.5,291.9,283.2,298.5z"/>
</g>
<linearGradient id="SVGID_1_" gradientUnits="userSpaceOnUse" x1="261.7692" y1="128.8826" x2="404.5766" y2="128.8826">
	<stop  offset="0" style="stop-color:#00B5D1"/>
	<stop  offset="1" style="stop-color:#00D1C8"/>
</linearGradient>
<path class="st1" d="M374.9,186.8c42-30.1,38.9-93.5-5.5-119.6c-0.1-0.1-0.3-0.2-0.4-0.3c-26.4-15.2-60.2-12.2-83.5,8.8
	c-1.3,1.1-1.4,3.1-0.2,4.4c1.1,1.3,3.1,1.4,4.4,0.2c15.2-13.7,35.9-19.4,55.8-15.6c-0.3,3.4-2.6,7-5.2,9.5
	c-5,4.8-25.9,0.7-33.5,17.2c-1.1,2.3-2.5,6.4-3.8,8.5c-0.7-2.3-1.2-6-4.1-8.4c-1.8-1.5-3.6-2.1-5.6-2c-3.5,0.3-5.9,3.4-7.4,5.2
	c-3.1,3.8-1.7,7.3-0.7,9.8c0.9,2.3,1.7,4.3,0.2,7.7c-1.4,3.2,1.5,6.7,2.5,7.9c4,4.7,13.9,12.6,20,11.1c14.8-3.7,19,20.5,28.9,23
	c7.4,1.9,14.5,6.2,13.6,10.1c-2.8,12-14.1,10.8-21.3,14c-3.9,1.7-11,6.7-15.8,12.7c-3.8-1.2-7.4-2.7-10.8-4.6c0.5-1.1,1-2.2,1.5-3.4
	c5.2-10.8,4.8-16.5-7.4-26.6c-5.9-4.8-3.8-11.4-1.1-16c1.7-3,0.9-6.8-2-8.7c-4.4-3-17.3-10.7-23.3-19.6c2.2-8.3,6-16,11.2-22.9
	c1-1.4,0.8-3.3-0.6-4.3c-1.4-1-3.3-0.8-4.3,0.6c-17.3,22.5-20.4,54.9-3.9,81.3c21.8,34.8,68.1,44,101.5,20.6
	C374.5,187.2,374.7,187,374.9,186.8z M374,179.8c-0.5-4.8,3.8-11.9,7.7-18.4c5.1-8.5,10-16.5,6.1-22.2c-3.6-5.4-9-3.2-15.3-8.4
	c-3.7-3-7.1-6.9-5.1-17.4c0.6-3,3.4-6.7,8.1-10.5c3-2.5,4.2-6.6,2.8-10.3c-0.5-1.5-0.6-2.4-0.4-2.8c2.2-5.7-7.2-8.8-8-14.8
	C406.3,99.6,408.1,152.5,374,179.8z M268.6,120c7.1,7.8,16.7,13.6,21.5,16.8c0.2,0.1,0.2,0.3,0.1,0.5c-5.5,9.3-4.6,18.1,2.5,23.9
	c11.7,9.7,8.9,11.8,4.4,22C277,169.9,265,145.6,268.6,120z M319.9,192.7c3.8-4.1,8.8-7.6,11.7-8.8c5.9-2.6,21.1-2.3,24.8-18.3
	c1.9-8.4-7.7-14.8-18.1-17.4c-5.7-1.4-12.6-27.8-31.9-23c-0.4,0.1-2.3-0.1-5.9-2.4c-5-3.1-8.6-7.1-9.3-8.6c2.2-5.4,0.7-9.3-0.4-11.9
	c-0.9-2.4-1-2.7-0.2-3.7c0.6-0.7,2.3-2.8,3.2-2.9c0.2,0,0.6,0.2,1,0.5c2.6,2.2,1.2,9.5,6.9,10.6c6,1.1,8.4-7.8,10.7-12.8
	c6.2-13.5,24.6-8.2,32.1-15.3c3.9-3.7,6.3-8.2,7-12.5c4.4,1.3,8.5,3,12.5,5c-1.9,9,5.9,14.2,8,16.8c-0.5,1.8-0.3,4,0.6,6.5
	c0.5,1.2,0.1,2.6-0.9,3.4c-4.1,3.3-9.2,8.5-10.3,14.1c-2.5,13.2,2.2,19.3,7.2,23.4c11.6,9.6,21.6-0.1,7.9,22.6
	c-5.2,8.5-10.9,18-7.8,25.5C354.7,192.6,337.3,196.4,319.9,192.7z"/>
<polygon class="st2" points="356.4,135.7 329.9,135.7 329.9,141.3 323.8,141.3 323.8,135.7 272.3,135.7 272.3,119.3 199.9,119.3 
	199.9,72.5 185.8,72.5 185.8,99.5 166.4,99.5 166.4,91.7 96.9,91.7 96.6,103.6 85.5,103.6 85.5,118.3 77.4,118.3 77.4,124.6 
	72.6,124.6 72.6,253.6 353.1,253.6 "/>
<linearGradient id="SVGID_2_" gradientUnits="userSpaceOnUse" x1="-444.8517" y1="32.957" x2="-613.257" y2="35.8463" gradientTransform="matrix(-0.9986 5.211433e-02 -5.211433e-02 -0.9986 -345.439 215.7957)">
	<stop  offset="0" style="stop-color:#5162D3;stop-opacity:0.67"/>
	<stop  offset="1" style="stop-color:#FFFFFF"/>
</linearGradient>
<path class="st3" d="M116,121.4c-25.4,20.3-21.3,59.9,7.4,74.8c0.1,0.1,0.2,0.1,0.3,0.1c17,8.7,38.2,5.7,52.1-8.2
	c0.8-0.8,0.8-2,0-2.7c-0.8-0.8-2-0.8-2.7,0c-9.1,9.1-21.9,13.3-34.5,11.6c0.1-2.1,1.4-4.5,2.9-6.1c3-3.2,16.2-1.3,20.4-11.9
	c0.6-1.5,1.4-4.1,2.1-5.4c0.5,1.4,1,3.7,2.9,5.2c1.1,0.9,2.3,1.2,3.6,1c2.2-0.3,3.6-2.3,4.5-3.5c1.8-2.5,0.8-4.6,0.1-6.2
	c-0.7-1.4-1.2-2.7-0.4-4.8c0.8-2.1-1.2-4.2-1.8-4.9c-2.6-2.8-9.2-7.4-12.9-6.3c-9.2,2.8-12.6-12.2-18.9-13.5
	c-4.7-0.9-9.3-3.4-8.9-5.9c1.3-7.6,8.5-7.3,12.9-9.5c2.4-1.2,6.7-4.6,9.5-8.5c2.4,0.6,4.7,1.5,6.9,2.5c-0.3,0.7-0.5,1.4-0.9,2.2
	c-2.9,7-2.5,10.5,5.5,16.4c3.8,2.8,2.8,7,1.2,10c-1,1.9-0.3,4.3,1.5,5.4c2.9,1.7,11.2,6.2,15.3,11.6c-1.1,5.3-3.2,10.3-6.3,14.7
	c-0.6,0.9-0.4,2.1,0.5,2.7c0.9,0.6,2.1,0.4,2.7-0.5c10.1-14.7,11-35.1-0.2-51.2c-14.8-21.1-44.2-25.4-64.4-9.6
	C116.2,121.2,116.1,121.3,116,121.4z M116.8,125.9c0.5,3-2,7.6-4.2,11.8c-2.9,5.5-5.7,10.7-3.1,14.1c2.5,3.3,5.8,1.7,9.9,4.8
	c2.4,1.8,4.7,4.1,3.8,10.8c-0.3,1.9-1.9,4.3-4.7,6.8c-1.8,1.6-2.4,4.3-1.4,6.6c0.4,0.9,0.4,1.5,0.4,1.8c-1.2,3.6,4.8,5.3,5.5,9
	C99.1,177.2,96.3,144.1,116.8,125.9z M184.8,159.9c-4.7-4.7-10.9-8-14-9.9c-0.1-0.1-0.1-0.2-0.1-0.3c3.1-6,2.3-11.5-2.4-14.9
	c-7.7-5.7-6-7.1-3.5-13.7C177.9,128.9,186.3,143.7,184.8,159.9z M150.2,115.9c-2.3,2.7-5.3,5-7,5.9c-3.6,1.8-13.2,2.1-15,12.3
	c-0.9,5.3,5.3,9,11.9,10.3c3.6,0.7,8.8,17,20.8,13.4c0.2-0.1,1.4,0,3.8,1.3c3.2,1.8,5.6,4.2,6.1,5.1c-1.2,3.5-0.1,5.9,0.6,7.5
	c0.7,1.5,0.7,1.7,0.3,2.3c-0.3,0.5-1.3,1.8-1.9,1.9c-0.1,0-0.4-0.1-0.6-0.3c-1.7-1.3-1.1-5.9-4.7-6.4c-3.8-0.5-5,5.2-6.3,8.4
	c-3.4,8.7-15.2,5.9-19.6,10.7c-2.3,2.5-3.7,5.4-4,8.1c-2.8-0.7-5.4-1.6-8-2.8c0.9-5.7-4.2-8.7-5.5-10.3c0.3-1.2,0.1-2.5-0.6-4
	c-0.3-0.8-0.1-1.6,0.4-2.2c2.5-2.2,5.5-5.6,6-9.2c1.2-8.4-2-12-5.3-14.4c-7.6-5.6-13.5,0.8-5.7-14c3-5.5,6.2-11.7,4.1-16.2
	C128.5,117.1,139.2,114.2,150.2,115.9z"/>
<rect x="131.7" y="147.5" class="st0" width="63.7" height="31.2"/>
<rect x="204.1" y="147.5" class="st0" width="33.6" height="31.2"/>
<g class="st4">
	<image style="overflow:visible;" width="157" height="84" xlink:href="70745A58.png"  transform="matrix(1 0 0 1 289 260)">
	</image>
</g>
<g class="st4">
	<image style="overflow:visible;" width="156" height="80" xlink:href="70745A59.png"  transform="matrix(1 0 0 1 -14 266)">
	</image>
</g>
<rect id="XMLID_99_" x="118.5" y="115.2" class="st5" width="133.1" height="139.5"/>
<rect id="XMLID_98_" x="163.2" y="200.1" class="st6" width="43.8" height="54.6"/>
<polygon id="XMLID_95_" class="st7" points="118.5,124.5 160.5,124.5 235.4,124.5 251.6,124.5 251.6,115.2 118.5,115.2 "/>
<polygon id="XMLID_94_" class="st8" points="109.6,90.4 109.6,103.7 118.5,117.1 161.8,117.1 232.8,117.1 251.6,117.1 260.5,102.2 
	260.5,90.4 "/>
<polyline id="XMLID_93_" class="st9" points="161.8,117.1 118.5,117.1 109.6,103.7 109.6,90.4 260.5,90.4 260.5,102.2 251.6,117.1 
	232.8,117.1 "/>
<line id="XMLID_92_" class="st9" x1="109.6" y1="103.8" x2="178.5" y2="103.8"/>
<line id="XMLID_54_" class="st9" x1="118.5" y1="233.4" x2="118.5" y2="254.4"/>
<line id="XMLID_52_" class="st9" x1="92.6" y1="233.4" x2="92.6" y2="256"/>
<line id="XMLID_50_" class="st9" x1="86.7" y1="256.3" x2="284.6" y2="256.3"/>
<line id="XMLID_47_" class="st9" x1="177.3" y1="117.1" x2="168.4" y2="117.1"/>
<g id="XMLID_23_">
	<path id="XMLID_46_" class="st5" d="M347.9,148.1H247.4c-0.4,0-0.6,0.3-0.6,0.6v107.6h101.8V148.7
		C348.5,148.3,348.3,148.1,347.9,148.1z"/>
	<path id="XMLID_45_" class="st10" d="M347.9,148.1h-10.8c0.4,0,0.6,0.3,0.6,0.6v107.6h10.8V148.7
		C348.5,148.3,348.3,148.1,347.9,148.1z"/>
	<path id="XMLID_43_" class="st0" d="M347.9,148.1H247.4c-0.4,0-0.6,0.4-0.6,0.8v16.2h101.8v-16.2
		C348.5,148.4,348.3,148.1,347.9,148.1z"/>
	<path id="XMLID_42_" class="st9" d="M347.2,165.1v-16c0-0.3-0.3-0.6-0.6-0.6h-97.9c-0.3,0-0.6,0.3-0.6,0.6v16h65.7"/>
	<line id="XMLID_41_" class="st9" x1="256.8" y1="157.4" x2="260.1" y2="157.4"/>
	<line id="XMLID_39_" class="st9" x1="264.9" y1="157.4" x2="268.2" y2="157.4"/>
	<line id="XMLID_38_" class="st9" x1="273" y1="157.4" x2="276.3" y2="157.4"/>
	<line id="XMLID_37_" class="st9" x1="318.4" y1="165.1" x2="323.9" y2="165.1"/>
	<line id="XMLID_31_" class="st9" x1="259.3" y1="232.8" x2="297.4" y2="232.8"/>
	<line id="XMLID_30_" class="st9" x1="259.3" y1="240.6" x2="297.4" y2="240.6"/>
	<line id="XMLID_29_" class="st9" x1="259.3" y1="248.3" x2="280.7" y2="248.3"/>
	<path id="XMLID_28_" class="st11" d="M348.5,256.3v-58h-45.4c-1.8,0-3.2,1.5-3.2,3.2v54.8H348.5z"/>
	<path id="XMLID_27_" class="st0" d="M351.7,204.3h-44.6c-1.5,0-2.8,1.2-2.8,2.8v49.2h50.1v-49.2
		C354.4,205.6,353.2,204.3,351.7,204.3z"/>
	<path id="XMLID_26_" class="st9" d="M304.3,256.3v-49.2c0-1.5,1.2-2.8,2.8-2.8h44.6c1.5,0,2.8,1.2,2.8,2.8l-3,46.2"/>
	<line id="XMLID_25_" class="st9" x1="314.8" y1="244.9" x2="344.7" y2="244.9"/>
	<path id="XMLID_24_" class="st12" d="M340,222.6c0,5.6-4.6,10.2-10.2,10.2c-5.6,0-10.2-4.6-10.2-10.2s4.6-10.2,10.2-10.2
		C335.4,212.4,340,216.9,340,222.6z"/>
</g>
<rect x="131.7" y="147.5" class="st13" width="63.7" height="31.2"/>
<rect x="204.1" y="147.5" class="st13" width="33.6" height="31.2"/>
<g>
	<path id="XMLID_650_" class="st14" d="M292.9,193.4c0-8.1-6.6-14.7-14.7-14.7c-8.1,0-14.7,6.6-14.7,14.7c0,5.2,2.7,9.7,6.7,12.3
		v3.7h15.9v-3.7C290.2,203.1,292.9,198.6,292.9,193.4z"/>
	<polygon id="XMLID_648_" class="st14" points="287.3,219.9 268.9,219.9 267.7,217.3 267.7,209.4 288.5,209.4 288.5,217.2 	"/>
	<polygon id="XMLID_592_" class="st15" points="287.3,219.9 268.9,219.9 267.7,217.3 267.7,209.4 288.5,209.4 288.5,217.2 	"/>
	<rect id="XMLID_518_" x="275.1" y="219.9" class="st16" width="5.9" height="3.3"/>
	<line id="XMLID_517_" class="st14" x1="267.7" y1="214.6" x2="276.7" y2="214.6"/>
	<line id="XMLID_408_" class="st14" x1="259.1" y1="193.1" x2="254.6" y2="193.1"/>
	<line id="XMLID_406_" class="st14" x1="260.3" y1="186.6" x2="255.7" y2="185"/>
	<line id="XMLID_409_" class="st14" x1="263.6" y1="180.9" x2="260" y2="177.9"/>
	<line id="XMLID_414_" class="st14" x1="292.7" y1="180.9" x2="296.3" y2="177.9"/>
	<line id="XMLID_18_" class="st14" x1="296" y1="186.6" x2="300.3" y2="185"/>
	<line id="XMLID_17_" class="st14" x1="297.2" y1="193.1" x2="301.7" y2="193"/>
	<line id="XMLID_417_" class="st14" x1="296.1" y1="199.6" x2="300.3" y2="201.1"/>
	<line id="XMLID_418_" class="st14" x1="292.8" y1="205.3" x2="296.3" y2="208.2"/>
	<line id="XMLID_430_" class="st14" x1="263.7" y1="205.5" x2="260" y2="208.6"/>
	<line id="XMLID_431_" class="st14" x1="260.3" y1="199.8" x2="256" y2="201.1"/>
</g>
<polygon class="st2" points="351.7,258 75.3,258 74.1,253 352.5,253 "/>
<g>
	<path class="st12" d="M127.8,136.4L127.8,136.4c-4.8,0-8.6-3.9-8.6-8.6v-10.9h17.3v10.9C136.5,132.6,132.6,136.4,127.8,136.4z"/>
	<path class="st5" d="M146.9,136.4L146.9,136.4c-4.8,0-8.6-3.9-8.6-8.6v-10.9h17.3v10.9C155.5,132.6,151.7,136.4,146.9,136.4z"/>
	<path class="st12" d="M166,136.4L166,136.4c-4.8,0-8.6-3.9-8.6-8.6v-10.9h17.3v10.9C174.6,132.6,170.7,136.4,166,136.4z"/>
	<path class="st5" d="M185,136.4L185,136.4c-4.8,0-8.6-3.9-8.6-8.6v-10.9h17.3v10.9C193.7,132.6,189.8,136.4,185,136.4z"/>
	<path class="st12" d="M204.1,136.4L204.1,136.4c-4.8,0-8.6-3.9-8.6-8.6v-10.9h17.3v10.9C212.7,132.6,208.8,136.4,204.1,136.4z"/>
	<path class="st5" d="M223.1,136.4L223.1,136.4c-4.8,0-8.6-3.9-8.6-8.6v-10.9h17.3v10.9C231.8,132.6,227.9,136.4,223.1,136.4z"/>
	<path class="st12" d="M242.2,136.4L242.2,136.4c-4.8,0-8.6-3.9-8.6-8.6v-10.9h17.3v10.9C250.8,132.6,246.9,136.4,242.2,136.4z"/>
</g>
<line class="st17" x1="143.8" y1="144.3" x2="173.2" y2="181.1"/>
<line class="st18" x1="132.3" y1="144" x2="161.7" y2="180.8"/>
<line class="st19" x1="178.3" y1="187.8" x2="217.7" y2="230.8"/>
<line class="st19" x1="170.6" y1="196.4" x2="210" y2="239.4"/>
<line class="st19" x1="157.5" y1="201.9" x2="206.9" y2="254.7"/>
<line class="st19" x1="147" y1="208.6" x2="196.5" y2="261.5"/>
<line class="st19" x1="138.4" y1="214.1" x2="187.9" y2="267"/>
<g>
	<line class="st17" x1="211.7" y1="145.6" x2="241.1" y2="182.5"/>
	<line class="st18" x1="200.2" y1="145.3" x2="229.6" y2="182.2"/>
</g>
<rect x="131.7" y="147.5" class="st9" width="63.7" height="31.2"/>
<rect x="204.1" y="147.5" class="st9" width="33.6" height="31.2"/>
<g>
	<path id="XMLID_61_" class="st20" d="M90.8,203.3l13.3-15.2c0.1,0,0.1,0,0.2,0c0.1,0,0.1,0,0.2,0l13.3,15.2c0.1,0.1,0,0.3-0.2,0.3
		h-5.9v50.9H96.8v-50.9H91C90.8,203.6,90.7,203.4,90.8,203.3z"/>
	<path id="XMLID_60_" class="st21" d="M116.2,203.8c0.1,0.1,0,0.3-0.2,0.3h-5.9l0,48.8H108l0.2-58.3L116.2,203.8z"/>
	<path id="XMLID_49_" class="st22" d="M104.5,183.6l17.8-21.8c0.1-0.1,0.2-0.1,0.3-0.1c0.1,0,0.2,0,0.3,0.1l17.8,21.8
		c0.2,0.1,0.1,0.4-0.2,0.4h-7.9v70.5h-19.9l0-70.5h-7.9C104.4,184,104.3,183.7,104.5,183.6z"/>
	<g class="st23">
		<path class="st2" d="M139.5,183.6l-17.8-21.8c-0.1-0.1-0.2-0.1-0.3-0.1c-0.1,0-0.2,0-0.3,0.1l-1.8,1.3l16,20.5
			c0.2,0.1,0.1,0.4-0.2,0.4h4C139.5,184,139.6,183.7,139.5,183.6z"/>
		<rect x="128.1" y="182.4" class="st2" width="4" height="70.5"/>
	</g>
	<path id="XMLID_48_" class="st24" d="M96.6,254.5v-50.2h-6.3c-0.2,0-0.3-0.2-0.2-0.3l14.2-15.9c0.1-0.1,0.2-0.1,0.3,0l5.7,6.8"/>
</g>
<g>
	<g>
		<path class="st25" d="M182.1,32c0-0.7-0.6-1.3-1.3-1.3c-1.9,0-3.6,0-5.3,0c-16.8-0.3-24.4-3-34.7-5.1L112.7,26l0.6,45.5
			c32.3-0.5,34.6,6.7,62.8,7.3c1.7,0,3.4,0,5.3,0c0.7,0,1.3-0.6,1.3-1.3l-0.1-6.4l-4-3l3.9-3l-0.1-7l-4-3l3.9-3l-0.1-7.4l-4-3l3.9-3
			L182.1,32z"/>
		<path class="st0" d="M182.2,38.8l0.1,6c-2.3,0-4.5,0-6.6,0c-13.5-0.3-21.3-2-28.8-3.7c-2.5-0.5-5-1.1-7.7-1.6l1.1-5.9
			c2.8,0.5,5.4,1.1,7.9,1.7c7.5,1.7,14.7,3.3,27.4,3.6C177.6,38.8,179.8,38.8,182.2,38.8L182.2,38.8z"/>
		<path class="st26" d="M140.8,25.6l0.3,23L113,49l-0.4-25.7C125.7,23.1,133.8,24.2,140.8,25.6z"/>
		<g>
			<path class="st0" d="M182.4,52.1l0.1,6c-2.3,0-4.5,0-6.6,0c-13.5-0.3-21.3-2-28.8-3.7c-8.8-2-17-3.8-34-3.6l-0.1-6
				c17.7-0.3,26.7,1.8,35.4,3.7c7.5,1.7,14.7,3.3,27.4,3.6C177.8,52.2,180,52.2,182.4,52.1L182.4,52.1z"/>
			<path class="st0" d="M182.5,65.1l0.1,6c-2.3,0-4.5,0-6.6,0c-13.5-0.3-21.3-2-28.8-3.7c-8.8-2-17-3.8-34-3.6l-0.1-6
				c17.7-0.3,26.7,1.8,35.4,3.7c7.5,1.7,14.7,3.3,27.4,3.6C178,65.1,180.2,65.1,182.5,65.1L182.5,65.1z"/>
		</g>
	</g>
	<path class="st2" d="M112.5,15.7c-1.6,0-3,1.4-2.9,3l0.7,82.6c0,1.6,1.4,3,3,2.9c1.6,0,3-1.4,2.9-3l-0.7-82.6
		C115.5,17,114.2,15.7,112.5,15.7z"/>
</g>
<path class="st2" d="M72.7,253.8l35.1-0.4l35.1-0.1l70.1-0.3l70.1,0.3l35.1,0.1l35.1,0.4v1.6l-2.2,0.5l-2.2,0.5l-4.4,1
	c-2.9,0.6-5.8,1.2-8.8,1.7c-5.8,1.1-11.7,2-17.5,2.8c-11.7,1.7-23.4,2.9-35.1,3.9c-23.4,2-46.7,2.9-70.1,2.9
	c-23.4,0-46.7-0.9-70.1-2.9c-11.7-1-23.4-2.3-35.1-3.9c-5.8-0.9-11.7-1.8-17.5-2.8c-2.9-0.5-5.8-1.1-8.8-1.7l-4.4-1l-2.2-0.5
	l-2.2-0.6V253.8z"/>
<g>
	<path class="st27" d="M387,291.8c-0.4-0.3-0.4-1.3-0.4-1.3s5.2-1.7,7-1.6c0.5,0,1.3,0.2,2.1,0.5c0.1,0,0.4,0.4,0.6,0.5
		c0.2,0.1,0.3-0.2,0.5-0.1c0.5,0.2,0.9,0.4,0.9,0.4c1,2.3,0.5,3.4,0.5,3.4s-4.1,2.2-5.3,1.5C390,293.4,387.9,292.5,387,291.8z"/>
	<path class="st27" d="M360.1,292.2l-0.1,4.1l-4.1,0.7c0,0-0.3-0.5-0.7-0.5c-0.3,0-0.6,0.7-1,0.7c-0.9,0.1-1.8,0.3-2.2,0.4
		c-0.8,0.1-8.1,1.3-8.1,1.3s-0.3-0.8-0.1-1.1c0.1-0.2,0.7-0.5,1.2-0.7c2-0.9,7.7-3.8,8.4-5.9C354.3,288.4,360.1,292.2,360.1,292.2z"
		/>
	<path class="st28" d="M355.3,158.9l0-5c0,0-3.5-0.4-3.7-2.4c-0.6-3.9,1.8-9.6,2.9-11c3.3-4.2,5.9-12.2,15.3-3.4
		c3.6,3.3-5.2,14-6.3,16.5c-1,2.5-0.2,5.8-0.2,5.8l-2.9,1.4L355.3,158.9z"/>
	<path class="st29" d="M377.9,240.4c0,0-5.7,11.8-1.7,20.2c7.2,14.8,11.7,26.1,14.1,31c0.9,1.9,1.4,1.4,1.4,1.4l4.5-0.4l1.7-2.2
		l-13.6-34.5L377.9,240.4z"/>
	<path class="st28" d="M323.8,161.4l-14.4-13.7c0,0,7.4,20.4,14.4,21.2C330.8,169.8,323.8,161.4,323.8,161.4z"/>
	<path class="st29" d="M353.2,213.8c0,0,15.7,33.6,26,51.6c6.1,10.5,5-5.3,5-5.3l-16.7-60.7l-21.4,1.6
		C346.1,201,348.7,203.6,353.2,213.8z"/>
	<path class="st29" d="M367.2,210.4c0,0-16.9,44.3-18,46.7c-3.8,8-6.6-3.5-7.2-6.4c-0.6-2.9,0.5-23.7,2.7-38.7c2.3-15,2.3-15,2.3-15
		L367.2,210.4z"/>
	<path class="st29" d="M350.8,242.6c0,0,2.2,6.3,4.5,14.4c1.7,6,4.6,23.4,5.4,35.6c0.1,0.7-8-0.2-8-0.2s-8.3-33.4-10.2-40.8
		C340.7,244.1,345.1,237.9,350.8,242.6z"/>
	<linearGradient id="SVGID_3_" gradientUnits="userSpaceOnUse" x1="342.5319" y1="186.5958" x2="373.8459" y2="186.5958">
		<stop  offset="0" style="stop-color:#00B5D1"/>
		<stop  offset="1" style="stop-color:#00D1C8"/>
	</linearGradient>
	<path class="st30" d="M370.8,163.1l-5.9-4.9l-2.6-2.7l-9.8-0.2l-1.7,3.2l-7.5,3.8c0,0-1.8,3.3-0.1,15.7c1.9,13.7-2.6,33.2,0.4,34.9
		c19.5,11.3,27.7-0.4,27.7-0.4S377.3,185.6,370.8,163.1z"/>
	<linearGradient id="SVGID_4_" gradientUnits="userSpaceOnUse" x1="317.4586" y1="165.5558" x2="356.9639" y2="165.5558">
		<stop  offset="0" style="stop-color:#00B5D1"/>
		<stop  offset="1" style="stop-color:#00D1C8"/>
	</linearGradient>
	<path class="st31" d="M356.8,162.6c0,0,1.4,2.2-4.7,4.7c-10.4,4.4-21.8,4.7-24.1,4.8c-2.2,0.1-5.4,0.2-7.9-3.5
		c-2-2.9-2.6-3.8-2.6-3.8l5.6-5l1.6,1.5l0.7,0.9c0,0,8.2-1.2,15.7-2.9C348.5,157.7,356.8,162.6,356.8,162.6z"/>
	<path class="st32" d="M357.2,142.5c0,0,1.4-0.5,1.4,0.5c0,1-1.1,2.9-1.7,2.9c-0.6,0.1-1.3,2.5-1.3,2.5l0.9,3.1l7.5,1.6
		c0,0,2.5-0.5,3.1-2.2c0.5-1.6,4.9-13.1,4.9-13.1l-4.7-3.9c0,0-2.5-2-4.3-2.9c-2.8-1.5-3.8,0-3.9,0.8c-0.1,0.9-1,0.8-2.2,0.5
		c-1.2-0.3-2.9,0.4-2.4,1.1c0.2,0.3-1.1,0.8-0.8,1.8c0.4,1.4,2.6,2.3,2.4,4.4C355.9,140.6,355.6,143.7,357.2,142.5z"/>
	<path class="st28" d="M310.7,151.7c0,0,2.9-1.8,3-2.8c0.1-1,0.3-4.5,0.3-4.5l0-0.9c0,0-1-0.5-1.1,1.9c-0.1,2.4-0.7,1.2-0.7,1.2
		l-0.8-2.2l-1.1-2.6l-0.4-1.2c0,0-0.1-0.7-0.3-0.8c-0.5-0.4-0.6,0.1-0.6,0.1l1,4.9l-2.1-4.3c0,0-0.4-0.5-0.7-0.4
		c-0.3,0.1-0.2,0.3-0.2,0.3l1.3,5.4l-1.3-2.1c0,0-0.4-0.5-0.7-0.4c-0.3,0.1-0.4,0.1-0.4,0.1l4.1,8.7L310.7,151.7z"/>
</g>
<polyline id="XMLID_97_" class="st9" points="158.6,254.7 158.6,200.1 211.5,200.1 211.5,254.7 "/>
<line id="XMLID_91_" class="st9" x1="185.1" y1="201.5" x2="185.1" y2="254.7"/>
<rect x="155" y="253" class="st2" width="61.2" height="4.6"/>
<path class="st8" d="M348.1,104.9c0-6.2-5.3-11.1-11.6-10.5c-4.7,0.5-8.6,4.3-9.3,9c-0.4,2.5,0.2,4.9,1.4,6.9l0,0l0,0
	c0.1,0.2,0.3,0.5,0.4,0.7l7.3,11.1c0.9,1.4,2.9,1.3,3.7-0.1l6.6-11.8h0C347.6,108.7,348.1,106.8,348.1,104.9z"/>
<circle class="st0" cx="337.5" cy="105" r="5.2"/>
<g>
	<path class="st2" d="M214,212.4c-0.5,0.9-1.4,1.5-2.5,1.5c-1.1,0-2-0.6-2.5-1.5c-7.8,1.2-13.7,7.9-13.7,16.1
		c0,9,7.3,16.3,16.3,16.3c9,0,16.3-7.3,16.3-16.3C227.8,220.4,221.8,213.7,214,212.4z"/>
	
		<ellipse transform="matrix(0.9951 -9.853689e-02 9.853689e-02 0.9951 -21.4869 21.9526)" class="st0" cx="211.5" cy="228.5" rx="13.4" ry="13.4"/>
	<path class="st2" d="M212.1,226.9v-5.7c0-0.3-0.3-0.6-0.6-0.6c-0.3,0-0.6,0.3-0.6,0.6v5.7c-0.7,0.2-1.2,0.9-1.2,1.6
		c0,1,0.8,1.8,1.8,1.8c1,0,1.8-0.8,1.8-1.8C213.3,227.7,212.8,227.1,212.1,226.9z"/>
	<path class="st2" d="M215.8,223.9l-2.4,2.4c-0.2,0.2-0.2,0.6,0,0.9c0.1,0.1,0.3,0.2,0.4,0.2c0.2,0,0.3-0.1,0.4-0.2l2.4-2.4
		c0.2-0.2,0.2-0.6,0-0.9C216.4,223.6,216.1,223.6,215.8,223.9z"/>
</g>
<rect x="323.4" y="130.8" class="st2" width="12.6" height="13"/>
<polygon class="st0" points="71.3,242.9 71.7,243.9 72.7,233.9 79,217.1 91.1,230.7 93.2,243.9 83.9,260.8 79.5,263.1 74.3,257.6 
	67.4,249.2 "/>
<g>
	<path class="st28" d="M31.7,259.3c0,0,21.9-7.5,21.4-7.2c-0.5,0.2-5.5-4.2-5.5-4.2l-13.9,7.7L31.7,259.3z"/>
	<polygon class="st28" points="37.5,256.7 33.1,254.8 25.9,259.1 22.3,262.9 32.8,258.9 	"/>
	<path class="st27" d="M32.5,254c0,0-6.3,4.2-8,5.2c-3.2,2-4.8,4.7-4.8,4.7s0.4,0.3,0.7,0.3c1.3-0.1,5.7-2.7,5.7-2.7s1.2-1.4,1.6-2
		c0.3-0.6,2-1.4,3.8-2.6c2.2-1.5,4.2-2.3,4.2-2.5C35.7,253.9,32.5,254,32.5,254z"/>
	<polygon class="st33" points="76.4,267 66.9,289.7 69.4,301.1 71.9,304.1 71.2,288.5 80.3,272.3 	"/>
	<path class="st27" d="M65.7,291l1.2,3.7l1.8,7.7c0,0,0.8,4.2,1.9,5.4c0.4,0.4,1.4-0.2,1.5-0.5c0.3-1.4-0.2-5.8-0.2-5.8
		s-1.2-0.1-1.6-0.6c-0.5-0.5-1.9-5.9-2.1-7.6c-0.3-2.8-0.7-5-0.9-5C66.8,288.1,65.7,291,65.7,291z"/>
	<path class="st34" d="M61.7,242.7l-17.4,6.2l2.2,7.6l28.7-8.4c0,0,5.3-4.5,1.6-7.8C74.5,238.2,61.7,242.7,61.7,242.7z"/>
	<path class="st34" d="M80.2,237.5l2.7-31c0,0,4.7-16.2,1.8-16.7c-4.1-0.8-17-1.1-18,1.2c-2.1,4.6-1.3,56.5,6.1,57.7
		C79.7,249.7,80.2,237.5,80.2,237.5z"/>
	<path class="st34" d="M80.2,237.5l2.7-31c0,0,4.7-16.2,1.8-16.7c-0.4-0.1-1.1,13.6-1.6,13.7c-4.7,4.1-9.7,14.5-10.3,15.9
		c-1.6,4.1,1,14.4,5.9,25C80,241.3,80.2,237.5,80.2,237.5z"/>
	<path class="st35" d="M84.8,246.8l-14.6,30.5l6.2,5L99.5,241c0,0-0.3-7.4-5.5-7.1C90.9,234,84.8,246.8,84.8,246.8z"/>
	<path class="st35" d="M98.2,226.7L86,193.8c0,0-7.5-5.6-10.4-5.9c-11-1.2-9.1,11.6-7.4,15.3c2.2,4.8,3.1,6.4,10.9,17.9
		c10.1,15,11.5,22.8,18.8,20.6C104.6,239.6,98.2,226.7,98.2,226.7z"/>
	<g>
		<path class="st28" d="M100.6,119.9c0,0,2,0.4,4.2-10.5c2.2-10.8,3-27.2,3-27.2l-7.2,24.6C100.7,106.7,98.3,116.2,100.6,119.9z"/>
		<path class="st28" d="M106.9,90.8c1.2-5.1,4-6.8,5.2-8.6c1.2-1.9,2.8-3.6,2.7-3.6c-2.3,0.7-2.7,2.3-3.5,3
			c-0.8,0.7-0.5,0.5-0.2-1.3c0.2-1.1,2.3-2.5,3.5-3.6c1.1-0.9,1.3-1.6,1.3-1.6s-2,0.9-3.7,2.3c-2.1,1.7-4.1,3.9-4.4,4.4
			c-0.6,1-1.5,4.4-1.8,6.9C105.6,91.5,106,94.5,106.9,90.8z"/>
		<path class="st28" d="M107.8,82c0,0,1.8-3.7,2.4-4.3c0.4-0.4,2.8-2,2.8-2s-0.6,1.4-1.5,2.1C110.6,78.5,107.8,82,107.8,82z"/>
	</g>
	<path class="st36" d="M97.5,114.1c0,0-1.8,10,3.7,10.7c3.1,0.4,4.7-1.7,5.2-4.7c0.9-5.7,1.6-12.1,1.6-12.1l-7.6-4.8L97.5,114.1z"/>
	<path class="st36" d="M95.1,120.6L81.6,138c0,0-2.5,5.6-0.9,7c2.2,2.1,5.5-0.5,7-1.5c3-1.9,1.9-0.5,9.9-10.4
		c7.3-9,10.4-12.7,6.3-16.3C100.1,113.5,95.1,120.6,95.1,120.6z"/>
	<path class="st32" d="M93.6,125.3c0.4,4.9-3.2,9.3-8.2,9.7l-2.6-4.1c-4.9,0.4-9.3-3.2-9.7-8.2l-0.3-3.4c-0.4-4.9,3.2-9.3,8.2-9.7
		l2.2-0.2c4.9-0.4,9.3,3.2,9.7,8.2L93.6,125.3z"/>
	<path class="st2" d="M73.1,122.8l-0.3-3.4c-0.4-4.9,3.2-9.3,8.2-9.7l2.2-0.2c2-0.2,4,0.3,5.6,1.4c0.3,1.9,0.4,4,0.1,6.1
		c-0.9,6.6-4.9,11.9-9.6,13.5C75.9,129.5,73.4,126.5,73.1,122.8z"/>
	<path class="st2" d="M85.1,134.8c-0.6-6.4-13.5-17.2-12.9-10.6c0.7,8.8-27.1,22.7-26.8,26.1c0.6,6.7,18.4,22.4,31.4,16.6
		c6.3-2.8,10.5-9.2,9.9-15.9c-0.3-3.2-1.8-6-4.1-8C84.4,140.8,85.4,137.9,85.1,134.8z"/>
	<path class="st32" d="M88.6,150.2c0.6,6.6-4.4,12.5-11.2,13.1c-6.8,0.6-14.8-5.9-15.4-12.6c-0.6-6.6,6.5-10.8,13.3-11.4
		C82.1,138.6,88.1,143.5,88.6,150.2z"/>
	<path class="st32" d="M73.8,132.5c4-3.6,7.9-7.2,10-4.6c2.2,2.7,0.6,7.6-3.6,11c-4.2,3.4-8.7,15.7-10.8,13
		C67.3,149.2,55.6,148.8,73.8,132.5z"/>
	<path class="st28" d="M88.9,112.5c0.1,0.8,0.1,1.7,0,2.5c-0.4,5.8-3.5,10.5-7.3,11.4c0.1,2.6-0.2,5-0.7,7c-0.5,2.3-3,5-3,5
		c-0.3,4.1,13.9,8.8,13.5,8.1c-0.4-0.6-4.2-5-5.6-9.3c-1-2.9-0.3-5.5,0.7-7.3c1.9-2.7,5-2.9,5-2.9c0.3,0,0.6-0.2,0.7-0.4
		c0.1-0.6,0.2-1.2,0.1-1.9l-0.7-7.4C91.6,115.2,90.5,113.5,88.9,112.5z"/>
	<path class="st37" d="M85.9,195.3l4.3,0.5c0,0,0.9-17.5,0.9-24.8c0-7.2,0.5-9.5,1.3-11.6c0.7-2.1,2.2-4.5,1.2-7.2
		c-1-2.7-2.5-7.1-3.4-7.5c-1.3-0.7-2.8-1.6-3.7-3C86,140.9,85.9,195.3,85.9,195.3z"/>
	<path class="st36" d="M88.3,196.1c0,0-0.3-17.4-0.3-26.2c0-8.8-0.1-22.1-0.1-24.2c0-2.1-2.6-4.4-2.6-4.4s-5.2-5.9-5.9-5.8
		c-3,0.5-5.5,4.9-7.8,11c-2.2,6.1,3.6,25.2,3.3,26.7c-0.3,1.5-8.5,13.5-9.2,17.3c-0.6,3.8-0.7,4.3-0.7,4.3S72.4,202.3,88.3,196.1z"
		/>
	<polygon class="st36" points="79.1,133.5 81.3,135.4 85.9,141.6 83.2,142.1 77.5,135 	"/>
	<path class="st28" d="M110,163.3c0,0,8.8-3.4,9.3-6.3c0.2-0.9,0.1-0.9,0.3-2.9c0.2-2,0.3-2.4,0.5-4c0.2-1.6,0.3-1.8,0.3-1.8
		s0.9,0.2,0.9,0.9c0.1,0.6-0.1,1.9-0.1,2.4c0.1,0.5,0.2-1.1,1-3.4c0.8-2.3,2-4.4,2.5-5.3c0.3-0.6,0.4-0.6,0.4-0.6
		c0.3,0.1,0.5,0.2,0.5,0.5c0,0.3-0.3,1.1-0.3,1.1c0.2-0.2,1.1-1.4,1.2-1.6c0.1-0.2,0.3-0.6,0.4-0.7c0.3-0.4,0.7,0,0.7,0.8
		c0,0,0.3,0.3,0.3,0.5c0,0.1,0,0.2,0,0.3c0,0.1,0,0.3,0,0.4c0,0.5-0.1,1-0.2,1.5c0,0.2-0.7,1.9-0.6,1.9c0,0,0.7-1.3,0.8-1.2
		c0.2,0.1,0.4,0.5,0.3,0.7c-0.2,0.4-0.4,1.1-1.1,2.8c-0.8,1.9-1.1,2.3-1.6,4.9c-0.4,2.3,0.2,2.2-0.9,3.6c-1.4,1.9-9.6,7.9-10.9,9.1
		C112.6,168.2,110,163.3,110,163.3z"/>
	<path class="st36" d="M105.7,163.9l-19.5-18.1c0,0-6.3-5.1-8.2-0.7c-1.6,3.7-1.1,5.9-1.1,5.9s3.4,4.8,14,14.6
		c10.6,9.8,10.5,10.6,18.2,6.9c6.1-3,9.3-5.7,9.3-5.7l-2.7-6.8L105.7,163.9z"/>
</g>
<polygon class="st0" points="120.3,24.7 121.2,26.5 123.2,26.8 121.8,28.2 122.1,30.1 120.3,29.2 118.6,30.1 118.9,28.2 117.5,26.8 
	119.4,26.5 "/>
<polygon class="st0" points="127.9,25.1 128.8,26.9 130.8,27.2 129.3,28.6 129.7,30.6 127.9,29.7 126.1,30.6 126.5,28.6 125,27.2 
	127,26.9 "/>
<polygon class="st0" points="135.4,26.5 136.3,28.3 138.3,28.6 136.9,30 137.2,31.9 135.4,31 133.7,31.9 134,30 132.6,28.6 
	134.6,28.3 "/>
<polygon class="st0" points="120.3,36.5 121.2,38.3 123.2,38.5 121.8,39.9 122.1,41.9 120.3,41 118.6,41.9 118.9,39.9 117.5,38.5 
	119.4,38.3 "/>
<polygon class="st0" points="127.9,36.9 128.8,38.7 130.8,39 129.3,40.4 129.7,42.4 127.9,41.4 126.1,42.4 126.5,40.4 125,39 
	127,38.7 "/>
<polygon class="st0" points="135.4,38.3 136.3,40.1 138.3,40.3 136.9,41.7 137.2,43.7 135.4,42.8 133.7,43.7 134,41.7 132.6,40.3 
	134.6,40.1 "/>
<polygon class="st0" points="131.3,31.5 132.2,33.2 134.2,33.5 132.7,34.9 133.1,36.9 131.3,36 129.5,36.9 129.9,34.9 128.4,33.5 
	130.4,33.2 "/>
<polygon class="st0" points="123.7,31 124.6,32.8 126.6,33.1 125.2,34.5 125.5,36.5 123.7,35.5 122,36.5 122.3,34.5 120.9,33.1 
	122.9,32.8 "/>
</svg>
