<?xml version="1.0" encoding="utf-8"?>
<!-- Generator: Adobe Illustrator 24.1.0, SVG Export Plug-In . SVG Version: 6.00 Build 0)  -->
<svg version="1.1" id="Capa_1" xmlns="http://www.w3.org/2000/svg" xmlns:xlink="http://www.w3.org/1999/xlink" x="0px" y="0px"
	 viewBox="0 0 412.46 204.25" style="enable-background:new 0 0 412.46 204.25;" xml:space="preserve">
<style type="text/css">
	.st0{clip-path:url(#SVGID_2_);}
	.st1{opacity:0.65;fill-rule:evenodd;clip-rule:evenodd;fill:#ABC4FF;}
	.st2{fill-rule:evenodd;clip-rule:evenodd;fill:#E3ECFF;}
	.st3{fill-rule:evenodd;clip-rule:evenodd;fill:#97BAFF;}
	.st4{fill-rule:evenodd;clip-rule:evenodd;fill:#F5EBF4;}
	.st5{fill-rule:evenodd;clip-rule:evenodd;fill:#FFFFFF;}
	.st6{fill-rule:evenodd;clip-rule:evenodd;fill:#ABC4FF;}
	.st7{fill:#FAC7B8;}
	.st8{fill:#381B91;}
	.st9{fill:#0D0F21;}
	.st10{fill:#1A1E33;}
	.st11{fill:#FFC88D;}
	.st12{fill:#4E5ED7;}
	.st13{fill:#444748;}
	.st14{fill:url(#SVGID_3_);}
	.st15{fill:#F26636;}
	.st16{fill:#ABC4FF;}
	.st17{fill:#D88D55;}
	.st18{fill:#97BAFF;}
	.st19{fill:#E3ECFF;}
	.st20{fill:#0A7CBB;}
	.st21{opacity:0.53;clip-path:url(#SVGID_5_);fill:none;stroke:#FFFFFF;stroke-width:12;stroke-miterlimit:10;}
	.st22{opacity:0.53;clip-path:url(#SVGID_5_);fill:none;stroke:#FFFFFF;stroke-width:6;stroke-miterlimit:10;}
	.st23{fill:#FFFFFF;}
	.st24{fill:none;stroke:#ABC4FF;stroke-miterlimit:10;}
	.st25{clip-path:url(#SVGID_7_);fill:#F26636;}
	.st26{opacity:0.82;clip-path:url(#SVGID_9_);fill:#061059;}
	.st27{clip-path:url(#SVGID_9_);fill:#061059;}
	.st28{clip-path:url(#SVGID_11_);fill:#FF884D;}
	.st29{clip-path:url(#SVGID_13_);fill:#FF884D;}
	.st30{clip-path:url(#SVGID_15_);fill:#FF884D;}
	.st31{clip-path:url(#XMLID_11_);fill:#C9300A;}
	.st32{opacity:0.24;clip-path:url(#XMLID_12_);fill:#AD1A1A;}
	.st33{clip-path:url(#SVGID_17_);fill:#FF884D;}
	.st34{clip-path:url(#SVGID_19_);fill:#FF884D;}
	.st35{fill:#D83B6E;}
	.st36{clip-path:url(#SVGID_21_);}
	.st37{opacity:0.38;fill:#000211;}
	.st38{opacity:0.38;clip-path:url(#SVGID_21_);}
	.st39{fill:#000211;}
	.st40{fill:#2C43C6;}
	.st41{fill:url(#SVGID_22_);}
	.st42{opacity:0.57;fill:#04288C;}
	.st43{opacity:0.57;fill:#1340A5;}
	.st44{opacity:0.57;}
	.st45{fill:#1340A5;}
	.st46{opacity:0.63;fill:#1340A5;}
	.st47{fill:#E86B18;}
	.st48{fill:#FF9178;}
	.st49{clip-path:url(#XMLID_13_);fill:#D34616;}
	.st50{fill:#FF7145;}
	.st51{fill:#AA3502;}
	.st52{fill:#0071BC;}
	.st53{fill-rule:evenodd;clip-rule:evenodd;fill:url(#SVGID_23_);}
	.st54{fill-rule:evenodd;clip-rule:evenodd;fill:url(#SVGID_24_);}
	.st55{fill-rule:evenodd;clip-rule:evenodd;fill:url(#SVGID_25_);}
	.st56{fill:#CBCBCB;}
	.st57{fill:#C42C24;}
	.st58{fill:#EDEDED;}
	.st59{fill:#E6332A;}
	.st60{fill:#821D18;}
	.st61{fill:#381B91;stroke:#381B91;stroke-miterlimit:10;}
	.st62{clip-path:url(#SVGID_2_);fill:#381B91;}
	.st63{clip-path:url(#SVGID_2_);fill:#200D6D;}
</style>
<g>
	<defs>
		<rect id="SVGID_1_" x="-2.07" y="3.64" width="414.54" height="200.61"/>
	</defs>
	<clipPath id="SVGID_2_">
		<use xlink:href="#SVGID_1_"  style="overflow:visible;"/>
	</clipPath>
	<g class="st0">
		<path class="st1" d="M50,127.71c-10.38,21.94-13.59,50.04,0.48,82.89c23.83,50.54,102.47,50.03,158.57,32.34
			c19.04-5.58,44.16-4.46,75.36,3.35c28.71,8.33,59.67,0.26,80.67-21.02s28.64-52.35,19.92-80.95c-8.72-28.59-32.4-50.11-61.7-56.05
			c-14.08-3.39-24.89-14.68-27.67-28.89c-2.95-24.86-21.31-45.12-45.76-50.5c-24.45-5.38-49.62,5.3-62.73,26.62
			c-18.6,32.04-45.7,49.86-81.29,53.46C81.65,91.01,60.38,105.77,50,127.71z"/>
		<path class="st2" d="M34.52,187.46c-5.34,11.28-6.99,25.74,0.25,42.64c12.26,26,52.71,25.73,81.56,16.64
			c9.79-2.87,22.71-2.29,38.76,1.72c14.77,4.29,30.7,0.14,41.49-10.81c10.8-10.95,14.73-26.93,10.25-41.64
			c-4.49-14.71-16.67-25.78-31.74-28.83c-7.24-1.74-12.8-7.55-14.23-14.86c-1.52-12.79-10.96-23.21-23.54-25.98
			c-12.57-2.77-25.52,2.73-32.27,13.69c-9.57,16.48-23.51,25.65-41.81,27.5C50.8,168.58,39.86,176.17,34.52,187.46z"/>
		<g>
			<path class="st2" d="M337.12,112.19c0.85,0,1.55-0.7,1.55-1.55V36.99c0-0.85-0.7-1.55-1.55-1.55H231.1
				c-0.85,0-1.55,0.7-1.55,1.55v73.64c0,0.85,0.7,1.55,1.55,1.55H337.12z"/>
			<path class="st3" d="M338.47,40.31c0.11,0,0.2-0.09,0.2-0.2v-9.34c0-0.11-0.09-0.2-0.2-0.2H229.74c-0.11,0-0.2,0.09-0.2,0.2v9.34
				c0,0.11,0.09,0.2,0.2,0.2H338.47z"/>
			<circle class="st4" cx="235.45" cy="35.27" r="1.53"/>
			<circle class="st4" cx="241.39" cy="35.27" r="1.53"/>
			<path class="st4" d="M249.1,35.27c0-0.84-0.68-1.53-1.53-1.53c-0.84,0-1.53,0.68-1.53,1.53s0.68,1.53,1.53,1.53
				C248.42,36.8,249.1,36.11,249.1,35.27z"/>
			<path class="st5" d="M332.15,102.12c0.43,0,0.79-0.36,0.79-0.79V46.3c0-0.43-0.36-0.79-0.79-0.79H294.7
				c-0.43,0-0.79,0.36-0.79,0.79v55.03c0,0.43,0.36,0.79,0.79,0.79H332.15z"/>
			<path class="st6" d="M306.81,58.39c0,4.55,3.69,8.23,8.23,8.23c4.55,0,8.23-3.69,8.23-8.23h-8.23v-8.23
				C310.5,50.16,306.81,53.84,306.81,58.39z"/>
			<path class="st6" d="M329.55,71.49c0.02,0,0.03-0.01,0.03-0.03v-1.46c0-0.02-0.01-0.03-0.03-0.03h-32.11
				c-0.02,0-0.03,0.01-0.03,0.03v1.46c0,0.02,0.01,0.03,0.03,0.03H329.55z"/>
			<path class="st6" d="M329.55,75.41c0.02,0,0.03-0.01,0.03-0.03v-1.46c0-0.02-0.01-0.03-0.03-0.03h-32.11
				c-0.02,0-0.03,0.01-0.03,0.03v1.46c0,0.02,0.01,0.03,0.03,0.03H329.55z"/>
			<path class="st6" d="M329.55,79.36c0.02,0,0.03-0.01,0.03-0.03v-1.46c0-0.02-0.01-0.03-0.03-0.03h-32.11
				c-0.02,0-0.03,0.01-0.03,0.03v1.46c0,0.02,0.01,0.03,0.03,0.03H329.55z"/>
			<path class="st6" d="M329.55,83.28c0.02,0,0.03-0.01,0.03-0.03v-1.46c0-0.02-0.01-0.03-0.03-0.03h-32.11
				c-0.02,0-0.03,0.01-0.03,0.03v1.46c0,0.02,0.01,0.03,0.03,0.03H329.55z"/>
			<path class="st6" d="M329.55,87.08c0.02,0,0.03-0.01,0.03-0.03v-1.46c0-0.02-0.01-0.03-0.03-0.03h-32.11
				c-0.02,0-0.03,0.01-0.03,0.03v1.46c0,0.02,0.01,0.03,0.03,0.03H329.55z"/>
			<path class="st6" d="M329.55,90.99c0.02,0,0.03-0.01,0.03-0.03V89.5c0-0.02-0.01-0.03-0.03-0.03h-32.11
				c-0.02,0-0.03,0.01-0.03,0.03v1.46c0,0.02,0.01,0.03,0.03,0.03H329.55z"/>
			<path class="st6" d="M329.55,94.95c0.02,0,0.03-0.01,0.03-0.03v-1.46c0-0.02-0.01-0.03-0.03-0.03h-32.11
				c-0.02,0-0.03,0.01-0.03,0.03v1.46c0,0.02,0.01,0.03,0.03,0.03H329.55z"/>
			<path class="st6" d="M329.55,98.87c0.02,0,0.03-0.01,0.03-0.03v-1.46c0-0.02-0.01-0.03-0.03-0.03h-32.11
				c-0.02,0-0.03,0.01-0.03,0.03v1.46c0,0.02,0.01,0.03,0.03,0.03H329.55z"/>
			<path class="st5" d="M288.98,102.12c0.6,0,1.09-0.49,1.09-1.09V46.6c0-0.6-0.49-1.09-1.09-1.09h-51.63
				c-0.6,0-1.09,0.49-1.09,1.09v54.43c0,0.6,0.49,1.09,1.09,1.09H288.98z"/>
			<path class="st2" d="M283.67,60.21c0.02,0,0.04-0.01,0.04-0.03v-1.46c0-0.02-0.02-0.03-0.04-0.03h-41.38
				c-0.02,0-0.04,0.01-0.04,0.03v1.46c0,0.02,0.02,0.03,0.04,0.03H283.67z"/>
			<path class="st2" d="M283.67,63.66c0.02,0,0.04-0.01,0.04-0.03v-1.46c0-0.02-0.02-0.03-0.04-0.03h-41.38
				c-0.02,0-0.04,0.01-0.04,0.03v1.46c0,0.02,0.02,0.03,0.04,0.03H283.67z"/>
			<path class="st6" d="M260.7,56.64c0.01,0,0.02-0.01,0.02-0.03v-1.46c0-0.02-0.01-0.03-0.02-0.03h-18.44
				c-0.01,0-0.02,0.01-0.02,0.03v1.46c0,0.02,0.01,0.03,0.02,0.03H260.7z"/>
			<path class="st2" d="M283.67,74.58c0.02,0,0.04-0.01,0.04-0.03v-1.46c0-0.02-0.02-0.03-0.04-0.03h-41.38
				c-0.02,0-0.04,0.01-0.04,0.03v1.46c0,0.02,0.02,0.03,0.04,0.03H283.67z"/>
			<path class="st2" d="M283.67,78.02c0.02,0,0.04-0.01,0.04-0.03v-1.46c0-0.02-0.02-0.03-0.04-0.03h-41.38
				c-0.02,0-0.04,0.01-0.04,0.03v1.46c0,0.02,0.02,0.03,0.04,0.03H283.67z"/>
			<path class="st6" d="M260.7,71c0.01,0,0.02-0.01,0.02-0.03v-1.46c0-0.02-0.01-0.03-0.02-0.03h-18.44c-0.01,0-0.02,0.01-0.02,0.03
				v1.46c0,0.02,0.01,0.03,0.02,0.03H260.7z"/>
		</g>
		<g>
			
				<rect x="306.93" y="204.13" transform="matrix(-0.9212 -0.3891 0.3891 -0.9212 514.1014 518.7151)" class="st7" width="5.29" height="6.35"/>
		</g>
		<g>
			
				<rect x="329.54" y="202.97" transform="matrix(-0.9646 0.2636 -0.2636 -0.9646 706.9648 317.4249)" class="st7" width="5.29" height="6.35"/>
		</g>
		<g>
			<path class="st8" d="M346.77,166.29l-8.4,50.08c-0.12,0.61-1.02,0.47-0.96-0.14l5.43-49.94H346.77z"/>
		</g>
		<g>
			<path class="st8" d="M363.65,166.29l8.4,50.08c0.12,0.61,1.02,0.47,0.96-0.14l-5.43-49.94H363.65z"/>
		</g>
		<g>
			<polygon class="st8" points="371.03,135.97 368.56,159.24 359.75,159.24 363.27,136.67 			"/>
		</g>
		<g>
			<path class="st8" d="M359.75,117.63c2.82-4.58,2.12-6.35,7.05-6.7c4.94-0.35,11.63-1.06,11.99,2.47
				c0.35,3.53-2.82,22.21-4.94,24.33s-17.28,1.06-17.28,1.06L359.75,117.63z"/>
		</g>
		<g>
			<path class="st8" d="M340.01,166.29h27.5c3.12,0,5.64-2.53,5.64-5.64l0,0c0-1.56-0.63-2.97-1.65-3.99
				c-1.02-1.02-2.43-1.65-3.99-1.65h-27.5c-3.12,0-5.64,2.53-5.64,5.64l0,0C334.37,163.76,336.89,166.29,340.01,166.29z"/>
		</g>
		<g>
			<path class="st9" d="M346.7,148.66c0,0-21.86,1.06-29.26,5.64s8.81,52.53,8.81,52.53l11.63-2.12l-7.76-39.84l13.75-4.23
				L346.7,148.66z"/>
		</g>
		<g>
			<path class="st10" d="M368.56,146.54c0,0,1.06,17.28-14.1,17.63c-7.22,0.17-11.8,0.18-14.62,0.14c-2.51-0.03-4.81,1.39-5.89,3.66
				l-19.33,40.28l-10.22-3.17l18.77-45.45c0.84-2.04,2.51-3.62,4.59-4.34l18.94-6.61L368.56,146.54z"/>
		</g>
		<g>
			<path class="st11" d="M335.42,128.21l-11.99-5.64v6.35c0,0,11.64,8.46,14.36,7.64c1.11-0.34,0.27-2,0.27-2L335.42,128.21z"/>
		</g>
		<g>
			<polygon class="st12" points="343.88,114.11 334.37,127.51 337.54,136.67 341.64,134.72 			"/>
		</g>
		<g>
			<path class="st8" d="M282.51,140.9h41.3c1.35,0,2.44-1.09,2.44-2.44v-31.43c0-1.35-1.09-2.44-2.44-2.44h-42.39
				c-0.75,0-1.36,0.61-1.36,1.36v32.52C280.07,139.81,281.16,140.9,282.51,140.9z"/>
		</g>
		<g>
			<path class="st13" d="M307.27,208.75l-0.23-0.37c-0.28-0.46-0.82-0.71-1.35-0.63l-8.98,1.33c-0.47,0.07-0.86,0.38-1.05,0.81l0,0
				c-0.29,0.69,0.03,1.48,0.72,1.77l11.79,4.98c0.69,0.29,1.48-0.03,1.77-0.72l1.48-3.5c0.2-0.47,0.12-1.02-0.22-1.41l-0.04-0.04
				c-0.12-0.14-0.28-0.26-0.45-0.34l-2.89-1.38C307.6,209.15,307.41,208.98,307.27,208.75z"/>
		</g>
		<g>
			<path class="st13" d="M331.27,208.71l-0.41-0.15c-0.51-0.19-1.08-0.05-1.45,0.34l-6.24,6.6c-0.32,0.34-0.45,0.83-0.32,1.29l0,0
				c0.2,0.72,0.94,1.15,1.66,0.95l12.35-3.38c0.72-0.2,1.15-0.94,0.95-1.66l-1-3.67c-0.14-0.49-0.54-0.87-1.04-0.97l-0.06-0.01
				c-0.19-0.04-0.38-0.03-0.56,0.01l-3.12,0.7C331.78,208.82,331.52,208.8,331.27,208.71z"/>
		</g>
		<g>
			<linearGradient id="SVGID_3_" gradientUnits="userSpaceOnUse" x1="340.3553" y1="129.7047" x2="368.5628" y2="129.7047">
				<stop  offset="0" style="stop-color:#00B5D1"/>
				<stop  offset="1" style="stop-color:#00D1C8"/>
			</linearGradient>
			<path class="st14" d="M340.36,148.31c-0.35,0.71,28.2-1.06,28.2-1.06l-1.06-31.02l-5.98-3.9l-2.13-1.39h-8.11
				c0,0-0.89,0.18-2.08,0.51c-1.72,0.48-4.07,1.27-5.32,2.31C342.83,117.63,340.71,147.6,340.36,148.31z"/>
		</g>
		<g>
			<path class="st15" d="M367.5,143.37c-6.7,0.35-27.15,0-27.15,0s-2.11,1.41-4.93,0.7c-0.08-0.02-0.16-0.04-0.24-0.05
				c-0.99-0.19-1.8,0.02-2.46,0.34c-1.11,0.56-1.8,1.47-2.24,1.47c-0.43,0-0.59-0.4-0.33-1.11c0.07,0.09,0.19,0.14,0.33,0.14
				c0.14,0,0.31-0.1,0.51-0.25c0.81-0.6,2.16-2.07,4.43-1.51c2.82,0.7,4.93-0.7,4.93-0.7s2.45,0.05,5.94,0.08
				c6.58,0.08,16.82,0.14,21.2-0.08c4.23-0.23,5.51-1.87,5.71-3.65C373.37,140.89,372.5,143.1,367.5,143.37z"/>
		</g>
		<g>
			<path class="st11" d="M373.21,138.73c0,0.01,0,0.01,0,0.02c-0.2,1.79-1.48,3.42-5.71,3.65c-4.38,0.23-14.62,0.16-21.2,0.08
				c-3.49-0.04-5.94-0.08-5.94-0.08s-2.11,1.41-4.93,0.7c-2.26-0.57-3.62,0.9-4.43,1.51c-0.21,0.15-0.37,0.25-0.51,0.25
				c-0.14,0-0.26-0.05-0.33-0.14c0.16-0.45,0.5-1.03,1.05-1.71c1.41-1.76,2.81-3.16,5.63-3.53c2.82-0.35,25.04-3.53,25.04-3.53
				l10.93,0.71C372.97,137.3,373.14,138.01,373.21,138.73z"/>
		</g>
		<g>
			<path class="st12" d="M367.51,116.22c0,0,0,0-0.01,0.01c-4.71,2.24-7.41,7.29-6.67,12.45l1.04,7.29c0,0,7.76,0,11.99,1.76
				L367.51,116.22z"/>
		</g>
		<g>
			<rect x="295.23" y="131.38" class="st16" width="7.76" height="15.16"/>
		</g>
		<g>
			<polygon class="st12" points="302.99,146.54 305.1,146.54 305.1,132.44 302.99,131.38 			"/>
		</g>
		<g>
			<polygon class="st16" points="302.99,131.38 305.81,127.51 297.35,127.51 295.23,131.38 			"/>
		</g>
		<g>
			<polygon class="st12" points="302.99,131.38 305.1,132.44 305.81,130.33 305.81,127.51 			"/>
		</g>
		<g>
			<path class="st8" d="M274.43,149.01l-11.3,67.4c-0.16,0.82-1.38,0.64-1.3-0.19l7.3-67.21H274.43z"/>
		</g>
		<g>
			<path class="st8" d="M292.76,149.01l-11.3,67.4c-0.16,0.82-1.38,0.64-1.3-0.19l7.3-67.21H292.76z"/>
		</g>
		<g>
			<path class="st8" d="M352.79,149.01l11.3,67.4c0.16,0.82,1.38,0.64,1.3-0.19l-7.3-67.21H352.79z"/>
		</g>
		<g>
			<path class="st8" d="M334.46,149.01l11.3,67.4c0.16,0.82,1.38,0.64,1.3-0.19l-7.3-67.21H334.46z"/>
		</g>
		<g>
			<path class="st17" d="M351.99,107.06l-0.71,3.88c0,0,0.35,2.47,3.17,3.17c2.82,0.71,4.94-2.82,4.94-2.82l-0.91-5.98
				L351.99,107.06z"/>
		</g>
		<g>
			<path class="st8" d="M354.02,114.11C354.02,114.11,354.02,114.11,354.02,114.11c0.15,0.08,2.55,1.47,2.2,3.53l5.31-5.31
				l-2.13-1.39c0,0-2.59,2.77-5.3,3.16C354.07,114.1,354.04,114.11,354.02,114.11z"/>
		</g>
		<g>
			<path class="st8" d="M349.2,111.44l1.73,4.78c0,0,1.03-2.06,3.09-2.11c0.02,0,0.05,0,0.08,0l-0.01-0.01l-2.81-3.16L349.2,111.44z
				"/>
		</g>
		<g>
			<rect x="251.16" y="146.54" class="st8" width="132.21" height="4.58"/>
		</g>
		<circle class="st12" cx="333.63" cy="79.36" r="13.56"/>
		<g>
			<rect x="157.15" y="101.51" class="st18" width="86.77" height="103.51"/>
			<rect x="161.2" y="106.35" class="st19" width="78.65" height="93.83"/>
			<rect x="198.86" y="106.35" class="st20" width="1.67" height="93.83"/>
			<g>
				<defs>
					<rect id="SVGID_4_" x="161.2" y="106.35" width="78.65" height="93.83"/>
				</defs>
				<clipPath id="SVGID_5_">
					<use xlink:href="#SVGID_4_"  style="overflow:visible;"/>
				</clipPath>
				<line class="st21" x1="161.2" y1="106.35" x2="239.86" y2="200.18"/>
				<line class="st22" x1="154.05" y1="114.68" x2="232.7" y2="208.51"/>
			</g>
			<rect x="198.86" y="106.35" class="st16" width="1.67" height="93.83"/>
			<circle class="st16" cx="192.06" cy="153.27" r="2.95"/>
			<circle class="st16" cx="206.36" cy="153.27" r="2.95"/>
		</g>
		<g>
			<path class="st6" d="M128.8,71.67H84.44c-0.44,0-0.8,0.36-0.8,0.8v17.68c0,0.44,0.36,0.8,0.8,0.8h38.67
				c0.79,0,1.58,0.12,2.33,0.37c1.45,0.47,4.3,1.4,8.53,2.78c0.62,0.2,1.12-0.54,0.68-1.03c-0.93-1.05-2.29-2.56-4.05-4.54
				c-0.64-0.72-1-1.65-1-2.62V72.47C129.6,72.03,129.24,71.67,128.8,71.67z"/>
			<path class="st5" d="M91.06,76.1c-0.02,0-0.04,0.02-0.04,0.04v1.78c0,0.02,0.02,0.04,0.04,0.04h31.25c0.02,0,0.04-0.02,0.04-0.04
				v-1.78c0-0.02-0.02-0.04-0.04-0.04H91.06z"/>
			<path class="st5" d="M91.06,80c-0.02,0-0.04,0.02-0.04,0.04v1.78c0,0.02,0.02,0.04,0.04,0.04h31.25c0.02,0,0.04-0.02,0.04-0.04
				v-1.78c0-0.02-0.02-0.04-0.04-0.04H91.06z"/>
			<path class="st5" d="M91.06,83.98c-0.02,0-0.04,0.02-0.04,0.04v1.78c0,0.02,0.02,0.04,0.04,0.04h31.25
				c0.02,0,0.04-0.02,0.04-0.04v-1.78c0-0.02-0.02-0.04-0.04-0.04H91.06z"/>
		</g>
		<path class="st5" d="M106.69,130.62c0,5.3,4.3,9.6,9.6,9.6c5.3,0,9.6-4.3,9.6-9.6h-9.6v-9.6
			C110.99,121.02,106.69,125.32,106.69,130.62z"/>
		<g>
			<rect x="161.75" y="70.94" class="st18" width="58.79" height="2.57"/>
			<g>
				<rect x="204.84" y="42.68" class="st19" width="6.28" height="28.25"/>
				<path class="st23" d="M208.3,62.66h-0.62c-0.46,0-0.83-0.37-0.83-0.83V51.5c0-0.46,0.37-0.83,0.83-0.83h0.62
					c0.46,0,0.83,0.37,0.83,0.83v10.33C209.13,62.29,208.75,62.66,208.3,62.66z"/>
			</g>
			<g>
				<rect x="198.57" y="42.68" class="st18" width="6.28" height="28.25"/>
				<path class="st23" d="M202.02,62.66h-0.62c-0.46,0-0.83-0.37-0.83-0.83V51.5c0-0.46,0.37-0.83,0.83-0.83h0.62
					c0.46,0,0.83,0.37,0.83,0.83v10.33C202.85,62.29,202.48,62.66,202.02,62.66z"/>
			</g>
			<g>
				<rect x="180.87" y="42.68" class="st19" width="6.28" height="28.25"/>
				<path class="st23" d="M184.32,62.66h-0.62c-0.46,0-0.83-0.37-0.83-0.83V51.5c0-0.46,0.37-0.83,0.83-0.83h0.62
					c0.46,0,0.83,0.37,0.83,0.83v10.33C185.15,62.29,184.78,62.66,184.32,62.66z"/>
			</g>
			<g>
				
					<rect x="189.72" y="42.4" transform="matrix(0.9857 0.1684 -0.1684 0.9857 12.2706 -31.6653)" class="st18" width="6.28" height="28.25"/>
				<path class="st23" d="M192.18,62.34l-0.62-0.11c-0.45-0.08-0.75-0.51-0.68-0.96l1.74-10.18c0.08-0.45,0.51-0.75,0.96-0.68
					l0.62,0.11c0.45,0.08,0.75,0.51,0.68,0.96l-1.74,10.18C193.06,62.12,192.63,62.42,192.18,62.34z"/>
			</g>
			<g>
				<rect x="174.59" y="42.68" class="st18" width="6.28" height="28.25"/>
				<path class="st23" d="M178.05,62.66h-0.62c-0.46,0-0.83-0.37-0.83-0.83V51.5c0-0.46,0.37-0.83,0.83-0.83h0.62
					c0.46,0,0.83,0.37,0.83,0.83v10.33C178.87,62.29,178.5,62.66,178.05,62.66z"/>
			</g>
			<g>
				<rect x="168.32" y="42.68" class="st19" width="6.28" height="28.25"/>
				<path class="st23" d="M171.77,62.66h-0.62c-0.46,0-0.83-0.37-0.83-0.83V51.5c0-0.46,0.37-0.83,0.83-0.83h0.62
					c0.46,0,0.83,0.37,0.83,0.83v10.33C172.6,62.29,172.22,62.66,171.77,62.66z"/>
			</g>
		</g>
		<g>
			<circle class="st23" cx="332.79" cy="76.53" r="0.37"/>
			<circle class="st23" cx="334.28" cy="76.53" r="0.37"/>
			<circle class="st23" cx="335.78" cy="76.53" r="0.37"/>
			<circle class="st23" cx="332.79" cy="78.02" r="0.37"/>
			<circle class="st23" cx="334.28" cy="78.02" r="0.37"/>
			<circle class="st23" cx="335.78" cy="78.02" r="0.37"/>
			<circle class="st23" cx="334.28" cy="79.52" r="0.37"/>
			<circle class="st23" cx="335.78" cy="79.52" r="0.37"/>
			<circle class="st23" cx="334.28" cy="81.01" r="0.37"/>
			<circle class="st23" cx="335.78" cy="81.01" r="0.37"/>
			<circle class="st23" cx="338.76" cy="81.01" r="0.37"/>
			<circle class="st23" cx="339.88" cy="81.01" r="0.37"/>
			<circle class="st23" cx="338.76" cy="82.5" r="0.37"/>
			<circle class="st23" cx="339.88" cy="82.5" r="0.37"/>
			<circle class="st23" cx="338.76" cy="83.99" r="0.37"/>
			<circle class="st23" cx="339.88" cy="83.99" r="0.37"/>
			<circle class="st23" cx="334.28" cy="82.5" r="0.37"/>
			<circle class="st23" cx="335.78" cy="82.5" r="0.37"/>
			<circle class="st23" cx="334.28" cy="83.99" r="0.37"/>
			<circle class="st23" cx="330.18" cy="81.01" r="0.37"/>
			<circle class="st23" cx="330.18" cy="82.5" r="0.37"/>
			<circle class="st23" cx="330.18" cy="83.99" r="0.37"/>
			<circle class="st23" cx="331.3" cy="81.01" r="0.37"/>
			<circle class="st23" cx="331.3" cy="82.5" r="0.37"/>
			<circle class="st23" cx="331.3" cy="83.99" r="0.37"/>
			<circle class="st23" cx="335.78" cy="83.99" r="0.37"/>
			<path class="st23" d="M331.3,78.02c0.22,0,0.37-0.15,0.37-0.37v-2.98h1.12c0.19,0,0.34-0.11,0.37-0.3l0.34-1.79h1.6l0.11,0.67
				c0.04,0.19,0.22,0.34,0.45,0.3c0.19-0.04,0.34-0.22,0.3-0.45l-0.19-0.97c-0.04-0.19-0.19-0.3-0.37-0.3h-0.75v-1.64
				c0-0.22-0.15-0.37-0.37-0.37c-0.22,0-0.37,0.15-0.37,0.37v1.6h-0.75c-0.19,0-0.34,0.11-0.37,0.3l-0.3,1.83h-1.19
				c-0.22,0-0.37,0.15-0.37,0.37v3.36C330.93,77.87,331.08,78.02,331.3,78.02z"/>
			<path class="st23" d="M333.91,73.92c-0.22,0-0.37,0.15-0.37,0.37c0,0.22,0.15,0.37,0.37,0.37h1.87h1.12v9.7
				c0,0.22,0.15,0.37,0.37,0.37s0.37-0.15,0.37-0.37V74.29c0-0.22-0.15-0.37-0.37-0.37h-1.49H333.91z"/>
			<path class="st23" d="M341.37,79.14h-0.75v-1.12c0-0.11-0.07-0.22-0.15-0.3l-0.97-0.63v-0.93c0-0.15-0.07-0.26-0.22-0.34
				l-0.75-0.37c-0.19-0.07-0.41,0-0.48,0.15c-0.07,0.15,0,0.41,0.15,0.48l0.52,0.26v0.93c0,0.11,0.07,0.22,0.15,0.3l0.97,0.63v0.93
				h-0.67l-0.67-0.34c-0.19-0.07-0.41,0-0.48,0.15c-0.07,0.19,0,0.41,0.15,0.48l0.75,0.37c0.11,0.07,0.15,0.07,0.22,0.07H341v5.6
				h-14.18V74.67h1.49v1.49c0,0.22,0.15,0.37,0.37,0.37h0.75v1.12c0,0.22,0.15,0.37,0.37,0.37s0.37-0.15,0.37-0.37v-1.49
				c0-0.22-0.15-0.37-0.37-0.37h-0.75v-1.49c0-0.22-0.15-0.37-0.37-0.37h-2.24c-0.22,0-0.37,0.15-0.37,0.37v11.56
				c0,0.22,0.15,0.37,0.37,0.37h14.92c0.22,0,0.37-0.15,0.37-0.37v-6.34C341.74,79.29,341.59,79.14,341.37,79.14z"/>
			<path class="st23" d="M332.79,84.74c0.22,0,0.37-0.15,0.37-0.37v-5.22c0-0.22-0.15-0.37-0.37-0.37h-4.1
				c-0.22,0-0.37,0.15-0.37,0.37v5.22c0,0.22,0.15,0.37,0.37,0.37s0.37-0.15,0.37-0.37v-4.85h3.36v4.85
				C332.42,84.59,332.57,84.74,332.79,84.74z"/>
		</g>
		<g>
			<path class="st16" d="M140.17,211.22h-1.41c-1,0-1.81-0.81-1.81-1.81v-12.26c0-1,0.81-1.81,1.81-1.81h1.41
				c1,0,1.81,0.81,1.81,1.81v12.26C141.98,210.41,141.17,211.22,140.17,211.22z"/>
			<path class="st16" d="M96.25,211.22h-1.41c-1,0-1.81-0.81-1.81-1.81l0-12.26c0-1,0.81-1.81,1.81-1.81h1.41
				c1,0,1.81,0.81,1.81,1.81v12.26C98.06,210.41,97.25,211.22,96.25,211.22z"/>
			<path class="st18" d="M150.44,197.99v-37.96h5.95v-5.29H78.62v5.29h5.69v37.96h-5.56v5.29h77.78v-5.29H150.44z M86.95,160.03
				h60.85v37.96H86.95V160.03z"/>
			<rect x="117.11" y="159.89" class="st24" width="30.69" height="38.1"/>
			<rect x="86.95" y="159.89" class="st24" width="30.42" height="38.1"/>
			<circle class="st16" cx="121.74" cy="179.07" r="1.98"/>
			<circle class="st16" cx="112.21" cy="179.07" r="1.98"/>
		</g>
		<g>
			<g>
				<defs>
					<path id="SVGID_6_" d="M133.77,141.6l-0.58,6.97c0,0-18.86,10.08-22.7,10.24c-6.37,0.27-14.38,0.55-13.96,5.39s15.35,0,15.35,0
						s11.98-3.83,18.48-6.18s10.36-4.74,11.04-6.57c0.68-1.83,0.65-8.72,0.65-8.72L133.77,141.6z"/>
				</defs>
				<use xlink:href="#SVGID_6_"  style="overflow:visible;fill:#FFC88D;"/>
				<clipPath id="SVGID_7_">
					<use xlink:href="#SVGID_6_"  style="overflow:visible;"/>
				</clipPath>
				<path class="st25" d="M138.98,144.52c0,0,0.52,3.66-0.17,6.06c-0.69,2.39-27.11,13.68-27.11,13.68s24.17-5.7,24.24-5.79
					c0.06-0.09,8.54-5.35,8.54-5.35l0.37-9.75L138.98,144.52z"/>
				<path class="st25" d="M100.75,158.79c0.14,0,10.78,1.71,9.95,8.8c0,0-10.83,2.72-11.01,2.49c-0.18-0.23-5.3-3.78-5.3-4.33
					S100.75,158.79,100.75,158.79z"/>
			</g>
			<path class="st8" d="M161.37,89.27c-0.28-1.6-0.8-3.13-1.23-4.62l-0.19-0.67l-0.57,0.17c-1.63,0.5-3.42,0.44-5.04-0.06
				c-0.47-0.15-0.93-0.33-1.37-0.54l2.66-1.01l-2.86-2.06c-1.54-1.11-3.44-1.66-5.3-1.56c-1.86,0.09-3.7,0.8-5.11,2.07
				c-1.41,1.27-2.25,2.97-2.5,4.67c-0.24,1.7,0.07,3.46,1,4.76l0.18-0.06l15.04,11.65c0,0.01,0,0.01,0,0.02l0.32,0.21
				c1.28-0.99,2.29-2.26,3.09-3.65c0.8-1.39,1.37-2.92,1.73-4.5C161.59,92.52,161.65,90.87,161.37,89.27z"/>
			<g>
				<defs>
					<path id="SVGID_8_" d="M62.67,85.26c0.26,0.38,3.87-0.32,6.04,2.86s-0.37,8.8-4.47,9.91c-4.1,1.11-9.49,7.6-10.46,10.6
						c-0.97,3-4.61,6.13-7.65,9.63c-3.04,3.5,0.41,14.84-7.7,19.77c-8.11,4.93-23.69,9.45-32.91-3.73
						c-9.22-13.18,8.66-17.33,12.44-21.75c3.78-4.42,1.8-9.77,9.36-11.66s10.6-2.72,12.17-8.53c1.57-5.81,4.4-9.45,9.77-10.67
						S60.6,82.15,62.67,85.26z"/>
				</defs>
				<use xlink:href="#SVGID_8_"  style="overflow:visible;fill:#381B91;"/>
				<clipPath id="SVGID_9_">
					<use xlink:href="#SVGID_8_"  style="overflow:visible;"/>
				</clipPath>
				<path class="st26" d="M1.74,130.67c1.29,5.16,8.76,8.3,16.96,4.7s9.42-12.42,15.67-15.74c6.25-3.32,11.06-8.55,10.51-12.51
					c-0.55-3.96,0.55-9.97,4.92-9.85s7.04-3.01,8.85-4.33s6.73,3.23,9.52,1.47c2.8-1.75,2.58-4.24,2.58-4.24l-0.55,8.63l-8.54,6.61
					l-15.33,16.65l-1.93,21.71l-26.2,3.25l-14.17-6.84L1.74,130.67z"/>
				<path class="st27" d="M111.04,110.47"/>
			</g>
			<g>
				<defs>
					<path id="SVGID_10_" d="M64.14,118.59c0.65-0.97,1.58-1.71,2.55-1.13s17.79,17.39,19.91,17.61
						c2.12,0.23,10.28-13.89,11.05-16.01c0.77-2.12,0-2.71,0.7-5.1c0.7-2.39,5.8-5.73,9.13-7.08s7.06-0.68,5.77,3
						c-1.29,3.68-9.47,8.57-10.08,10.53c-0.61,1.96-7.76,23.51-14.35,24.17c-6.59,0.66-17.17-10.52-17.17-10.52L64.14,118.59z"/>
				</defs>
				<use xlink:href="#SVGID_10_"  style="overflow:visible;fill:#FFC88D;"/>
				<clipPath id="SVGID_11_">
					<use xlink:href="#SVGID_10_"  style="overflow:visible;"/>
				</clipPath>
				<path class="st28" d="M69.46,128.04c0.86,0.74,12.76,14.08,17.73,14.91c4.98,0.83,11.96-11.94,11.96-11.94L92.51,148
					l-12.17-0.07l-11.75-15.42L69.46,128.04"/>
			</g>
			<g>
				<defs>
					<path id="SVGID_12_" d="M76.75,203.1c0,0,0.32,1.29,0.3,3.16s-0.51,26.04-0.46,30.65c0,0-3.02-1.13-6.24-3
						c0,0-2.86-14.33-2.77-19.03s0.41-7.01,0.41-7.01l-0.14-2.3L76.75,203.1z"/>
				</defs>
				<use xlink:href="#SVGID_12_"  style="overflow:visible;fill:#FFC88D;"/>
				<clipPath id="SVGID_13_">
					<use xlink:href="#SVGID_12_"  style="overflow:visible;"/>
				</clipPath>
				<path class="st29" d="M71.7,205.45c0.14,0,1.52-1.01,2.49,4.24c0.97,5.25-1.27,4.24,0.66,12.95c1.92,8.71,3.68,13.5,3.68,13.5
					s5.21,0.37,5.39-1.52s-1.38-32.95-1.38-32.95l-6.82,0.6L71.7,205.45z"/>
			</g>
			<g>
				<defs>
					<path id="SVGID_14_" d="M68.56,204.55c0,0-0.14,1.32-0.8,3.07c-0.66,1.74-8.25,21.52-9.79,25.86c0,0-3.63,0.67-6.02-2.2
						c0,0,2.25-14.44,3.95-18.82s2.8-6.43,2.8-6.43l0.66-2.21L68.56,204.55z"/>
				</defs>
				<use xlink:href="#SVGID_14_"  style="overflow:visible;fill:#FFC88D;"/>
				<clipPath id="SVGID_15_">
					<use xlink:href="#SVGID_14_"  style="overflow:visible;"/>
				</clipPath>
				<path class="st30" d="M63.68,206.02c0,0,1.61,0.51,0.09,4.61s-4.33,8.57-4.61,11.38c-0.28,2.81-2.77,12.12-2.77,12.12
					s4.38,0.46,4.38,0.28s9.82-29.54,9.82-29.54L63.68,206.02z"/>
			</g>
			<g>
				<defs>
					<path id="XMLID_69_" d="M51.61,156.42l-1.2,0.89c0,0-2.97,6.54-3.59,14.29c-0.62,7.74,4.63,22.1,10.78,33.78
						c0,0,9.4,4.56,20.12-1.66c0,0,0.9-16.87,0.9-24.26s-2.74-18.71-6.87-24.77l-1.03-0.54L51.61,156.42z"/>
				</defs>
				<use xlink:href="#XMLID_69_"  style="overflow:visible;fill:#FF3D0D;"/>
				<clipPath id="XMLID_11_">
					<use xlink:href="#XMLID_69_"  style="overflow:visible;"/>
				</clipPath>
				<path class="st31" d="M57.88,157.03c-0.19,0.74-4.61,20.55-0.47,22.58c4.15,2.03,12.07-2.49,10.69,1.57
					c-1.38,4.06-7.83,3.78-6.91,11.24c0.92,7.47,1.55,14.41-2.12,17.97c0,0,19.45,7.93,21.2-3.41c1.75-11.34,3.23-44.89-2.12-51.52
					s-6.64-3.78-6.64-3.78L57.88,157.03z"/>
			</g>
			<g>
				<defs>
					<path id="XMLID_68_" d="M56.57,116.2l0.29-0.15c0,0,7.24,0.11,8.57,0.25c1.34,0.14,3.27,6.01,4.47,8.18
						c1.2,2.17,2.67,4.36,3.16,5.39c0.48,1.04,0.67,5.05-1.18,10.25c-1.84,5.21-0.14,14.56-0.14,14.56s-9.12,8.2-21.34,2.63
						c0,0,0.37-6.91-1.75-11.8c-2.12-4.89-5.53-11.66-6.18-17.42c-0.65-5.76,1.68-7.65,3.16-8.66c1.47-1.01,4-2.46,4-2.46
						L56.57,116.2z"/>
				</defs>
				<use xlink:href="#XMLID_68_"  style="overflow:visible;fill:#FFC40E;"/>
				<clipPath id="XMLID_12_">
					<use xlink:href="#XMLID_68_"  style="overflow:visible;"/>
				</clipPath>
				<path class="st32" d="M74.4,128.78c0,0,1.85,5.99-5.18,9.47c-7.03,3.48-17.41,2-15.41,7.33c2,5.33,3.87,10.97,6.12,12.19
					c2.25,1.22,9.58,2.67,9.58,2.67l5.3-5.86C74.8,154.59,79.81,135.01,74.4,128.78z"/>
			</g>
			<g>
				<defs>
					<path id="SVGID_16_" d="M64.82,95.07c0,0,0.89,8.54,0,12.57c-0.89,4.02-4.85,6.24-8.23,3.53l0.28,4.89c0,0-1.81,4.21-7.22,0.92
						l-0.31-5.28c0,0,2.34-1.84,2.34-4.18s-1.51-1.95-2.34-3.76c-0.83-1.81,0.34-4.26,2.01-4.41s2.01,2.43,2.01,2.43
						s0.69-2.27,1.51-2.63c0.81-0.35,1.8,0.88,3.38,0.26c1.58-0.61,1.01-2.44,2.6-2.73C62.42,96.37,64.31,96.23,64.82,95.07z"/>
				</defs>
				<use xlink:href="#SVGID_16_"  style="overflow:visible;fill:#FFC88D;"/>
				<clipPath id="SVGID_17_">
					<use xlink:href="#SVGID_16_"  style="overflow:visible;"/>
				</clipPath>
				<path class="st33" d="M48.49,104.19c0.05-0.32,1.03-3.96,2.66-3.36c1.63,0.6,1.98,2.49,1.98,2.49s0.74-2.57,2.4-2.55
					c1.66,0.02,4.38,0.29,5.39-2.41c0.26-0.94,1.87-0.43,2.86-0.89c0.98-0.46,1.97-1.38,1.97-1.38l-0.53-1.98l-16.93,4.29l-1.29,3.7
					L48.49,104.19z"/>
				<path class="st33" d="M57.39,111.97l-0.81-0.81c0,0-2.34-1.46-3.08-2.23s2.66,2.34,3.32,6.58c0.66,4.24,0,0,0,0L57.39,111.97z"
					/>
			</g>
			<g>
				<defs>
					<path id="SVGID_18_" d="M42.85,121.86c1.78-2.26,5.41-1.26,7.9,2.37c2.49,3.63,14.09,21.67,15.52,23.05
						c1.43,1.38,22.95,12.56,24.43,12.97c1.47,0.41,7.04-1.21,11.64-0.08c4.61,1.13,6.45,3.13,6.75,5.35
						c0.3,2.21-4.65,4.54-9.72,3.25c-5.07-1.29-9.75-1.73-10.81-3.09c0,0-23.7-7.98-27.43-11.3c-3.73-3.32-15.95-20.3-17.87-24.13
						C41.33,126.42,42,122.94,42.85,121.86z"/>
				</defs>
				<use xlink:href="#SVGID_18_"  style="overflow:visible;fill:#FFC88D;"/>
				<clipPath id="SVGID_19_">
					<use xlink:href="#SVGID_18_"  style="overflow:visible;"/>
				</clipPath>
				<path class="st34" d="M42.37,121c4.67,1.2,7.62,4.06,10.34,9.26c2.72,5.21,8.99,17.1,13,18.53s24.56,13.55,25.53,12.07
					c0.97-1.47-10.78-6.64-12.44-8.48c-1.66-1.84-29.6-34.25-29.6-34.25l-6.48,0.6L42.37,121z"/>
			</g>
			<g>
				<g>
					<g>
						<g>
							<g>
								<path class="st35" d="M198.98,250.15c0.05-0.23,0.09-0.47,0.14-0.72"/>
							</g>
						</g>
						<g>
							<g>
								<path class="st35" d="M199.4,247.63c0.03-0.21,0.06-0.44,0.08-0.66"/>
							</g>
						</g>
						<g>
							<g>
								<path class="st35" d="M199.69,244.57"/>
							</g>
						</g>
					</g>
				</g>
				<g>
					<defs>
						<path id="SVGID_20_" d="M168.75,153.27l0.38,0.22c0,0,4.01,6.41,6.1,14.31c2.09,7.9,4,24.62,6,30.07
							c2,5.45,20.89,31.89,20.89,31.89s0.18,7.27-8.81,9.54c0,0-23.89-25.71-28.07-31.61c-4.18-5.91-5.72-11.9-5.72-11.9
							s-0.55,18.62-0.64,28.62c-0.09,9.99,0.82,19.44,0.82,19.44s-7,4.72-14.44,0c0,0-2.27-21.98-2.63-37.7s0.17-51.81,0.17-51.81
							l6.01,1.12L168.75,153.27z"/>
					</defs>
					<use xlink:href="#SVGID_20_"  style="overflow:visible;fill:#0D0F21;"/>
					<clipPath id="SVGID_21_">
						<use xlink:href="#SVGID_20_"  style="overflow:visible;"/>
					</clipPath>
					<g class="st36">
						<path class="st37" d="M160.09,199.53l-0.6-2.77c0,0-3.7-16.29-4.91-23.14c-1.21-6.84,0.36-3.21,0.85-0.06
							c0.48,3.15,3.57,18.65,5.81,24.29c2.24,5.63,4.72,9.09,10.36,15.86c5.63,6.77,23.49,26.05,23.49,26.05s-2.72,1.21-2.72,1.03
							c0-0.18-21.62-24.29-21.62-24.29l-8.66-10.3L160.09,199.53z"/>
					</g>
					<g class="st38">
						<path class="st39" d="M201.92,232.1c0,0-4.8-4.89-7.67-8.88s-12.93-18.07-16.23-25.15c-3.3-7.09-3.1-16.82-5.71-25.84
							s-13.23-15.73-13.23-15.73l9.95-4.28l9.75,17.5l5.97,30.45l16.5,25.24l1.33,5L201.92,232.1z"/>
					</g>
				</g>
				<g>
					<g>
						<path class="st40" d="M167.91,149.63l0.61,0.18l0.63,3.67c0,0-3.01,4.8-14.6,4.52s-11.75-3.68-11.75-3.68l0.1-3.85l0.75-0.12
							L167.91,149.63z"/>
					</g>
				</g>
				<g>
					<g id="XMLID_62_">
						<linearGradient id="SVGID_22_" gradientUnits="userSpaceOnUse" x1="133.1744" y1="130.671" x2="186.2571" y2="130.671">
							<stop  offset="0" style="stop-color:#00B5D1"/>
							<stop  offset="1" style="stop-color:#00D1C8"/>
						</linearGradient>
						<path class="st41" d="M186.26,138c0,0-3.82,6.9-10.17,3.88l-7.45-16.17l-0.12,24.11c0,0-3.03,4.97-13.08,4.48
							c-0.39-0.02-0.78-0.04-1.15-0.07c0,0,0,0,0,0c-6.17-0.46-9.21-2.02-10.53-2.97c-0.63-0.45-0.86-0.77-0.86-0.77
							s-0.43-9.08-1.1-12.11v6.08c0,0-1.68,0.91-3.77,0.95c-1.56,0.04-3.35-0.41-4.85-2.06c0,0-0.19-25.13,4.04-29.92
							c4.24-4.78,13.86-5.08,13.86-5.08l9.24-1.34c0,0,5.72,0.29,9.26,1.66c0.18,0.07,0.35,0.14,0.52,0.21
							c6.11,2.58,6.51,6.87,9.27,12.99c2.09,4.64,5.1,11.8,6.34,14.77C186.05,137.5,186.26,138,186.26,138z"/>
						<g>
							<path class="st42" d="M153.68,159.6c-0.19,0-0.36-0.14-0.4-0.33c-3.39-17.61-3.48-30.73-2.97-38.64
								c0.56-8.59,1.91-12.94,1.97-13.12c0.07-0.21,0.3-0.33,0.51-0.27c0.21,0.07,0.33,0.3,0.27,0.51
								c-0.01,0.04-1.38,4.47-1.93,12.98c-0.51,7.85-0.41,20.89,2.96,38.39c0.04,0.22-0.1,0.43-0.32,0.48
								C153.73,159.6,153.7,159.6,153.68,159.6z"/>
						</g>
						<path class="st43" d="M168.63,125.71l-0.12,24.11c0,0-3.03,4.97-13.08,4.48c-0.39-0.02-0.78-0.04-1.15-0.07
							c5.95-0.92,8.47-5.07,9.95-8.08c1.8-3.65,1.31-10.04,0.62-13.98c-0.69-3.94,1.24-13.96,1.24-13.96
							C166.24,121.73,168.63,125.71,168.63,125.71z"/>
						<g class="st44">
							<g>
								<path class="st45" d="M185.69,136.64l-3.56,1.27c0,0-2.27-4.54-3.12-9.25c-0.85-4.71-5.33-7.01-5.83-12.19
									c-0.3-3.19-1.83-5.89-3.09-7.59c6.11,2.58,6.51,6.87,9.27,12.99C181.45,126.51,184.45,133.67,185.69,136.64z"/>
							</g>
						</g>
						<g class="st44">
							<path class="st46" d="M143.76,151.25c-0.63-0.45-0.86-0.77-0.86-0.77s-0.43-9.08-1.1-12.11v6.08c0,0-1.68,0.91-3.77,0.95
								c0.9-3.71,2-9.23,2.1-14.35c0.02-0.8-0.28-3.17-0.28-3.17s-0.68-4.06-0.08-7.12c0.61-3.06,1.15-2.15,0.85,1.18
								c-0.3,3.33,0.18,6.9,0.7,9.99C141.74,134.51,143.26,147.08,143.76,151.25z"/>
						</g>
					</g>
				</g>
				<g>
					<g>
						<path class="st40" d="M133.47,140.34l8.53,0.6c0.42,0.03,0.76,0.37,0.77,0.78l0.06,3.71c0.01,0.43-0.36,0.76-0.81,0.73
							l-8.82-0.61c-0.45-0.03-0.79-0.41-0.77-0.83l0.23-3.69C132.68,140.61,133.04,140.31,133.47,140.34z"/>
					</g>
				</g>
				<g>
					<path class="st47" d="M179.92,189.19c0,0-1.21-5.52-1.44-7.49c-0.23-1.97,0.94-2.68,4.64-3.47c3.7-0.79,9.05-2.07,10.57-2.33
						c1.52-0.26,4.2-0.18,4.97,2.48c0.77,2.67,1.7,6,1.7,6s-0.89,1.7-3.31,0.86c0,0-1.2-4.15-1.61-5.3
						c-0.42-1.14-1.45-1.48-4.28-0.85c-2.84,0.64-7.26,1.52-8.39,1.9c-1.12,0.38-0.95,1.27-0.7,2.93c0.26,1.66,0.87,4.85,0.87,4.85
						S182.21,189.87,179.92,189.19z"/>
					<path class="st48" d="M169.75,189.28c0,0-0.34,1.19-0.24,3.34c0.1,2.15,3.82,24.73,3.82,24.73l1.85-0.74l2.6,1.45l0.62-1.07
						l-6.56-26.56L169.75,189.28z"/>
					<g>
						<defs>
							<path id="XMLID_59_" d="M207.84,181.8l7.69,27.83c0,0-15.16,8.99-37.76,8.42l-7.09-28.24L207.84,181.8z"/>
						</defs>
						<use xlink:href="#XMLID_59_"  style="overflow:visible;fill:#EA6024;"/>
						<clipPath id="XMLID_13_">
							<use xlink:href="#XMLID_59_"  style="overflow:visible;"/>
						</clipPath>
						<path class="st49" d="M169.06,191.37c0,0.28,8.25,13.78,24.47,10.18c16.22-3.59,16.08-11.38,15.95-19.17l-0.46-2.21
							l-30.49,5.1l-9.74,1.07L169.06,191.37z"/>
					</g>
					<path class="st50" d="M169.3,189.07l38.83-7.84c0,0,4.58,15.85-13.32,19S169.3,189.07,169.3,189.07z"/>
					<path class="st51" d="M192.28,199.62l6.15-1.43c0.32-0.07,0.64,0.12,0.72,0.44l0.4,1.51c0.09,0.33-0.12,0.67-0.45,0.75
						l-6.17,1.39c-0.32,0.07-0.64-0.12-0.72-0.44l-0.37-1.47C191.75,200.03,191.95,199.69,192.28,199.62z"/>
				</g>
				<g>
					<g id="XMLID_58_">
						<path class="st11" d="M190.95,184.07c-3.1,1.02-7.17,0.07-7.93-3.17c-0.18-0.76-0.17-1.66,0.08-2.68
							c0.02-0.06,0.03-0.13,0.05-0.19c1.47-5.51,2.35-7.08,1.22-13.86c-0.73-4.41-2.58-11.23-3.78-16.77
							c-0.2-0.93,0.1-1.31-1.2-3.75c-0.16-0.31-0.35-0.64-0.57-1.02c-0.24-0.41-0.5-0.86-0.81-1.36l7.63-2.35l0.61-0.19
							c0,0,0.4,0.99,0.9,2.37c0.1,0.27,0.2,0.55,0.3,0.84c0.66,1.88,1.38,4.2,1.59,5.8c0.93,7.12,1.56,18.43,2.18,23.62
							c0,0.01,0,0.01,0,0.01c0.12,1,0.24,1.77,0.36,2.24c0.21,0.82,0.47,1.68,0.72,2.56c0.25,0.88,0.49,1.77,0.64,2.62
							C193.41,181.21,193.24,183.32,190.95,184.07z"/>
						<path class="st15" d="M191.23,171.37C191.23,171.37,191.23,171.37,191.23,171.37c-0.62-5.2-1.25-16.51-2.18-23.63
							c-0.21-1.6-0.93-3.92-1.59-5.8l0.07-0.02c0.29-0.06,0.52-0.22,0.68-0.44"/>
						<path class="st15" d="M191.23,171.36c-0.09-0.5-3.9-21.69-4.63-25.43c-0.38-1.93-1.41-2.86-2.33-3.32
							c-0.88-0.44-1.67-0.43-1.67-0.43l4.55-1.08l0.61-0.15l0.45,0.53c-0.16,0.21-0.4,0.38-0.68,0.44l-0.07,0.02
							c0.66,1.88,1.38,4.2,1.59,5.8C189.98,154.85,190.61,166.16,191.23,171.36z"/>
					</g>
				</g>
				<g>
					<g>
						<path class="st40" d="M188.21,141.49c-0.16,0.21-0.4,0.38-0.68,0.44l-0.07,0.02l-3.18,0.68l-4.88,1.04l-2.52,0.54
							c-0.57,0.12-1.13-0.2-1.33-0.74l-1.53-4.25c-0.16-0.44-0.03-0.91,0.28-1.22c0.14-0.14,0.31-0.24,0.51-0.29l6.45-1.73l3.73-1
							l0.35-0.1c0.59-0.16,1.2,0.17,1.39,0.74l1.65,4.81C188.51,140.79,188.44,141.19,188.21,141.49z"/>
					</g>
				</g>
			</g>
			<path id="XMLID_10_" class="st11" d="M141.21,88.8c0,0-0.28,7.97,0.37,11.32s3.46,4.53,6.5,3.12c3.04-1.41,2,5.34,2,5.34
				s2.71,1.93,6.78-0.65c0,0-1.1-4.62-0.62-5.76c0.06-0.14-0.25-0.27-0.25-0.27s-1.73-0.78-1.57-1.94c0.16-1.16,2.07-2.45,2.12-3.75
				c0.05-1.3-0.4-2.63-2.11-2.58c0,0-0.99-2.84-3.03-3.63C149.36,89.23,143.5,90.24,141.21,88.8z"/>
			<g>
				<g>
					<path class="st40" d="M153.09,106.8l1.39,4.77c0,0,3.83-0.73,4.56-4.48c0,0-1.95-3.76-2.65-3.36c-0.65,0.36-0.9,1.79-2.92,2.41
						C153.18,106.22,153.01,106.51,153.09,106.8z"/>
				</g>
			</g>
			<polygon class="st52" points="151.33,106.67 151.9,109.22 153.22,106.79 155.02,111.42 151.55,112.21 150.12,110.55 			"/>
			<g>
				<g>
					<path class="st40" d="M151.68,106.62l-1.28,4.64c0,0-0.98-0.11-1.22-2.38l0.73-3.18c0.01-0.09,0.12-0.13,0.18-0.07
						c0.25,0.22,0.35,0.65,1.3,0.68C151.55,106.31,151.68,106.45,151.68,106.62z"/>
				</g>
			</g>
		</g>
		<g>
			<linearGradient id="SVGID_23_" gradientUnits="userSpaceOnUse" x1="16.5302" y1="180.5694" x2="60.2577" y2="180.5694">
				<stop  offset="0" style="stop-color:#00B5D1"/>
				<stop  offset="1" style="stop-color:#00D1C8"/>
			</linearGradient>
			<path class="st53" d="M59.41,200.35c2.9-6.08-2.35-9.47-5.75-2.73c-1.77,4.18-1.71,7.07-1.36,8.76
				c-0.27-0.47-0.56-0.92-0.84-1.36c-1.57-2.37-3.34-4.2-5.29-5.48c-0.01,0-0.01-0.01-0.02-0.01c-3.94-2.49-7.01-5.65-9.21-9.49
				c-0.56-0.97-1.06-1.98-1.51-3.04c2.65-1.65,4.91-3.72,6.78-6.22c3.54-5.28-1.51-9.67-4.99-3.33c-1.88,3.9-2.16,7.05-2.16,8.63
				c-1.11-2.89-1.83-6.09-2.15-9.6l0,0l0,0c-0.03-0.29-0.07-0.59-0.12-0.9c2.34-1.43,4.32-3.23,5.95-5.42
				c3.04-4.54-1.3-8.3-4.29-2.86c-1.6,3.31-1.85,6-1.85,7.37c-0.42-1.85-1.23-4.03-2.41-6.53c-0.42-0.89-0.89-1.82-1.4-2.79
				c1.4-1.62,2.52-3.42,3.37-5.42c1.73-4.63-2.46-6.84-4-1.45c-0.45,1.94-0.54,3.56-0.5,4.81c-1.21-2.14-2.62-4.46-4.24-6.95
				c-0.1-0.15-0.26-0.22-0.42-0.21c-0.2-2.32-0.78-4.56-1.74-6.72c-2.22-4.41-6.69-2.83-3.78,1.95c2.1,3.1,4.26,4.52,5.14,5.02
				c-0.07,0.14-0.07,0.32,0.02,0.46c2.17,3.35,3.97,6.37,5.39,9.05c0.04,0.14,0.06,0.21,0.06,0.21l0.03-0.03
				c0.14,0.26,0.27,0.53,0.41,0.78c-0.7-0.65-2.75-2.3-6.44-3.32c-5.47-1.24-5.54,3.5-0.65,4.2c2.46,0.24,4.88,0.05,7.25-0.57
				c0.23,0.46,0.45,0.91,0.66,1.36c1.54,3.27,2.42,5.95,2.63,8.03h0c0.41,4.46,1.44,8.43,3.09,11.93c-0.61-0.8-2.69-2.91-7.99-3.36
				c-6.42-0.13-5.97,5.16-0.24,5.41c2.9-0.03,5.7-0.6,8.39-1.72c0.28,0.58,0.58,1.14,0.9,1.69c1.06,1.84,2.3,3.52,3.74,5.06
				c-1.37-0.69-3.31-1.3-6.01-1.54c-7.07-0.14-6.58,5.69-0.26,5.96c3.14-0.03,6.16-0.63,9.07-1.82c0.93,0.76,1.93,1.47,2.98,2.14
				l0.01,0c1.85,1.21,3.53,2.96,5.03,5.22c1.52,2.29,2.86,5.12,4.02,8.48c0.08,0.24,0.35,0.37,0.59,0.29
				c0.24-0.08,0.37-0.35,0.29-0.59c-0.73-2.12-1.53-4.03-2.4-5.73C55.75,205.83,57.82,203.29,59.41,200.35z"/>
			<linearGradient id="SVGID_24_" gradientUnits="userSpaceOnUse" x1="361.7611" y1="166.3533" x2="408.4984" y2="166.3533">
				<stop  offset="0" style="stop-color:#00B5D1"/>
				<stop  offset="1" style="stop-color:#00D1C8"/>
			</linearGradient>
			<path class="st54" d="M363.82,197.74c2.8,3.39,6.14,6.14,10,8.26c-0.69,2.43-1.24,5.1-1.64,8.02c-0.05,0.34,0.19,0.64,0.52,0.69
				c0.34,0.05,0.64-0.19,0.69-0.52c0.64-4.64,1.65-8.63,3.03-11.98c1.36-3.32,3.09-5.99,5.17-8.03l0.01-0.01
				c1.19-1.13,2.29-2.31,3.3-3.53c4.06,0.79,8.12,0.8,12.18,0.04c8.09-1.96,7.24-9.62-1.86-7.64c-3.42,0.99-5.77,2.28-7.37,3.52
				c1.47-2.35,2.65-4.85,3.54-7.5c0.27-0.79,0.51-1.59,0.73-2.41c3.76,0.76,7.52,0.79,11.27,0.08c7.34-1.78,6.57-8.72-1.69-6.93
				c-6.74,1.94-8.89,5.2-9.47,6.38c1.24-4.94,1.56-10.34,0.95-16.2l0,0c-0.26-2.74,0.19-6.43,1.35-11.04
				c0.16-0.62,0.33-1.26,0.51-1.92c3.22,0.19,6.39-0.18,9.51-1.11c6.14-2.16,4.84-8.26-1.91-5.26c-4.51,2.27-6.74,4.92-7.48,5.94
				c0.1-0.37,0.21-0.74,0.32-1.12l0.05,0.03c0,0,0.01-0.1,0.03-0.28c1.15-3.83,2.7-8.19,4.65-13.07c0.08-0.21,0.04-0.44-0.09-0.61
				c1.01-0.86,3.44-3.25,5.36-7.79c2.55-6.93-3.63-7.83-5.38-1.56c-0.69,3.03-0.87,6.07-0.54,9.12c-0.21,0.03-0.41,0.17-0.49,0.38
				c-1.46,3.64-2.69,6.99-3.71,10.06c-0.26-1.62-0.79-3.7-1.87-6.09c-3.36-6.58-8.21-2.65-4.8,2.89c1.61,2.36,3.52,4.41,5.74,6.14
				c-0.42,1.38-0.78,2.7-1.1,3.95c-0.89,3.53-1.37,6.55-1.45,9.05c-0.35-1.77-1.36-5.18-4.27-9.05c-5.25-6.26-9.89-0.3-4.81,4.79
				c2.67,2.41,5.7,4.24,9.08,5.49c0.01,0.41,0.03,0.81,0.07,1.19l0,0.01l0,0c0.48,4.62,0.37,8.93-0.32,12.95
				c-0.4-2.05-1.56-6.04-4.99-10.6c-6.11-7.3-11.52-0.35-5.6,5.58c3.05,2.75,6.5,4.86,10.34,6.31c-0.31,1.48-0.7,2.92-1.17,4.31
				c-1.87,5.52-5.03,10.39-9.48,14.61c-0.01,0.01-0.02,0.02-0.02,0.02c-2.2,2.16-4.02,4.97-5.44,8.43
				c-0.26,0.63-0.51,1.29-0.74,1.97c0.03-2.27-0.63-6.02-3.99-10.96C364.43,184.91,358.52,190.62,363.82,197.74z"/>
			<linearGradient id="SVGID_25_" gradientUnits="userSpaceOnUse" x1="229.2743" y1="186.6031" x2="277.1664" y2="186.6031">
				<stop  offset="0" style="stop-color:#00B5D1"/>
				<stop  offset="1" style="stop-color:#00D1C8"/>
			</linearGradient>
			<path class="st55" d="M236.49,205.28c-3.73-7.38-9.48-3.67-6.3,2.99c1.74,3.22,4.02,6,6.83,8.35c-0.96,1.87-1.83,3.96-2.63,6.28
				c-0.09,0.27,0.05,0.56,0.32,0.65c0.27,0.09,0.56-0.05,0.65-0.32c1.27-3.68,2.74-6.78,4.4-9.29c1.65-2.49,3.48-4.39,5.51-5.72
				l0.01,0c1.15-0.73,2.24-1.51,3.26-2.34c3.19,1.3,6.5,1.96,9.93,1.99c6.92-0.29,7.46-6.68-0.29-6.53
				c-2.95,0.25-5.08,0.93-6.58,1.68c1.58-1.68,2.94-3.53,4.1-5.54c0.35-0.6,0.67-1.22,0.98-1.85c2.94,1.23,6.01,1.85,9.19,1.88
				c6.27-0.27,6.77-6.06-0.26-5.92c-5.81,0.5-8.09,2.81-8.75,3.68c1.81-3.83,2.94-8.18,3.39-13.06l0,0
				c0.23-2.28,1.19-5.21,2.88-8.79c0.23-0.48,0.47-0.98,0.72-1.49c2.6,0.68,5.24,0.88,7.94,0.62c5.35-0.77,5.28-5.96-0.71-4.6
				c-4.05,1.13-6.29,2.93-7.06,3.64c0.14-0.28,0.29-0.57,0.44-0.86l0.03,0.03c0,0,0.03-0.08,0.07-0.23c1.55-2.94,3.52-6.25,5.9-9.92
				c0.1-0.16,0.11-0.35,0.03-0.51c0.97-0.54,3.33-2.1,5.63-5.49c3.19-5.25-1.7-6.97-4.14-2.14c-1.05,2.36-1.69,4.81-1.91,7.36
				c-0.18-0.01-0.36,0.07-0.46,0.23c-1.78,2.74-3.32,5.27-4.65,7.62c0.05-1.37-0.05-3.15-0.54-5.27c-1.68-5.91-6.27-3.49-4.38,1.58
				c0.93,2.18,2.17,4.16,3.69,5.93c-0.56,1.06-1.07,2.08-1.53,3.05c-1.29,2.74-2.17,5.12-2.64,7.15c0-1.5-0.28-4.44-2.03-8.07
				c-3.27-5.96-8.02-1.84-4.7,3.13c1.79,2.4,3.96,4.38,6.52,5.94c-0.06,0.34-0.1,0.67-0.13,0.98l0,0l0,0
				c-0.35,3.84-1.14,7.35-2.35,10.51c0.01-1.73-0.3-5.18-2.36-9.45c-3.81-6.94-9.34-2.14-5.47,3.65c2.04,2.74,4.52,5.01,7.42,6.81
				c-0.49,1.16-1.04,2.27-1.65,3.33c-2.41,4.2-5.78,7.66-10.09,10.39c-0.01,0.01-0.02,0.01-0.02,0.02c-2.15,1.41-4.08,3.41-5.8,6
				c-0.32,0.48-0.62,0.97-0.92,1.49C238.37,213.02,238.44,209.85,236.49,205.28z"/>
		</g>
		<circle class="st11" cx="155.02" cy="94.3" r="2.69"/>
		<g>
			<path class="st11" d="M359.46,101.36c-0.29,1.17,0.12,2.28,0.91,2.47l0,0c0.79,0.2,1.67-0.59,1.96-1.76l0.37-1.47
				c0.29-1.17-0.12-2.27-0.91-2.47l0,0c-0.79-0.2-1.67,0.59-1.96,1.76L359.46,101.36z"/>
			<path class="st11" d="M350.4,106.93c0.54,1.96,1.35,2.43,2.78,2.64c1.36,0.14,1.69,0.27,3.06,0.41c1.44,0.07,2.91-1.84,3.25-3.59
				c0.54-2.88,2.11-5.25,2.64-8.13c0.35-1.73-0.39-3.27-2.49-4.53c-1.93-1.12-4.21-3.41-6.26-2.68c-2.25,0.82-3.47,4.23-3.37,6.01
				C350.13,100.01,350.27,103.99,350.4,106.93z"/>
			<path class="st8" d="M363.18,96.01l-1.05,2.25c0,0-2.23-2.51-3.8-4.57c-0.5-0.65-5.58-0.71-6.85-0.48
				c-0.92,0.16-1.03,1.34-1.24,2.03c-0.76,2.44,0.32-4.12,0.32-4.12s1.73-3.09,4.96-3.35c1.79-0.14,2.62,0.9,3.3,2.25
				c0.16,0.32-1.97-0.51-1.6-0.56c0.09-0.01,2.19,1.83,2.25,1.97c0.32,0.7,0.66,1.4,1.12,2.02
				C362.32,95.75,363.18,96.01,363.18,96.01z"/>
			<polygon class="st17" points="355.57,97.36 354.16,97.55 354.54,98.41 353.43,98.82 352.34,103.14 354.18,103.27 354.46,100.63 
				355.58,99.31 358.4,99.05 			"/>
		</g>
		<circle class="st12" cx="142.66" cy="56.81" r="14.2"/>
		<g>
			<circle class="st23" cx="141.9" cy="54.26" r="0.34"/>
			<circle class="st23" cx="143.25" cy="54.26" r="0.34"/>
			<circle class="st23" cx="144.59" cy="54.26" r="0.34"/>
			<circle class="st23" cx="141.9" cy="55.61" r="0.34"/>
			<circle class="st23" cx="143.25" cy="55.61" r="0.34"/>
			<circle class="st23" cx="144.59" cy="55.61" r="0.34"/>
			<circle class="st23" cx="143.25" cy="56.95" r="0.34"/>
			<circle class="st23" cx="144.59" cy="56.95" r="0.34"/>
			<circle class="st23" cx="143.25" cy="58.29" r="0.34"/>
			<circle class="st23" cx="144.59" cy="58.29" r="0.34"/>
			<circle class="st23" cx="147.28" cy="58.29" r="0.34"/>
			<circle class="st23" cx="148.29" cy="58.29" r="0.34"/>
			<circle class="st23" cx="147.28" cy="59.64" r="0.34"/>
			<circle class="st23" cx="148.29" cy="59.64" r="0.34"/>
			<circle class="st23" cx="147.28" cy="60.98" r="0.34"/>
			<circle class="st23" cx="148.29" cy="60.98" r="0.34"/>
			<circle class="st23" cx="143.25" cy="59.64" r="0.34"/>
			<circle class="st23" cx="144.59" cy="59.64" r="0.34"/>
			<circle class="st23" cx="143.25" cy="60.98" r="0.34"/>
			<circle class="st23" cx="139.55" cy="58.29" r="0.34"/>
			<circle class="st23" cx="139.55" cy="59.64" r="0.34"/>
			<circle class="st23" cx="139.55" cy="60.98" r="0.34"/>
			<circle class="st23" cx="140.56" cy="58.29" r="0.34"/>
			<circle class="st23" cx="140.56" cy="59.64" r="0.34"/>
			<circle class="st23" cx="140.56" cy="60.98" r="0.34"/>
			<circle class="st23" cx="144.59" cy="60.98" r="0.34"/>
			<path class="st23" d="M140.56,55.61c0.2,0,0.34-0.13,0.34-0.34v-2.69h1.01c0.17,0,0.3-0.1,0.34-0.27l0.3-1.61h1.44l0.1,0.6
				c0.03,0.17,0.2,0.3,0.4,0.27c0.17-0.03,0.3-0.2,0.27-0.4l-0.17-0.87c-0.03-0.17-0.17-0.27-0.34-0.27h-0.67v-1.48
				c0-0.2-0.13-0.34-0.34-0.34c-0.2,0-0.34,0.13-0.34,0.34V50h-0.67c-0.17,0-0.3,0.1-0.34,0.27l-0.27,1.65h-1.07
				c-0.2,0-0.34,0.13-0.34,0.34v3.02C140.22,55.47,140.36,55.61,140.56,55.61z"/>
			<path class="st23" d="M142.91,51.91c-0.2,0-0.34,0.13-0.34,0.34c0,0.2,0.13,0.34,0.34,0.34h1.68h1.01v8.73
				c0,0.2,0.13,0.34,0.34,0.34c0.2,0,0.34-0.13,0.34-0.34v-9.07c0-0.2-0.13-0.34-0.34-0.34h-1.34H142.91z"/>
			<path class="st23" d="M149.63,56.61h-0.67v-1.01c0-0.1-0.07-0.2-0.13-0.27l-0.87-0.57v-0.84c0-0.13-0.07-0.24-0.2-0.3l-0.67-0.34
				c-0.17-0.07-0.37,0-0.44,0.13c-0.07,0.13,0,0.37,0.13,0.44l0.47,0.24v0.84c0,0.1,0.07,0.2,0.13,0.27l0.87,0.57v0.84h-0.6
				l-0.6-0.3c-0.17-0.07-0.37,0-0.44,0.13c-0.07,0.17,0,0.37,0.13,0.44l0.67,0.34c0.1,0.07,0.13,0.07,0.2,0.07h1.68v5.04h-12.76
				v-9.74h1.34v1.34c0,0.2,0.13,0.34,0.34,0.34h0.67v1.01c0,0.2,0.13,0.34,0.34,0.34s0.34-0.13,0.34-0.34v-1.34
				c0-0.2-0.13-0.34-0.34-0.34h-0.67v-1.34c0-0.2-0.13-0.34-0.34-0.34h-2.02c-0.2,0-0.34,0.13-0.34,0.34v10.41
				c0,0.2,0.13,0.34,0.34,0.34h13.43c0.2,0,0.34-0.13,0.34-0.34v-5.71C149.96,56.75,149.83,56.61,149.63,56.61z"/>
			<path class="st23" d="M141.9,61.65c0.2,0,0.34-0.13,0.34-0.34v-4.7c0-0.2-0.13-0.34-0.34-0.34h-3.69c-0.2,0-0.34,0.13-0.34,0.34
				v4.7c0,0.2,0.13,0.34,0.34,0.34s0.34-0.13,0.34-0.34v-4.37h3.02v4.37C141.57,61.52,141.7,61.65,141.9,61.65z"/>
		</g>
	</g>
	<g class="st0">
		<g>
			<rect x="272.03" y="116.18" class="st56" width="15.46" height="17.35"/>
			<g>
				<rect x="272.03" y="131.85" class="st57" width="15.46" height="1.68"/>
				<rect x="272.03" y="128.72" class="st57" width="15.46" height="1.68"/>
				<rect x="272.03" y="125.58" class="st57" width="15.46" height="1.68"/>
				<rect x="272.03" y="122.45" class="st57" width="15.46" height="1.68"/>
				<rect x="272.03" y="119.31" class="st57" width="15.46" height="1.68"/>
				<rect x="272.03" y="116.18" class="st57" width="15.46" height="1.68"/>
			</g>
		</g>
		<rect x="261.34" y="113.84" class="st58" width="18.42" height="17.35"/>
		<g>
			<rect x="261.34" y="129.52" class="st59" width="18.42" height="1.68"/>
			<rect x="261.34" y="126.38" class="st59" width="18.42" height="1.68"/>
			<rect x="261.34" y="123.25" class="st59" width="18.42" height="1.68"/>
			<rect x="262.17" y="120.11" class="st59" width="17.59" height="1.68"/>
			<rect x="262.17" y="116.98" class="st59" width="17.59" height="1.68"/>
			<rect x="262.17" y="113.84" class="st59" width="17.59" height="1.68"/>
		</g>
		<rect x="261.34" y="113.84" class="st12" width="12.97" height="9.4"/>
		<polygon class="st60" points="279.76,131.19 272.03,131.19 272.03,133.53 		"/>
		<g>
			<g>
				<polygon class="st23" points="264.74,116.44 265.08,117.13 265.85,117.24 265.29,117.78 265.42,118.55 264.74,118.19 
					264.05,118.55 264.18,117.78 263.63,117.24 264.4,117.13 				"/>
				<polygon class="st23" points="267.82,116.44 268.17,117.13 268.93,117.24 268.38,117.78 268.51,118.55 267.82,118.19 
					267.14,118.55 267.27,117.78 266.72,117.24 267.48,117.13 				"/>
				<polygon class="st23" points="270.91,116.44 271.25,117.13 272.02,117.24 271.46,117.78 271.59,118.55 270.91,118.19 
					270.22,118.55 270.36,117.78 269.8,117.24 270.57,117.13 				"/>
			</g>
			<g>
				<polygon class="st23" points="263.2,114.33 263.54,115.03 264.3,115.14 263.75,115.68 263.88,116.44 263.2,116.08 
					262.51,116.44 262.64,115.68 262.09,115.14 262.85,115.03 				"/>
				<polygon class="st23" points="266.28,114.33 266.62,115.03 267.39,115.14 266.83,115.68 266.97,116.44 266.28,116.08 
					265.6,116.44 265.73,115.68 265.17,115.14 265.94,115.03 				"/>
				<polygon class="st23" points="269.37,114.33 269.71,115.03 270.47,115.14 269.92,115.68 270.05,116.44 269.37,116.08 
					268.68,116.44 268.81,115.68 268.26,115.14 269.02,115.03 				"/>
				<polygon class="st23" points="272.45,114.33 272.79,115.03 273.56,115.14 273.01,115.68 273.14,116.44 272.45,116.08 
					271.77,116.44 271.9,115.68 271.34,115.14 272.11,115.03 				"/>
			</g>
			<g>
				<polygon class="st23" points="264.74,120.65 265.08,121.35 265.85,121.46 265.29,122 265.42,122.76 264.74,122.4 264.05,122.76 
					264.18,122 263.63,121.46 264.4,121.35 				"/>
				<polygon class="st23" points="267.82,120.65 268.17,121.35 268.93,121.46 268.38,122 268.51,122.76 267.82,122.4 267.14,122.76 
					267.27,122 266.72,121.46 267.48,121.35 				"/>
				<polygon class="st23" points="270.91,120.65 271.25,121.35 272.02,121.46 271.46,122 271.59,122.76 270.91,122.4 270.22,122.76 
					270.36,122 269.8,121.46 270.57,121.35 				"/>
			</g>
			<g>
				<polygon class="st23" points="263.2,118.55 263.54,119.24 264.3,119.35 263.75,119.89 263.88,120.65 263.2,120.29 
					262.51,120.65 262.64,119.89 262.09,119.35 262.85,119.24 				"/>
				<polygon class="st23" points="266.28,118.55 266.62,119.24 267.39,119.35 266.83,119.89 266.97,120.65 266.28,120.29 
					265.6,120.65 265.73,119.89 265.17,119.35 265.94,119.24 				"/>
				<polygon class="st23" points="269.37,118.55 269.71,119.24 270.47,119.35 269.92,119.89 270.05,120.65 269.37,120.29 
					268.68,120.65 268.81,119.89 268.26,119.35 269.02,119.24 				"/>
				<polygon class="st23" points="272.45,118.55 272.79,119.24 273.56,119.35 273.01,119.89 273.14,120.65 272.45,120.29 
					271.77,120.65 271.9,119.89 271.34,119.35 272.11,119.24 				"/>
			</g>
		</g>
		<rect x="260.35" y="113.84" class="st61" width="0.73" height="26.94"/>
		<rect x="258.95" y="113.17" class="st8" width="2.53" height="1.28"/>
	</g>
	<path class="st62" d="M253.29,147.1c0-4.1,3.32-7.42,7.42-7.42c4.1,0,7.42,3.32,7.42,7.42"/>
	<polygon class="st63" points="280.07,133.53 286.47,133.53 286.48,136.34 280.08,136.34 	"/>
</g>
</svg>
