<?xml version="1.0" encoding="UTF-8"?>
<!DOCTYPE svg PUBLIC "-//W3C//DTD SVG 1.1//EN" "http://www.w3.org/Graphics/SVG/1.1/DTD/svg11.dtd">
<!-- Creator: CorelDRAW 2019 (64-Bit Versión de evaluación) -->
<svg xmlns="http://www.w3.org/2000/svg" xml:space="preserve" width="210mm" height="297mm" version="1.1" style="shape-rendering:geometricPrecision; text-rendering:geometricPrecision; image-rendering:optimizeQuality; fill-rule:evenodd; clip-rule:evenodd"
viewBox="0 0 21000 29700"
 xmlns:xlink="http://www.w3.org/1999/xlink">
 <defs>
  <style type="text/css">
   <![CDATA[
    .fil0 {fill:#4E5ED7}
   ]]>
  </style>
 </defs>
 <g id="Capa_x0020_1">
  <metadata id="CorelCorpID_0Corel-Layer"/>
  <g id="_2024170444880">
   <g>
    <path id="Shape_8_" class="fil0" d="M20226.56 12216.34l-1548.1 -235.58 1850.99 -1480.79c302.88,-235.58 370.19,-639.43 201.92,-942.32 -168.27,-336.54 -572.12,-471.16 -908.67,-302.89l-1951.95 740.4c1312.52,-3399.09 1278.87,-3230.82 1278.87,-3399.09 0,-302.89 -201.93,-605.78 -471.16,-706.74 -269.24,-100.97 -639.44,-33.66 -841.36,235.58l-2389.46 2927.93c-168.27,-33.66 -302.89,-67.31 -471.16,-100.97l-538.47 -3567.36c-67.31,-370.2 -370.2,-639.43 -740.4,-639.43 -370.19,0 -673.08,269.23 -740.39,639.43l-538.47 3567.36c-168.27,33.66 -336.54,67.31 -471.16,100.97l-2389.46 -2961.59c-201.93,-235.58 -538.47,-336.54 -807.7,-235.58 -302.89,100.97 -504.82,370.2 -504.82,706.74 0,201.93 -67.31,0 1278.87,3432.75l-1985.61 -740.4c-336.54,-134.62 -740.4,0 -908.67,336.55 -33.65,67.3 33.66,437.5 -437.5,-2658.7 -33.66,-370.2 -33.66,-740.39 -33.66,-1110.59 0,-572.12 -471.16,-1009.63 -1009.63,-1009.63l-3230.82 0c-302.88,0 -605.77,134.62 -807.7,370.2 -201.93,235.58 -269.23,538.47 -201.93,841.36 1043.29,4913.53 774.05,3230.81 1144.25,6596.25l-1548.1 3096.2c-134.62,302.88 -100.96,201.92 -100.96,3500.05 0,403.85 168.27,572.12 673.09,1346.17l302.88 3701.98c33.66,538.47 471.17,942.32 1009.64,942.32l16187.73 0c269.24,0 504.82,-134.62 605.78,-370.2l1480.79 -3062.54c134.62,-302.89 100.97,-639.44 -100.96,-908.67 -201.93,-269.23 -538.47,-370.2 -841.36,-302.89l-605.78 100.96 -235.58 -504.81 673.09 -673.09c201.93,-201.92 269.23,-504.81 168.27,-740.39l-1245.21 -3197.17c201.93,-168.27 302.89,-403.85 235.58,-673.08l-201.93 -942.32 1682.72 -269.24c370.2,-67.31 605.78,-370.2 605.78,-740.39 0,-370.2 -235.58,-673.09 -572.12,-706.75l0 0zm-4105.83 1817.34c572.12,33.65 1177.9,33.65 1750.02,-33.66l201.93 1009.63c-875.01,33.66 -1716.37,-168.27 -1951.95,-975.97l0 0zm-5855.86 4105.83l370.2 -774.05c100.96,235.58 201.92,437.5 302.89,639.43l-67.31 807.7 -605.78 -673.08zm1682.72 -8379.93c1177.9,-336.55 2389.46,-336.55 3567.36,0 1379.83,437.5 2153.88,1514.44 2288.49,2961.58 -1985.6,-1750.03 -6158.74,-1716.37 -8144.35,0 33.66,-706.74 269.24,-1379.83 706.74,-1918.3l33.66 -33.65c370.2,-504.82 908.67,-841.36 1548.1,-1009.63l0 0zm3836.59 8110.69c-403.85,807.71 -1177.9,1379.83 -2086.57,1514.45 -1817.33,-201.93 -2557.73,-2153.88 -2894.27,-3937.56 639.43,-269.23 1110.59,-841.36 1177.9,-1548.1 673.09,-100.96 1312.52,-504.81 1716.37,-1076.94 403.86,572.13 1009.63,942.32 1716.38,1076.94 100.96,706.74 538.46,1278.87 1177.9,1548.1 -100.97,841.36 -403.85,1682.72 -807.71,2423.11l0 0zm-5822.2 -4543.33c875.01,-841.36 2120.23,-1144.25 3298.13,-1211.56 -370.2,1211.56 -2019.26,1312.52 -3298.13,1211.56l0 0zm-605.78 1682.71l201.93 -1009.63c572.12,67.31 1177.9,67.31 1750.03,33.66 -269.24,807.7 -1110.6,1009.63 -1951.96,975.97l0 0zm4745.27 -2894.27c1177.9,67.31 2456.76,403.85 3331.78,1211.56 -1245.21,100.96 -2927.93,0 -3331.78,-1211.56l0 0zm-5182.77 1110.59l-1447.14 -235.58 -67.31 -168.27 1514.45 -235.58c33.65,235.58 0,437.51 0,639.43l0 0zm-67.31 706.75l-168.27 942.32c-33.66,235.58 33.65,471.16 235.58,639.43l-269.24 740.39c-168.27,-134.61 -100.96,-33.65 -908.66,-2490.42l1110.59 168.28zm706.74 1750.02c201.93,0 403.85,-33.65 605.78,-67.31 67.31,302.89 100.96,572.13 201.92,841.36 -67.3,67.31 67.31,-168.27 -572.12,1110.59l-673.09 -774.05 437.51 -1110.59zm2086.57 4072.18l-134.62 -168.28 67.31 -639.43c538.47,639.43 1278.87,1043.29 2120.22,1144.25l67.31 0c807.71,-100.96 1581.76,-471.16 2086.57,-1110.59l168.27 2355.8 -235.58 33.65c-235.58,33.66 -471.16,0 -673.08,-100.96 -3399.09,-1682.72 -2894.28,-1514.44 -3466.4,-1514.44l0 0zm8413.58 -9894.38c33.66,0 67.31,0 67.31,67.31 33.66,67.31 100.97,-67.31 -1951.95,1548.1 -100.96,-269.24 -201.92,-538.47 -370.2,-774.05l2254.84 -841.36zm-1682.71 -3365.43c33.65,-33.66 100.96,-33.66 100.96,67.3l-1312.52 3365.44c-302.89,-269.24 -639.43,-471.16 -1009.63,-639.43l2221.19 -2793.31zm-4745.26 -1009.63c0,-33.66 33.65,-33.66 67.3,-33.66 33.66,0 33.66,33.66 67.31,33.66l504.82 3365.43c-370.2,-33.65 -774.05,-33.65 -1144.25,0l504.82 -3365.43zm-4677.96 1009.63c67.31,-33.66 -134.62,-235.58 2288.5,2793.31 -370.2,168.27 -706.74,370.19 -1009.63,639.43 -1413.49,-3701.98 -1312.52,-3399.09 -1278.87,-3432.74l0 0zm605.78 4240.44c-134.62,235.58 -269.23,504.82 -370.2,774.05 -2153.88,-1682.71 -1985.6,-1514.44 -1951.95,-1615.41 0,-67.3 -134.62,-100.96 2322.15,841.36l0 0zm-875.01 1245.21l-1480.79 235.58c-437.51,-1312.52 -336.55,-841.35 -471.16,-1783.68 100.96,67.31 -134.62,-100.96 1951.95,1548.1l0 0zm-7101.07 -6125.09c-33.65,-100.96 0,-201.92 67.31,-269.23 67.31,-67.31 168.27,-134.62 269.23,-134.62l3230.82 0c201.93,0 336.54,168.27 336.54,336.54 0,1379.83 -100.96,403.86 673.09,5351.05l-2625.04 3331.77c-100.96,100.97 -235.58,168.28 -370.19,100.97 -134.62,-33.66 -235.59,-168.27 -235.59,-302.89 -605.77,-5620.28 -269.23,-3432.74 -1346.17,-8413.59zm6057.78 18644.51l2254.84 -4274.1c67.31,-168.27 0,-370.2 -134.61,-437.51 -168.28,-100.96 -370.2,-33.65 -437.51,134.62l-2423.11 4576.99 -2389.46 0 4004.87 -4879.88c67.3,-100.96 100.96,-235.58 67.3,-336.54 -33.65,-100.97 -134.61,-201.93 -269.23,-201.93 -134.62,-33.65 -235.58,33.65 -336.54,134.62l-4375.07 5317.38 -1177.9 0c-201.93,0 -336.54,-168.27 -336.54,-336.54l3735.63 -5620.28c67.31,-100.96 100.96,-235.58 33.65,-370.19 -67.31,-134.62 -168.27,-201.93 -302.89,-201.93 -134.61,0 -235.58,67.31 -302.89,168.27l-3264.47 4913.54c-235.58,-2927.93 -201.92,-2692.35 -235.58,-2793.31l4004.87 -3701.98c100.96,-67.31 134.62,-201.93 134.62,-336.55 -33.66,-134.61 -134.62,-235.58 -235.58,-269.23 -134.62,-33.65 -269.24,0 -336.55,100.96l-3971.21 3634.67c-235.58,-336.54 -269.23,-370.2 -269.23,-504.81 0,-3298.13 0,-3096.2 33.65,-3197.17l1076.94 -2153.87 67.31 538.47c33.65,403.85 336.54,740.39 740.39,875.01 403.86,100.96 841.36,-33.66 1076.94,-336.54l2322.15 -2961.59c1581.76,4745.27 1447.14,4509.69 1716.37,4778.92l4307.76 4980.84c67.31,100.97 201.93,134.62 336.54,100.97 134.62,-33.66 201.93,-100.97 269.24,-235.58 33.65,-100.97 0,-235.59 -67.31,-336.55l-437.51 -504.81 2355.81 1177.9c605.77,302.89 1110.59,134.62 1615.4,33.65l2389.46 2120.23 -235.58 471.16 -11004.97 -67.31zm12250.18 -3298.13c67.31,0 134.62,0 168.27,67.31 33.66,67.31 33.66,134.62 33.66,168.27l-942.32 1951.96 -1884.65 -1649.07 2625.04 -538.47zm-3197.16 -33.65l-235.58 -3129.85c100.96,-201.93 201.93,-403.86 302.89,-605.78l1716.37 3399.09 -1783.68 336.54zm1850.99 -1649.06c-1245.21,-2524.08 -1447.14,-2927.93 -1514.45,-2995.24 67.31,-269.24 134.62,-572.12 201.93,-875.01 201.93,33.65 370.2,33.65 572.12,67.31l1278.87 3298.12 -538.47 504.82zm-67.31 -6293.37c0,-201.92 0,-403.85 -33.65,-605.77 1783.68,269.23 1716.37,235.58 1716.37,302.89 0,67.3 67.31,33.65 -1682.72,302.88z"/>
    <path class="fil0" d="M12654.33 14976l-673.09 0c-201.92,0 -336.54,168.27 -336.54,336.54 0,201.93 168.27,336.55 336.54,336.55l673.09 0c201.93,0 336.54,-168.27 336.54,-336.55 0,-201.92 -134.61,-336.54 -336.54,-336.54z"/>
    <path class="fil0" d="M15380.33 14976l-673.09 0c-201.92,0 -336.54,168.27 -336.54,336.54 0,201.93 168.27,336.55 336.54,336.55l673.09 0c201.93,0 336.54,-168.27 336.54,-336.55 0,-201.92 -134.61,-336.54 -336.54,-336.54z"/>
    <path class="fil0" d="M14034.16 17702l-673.09 0c-201.93,0 -336.54,168.27 -336.54,336.55 0,201.92 168.27,336.54 336.54,336.54l673.09 0c201.92,0 336.54,-168.27 336.54,-336.54 0,-201.93 -168.27,-336.55 -336.54,-336.55z"/>
    <path class="fil0" d="M13462.03 17298.15c201.93,168.27 639.44,67.31 639.44,-269.24 0,-201.92 -168.28,-336.54 -336.55,-336.54l235.58 -942.32c33.66,-201.93 -67.31,-370.2 -269.23,-437.51 -201.93,-33.65 -370.2,67.31 -437.51,269.24l-168.27 942.32c-100.96,302.89 67.31,605.78 336.54,774.05l0 0z"/>
   </g>
  </g>
 </g>
</svg>
