<?xml version="1.0" encoding="utf-8"?>
<!-- Generator: Adobe Illustrator 23.0.0, SVG Export Plug-In . SVG Version: 6.00 Build 0)  -->
<svg version="1.1" id="Capa_1" xmlns="http://www.w3.org/2000/svg" xmlns:xlink="http://www.w3.org/1999/xlink" x="0px" y="0px"
	 viewBox="0 0 100 100" style="enable-background:new 0 0 100 100;" xml:space="preserve">
<style type="text/css">
	.st0{fill:#4E5ED7;}
</style>
<path class="st0" d="M76.8,89.1c27.7-19.9,25.6-61.7-3.6-78.8c-0.1-0.1-0.2-0.1-0.3-0.2c-17.4-10-39.7-8-55.1,5.8
	c-0.8,0.8-0.9,2-0.2,2.9c0.8,0.8,2,0.9,2.9,0.2c10-9,23.7-12.8,36.8-10.3c-0.2,2.2-1.7,4.6-3.4,6.2c-3.3,3.2-17.1,0.4-22.1,11.4
	c-0.7,1.5-1.7,4.2-2.5,5.6c-0.4-1.5-0.8-3.9-2.7-5.6c-1.2-1-2.4-1.4-3.7-1.3c-2.3,0.2-3.9,2.2-4.9,3.4c-2,2.5-1.1,4.8-0.5,6.5
	c0.6,1.5,1.1,2.9,0.2,5.1c-0.9,2.1,1,4.4,1.6,5.2c2.6,3.1,9.2,8.3,13.2,7.3C42.4,50,45.2,66,51.7,67.6c4.9,1.2,9.6,4.1,9,6.6
	c-1.8,7.9-9.3,7.1-14,9.2c-2.6,1.1-7.3,4.4-10.4,8.4c-2.5-0.8-4.9-1.8-7.1-3c0.3-0.7,0.6-1.5,1-2.3c3.4-7.2,3.2-10.9-4.9-17.5
	c-3.9-3.2-2.5-7.5-0.7-10.6c1.1-1.9,0.6-4.5-1.3-5.8c-2.9-2-11.4-7.1-15.4-13c1.5-5.5,3.9-10.6,7.4-15.1c0.7-0.9,0.5-2.2-0.4-2.9
	c-0.9-0.7-2.2-0.5-2.9,0.4C0.6,37.1-1.5,58.4,9.4,75.9c14.4,23,44.9,29,66.9,13.6C76.6,89.4,76.7,89.3,76.8,89.1z M76.2,84.5
	c-0.3-3.1,2.5-7.9,5.1-12.1c3.4-5.6,6.6-10.9,4-14.6c-2.4-3.6-6-2.1-10.1-5.6c-2.4-2-4.7-4.6-3.4-11.5c0.4-2,2.3-4.4,5.3-6.9
	c2-1.6,2.7-4.4,1.9-6.8c-0.4-1-0.4-1.6-0.3-1.9c1.5-3.8-4.7-5.8-5.3-9.8C97.6,31.6,98.8,66.5,76.2,84.5z M6.8,45
	c4.6,5.1,11,9,14.1,11.1c0.1,0.1,0.1,0.2,0.1,0.3c-3.6,6.2-3,11.9,1.6,15.8c7.7,6.4,5.9,7.8,2.9,14.5C12.3,78,4.4,61.9,6.8,45z
	 M40.6,93c2.5-2.7,5.8-5,7.7-5.8c3.9-1.7,13.9-1.5,16.4-12c1.3-5.5-5.1-9.8-11.9-11.5c-3.7-1-8.3-18.3-21.1-15.2
	c-0.3,0.1-1.5-0.1-3.9-1.6c-3.3-2-5.7-4.7-6.1-5.7c1.4-3.6,0.4-6.2-0.2-7.9c-0.6-1.6-0.6-1.8-0.1-2.4c0.4-0.5,1.5-1.9,2.1-1.9
	c0.1,0,0.4,0.1,0.6,0.3c1.7,1.4,0.8,6.3,4.5,7c4,0.8,5.6-5.1,7.1-8.4c4.1-8.9,16.2-5.4,21.2-10.1c2.6-2.4,4.2-5.4,4.6-8.2
	c2.9,0.8,5.6,1.9,8.2,3.3c-1.2,5.9,3.9,9.3,5.2,11.1c-0.3,1.2-0.2,2.6,0.4,4.3c0.3,0.8,0.1,1.7-0.6,2.3c-2.7,2.2-6.1,5.6-6.8,9.3
	c-1.7,8.7,1.5,12.7,4.8,15.4c7.7,6.3,14.2,0,5.2,14.9c-3.4,5.6-7.2,11.9-5.1,16.8C63.5,93,52.1,95.4,40.6,93z"/>
</svg>
