<?xml version="1.0" encoding="utf-8"?>
<!-- Generator: Adobe Illustrator 23.0.0, SVG Export Plug-In . SVG Version: 6.00 Build 0)  -->
<svg version="1.1" id="Capa_1" xmlns="http://www.w3.org/2000/svg" xmlns:xlink="http://www.w3.org/1999/xlink" x="0px" y="0px"
	 viewBox="0 0 300 242" style="enable-background:new 0 0 300 242;" xml:space="preserve">
<style type="text/css">
	.st0{fill:#4E5ED7;stroke:#4E5ED7;stroke-width:7.4203;stroke-linecap:round;stroke-linejoin:round;stroke-miterlimit:10;}
</style>
<path class="st0" d="M152.12,235.23c-39.6-0.82-78.39-6.18-116.18-18.17c-7.98-2.53-7.97-2.56-4.77-10.38
	c2.12-5.18,4.41-10.3,6.35-15.54c8.25-22.36,24.84-35.33,47.09-41.82c11.06-3.23,22.22-6.07,33.34-9.1
	c3.28-0.89,4.89-6.15,2.46-8.53c-6.72-6.59-11.55-14.31-14.76-23.13c-0.28-0.76-1.18-1.59-1.95-1.82
	c-13.98-4.17-16.05-21.74-8.22-31.49c1.54-1.92,1.49-3.17,0.6-5.19c-3.52-7.99-6.26-16.19-5.64-25.13
	c0.49-7.15,5.05-13.75,10.97-13.68c4.7,0.06,7.11-2.51,10.12-4.89c17.42-13.77,37.46-18.86,59.28-17.2
	c7.4,0.57,14.73,2.24,22.04,3.7c4.4,0.88,4.87,2.5,2.34,6.1c-3.93,5.6-4.86,11.78-0.59,17.16c8.32,10.47,8.93,22.01,6.54,34.35
	c-0.21,1.09,0.34,2.72,1.12,3.54c5.36,5.56,7.02,12.22,5.31,19.46c-1.63,6.89-6.12,11.49-13.18,13.38
	c-0.91,0.24-1.96,1.31-2.27,2.22c-2.71,8.06-7,15.11-12.87,21.24c-3.25,3.39-1.68,9.19,2.73,10.39c11.22,3.04,22.52,5.85,33.65,9.2
	c21.6,6.5,37.69,19.31,45.78,41.03c2.41,6.47,5.2,12.81,7.78,19.22c1.51,3.75,1.11,4.62-2.54,5.87
	c-23.87,8.2-48.33,13.82-73.44,16.26C179.53,233.59,165.81,234.26,152.12,235.23z M34.89,211.32
	c76.82,23.02,152.68,24.79,228.97,0.09c-2.73-6.68-5.38-12.6-7.6-18.67c-7.26-19.91-21.94-31.6-41.64-37.52
	c-11.87-3.57-23.91-6.56-35.87-9.82c-5.31-1.44-5.3-1.45-6.07-7.05c-0.08-0.59-0.39-1.15-0.68-1.98
	c-6.96,4.58-14.35,7.14-22.45,7.35c-8.21,0.21-15.64-2.51-22.81-6.87c-0.15,1.01-0.31,1.55-0.29,2.08c0.12,3.69-1.74,5.28-5.28,6.17
	c-11.71,2.93-23.35,6.11-34.97,9.37c-16.22,4.55-30.09,12.81-38.45,27.86C42.78,191.29,39.35,201.1,34.89,211.32z M183.33,53.76
	c-22.58,2.18-45.79,2.01-69.22-0.05c0.5,4.98,1.32,9.32,1.27,13.64c-0.09,7.57-0.62,15.14-1.19,22.7c-0.1,1.37-1.31,2.66-2.01,3.98
	c-1.26-0.82-2.95-1.37-3.72-2.52c-2.91-4.37-5.53-8.94-8.28-13.46c-6.14,5.29-4.72,19.06,2.18,22.57c1.02,0.52,2.35,0.88,3.45,0.71
	c2.66-0.42,3.7,0.71,4.4,3.14c3.23,11.33,9.21,20.9,19.05,27.61c16.17,11.04,37.19,7,49.71-9.35c4.13-5.39,7-11.39,8.68-17.96
	c0.62-2.42,1.68-3.42,4.56-3.51c2.43-0.08,5.48-1.39,7.07-3.2c4.27-4.86,4.6-10.73,2.18-16.66c-0.49-1.21-1.57-2.19-2.69-3.71
	c-2.97,4.52-5.59,8.55-8.25,12.55c-1.01,1.52-1.98,3.88-4.12,2.78c-1.2-0.62-2.09-2.9-2.15-4.46
	C183.8,77.21,183.61,65.86,183.33,53.76z M189.72,17.02c-7.8-0.97-15.03-2.39-22.3-2.68c-22.02-0.87-41.62,5.28-57.76,20.94
	c-0.94,0.91-2.89,1.38-4.24,1.18c-4.23-0.63-6.86,0.46-8.4,4.47c-0.77,2.01-1.55,4.34-1.26,6.37c0.75,5.29,1.47,10.72,3.35,15.66
	c2.45,6.43,6,12.44,9.08,18.63c0.36-0.15,0.72-0.3,1.08-0.45c0.71-8.48,1.31-16.96-0.61-25.4c-0.24-1.07-0.37-2.17-0.48-3.26
	c-0.34-3.48,0.41-4.28,4.01-4.17c2.31,0.07,4.61,0.3,6.91,0.36c13.61,0.35,27.22,0.91,40.83,0.91c8.78,0,17.56-0.86,26.34-1.25
	c3.75-0.16,4.68,1.05,3.89,4.77c-1.96,9.2-1.71,18.44-0.57,28.43c2.67-4.05,5.2-7.24,6.07-11.66c2.09-10.73,2.36-20.92-5.25-29.96
	c-1.56-1.85-2.36-4.46-3.09-6.84C185.68,27.77,186.89,22.68,189.72,17.02z"/>
</svg>
