<?xml version="1.0" encoding="UTF-8"?>
<!DOCTYPE svg PUBLIC "-//W3C//DTD SVG 1.1//EN" "http://www.w3.org/Graphics/SVG/1.1/DTD/svg11.dtd">
<!-- Creator: CorelDRAW 2019 (64-Bit Versión de evaluación) -->
<svg xmlns="http://www.w3.org/2000/svg" xml:space="preserve" width="210mm" height="170mm" version="1.1" style="shape-rendering:geometricPrecision; text-rendering:geometricPrecision; image-rendering:optimizeQuality; fill-rule:evenodd; clip-rule:evenodd"
viewBox="0 0 21000 17000"
 xmlns:xlink="http://www.w3.org/1999/xlink">
 <defs>
  <style type="text/css">
   <![CDATA[
    .fil0 {fill:#4E5ED7}
   ]]>
  </style>
 </defs>
 <g id="Capa_x0020_1">
  <metadata id="CorelCorpID_0Corel-Layer"/>
  <g id="_2024783106976">
   <path class="fil0" d="M19384.23 2743.04l-17770.97 0c-795.57,0 -1403.26,607.69 -1403.26,1402.57l0 11224.03c0,794.88 607.69,1403.26 1403.26,1403.26l17771.66 0c794.89,0 1403.26,-607.69 1403.26,-1403.26l0 -11224.03c-0.68,-794.88 -608.37,-1402.57 -1403.95,-1402.57zm467.99 12626.6c0,280.79 -187.2,467.98 -467.99,467.98l-17770.97 0c-280.79,0 -467.98,-187.19 -467.98,-467.98l0 -11224.03c0,-280.79 187.19,-467.98 467.98,-467.98l17771.66 0c280.79,0 467.99,187.19 467.99,467.98l0 11224.03 -0.69 0z"/>
   <path class="fil0" d="M10498.75 4613.6c-280.79,0 -467.99,187.19 -467.99,467.98l0 9353.47c0,280.79 187.2,467.98 467.99,467.98 280.79,0 467.98,-187.19 467.98,-467.98l0 -9354.16c0,-280.1 -187.19,-467.29 -467.98,-467.29z"/>
   <path class="fil0" d="M18448.96 4613.6l-2805.84 0c-280.79,0 -467.98,187.19 -467.98,467.98l0 1730.16c-187.19,0 -421.19,-46.8 -607.69,-93.6l-654.49 -233.99c-233.99,-93.59 -514.78,46.8 -607.69,280.79 -92.91,233.99 46.8,514.1 280.79,607.69l654.49 233.99c280.79,93.6 607.69,140.4 888.48,140.4 280.79,0 607.69,-46.8 888.48,-140.4l654.49 -233.99c233.99,-93.59 374.38,-327.59 280.79,-607.69 -93.6,-233.99 -327.59,-374.38 -607.69,-280.79l-234 140.4 0 -1075.68 1870.56 0 0 2805.84c-280.79,0 -467.98,187.19 -467.98,467.98 0,280.79 187.19,467.98 467.98,467.98l467.98 0c280.79,0 467.99,-187.19 467.99,-467.98l0 -3741.8c-0.69,-280.1 -187.88,-467.29 -468.67,-467.29z"/>
   <path class="fil0" d="M8160.21 9289.99l-5611.67 0c-280.79,0 -467.98,187.19 -467.98,467.98 0,280.79 187.19,467.98 467.98,467.98l5612.36 0c280.79,0 467.98,-187.19 467.98,-467.98 0,-280.79 -187.88,-467.98 -468.67,-467.98z"/>
   <path class="fil0" d="M7224.93 13031.79l-4676.39 0c-280.79,0 -467.98,187.19 -467.98,467.98 0,280.79 187.19,467.98 467.98,467.98l4676.39 0c280.79,0 467.98,-187.19 467.98,-467.98 0,-280.79 -187.19,-467.98 -467.98,-467.98z"/>
   <path class="fil0" d="M2548.54 12096.51l3741.11 0c280.79,0 467.99,-187.19 467.99,-467.98 0,-280.79 -187.2,-467.99 -467.99,-467.99l-3741.11 0c-280.79,0 -467.98,187.2 -467.98,467.99 0,280.79 187.19,467.98 467.98,467.98z"/>
   <path class="fil0" d="M16438 7934.21l-654.48 233.99c-374.39,140.4 -794.89,140.4 -1169.27,0l-654.49 -233.99c-233.99,-93.59 -514.78,46.8 -607.69,280.79 -92.91,233.99 46.8,514.78 280.79,607.69l654.49 233.99c280.79,93.6 607.69,140.4 888.48,140.4 280.79,0 607.69,-46.8 888.48,-140.4l654.48 -233.99c234,-93.59 374.39,-327.59 280.79,-607.69 -46.79,-233.99 -327.58,-374.38 -561.58,-280.79z"/>
  </g>
 </g>
</svg>
