<?xml version="1.0" encoding="utf-8"?>
<!-- Generator: Adobe Illustrator 23.0.0, SVG Export Plug-In . SVG Version: 6.00 Build 0)  -->
<svg version="1.1" id="Capa_1" xmlns="http://www.w3.org/2000/svg" xmlns:xlink="http://www.w3.org/1999/xlink" x="0px" y="0px"
	 viewBox="0 0 300 320" style="enable-background:new 0 0 300 320;" xml:space="preserve">
<style type="text/css">
	.st0{fill:#4E5ED7;}
</style>
<g>
	<path class="st0" d="M292.35,159.86l-42.14-14.05c-3.72-1.24-7.65,0.76-8.88,4.44c-1.23,3.68,0.76,7.66,4.44,8.88l37.34,12.45
		v128.37H16.24V171.58l37.34-12.45c3.68-1.22,5.66-5.2,4.44-8.88c-1.22-3.68-5.18-5.68-8.88-4.44L7,159.86
		c-2.87,0.95-4.8,3.63-4.8,6.66v140.45c0,3.88,3.14,7.02,7.02,7.02h280.91c3.88,0,7.02-3.14,7.02-7.02V166.52
		C297.15,163.5,295.22,160.82,292.35,159.86z"/>
	<path class="st0" d="M114.56,166.52c3.88,0,7.02-3.14,7.02-7.02v-14.05c0-3.88-3.14-7.02-7.02-7.02c-3.88,0-7.02,3.14-7.02,7.02
		v14.05C107.54,163.38,110.68,166.52,114.56,166.52z"/>
	<path class="st0" d="M149.67,166.52c3.88,0,7.02-3.14,7.02-7.02v-14.05c0-3.88-3.14-7.02-7.02-7.02c-3.88,0-7.02,3.14-7.02,7.02
		v14.05C142.65,163.38,145.79,166.52,149.67,166.52z"/>
	<path class="st0" d="M191.81,145.45c0-3.88-3.14-7.02-7.02-7.02c-3.88,0-7.02,3.14-7.02,7.02v14.05c0,3.88,3.14,7.02,7.02,7.02
		c3.88,0,7.02-3.14,7.02-7.02V145.45z"/>
	<path class="st0" d="M107.54,208.66c0,3.88,3.14,7.02,7.02,7.02c3.88,0,7.02-3.14,7.02-7.02v-14.05c0-3.88-3.14-7.02-7.02-7.02
		c-3.88,0-7.02,3.14-7.02,7.02V208.66z"/>
	<path class="st0" d="M142.65,208.66c0,3.88,3.14,7.02,7.02,7.02c3.88,0,7.02-3.14,7.02-7.02v-14.05c0-3.88-3.14-7.02-7.02-7.02
		c-3.88,0-7.02,3.14-7.02,7.02V208.66z"/>
	<path class="st0" d="M184.79,215.68c3.88,0,7.02-3.14,7.02-7.02v-14.05c0-3.88-3.14-7.02-7.02-7.02c-3.88,0-7.02,3.14-7.02,7.02
		v14.05C177.76,212.54,180.9,215.68,184.79,215.68z"/>
	<path class="st0" d="M255.01,215.68c3.88,0,7.02-3.14,7.02-7.02v-14.05c0-3.88-3.14-7.02-7.02-7.02c-3.88,0-7.02,3.14-7.02,7.02
		v14.05C247.99,212.54,251.13,215.68,255.01,215.68z"/>
	<path class="st0" d="M51.35,194.61c0-3.88-3.14-7.02-7.02-7.02s-7.02,3.14-7.02,7.02v14.05c0,3.88,3.14,7.02,7.02,7.02
		s7.02-3.14,7.02-7.02V194.61z"/>
	<path class="st0" d="M247.99,257.82c0,3.88,3.14,7.02,7.02,7.02c3.88,0,7.02-3.14,7.02-7.02v-14.05c0-3.88-3.14-7.02-7.02-7.02
		c-3.88,0-7.02,3.14-7.02,7.02V257.82z"/>
	<path class="st0" d="M44.33,236.75c-3.88,0-7.02,3.14-7.02,7.02v14.05c0,3.88,3.14,7.02,7.02,7.02s7.02-3.14,7.02-7.02v-14.05
		C51.35,239.89,48.21,236.75,44.33,236.75z"/>
	<path class="st0" d="M170.74,292.93c3.88,0,7.02-3.14,7.02-7.02v-49.16c0-3.88-3.14-7.02-7.02-7.02H128.6
		c-3.88,0-7.02,3.14-7.02,7.02v49.16c0,3.88,3.14,7.02,7.02,7.02c3.88,0,7.02-3.14,7.02-7.02v-42.14h28.09v42.14
		C163.72,289.79,166.86,292.93,170.74,292.93z"/>
	<path class="st0" d="M65.4,117.36h7.02v161.52c0,3.88,3.14,7.02,7.02,7.02c3.88,0,7.02-3.14,7.02-7.02V110.34
		c0-3.88-3.14-7.02-7.02-7.02H72.9c4.29-31.56,37.08-56.18,76.78-56.18s72.49,24.62,76.78,56.18h-6.55c-3.88,0-7.02,3.14-7.02,7.02
		v168.55c0,3.88,3.14,7.02,7.02,7.02s7.02-3.14,7.02-7.02V117.36h7.02c3.88,0,7.02-3.14,7.02-7.02c0-40.59-37.21-73.9-84.27-76.95
		V12.02c0-3.88-3.14-7.02-7.02-7.02c-3.88,0-7.02,3.14-7.02,7.02v21.37c-47.06,3.05-84.27,36.36-84.27,76.95
		C58.38,114.22,61.52,117.36,65.4,117.36z"/>
	<path class="st0" d="M149.67,68.2c-15.49,0-28.09,12.6-28.09,28.09s12.6,28.09,28.09,28.09s28.09-12.6,28.09-28.09
		S165.16,68.2,149.67,68.2z M149.67,110.34c-7.74,0-14.05-6.3-14.05-14.05s6.3-14.05,14.05-14.05s14.05,6.3,14.05,14.05
		S157.41,110.34,149.67,110.34z"/>
</g>
</svg>
