<?xml version="1.0" encoding="utf-8"?>
<!-- Generator: Adobe Illustrator 23.0.0, SVG Export Plug-In . SVG Version: 6.00 Build 0)  -->
<svg version="1.1" id="Capa_1" xmlns="http://www.w3.org/2000/svg" xmlns:xlink="http://www.w3.org/1999/xlink" x="0px" y="0px"
	 viewBox="0 0 215 214" style="enable-background:new 0 0 215 214;" xml:space="preserve">
<style type="text/css">
	.st0{fill:#4E5ED7;}
</style>
<g>
	<path class="st0" d="M184.72,2.5H20.34v209.45h164.38c5.12,0,9.28-4.15,9.28-9.28V11.78C194,6.65,189.85,2.5,184.72,2.5z
		 M183.23,189.23c-0.01,8.88-3.25,12.66-11.32,12.67c-45.41,0.08-90.82,0.03-136.23,0.01c-0.79,0-1.59-0.17-3.1-0.35
		c0-62.77,0-125.09,0-188.13c2.24,0,4.22,0,6.2,0c43.77,0,87.55,0,131.32,0c10.04,0,13.13,3.05,13.14,13.17
		C183.26,80.82,183.27,135.03,183.23,189.23z"/>
	<path class="st0" d="M60.93,182.51c0-2.88,0-5.29,0-8.21c31.05,0,61.96,0,93.2,0c0,2.75,0,5.3,0,8.21
		C123.15,182.51,92.36,182.51,60.93,182.51z"/>
	<path class="st0" d="M158.89,112.56c0.43-0.93,0.84-1.87,1.22-2.83c1.27-3.18,2.24-6.51,2.9-9.95c0.43-2.26,0.73-4.57,0.88-6.93
		c0.01-0.2,0.03-0.39,0.04-0.58c0.05-0.9,0.07-1.8,0.08-2.7c0.1-31.62-24.49-56.83-55.77-57.17c-13.55-0.15-26.14,4.58-36.03,12.49
		c-1.05,0.84-2.05,1.72-3.03,2.63c-0.68,0.62-1.33,1.26-1.98,1.91c-0.65,0.66-1.29,1.34-1.91,2.03c-1.49,1.66-2.89,3.4-4.17,5.23
		c-0.52,0.74-1.02,1.49-1.5,2.25c-2.1,3.33-3.85,6.89-5.21,10.62c-0.42,1.15-0.8,2.32-1.14,3.5c-0.41,1.43-0.77,2.88-1.06,4.35
		c-0.26,1.3-0.48,2.62-0.64,3.95c-0.15,1.18-0.27,2.37-0.34,3.58c-0.05,0.91-0.08,1.83-0.09,2.75c-0.1,15.95,6.06,30.26,16.18,40.6
		c0.63,0.65,1.28,1.28,1.94,1.89c2.65,2.46,5.54,4.66,8.64,6.57c1.55,0.95,3.15,1.83,4.79,2.64c0.82,0.4,1.66,0.78,2.5,1.14
		c1.13,0.48,2.29,0.92,3.47,1.33c1.2,0.42,2.41,0.8,3.65,1.14c0.43,0.12,0.86,0.23,1.29,0.34c4.38,1.09,8.96,1.69,13.7,1.71
		C130.21,145.13,149.95,131.81,158.89,112.56z M121.92,133.39c2.31-7.5,4.32-14.44,6.69-21.25c0.37-1.06,2.35-2.14,3.63-2.2
		c5.45-0.24,10.92-0.1,17.31-0.1C143.14,121.74,134.26,129.19,121.92,133.39z M153.91,80.75c0.76,1.57,0.64,3.58,0.84,5.41
		c1.36,12.48-0.33,14.4-12.71,14.4c-3.62,0-7.24,0-10.63,0c-0.34-1.02-0.57-1.39-0.57-1.75c-0.02-6.93-0.02-13.86-0.02-21.82
		c6.83,0,13.13-0.21,19.39,0.17C151.55,77.23,153.18,79.25,153.91,80.75z M149.24,67.13c-6.94,0-13.29,0-19.81,0
		c-2.58-7.7-5.01-14.97-7.72-23.07C134.03,48.13,142.89,55.52,149.24,67.13z M105.04,43.82c1.46-3.15,3.88-2.99,5.3,0.12
		c3.41,7.47,6.56,15.06,10.11,23.29c-8.98,0-16.42,0-25.58,0C98.48,58.85,101.58,51.25,105.04,43.82z M61.63,79.7
		c0.2-1.07,2.11-2.54,3.28-2.58c6.44-0.25,12.9-0.12,19.46-0.12c0,8.13,0,15.56,0,23.27c-7.22,0-14.28,0-21.96,0
		C59.83,93.62,60.34,86.64,61.63,79.7z M65.78,109.87c6.78,0,12.43-0.2,18.05,0.16c1.15,0.07,2.66,2.08,3.17,3.49
		c2.25,6.31,4.19,12.73,6.5,19.9C81.17,129.33,72.34,121.95,65.78,109.87z M85.82,67.22c-6.22,0-12.61,0-19.73,0
		c6.08-11.73,15.13-18.84,27.49-23.27C90.84,52.18,88.37,59.59,85.82,67.22z M94.19,77.45c8.86,0,17.5,0,27.04,0
		c0,7.78,0,15.2,0,22.86c-9.26,0-17.78,0-27.04,0C94.19,92.76,94.19,85.35,94.19,77.45z M104.33,132.14
		C104.33,132.13,104.33,132.13,104.33,132.14C104.33,132.13,104.33,132.13,104.33,132.14c-0.32-0.51-0.6-1.01-0.89-1.51
		c-0.23-0.38-0.47-0.77-0.68-1.15c-0.25-0.45-0.46-0.9-0.69-1.35c-0.23-0.44-0.47-0.88-0.68-1.32c-0.16-0.34-0.3-0.68-0.45-1.02
		c-0.25-0.55-0.51-1.11-0.74-1.66c-0.19-0.47-0.36-0.94-0.54-1.41c-0.17-0.43-0.34-0.87-0.5-1.3c-0.2-0.57-0.39-1.15-0.57-1.72
		c-0.11-0.34-0.23-0.68-0.34-1.03c-0.14-0.46-0.27-0.93-0.41-1.4c-0.14-0.46-0.28-0.93-0.41-1.39c-0.52-1.88-0.98-3.79-1.44-5.74
		h24.39c-0.91,2.19-1.8,4.32-2.68,6.45c-1.22,2.93-2.43,5.83-3.65,8.78c-0.3,0.72-0.61,1.46-0.91,2.19
		c-0.54,1.29-1.07,2.58-1.63,3.91c0,0,0,0,0,0c0,0,0,0.01,0,0.01C110.23,134.47,106.08,134.89,104.33,132.14z"/>
</g>
</svg>
