<?xml version="1.0" encoding="UTF-8"?>
<!DOCTYPE svg PUBLIC "-//W3C//DTD SVG 1.1//EN" "http://www.w3.org/Graphics/SVG/1.1/DTD/svg11.dtd">
<!-- Creator: CorelDRAW 2019 (64-Bit Versión de evaluación) -->
<svg xmlns="http://www.w3.org/2000/svg" xml:space="preserve" width="210mm" height="170mm" version="1.1" style="shape-rendering:geometricPrecision; text-rendering:geometricPrecision; image-rendering:optimizeQuality; fill-rule:evenodd; clip-rule:evenodd"
viewBox="0 0 21000 17000"
 xmlns:xlink="http://www.w3.org/1999/xlink">
 <defs>
  <style type="text/css">
   <![CDATA[
    .fil0 {fill:#4E5ED7}
   ]]>
  </style>
 </defs>
 <g id="Capa_x0020_1">
  <metadata id="CorelCorpID_0Corel-Layer"/>
  <g id="_2024778712416">
   <path class="fil0" d="M20325.62 13708.72l-15548.99 0c-260.54,0 -471.31,210.77 -471.31,471.3 0,260.54 210.77,471.31 471.31,471.31l15077.68 0 0 471.31c0,259.84 -211.46,471.31 -471.31,471.31l-17904.83 0c-259.84,0 -471.31,-211.47 -471.31,-471.31l0 -471.31 1884.54 0c260.53,0 471.3,-210.77 471.3,-471.31l0 -10365.99c0,-259.84 211.47,-471.31 471.31,-471.31l13193.15 0c259.84,0 471.31,211.47 471.31,471.31l0 8481.46c0,260.53 210.77,471.3 471.3,471.3 260.54,0 471.31,-210.77 471.31,-471.3l0 -8481.46c0,-779.52 -634.4,-1413.23 -1413.23,-1413.23l-13193.84 0c-779.52,0 -1413.23,634.4 -1413.23,1413.23l0 9894.69 -1884.54 0c-151.2,0 -285.64,71.02 -371.85,181.53l0 1753.15c207.82,522.39 718.62,892.47 1313.78,892.47l17904.83 0c779.53,0 1413.24,-634.4 1413.24,-1413.23l0 -942.62c0.69,-259.84 -210.09,-471.3 -470.62,-471.3z"/>
   <path class="fil0" d="M4776.63 4285.34c-260.54,0 -471.31,210.77 -471.31,471.3l0 7538.85c0,260.53 210.77,471.3 471.31,471.3l11308.61 0c260.53,0 471.3,-210.77 471.3,-471.3l0 -7538.85c0,-260.53 -210.77,-471.3 -471.3,-471.3l-11308.61 0zm10837.3 7538.84l-10366 0 0 -6596.23 10366 0 0 6596.23z"/>
  </g>
 </g>
</svg>
