<?xml version="1.0" encoding="utf-8"?>
<!-- Generator: Adobe Illustrator 23.0.0, SVG Export Plug-In . SVG Version: 6.00 Build 0)  -->
<svg version="1.1" id="Capa_1" xmlns="http://www.w3.org/2000/svg" xmlns:xlink="http://www.w3.org/1999/xlink" x="0px" y="0px"
	 viewBox="0 0 300 320" style="enable-background:new 0 0 300 320;" xml:space="preserve">
<style type="text/css">
	.st0{fill:#4E5ED7;}
</style>
<g>
	<circle class="st0" cx="128.64" cy="128.42" r="7.14"/>
	<circle class="st0" cx="157.2" cy="128.42" r="7.14"/>
	<circle class="st0" cx="185.76" cy="128.42" r="7.14"/>
	<circle class="st0" cx="128.64" cy="156.98" r="7.14"/>
	<circle class="st0" cx="157.2" cy="156.98" r="7.14"/>
	<circle class="st0" cx="185.76" cy="156.98" r="7.14"/>
	<circle class="st0" cx="157.2" cy="185.54" r="7.14"/>
	<circle class="st0" cx="185.76" cy="185.54" r="7.14"/>
	<circle class="st0" cx="157.2" cy="214.1" r="7.14"/>
	<circle class="st0" cx="185.76" cy="214.1" r="7.14"/>
	<circle class="st0" cx="242.88" cy="214.1" r="7.14"/>
	<circle class="st0" cx="264.3" cy="214.1" r="7.14"/>
	<circle class="st0" cx="242.88" cy="242.66" r="7.14"/>
	<circle class="st0" cx="264.3" cy="242.66" r="7.14"/>
	<circle class="st0" cx="242.88" cy="271.22" r="7.14"/>
	<circle class="st0" cx="264.3" cy="271.22" r="7.14"/>
	<circle class="st0" cx="157.2" cy="242.66" r="7.14"/>
	<circle class="st0" cx="185.76" cy="242.66" r="7.14"/>
	<circle class="st0" cx="157.2" cy="271.22" r="7.14"/>
	<circle class="st0" cx="78.65" cy="214.1" r="7.14"/>
	<circle class="st0" cx="78.65" cy="242.66" r="7.14"/>
	<circle class="st0" cx="78.65" cy="271.22" r="7.14"/>
	<circle class="st0" cx="100.07" cy="214.1" r="7.14"/>
	<circle class="st0" cx="100.07" cy="242.66" r="7.14"/>
	<circle class="st0" cx="100.07" cy="271.22" r="7.14"/>
	<circle class="st0" cx="185.76" cy="271.22" r="7.14"/>
	<path class="st0" d="M100.07,156.98c4.28,0,7.14-2.86,7.14-7.14V92.72h21.42c3.57,0,6.43-2.14,7.14-5.71l6.43-34.27h30.7
		l2.14,12.85c0.71,3.57,4.28,6.43,8.57,5.71c3.57-0.71,6.43-4.28,5.71-8.57l-3.57-18.56c-0.71-3.57-3.57-5.71-7.14-5.71h-14.28V7.03
		c0-4.28-2.86-7.14-7.14-7.14c-4.28,0-7.14,2.86-7.14,7.14v30.7h-14.28c-3.57,0-6.43,2.14-7.14,5.71l-5.71,34.99h-22.85
		c-4.28,0-7.14,2.86-7.14,7.14v64.26C92.93,154.12,95.79,156.98,100.07,156.98z"/>
	<path class="st0" d="M150.06,78.44c-4.28,0-7.14,2.86-7.14,7.14c0,4.28,2.86,7.14,7.14,7.14h35.7h21.42v185.65
		c0,4.28,2.86,7.14,7.14,7.14c4.28,0,7.14-2.86,7.14-7.14V85.58c0-4.28-2.86-7.14-7.14-7.14h-28.56H150.06z"/>
	<path class="st0" d="M292.86,178.4h-14.28v-21.42c0-2.14-1.43-4.28-2.86-5.71l-18.56-12.14v-17.85c0-2.86-1.43-5-4.28-6.43
		l-14.28-7.14c-3.57-1.43-7.85,0-9.28,2.86c-1.43,2.86,0,7.85,2.86,9.28l10,5v17.85c0,2.14,1.43,4.28,2.86,5.71l18.56,12.14v17.85
		h-12.85l-12.85-6.43c-3.57-1.43-7.85,0-9.28,2.86c-1.43,3.57,0,7.85,2.86,9.28l14.28,7.14c2.14,1.43,2.86,1.43,4.28,1.43h35.7
		v107.1H14.39V92.72h28.56v28.56c0,4.28,2.86,7.14,7.14,7.14h14.28v21.42c0,4.28,2.86,7.14,7.14,7.14s7.14-2.86,7.14-7.14v-28.56
		c0-4.28-2.86-7.14-7.14-7.14H57.23V85.58c0-4.28-2.86-7.14-7.14-7.14H7.25c-4.28,0-7.14,2.86-7.14,7.14v221.35
		c0,4.28,2.86,7.14,7.14,7.14h285.61c4.28,0,7.14-2.86,7.14-7.14V185.54C300,181.26,297.14,178.4,292.86,178.4z"/>
	<path class="st0" d="M128.64,285.5c4.28,0,7.14-2.86,7.14-7.14V178.4c0-4.28-2.86-7.14-7.14-7.14H50.09
		c-4.28,0-7.14,2.86-7.14,7.14v99.96c0,4.28,2.86,7.14,7.14,7.14s7.14-2.86,7.14-7.14v-92.82h64.26v92.82
		C121.49,282.65,124.35,285.5,128.64,285.5z"/>
</g>
</svg>
