<?xml version="1.0" encoding="utf-8"?>
<!-- Generator: Adobe Illustrator 23.0.0, SVG Export Plug-In . SVG Version: 6.00 Build 0)  -->
<svg version="1.1" id="Capa_1" xmlns="http://www.w3.org/2000/svg" xmlns:xlink="http://www.w3.org/1999/xlink" x="0px" y="0px"
	 viewBox="0 0 100 100" style="enable-background:new 0 0 100 100;" xml:space="preserve">
<style type="text/css">
	.st0{fill:#4E5ED7;}
</style>
<g id="XMLID_1_">
	<path id="XMLID_13_" class="st0" d="M77.78,1.9c-0.58-0.46-1.33-0.64-2.05-0.48l-58.4,12.96l0,0l-0.03,0.01
		c-0.14,0.03-0.28,0.08-0.41,0.13c-0.03,0.01-0.05,0.03-0.08,0.04c-0.11,0.05-0.22,0.11-0.32,0.17c-0.04,0.03-0.08,0.06-0.12,0.09
		c-0.08,0.06-0.16,0.12-0.23,0.19c-0.04,0.04-0.08,0.08-0.12,0.13c-0.06,0.07-0.12,0.13-0.17,0.21c-0.04,0.05-0.07,0.1-0.1,0.15
		c-0.05,0.07-0.09,0.15-0.12,0.23c-0.03,0.06-0.05,0.11-0.07,0.17c-0.03,0.08-0.06,0.17-0.08,0.26c-0.01,0.06-0.03,0.11-0.04,0.17
		c-0.02,0.1-0.03,0.21-0.03,0.31c0,0.04-0.01,0.08-0.01,0.12v79.96c0,1.35,1.09,2.44,2.44,2.44h64.93c1.35,0,2.44-1.09,2.44-2.44
		V16.77c0-1.35-1.09-2.44-2.44-2.44h-4.06V3.8C78.69,3.07,78.35,2.37,77.78,1.9z M73.81,14.34H40.04l33.78-7.5V14.34z M80.31,94.3
		H20.25V19.21h60.06V94.3z"/>
	<path id="XMLID_10_" class="st0" d="M32.3,82.71h2.61v-5.24h1.07c2.16,0,3.91-1.76,3.91-3.92c0-2.18-1.74-3.94-3.92-3.94H32.3
		V82.71z M34.91,72.24h1.05c0.73,0,1.31,0.59,1.31,1.31c0,0.71-0.59,1.3-1.31,1.3h-1.05V72.24z"/>
	<path id="XMLID_7_" class="st0" d="M44.1,69.62l-4.73,13.1h2.78l1.33-3.66h4.03l1.33,3.66h2.78l-4.73-13.1H44.1z M44.43,76.43
		l1.05-2.95l1.07,2.95H44.43z"/>
	<path id="XMLID_6_" class="st0" d="M60.93,78.79c0-2.21-1.64-3.7-3.78-3.8c-0.66-0.03-1.33-0.12-1.75-0.59
		c-0.19-0.24-0.31-0.54-0.31-0.85c0-0.72,0.59-1.31,1.31-1.31c0.8,0,1.54,0.24,2.14,0.64L60.43,71c-1.11-0.87-2.51-1.38-4.03-1.38
		c-2.16,0-3.92,1.76-3.92,3.94c0,1.85,1.28,3.39,2.99,3.82c0.66,0.16,1.69,0.05,2.32,0.42c0.36,0.21,0.52,0.61,0.52,1
		c0,0.73-0.59,1.31-1.29,1.31c-1.04,0-1.97-0.4-2.68-1.05l-1.85,1.85c1.17,1.12,2.77,1.82,4.53,1.82
		C59.17,82.71,60.93,80.95,60.93,78.79z"/>
	<path id="XMLID_5_" class="st0" d="M65.72,72.24c0.8,0,1.54,0.24,2.14,0.64L69.74,71c-1.11-0.87-2.51-1.38-4.03-1.38
		c-2.16,0-3.92,1.76-3.92,3.94c0,1.85,1.28,3.39,2.99,3.82c0.66,0.16,1.69,0.05,2.32,0.42c0.36,0.21,0.52,0.61,0.52,1
		c0,0.73-0.59,1.31-1.3,1.31c-1.04,0-1.97-0.4-2.68-1.05L61.8,80.9c1.17,1.12,2.77,1.82,4.53,1.82c2.16,0,3.92-1.76,3.92-3.92
		c0-2.21-1.64-3.7-3.78-3.8c-0.66-0.03-1.33-0.12-1.75-0.59c-0.19-0.24-0.31-0.54-0.31-0.85C64.41,72.83,64.99,72.24,65.72,72.24z"
		/>
	<path id="XMLID_2_" class="st0" d="M50.28,60.72c9.34,0,16.93-7.6,16.93-16.93c0-9.34-7.6-16.93-16.93-16.93
		s-16.93,7.59-16.93,16.93C33.35,53.12,40.94,60.72,50.28,60.72z M50.28,31.73c6.65,0,12.06,5.41,12.06,12.06
		s-5.41,12.06-12.06,12.06c-6.65,0-12.06-5.41-12.06-12.06S43.63,31.73,50.28,31.73z"/>
</g>
</svg>
