<?xml version="1.0" encoding="UTF-8"?>
<!DOCTYPE svg PUBLIC "-//W3C//DTD SVG 1.1//EN" "http://www.w3.org/Graphics/SVG/1.1/DTD/svg11.dtd">
<!-- Creator: CorelDRAW 2019 (64-Bit Versión de evaluación) -->
<svg xmlns="http://www.w3.org/2000/svg" xml:space="preserve" width="210mm" height="297mm" version="1.1" style="shape-rendering:geometricPrecision; text-rendering:geometricPrecision; image-rendering:optimizeQuality; fill-rule:evenodd; clip-rule:evenodd"
viewBox="0 0 21000 29700"
 xmlns:xlink="http://www.w3.org/1999/xlink">
 <defs>
  <style type="text/css">
   <![CDATA[
    .fil0 {fill:#4E5ED7}
   ]]>
  </style>
 </defs>
 <g id="Capa_x0020_1">
  <metadata id="CorelCorpID_0Corel-Layer"/>
  <path class="fil0" d="M20189.57 7649.89c0,0 0,0 0,0l-5453.09 0 0 -624.83c0,-965.66 -795.24,-1817.7 -1817.7,-1817.7l-4771.45 0c-965.65,0 -1817.7,795.24 -1817.7,1817.7l0 624.83 -5453.09 0c-340.81,0 -624.83,284.01 -624.83,624.83l0 13178.3c0,965.65 795.24,1817.7 1817.7,1817.7l16813.69 0c965.65,0 1817.7,-795.24 1817.7,-1817.7l0 -13178.3c0,0 0,0 0,0 56.8,-397.62 -170.41,-624.83 -511.23,-624.83zm-12610.27 -624.83c0,-340.82 284.01,-624.84 624.83,-624.84l4771.46 0c340.81,0 624.83,284.02 624.83,624.84l0 624.83 -6021.12 0 0 -624.83zm11758.22 1817.69l-1817.69 5566.7c-56.8,227.21 -284.02,397.62 -568.03,397.62l-3351.38 0 0 -624.83c0,-340.82 -284.02,-624.84 -624.83,-624.84l-4771.46 0c-340.82,0 -624.83,284.02 -624.83,624.84l0 624.83 -3351.38 0c-284.01,0 -511.23,-170.41 -568.03,-397.62l-1874.5 -5566.7 17552.13 0zm-6986.77 5964.32l0 1192.86 -3578.59 0 0 -1192.86 3578.59 0zm7213.99 6589.15c0,340.82 -284.02,624.83 -624.84,624.83l-16756.89 0c-340.82,0 -624.83,-284.01 -624.83,-624.83l0 -9486.1 965.65 2840.15c227.21,738.44 908.85,1249.66 1704.09,1249.66l3351.38 0 0 624.84c0,340.81 284.01,624.83 624.83,624.83l4771.46 0c340.81,0 624.83,-284.02 624.83,-624.83l0 -624.84 3351.38 0c795.24,0 1476.88,-511.22 1704.09,-1249.66l965.65 -2840.15 0 9486.1 -56.8 0z"/>
 </g>
</svg>
