<?xml version="1.0" encoding="utf-8"?>
<!-- Generator: Adobe Illustrator 23.0.0, SVG Export Plug-In . SVG Version: 6.00 Build 0)  -->
<svg version="1.1" id="Capa_1" xmlns="http://www.w3.org/2000/svg" xmlns:xlink="http://www.w3.org/1999/xlink" x="0px" y="0px"
	 viewBox="0 0 100 100" style="enable-background:new 0 0 100 100;" xml:space="preserve">
<style type="text/css">
	.st0{fill:url(#SVGID_1_);}
	.st1{fill:#FFFFFF;}
</style>
<g>
	<linearGradient id="SVGID_1_" gradientUnits="userSpaceOnUse" x1="-75.0036" y1="156.1245" x2="112.2704" y2="-2.2322">
		<stop  offset="0" style="stop-color:#381B91"/>
		<stop  offset="1" style="stop-color:#4E5ED7"/>
	</linearGradient>
	<circle class="st0" cx="49.8" cy="50.6" r="48.2"/>
	<g>
		<path class="st1" d="M50.2,52c-4.6,0-8.3-3.7-8.3-8.3c0-4.6,3.7-8.3,8.3-8.3c4.6,0,8.3,3.7,8.3,8.3S54.8,52,50.2,52z M50.2,37.4
			c-3.5,0-6.3,2.8-6.3,6.3c0,3.5,2.8,6.3,6.3,6.3c3.5,0,6.3-2.8,6.3-6.3C56.5,40.2,53.7,37.4,50.2,37.4z"/>
		<path class="st1" d="M62.5,25.9H38c-1.9,0-3.5,1.6-3.5,3.5v43.3c0,1.9,1.6,3.5,3.5,3.5h24.5c1.9,0,3.5-1.6,3.5-3.5V29.5
			C66,27.5,64.4,25.9,62.5,25.9z M64,72.7c0,0.9-0.7,1.5-1.5,1.5H38c-0.9,0-1.5-0.7-1.5-1.5v-3.9H64V72.7z M45.3,55.9l4.3,4.3
			c0.2,0.2,0.4,0.3,0.7,0.3c0.3,0,0.5-0.1,0.7-0.3l4.3-4.3h1.4c1.1,0,2,0.9,2,2v8.9H41.8v-8.9c0-1.1,0.9-2,2-2H45.3z M48.1,55.9h4.3
			l-2.2,2.2L48.1,55.9z M64,30.9h-2.9c-0.5,0-1,0.4-1,1c0,0.5,0.4,1,1,1H64v34h-3.4v-8.9c0-2.2-1.8-4-4-4H43.8c-2.2,0-4,1.8-4,4v8.9
			h-3.4v-34h15.8c0.5,0,1-0.4,1-1c0-0.5-0.4-1-1-1H36.5v-1.4c0-0.9,0.7-1.5,1.5-1.5h24.5c0.9,0,1.5,0.7,1.5,1.5V30.9z"/>
		<path class="st1" d="M52,72.9h-3.5c-0.5,0-1-0.4-1-1s0.4-1,1-1H52c0.5,0,1,0.4,1,1S52.5,72.9,52,72.9z"/>
		<path class="st1" d="M56.7,32.8c-0.4,0-0.8-0.3-0.9-0.7c-0.1-0.4,0-0.8,0.3-1.1c0.3-0.2,0.8-0.3,1.1-0.1c0.4,0.2,0.5,0.6,0.5,1
			C57.6,32.5,57.2,32.8,56.7,32.8z"/>
	</g>
</g>
</svg>
