<?xml version="1.0" encoding="UTF-8"?>
<!DOCTYPE svg PUBLIC "-//W3C//DTD SVG 1.1//EN" "http://www.w3.org/Graphics/SVG/1.1/DTD/svg11.dtd">
<!-- Creator: CorelDRAW 2019 (64-Bit Versión de evaluación) -->
<svg xmlns="http://www.w3.org/2000/svg" xml:space="preserve" width="210mm" height="297mm" version="1.1" style="shape-rendering:geometricPrecision; text-rendering:geometricPrecision; image-rendering:optimizeQuality; fill-rule:evenodd; clip-rule:evenodd"
viewBox="0 0 21000 29700"
 xmlns:xlink="http://www.w3.org/1999/xlink">
 <defs>
  <style type="text/css">
   <![CDATA[
    .fil0 {fill:#4E5ED7}
   ]]>
  </style>
 </defs>
 <g id="Capa_x0020_1">
  <metadata id="CorelCorpID_0Corel-Layer"/>
  <g id="_2024473703072">
   <path class="fil0" d="M12210.7 22343.58c-2300.15,0 -4656.4,0 -6956.55,0 -785.41,0 -1346.42,-561.01 -1346.42,-1346.43 0,-2973.36 0,-5946.73 0,-8920.09 0,-448.81 224.4,-841.52 617.11,-1065.93 224.4,-112.2 448.81,-168.3 673.21,-168.3 2917.27,0 5834.53,0 8751.79,0 729.32,0 1402.53,0 2131.85,0 1065.92,0 2075.74,0 3141.67,0 729.31,0 1290.32,561.01 1290.32,1290.33 0,2973.36 0,6002.83 0,8976.19 0,729.32 -561.01,1290.33 -1290.32,1290.33 -2356.26,-56.1 -4712.51,-56.1 -7012.66,-56.1zm-7741.96 -6283.34c0,56.1 0,56.1 0,112.21 0,1626.93 0,3253.87 0,4936.9 0,56.1 0,112.2 0,168.31 56.1,336.6 336.6,504.91 729.31,504.91 3029.47,0 6058.93,0 9088.4,0 1626.93,0 3253.87,0 4880.8,0 112.21,0 224.41,0 336.61,-56.1 280.51,-112.21 392.71,-392.71 392.71,-673.22 0,-1514.73 0,-3085.57 0,-4600.3 0,-112.2 0,-224.4 0,-336.61 -5105.21,-56.1 -10266.52,-56.1 -15427.83,-56.1zm15427.83 -2805.06c0,-392.71 0,-729.31 0,-1122.02 0,-448.81 -280.51,-729.32 -729.32,-729.32 -1795.23,0 -3590.47,0 -5385.71,0 -2468.45,0 -4936.91,0 -7405.36,0 -448.81,0 -841.52,0 -1290.33,0 -392.71,0 -673.21,280.51 -673.21,673.22 0,224.4 0,392.71 0,617.11 0,168.3 0,392.71 0,561.01 5217.41,0 10322.62,0 15483.93,0zm0 561.02c-5161.31,0 -10266.52,0 -15427.83,0 0,561.01 0,1065.92 0,1626.93 5161.31,0 10266.52,0 15427.83,0 0,-504.91 0,-1065.92 0,-1626.93z"/>
   <path class="fil0" d="M16306.09 8991.49c-336.6,112.2 -673.21,168.3 -1009.82,224.41 -841.52,224.4 -1683.04,448.81 -2524.55,617.11 -673.22,168.3 -1346.43,336.61 -2019.65,504.91 -56.1,0 -112.2,56.1 -168.3,56.1 -168.3,0 -280.51,-56.1 -336.61,-224.4 -56.1,-168.31 56.1,-280.51 224.41,-336.61 280.5,-56.1 617.11,-168.3 897.62,-224.41 1402.53,-336.6 2861.16,-729.31 4263.69,-1065.92 168.3,-56.1 336.61,-112.2 561.01,-112.2 -56.1,-112.2 -56.1,-224.41 -112.2,-336.61 -112.2,-280.5 -168.31,-561.01 -224.41,-841.52 -112.2,-392.7 -448.81,-561.01 -841.52,-504.91 -1065.92,280.51 -2187.94,561.02 -3253.87,841.52 -897.61,224.41 -1795.23,448.81 -2748.95,673.22 -1683.04,392.7 -3309.98,841.51 -4993.01,1234.22 -841.52,224.41 -1683.04,448.81 -2524.56,617.12 -504.91,112.2 -673.21,448.81 -561.01,897.61 56.1,224.41 112.2,448.81 168.31,673.22 56.1,112.2 56.1,280.51 112.2,392.71 448.81,-112.2 897.62,-224.41 1346.43,-336.61 224.4,-56.1 448.81,-112.2 617.11,-168.3 168.3,-56.1 336.61,56.1 392.71,224.4 56.1,168.31 -56.1,336.61 -224.41,336.61 -617.11,168.3 -1234.22,336.61 -1851.34,448.81 -56.1,0 -56.1,0 -112.2,56.1 112.2,504.91 280.51,1065.92 392.71,1570.83 224.4,-56.1 392.71,-112.2 617.11,-168.3 224.41,-56.1 448.81,-112.2 673.22,-168.3 168.3,-56.1 336.6,56.1 392.71,224.4 56.1,168.3 -56.11,336.61 -224.41,336.61 -392.71,112.2 -785.42,224.4 -1178.12,280.5 0,0 -56.11,0 -56.11,0 112.21,392.71 168.31,729.32 280.51,1122.03 336.61,1234.23 617.11,2468.45 953.72,3702.68 56.1,280.5 224.41,448.81 448.81,504.91 168.3,56.1 280.51,224.4 224.41,392.71 -56.11,168.3 -224.41,224.4 -392.71,168.3 -448.81,-168.3 -729.32,-448.81 -841.52,-897.62 -336.61,-1234.22 -617.11,-2524.55 -953.72,-3758.78 -392.71,-1626.93 -841.52,-3253.87 -1234.23,-4880.8 -168.3,-729.32 224.41,-1402.53 953.72,-1570.84 1739.14,-448.81 3534.38,-897.62 5273.52,-1346.43 1290.32,-336.6 2580.65,-673.21 3870.98,-953.72 1514.73,-392.71 3029.46,-785.41 4488.1,-1122.02 617.11,-168.31 1290.32,224.4 1458.63,841.52 112.2,392.71 224.4,841.51 336.6,1234.22 168.31,561.02 280.51,1122.03 448.81,1683.04 56.11,168.3 0,336.61 -168.3,392.71 -168.3,56.1 -336.61,-56.1 -392.71,-224.41 -280.5,-224.4 -392.71,-617.11 -448.81,-1009.82z"/>
   <path class="fil0" d="M18662.34 19706.82c0,673.22 -561.01,1290.33 -1290.32,1290.33 -673.22,0 -1234.23,-561.01 -1290.33,-1234.23 0,-729.31 561.01,-1290.32 1290.33,-1290.32 729.31,-56.11 1290.32,504.91 1290.32,1234.22zm-561.01 0c0,-392.71 -280.5,-673.21 -673.21,-673.21 -392.71,0 -673.22,280.5 -673.22,673.21 0,336.61 280.51,673.22 673.22,673.22 336.6,0 617.11,-280.51 673.21,-673.22z"/>
   <g>
    <path class="fil0" d="M13557.13 17687.18c56.1,0 168.31,0 224.41,0 112.2,0 112.2,56.1 168.3,112.2 112.2,561.01 224.41,1065.92 336.61,1626.94 56.1,280.5 112.2,504.91 168.3,785.41 0,112.21 0,168.31 -112.2,168.31 -168.3,0 -280.51,0 -448.81,0 -56.1,0 -112.2,-56.1 -112.2,-112.21 0,0 0,0 0,0 0,-112.2 0,-224.4 -56.1,-280.5 -56.1,-56.1 -168.31,0 -280.51,0 -168.3,0 -392.71,0 -561.01,0 -56.1,0 -112.2,0 -112.2,56.1 0,56.1 -56.1,168.3 -112.21,224.4 0,56.11 -56.1,112.21 -112.2,112.21 -168.3,0 -336.61,0 -504.91,0 -112.2,0 -168.3,-56.1 -112.2,-168.31 224.4,-448.81 392.71,-953.72 617.11,-1402.53 112.2,-280.5 224.41,-561.01 336.61,-841.52 112.2,-224.4 224.4,-280.5 448.81,-280.5 56.1,0 168.3,0 224.4,0zm0 1739.14c-56.1,-336.61 -168.3,-617.12 -224.4,-953.72 0,0 0,0 0,0 -112.2,336.6 -224.41,617.11 -392.71,953.72 224.4,0 448.81,0 617.11,0z"/>
    <path class="fil0" d="M10639.87 20380.04c-224.4,-56.1 -448.81,-56.1 -729.32,-112.21 -56.1,0 -112.2,-56.1 -112.2,-112.2 0,-112.2 56.1,-224.4 56.1,-392.71 0,-112.2 56.1,-112.2 168.31,-56.1 224.4,112.2 448.81,112.2 673.21,112.2 56.1,0 168.31,-56.1 224.41,-56.1 168.3,-56.1 168.3,-224.4 56.1,-336.6 -56.1,-56.11 -168.31,-112.21 -224.41,-112.21 -112.2,-56.1 -280.5,-168.3 -392.71,-224.4 -392.7,-280.51 -280.5,-729.32 0,-1009.82 336.61,-280.51 729.32,-336.61 1122.03,-336.61 112.2,0 224.4,56.1 336.61,56.1 56.1,0 112.2,56.1 112.2,168.3 0,112.21 -56.1,168.31 -56.1,280.51 0,112.2 -56.1,168.3 -168.31,112.2 -168.3,-56.1 -392.7,-112.2 -561.01,-56.1 -56.1,0 -168.3,56.1 -224.4,112.2 -112.21,56.11 -112.21,168.31 0,224.41 56.1,56.1 168.3,112.2 224.4,168.3 168.31,112.21 280.51,168.31 448.81,280.51 392.71,280.5 280.51,841.52 56.1,1065.92 -224.4,224.41 -448.81,280.51 -729.31,336.61 -112.21,-112.2 -224.41,-112.2 -280.51,-112.2 0,0 0,0 0,0z"/>
    <path class="fil0" d="M7273.8 19482.42c0,-56.1 56.1,-56.1 56.1,-112.21 224.4,-504.91 392.71,-1065.92 617.11,-1570.83 56.1,-112.2 112.2,-112.2 168.31,-112.2 168.3,0 280.5,0 448.81,0 168.3,0 168.3,56.1 112.2,168.3 -280.51,729.32 -617.12,1458.63 -953.72,2131.85 -56.1,112.2 -56.1,168.3 -112.2,280.5 0,56.11 -56.11,112.21 -112.21,112.21 -168.3,0 -392.71,0 -561.01,0 -56.1,0 -112.2,-56.1 -112.2,-112.21 -168.31,-617.11 -392.71,-1234.22 -561.01,-1907.44 0,-56.1 0,-112.2 56.1,-112.2 0,0 112.2,0 112.2,0 336.61,280.51 617.11,561.01 785.42,953.72 0,112.2 0,168.3 56.1,280.51z"/>
    <path class="fil0" d="M8956.83 20380.04c-56.1,0 -168.3,0 -224.4,0 -112.2,0 -168.3,0 -112.2,-168.31 112.2,-617.11 224.4,-1234.22 280.5,-1795.24 56.1,-224.4 56.1,-392.7 112.21,-617.11 0,-112.2 56.1,-112.2 168.3,-112.2 168.3,0 336.61,0 448.81,0 112.2,0 168.3,56.1 112.2,168.3 -112.2,785.42 -280.5,1626.94 -392.71,2412.35 0,112.21 -56.1,112.21 -168.3,112.21 -56.1,0 -112.2,0 -224.41,0z"/>
    <path class="fil0" d="M6207.88 17687.18c112.2,0 224.4,0 392.7,0 168.31,0 280.51,56.1 280.51,224.4 56.1,168.31 112.2,392.71 112.2,617.12 0,56.1 0,112.2 -56.1,112.2 0,0 -112.2,0 -112.2,-56.1 -280.51,-336.61 -617.11,-561.01 -1065.92,-729.32 -56.11,0 -112.21,-56.1 -112.21,-112.2 0,-56.1 112.21,-56.1 112.21,-56.1 224.4,0 336.6,0 448.81,0 0,0 0,0 0,0z"/>
   </g>
  </g>
 </g>
</svg>
